<?xml version="1.0" encoding="UTF-8"?>
<svg id="Layer_2" data-name="Layer 2" xmlns="http://www.w3.org/2000/svg" xmlns:xlink="http://www.w3.org/1999/xlink" viewBox="0 0 583.13 134.36">
  <defs>
    <style>
      .cls-1 {
        fill: url(#linear-gradient-2);
      }

      .cls-2 {
        fill: url(#linear-gradient-4);
      }

      .cls-3 {
        fill: url(#linear-gradient-3);
      }

      .cls-4 {
        fill: url(#linear-gradient-5);
      }

      .cls-5 {
        fill: url(#linear-gradient-7);
      }

      .cls-6 {
        fill: url(#linear-gradient-6);
      }

      .cls-7 {
        fill: url(#linear-gradient);
      }
    </style>
    <linearGradient id="linear-gradient" x1="266.85" y1="24.73" x2="266.85" y2="126.8" gradientUnits="userSpaceOnUse">
      <stop offset="0" stop-color="#a6dd76"/>
      <stop offset="1" stop-color="#8ebd64"/>
    </linearGradient>
    <linearGradient id="linear-gradient-2" x1="530.39" y1="83.7" x2="530.39" y2="121.59" xlink:href="#linear-gradient"/>
    <linearGradient id="linear-gradient-3" x1="372.79" y1="24.67" x2="372.79" y2="41.43" xlink:href="#linear-gradient"/>
    <linearGradient id="linear-gradient-4" x1="280.78" y1="0" x2="280.78" y2="24.82" xlink:href="#linear-gradient"/>
    <linearGradient id="linear-gradient-5" x1="263.23" y1="71.36" x2="263.23" y2="87.35" xlink:href="#linear-gradient"/>
    <linearGradient id="linear-gradient-6" x1="431.98" y1="82.14" x2="431.98" y2="125.25" xlink:href="#linear-gradient"/>
    <linearGradient id="linear-gradient-7" x1="259.02" y1="115.66" x2="259.02" y2="134.36" xlink:href="#linear-gradient"/>
  </defs>
  <g id="Assets">
    <g id="Chlorella">
      <path class="cls-7" d="M531.82,46.31c-2.26-1.78-6.06-2.51-9.61-3.14-22.75-4.03-46.76-8.09-69.8-4.73-27.68,4.03-51.78,18.48-80,16.19-28.62-2.32-48.83-21.34-77.69-21.69-10.68-.13-20.98,2.42-31.63,2.96-17.61.91-34.55-3.64-51.56-6.55-40.99-7.01-84.52-4.6-126.9-2.13-7.08.41-14.5.9-20.36,3.35-5.85,2.46-9.34,7.58-5.58,11.25,2.72,2.66,8.12,3.71,13.07,4.57,18.54,3.21,37.28,6.43,56.2,8.64-.1.06-.21.11-.3.18-4.04,2.72-.66,7.37,4.62,9.14,5.28,1.77,11.62,1.74,17.53,2.48,5.91.74,12.27,2.83,13.31,6.44-12.74,6.78-31.45,6.63-48.37,6.79-17.19.16-34.36,1.02-51.36,2.58-10.29.94-23.31,4.28-22.02,10.56.69,3.53,8.5,4.13,14.33,4.48s13.04,3.73,9.44,6.53c-1.48,1.15-4.13,1.4-6.51,1.57-11.61.8-23.21,1.61-34.82,2.41-5.73.4-11.66.84-16.58,2.67-4.91,1.83-8.5,5.49-6.84,8.85,2.35,4.77,12.48,5.83,20.65,6,52.63,1.13,105.32,1.38,157.97.76,2.57-.03,5.24-.08,7.52-.79,3.66-1.15,5.41-3.69,8.25-5.5,13.07-8.34,42.85.96,52.24-9.04,6.18-6.59-3.94-14.19-12.49-19.72-8.55-5.52-15.96-14.98-6.37-19.82,5.2-2.63,14.29-2.92,16.12-6.88,1.31-2.84-2.25-5.37-6.47-7.14,5.7.71,11.22,1.83,16.47,3.56l7.02,2.38c13.13-5.16,33.74,1.57,33.91,11.08.06,3.25-1.82,6.52-.76,9.71,1.69,5.05,9.88,8.07,16.43,11.33,6.55,3.27,12.3,8.97,7.66,13.28,19.44,2.93,40.02,2.99,59.5.19,3.53-.51,7.21-1.17,9.72-2.77,6.11-3.89,1.84-10.23,2.42-15.6.77-7.08,10.76-12.72,21.69-15.19,10.93-2.48,22.86-2.52,34.48-3.13,25.18-1.34,49.94-5.54,72.63-12.31,8.96-2.68,18.92-8.97,12.81-13.78Z"/>
      <path class="cls-1" d="M578.95,87.01c-3.38-1.39-7.64-1.64-11.7-1.85l-23.24-1.2c-6.9-.36-14.28-.65-20.31,1.42-3.89,1.34-6.65,4.07-6.87,6.68-6.07.19-12.13.48-18.17.88-5.32.36-11.81,1.43-12.88,4.62-1.27,3.79,6.3,6.31,12.55,6.98s13.97,1.44,16.01,5.1c-14.39-1.19-26.88.34-36.7,5.72,10.57,4.07,22.56-.13,37.26,2.52,24.28,4.37,42.17,4.92,59.57,1.43,1.27-.26,2.67.06,3.87-.27,3.54-.98,3.02-4.38.19-6.01-2.83-1.62-6.88-2.12-10.43-3.08-3.55-.96-7.08-2.92-6.56-5.27.3-1.37,1.93-2.48,3.57-3.44,3.51-2.05,7.46-3.81,11.71-5.25,2.03-.68,4.23-1.35,5.44-2.56,2.12-2.12.07-5.04-3.31-6.43Z"/>
      <path class="cls-3" d="M365,24.81c-5.37,1.21-10.2,3.54-16.28,3.13-1.79-.12-3.61.38-4.69,1.54-2.78,3,2.77,6.14,7.13,6.94,16.77,3.08,33.94,4.76,51.13,5-10.62-5.46-23.07-8.56-35.64-8.87l2.45-1.96c3.1-2.49.1-6.73-4.1-5.78Z"/>
      <path class="cls-2" d="M278.69,1.16c-.15,1.04-.3,2.08-.45,3.12,2.03.5,4.06,1,6.08,1.5,1.33.33,2.89.85,3.16,1.95.41,1.7-2.39,2.58-4.52,2.72-9.45.63-19.01.21-28.31-1.24-1.98-.31-4-.67-5.99-.38s-3.95,1.38-4.32,2.98c-.58,2.48,2.88,4.49,6,4.51s6.02-1.19,9.07-1.72c3.29-.57,6.8-.32,9.92.71,2.74.9,5.13,2.36,7.69,3.55,7.57,3.54,16.42,4.73,25.08,5.69,4.89.54,10.99.58,13.43-2.89,1.42-2.02.85-4.82-1.31-6.36-1.51-1.08-3.55-1.51-5.25-2.38-1.7-.87-3.1-2.61-2.24-4.08,1.62-2.75,7.29-.35,10.47-1.99.77-2.63-1.96-5.24-5.12-6.11-1.89-.52-33.08-1.58-33.37.41Z"/>
      <path class="cls-4" d="M249.33,71.38c-1.32.02-2.68.04-3.92.53s-2.34,1.53-2.5,2.84c4.45.81,8.91,1.62,13.36,2.44.34.06.69.13.93.38.69.7-.23,1.81-1.11,2.26-1.35.69-2.81,1.15-4.31,1.36-.65.09-1.38.17-1.81.67-.31.36-.39.86-.33,1.33.27,2.42,3.29,3.3,5.71,3.54,8.01.8,16.1.84,24.11.13.92-.08,1.9-.2,2.64-.77s1.05-1.77.4-2.43c-1.51-.51-3.38-1.77-2.73-3.23.42-.95,1.67-1.16,2.44-1.85,6.15-5.55-11.22-5.64-12.86-5.88-6.83-1.03-13.07-1.4-20.04-1.3Z"/>
      <path class="cls-6" d="M430.36,83.76c-4.95.24-10.18.57-14.32,3.3-4.14,2.73-6.55,8.75-3.69,12.81,1.05,1.5,2.71,2.62,3.24,4.37.6,1.99-.53,4.18-2.18,5.44s-3.74,1.8-5.75,2.31c-7.56,1.9-15.12,3.81-22.68,5.71-.46,2.07.9,4.21,2.71,5.31s4,1.38,6.12,1.59c12.13,1.19,24.42.75,36.43-1.31,3.17-.54,6.92-1.74,7.69-4.87.66-2.73-1.03-6.5,1.4-7.9.72-.42,1.6-.42,2.43-.41,5.86.06,11.72.11,17.58.17,3.15.03,6.64-.07,8.92-2.24,3.21-3.05,2.29-8.4,4.1-12.45,2.01-4.5,7.51-7.9,6.65-12.75-15.8-1.71-32.8.13-48.64.91Z"/>
      <path class="cls-5" d="M228.77,125.77c-2.2-.35-4.57-.66-6.58.31s-3.3,3.74-1.95,5.52c.95,1.26,2.71,1.51,4.29,1.66,6.53.61,13.3,1.19,19.47-1.03,4.71-1.7,8.91-4.99,13.88-5.55,5.85-.66,11.32,2.58,16.82,4.68,4.87,1.86,10.06,2.88,15.27,3,2.61.06,5.55-.26,7.22-2.27,2-2.42,1.18-6.15-.57-8.75-2.83-4.22-7.7-6.84-12.74-7.49s-10.2.54-14.76,2.76c-1.21.59-2.61,1.27-3.84.73-.69-.3-1.17-.92-1.74-1.4-1.83-1.54-4.45-1.59-6.84-1.56-2.42.03-4.99.1-7.01,1.43-1.92,1.27-3,3.45-4.57,5.12-4.11,4.36-10.94,3.73-16.35,2.86Z"/>
    </g>
  </g>
</svg>