<?xml version="1.0" encoding="UTF-8"?>
<svg id="Layer_2" data-name="Layer 2" xmlns="http://www.w3.org/2000/svg" viewBox="0 0 351.91 65.12">
  <defs>
    <style>
      .cls-1 {
        fill: #a6dd76;
      }
    </style>
  </defs>
  <g id="Assets">
    <g id="Cyanobacteria">
      <g>
        <path class="cls-1" d="M136.78,42.8h4.13c.66,0,1.29-.58,1.26-1.26s-.55-1.26-1.26-1.26h-4.13c-.66,0-1.29.58-1.26,1.26s.55,1.26,1.26,1.26h0Z"/>
        <path class="cls-1" d="M145.77,46.76l-.69.49c-.15.08-.26.19-.35.32-.11.12-.19.26-.23.43-.05.17-.06.33-.02.5,0,.17.06.32.15.47l.2.25c.16.16.34.26.56.32l.33.05c.23,0,.44-.06.64-.17l.69-.49c.15-.08.26-.19.35-.32.11-.12.19-.26.23-.43.05-.17.06-.33.02-.5,0-.17-.06-.32-.15-.47l-.2-.25c-.16-.16-.34-.26-.56-.32l-.33-.05c-.23,0-.44.06-.64.17h0Z"/>
        <path class="cls-1" d="M140.22,39.31h-2.06c-.32,0-.66.14-.89.37s-.38.58-.37.89.12.66.37.89.55.37.89.37h2.06c.32,0,.66-.14.89-.37s.38-.58.37-.89-.12-.66-.37-.89-.55-.37-.89-.37h0Z"/>
        <path class="cls-1" d="M144.46,43.48v.49c0,.17.03.34.11.49.05.16.14.29.26.41.11.12.25.21.41.26.15.08.31.12.49.11l.33-.05c.21-.06.4-.17.56-.32l.2-.25c.11-.2.17-.41.17-.64v-.49c0-.17-.03-.34-.11-.49-.05-.16-.14-.29-.26-.41-.11-.12-.25-.21-.41-.26-.15-.08-.31-.12-.49-.11l-.33.05c-.21.06-.4.17-.56.32l-.2.25c-.11.2-.17.41-.17.64h0Z"/>
        <path class="cls-1" d="M135.42,47.52c1.14.49,2.28.98,3.42,1.48.32.14.62.22.97.13.29-.08.61-.31.75-.58.15-.29.23-.65.13-.97-.09-.29-.29-.63-.58-.75-1.14-.49-2.28-.98-3.42-1.48-.32-.14-.62-.22-.97-.13-.29.08-.61.31-.75.58-.15.29-.23.65-.13.97.09.29.29.63.58.75h0Z"/>
        <path class="cls-1" d="M129.21,43.28h2.06c.32,0,.66-.14.89-.37s.38-.58.37-.89-.12-.66-.37-.89-.55-.37-.89-.37h-2.06c-.32,0-.66.14-.89.37s-.38.58-.37.89.12.66.37.89.55.37.89.37h0Z"/>
        <path class="cls-1" d="M149.85,44.74h3.44c.66,0,1.29-.58,1.26-1.26s-.55-1.26-1.26-1.26h-3.44c-.66,0-1.29.58-1.26,1.26s.55,1.26,1.26,1.26h0Z"/>
        <path class="cls-1" d="M165.32,48.58c2.06-.46,4.1-1.28,5.8-2.55.27-.2.49-.41.58-.75.08-.3.05-.7-.13-.97-.34-.52-1.16-.87-1.72-.45-.77.58-1.61,1.06-2.49,1.45-.06.03-.11.05-.17.08.16-.07.17-.07.04-.02-.12.05-.23.09-.35.14-.24.09-.48.17-.72.25-.5.16-1,.29-1.51.41-.64.14-1.08.93-.88,1.55.22.68.86,1.03,1.55.88h0Z"/>
        <path class="cls-1" d="M156.42,46.68l-1.37.49c-.16.04-.31.11-.43.23-.14.09-.25.21-.32.35-.09.14-.14.3-.15.47-.04.17-.03.33.02.5.1.3.29.6.58.75s.65.24.97.13l1.37-.49c.16-.04.31-.11.43-.23.14-.09.25-.21.32-.35.09-.14.14-.3.15-.47.04-.17.03-.33-.02-.5-.1-.3-.29-.6-.58-.75s-.65-.24-.97-.13h0Z"/>
        <path class="cls-1" d="M142.28,48.04h-2.06c-.32,0-.66.14-.89.37s-.38.58-.37.89.12.66.37.89.55.37.89.37h2.06c.32,0,.66-.14.89-.37s.38-.58.37-.89-.12-.66-.37-.89-.55-.37-.89-.37h0Z"/>
        <path class="cls-1" d="M131.27,43.69c-.1,0-.2,0-.3,0-.19.02-.4.04-.58.1s-.36.13-.53.21c-.08.04-.16.08-.23.13-.29.22-.56.44-.73.77-.08.15-.16.31-.19.48-.07.35-.06.5,0,.85.04.16.11.31.23.43.09.14.21.25.35.32.14.09.3.14.47.15.17.04.33.03.5-.02.3-.1.6-.29.75-.58l.13-.3c.06-.22.06-.45,0-.67,0-.01,0-.02,0-.03l.05.33s0-.09,0-.14l-.05.33c0-.05.02-.1.04-.15l-.13.3c.02-.06.06-.11.09-.16l-.2.25c.06-.07.12-.13.19-.19l-.25.2c.09-.07.2-.13.3-.18l-.3.13c.13-.05.26-.09.4-.11l-.33.05c.11-.01.22-.02.33,0,.17,0,.34-.03.49-.11.16-.05.29-.14.41-.26.12-.11.21-.25.26-.41.08-.15.12-.31.11-.49l-.05-.33c-.06-.21-.17-.4-.32-.56l-.25-.2c-.2-.11-.41-.17-.64-.17h0Z"/>
        <path class="cls-1" d="M151.91,40.28h-2.75c-.32,0-.66.14-.89.37s-.38.58-.37.89.12.66.37.89.55.37.89.37h2.75c.32,0,.66-.14.89-.37s.38-.58.37-.89-.12-.66-.37-.89-.55-.37-.89-.37h0Z"/>
        <path class="cls-1" d="M144.34,40.76h-2.06c-.32,0-.66.14-.89.37s-.38.58-.37.89.12.66.37.89.55.37.89.37h2.06c.32,0,.66-.14.89-.37s.38-.58.37-.89-.12-.66-.37-.89-.55-.37-.89-.37h0Z"/>
        <path class="cls-1" d="M129.9,40.37h2.06c.32,0,.66-.14.89-.37s.38-.58.37-.89-.12-.66-.37-.89-.55-.37-.89-.37h-2.06c-.32,0-.66.14-.89.37s-.38.58-.37.89.12.66.37.89.55.37.89.37h0Z"/>
        <path class="cls-1" d="M151.91,40.37h.69c.17,0,.34-.03.49-.11.16-.05.29-.14.41-.26.12-.11.21-.25.26-.41.08-.15.12-.31.11-.49l-.05-.33c-.06-.21-.17-.4-.32-.56l-.25-.2c-.2-.11-.41-.17-.64-.17h-.69c-.17,0-.34.03-.49.11-.16.05-.29.14-.41.26-.12.11-.21.25-.26.41-.08.15-.12.31-.11.49l.05.33c.06.21.17.4.32.56l.25.2c.2.11.41.17.64.17h0Z"/>
        <path class="cls-1" d="M170.48,45.22h1.38c.17,0,.34-.03.49-.11.16-.05.29-.14.41-.26.12-.11.21-.25.26-.41.08-.15.12-.31.11-.49l-.05-.33c-.06-.21-.17-.4-.32-.56-.25-.23-.55-.37-.89-.37h-1.38c-.17,0-.34.03-.49.11-.16.05-.29.14-.41.26-.12.11-.21.25-.26.41-.08.15-.12.31-.11.49l.05.33c.06.21.17.4.32.56.25.23.55.37.89.37h0Z"/>
        <path class="cls-1" d="M162.9,39.36l-4.12-.5c-.3-.04-.69.17-.89.37-.22.22-.38.58-.37.89s.12.66.37.89c.26.24.54.33.89.37l4.12.5c.3.04.69-.17.89-.37.22-.22.38-.58.37-.89s-.12-.66-.37-.89c-.26-.24-.54-.33-.89-.37h0Z"/>
        <path class="cls-1" d="M143.66,36.88h-4.13c-.66,0-1.29.58-1.26,1.26s.55,1.26,1.26,1.26h4.13c.66,0,1.29-.58,1.26-1.26s-.55-1.26-1.26-1.26h0Z"/>
        <path class="cls-1" d="M136.45,39.09l1.41,1.44c.11.12.25.21.41.26.15.08.31.12.49.11.17,0,.34-.03.49-.11.16-.05.29-.14.41-.26.22-.24.38-.56.37-.89s-.13-.65-.37-.89l-1.41-1.44c-.11-.12-.25-.21-.41-.26-.15-.08-.31-.12-.49-.11-.17,0-.34.03-.49.11-.16.05-.29.14-.41.26-.22.24-.38.56-.37.89s.13.65.37.89h0Z"/>
        <path class="cls-1" d="M153.64,49.53c.77.12,1.52.15,2.29.04s1.44-.3,2.13-.62c.27-.13.5-.48.58-.75.08-.3.05-.7-.13-.97s-.43-.51-.75-.58c-.35-.08-.65-.02-.97.13-.05.02-.1.05-.15.07l.3-.13c-.48.2-.99.33-1.51.4l.33-.05c-.56.07-1.12.07-1.67,0l.33.05s-.08-.01-.12-.02c-.35-.05-.66-.06-.97.13-.26.15-.51.45-.58.75-.07.32-.06.68.13.97.17.26.44.53.75.58h0Z"/>
        <path class="cls-1" d="M152.27,40.33c-1.67.45-3.35,1.44-4.19,3-.31.58-.16,1.4.45,1.72s1.39.17,1.72-.45c.09-.17.2-.34.32-.5l-.2.25c.24-.31.52-.58.82-.82l-.25.2c.42-.33.89-.59,1.38-.8l-.3.13c.3-.12.6-.23.91-.31.64-.17,1.09-.91.88-1.55s-.87-1.06-1.55-.88h0Z"/>
        <path class="cls-1" d="M149.85,37.37h-.69c-.17,0-.34.03-.49.11-.16.05-.29.14-.41.26-.12.11-.21.25-.26.41-.08.15-.12.31-.11.49l.05.33c.06.21.17.4.32.56l.25.2c.2.11.41.17.64.17h.69c.17,0,.34-.03.49-.11.16-.05.29-.14.41-.26.12-.11.21-.25.26-.41.08-.15.12-.31.11-.49l-.05-.33c-.06-.21-.17-.4-.32-.56l-.25-.2c-.2-.11-.41-.17-.64-.17h0Z"/>
        <path class="cls-1" d="M142.97,37.37h-2.06c-.32,0-.66.14-.89.37s-.38.58-.37.89.12.66.37.89.55.37.89.37h2.06c.32,0,.66-.14.89-.37s.38-.58.37-.89-.12-.66-.37-.89-.55-.37-.89-.37h0Z"/>
        <path class="cls-1" d="M133,38.38l-1.38.49c-.16.04-.31.11-.43.23-.14.09-.25.21-.32.35-.09.14-.14.3-.15.47-.04.17-.03.33.02.5.1.3.29.6.58.75s.65.24.97.13l1.38-.49c.16-.04.31-.11.43-.23.14-.09.25-.21.32-.35.09-.14.14-.3.15-.47.04-.17.03-.33-.02-.5-.1-.3-.29-.6-.58-.75s-.65-.24-.97-.13h0Z"/>
        <path class="cls-1" d="M127.83,50.56h1.38c.17,0,.34-.03.49-.11.16-.05.29-.14.41-.26.12-.11.21-.25.26-.41.08-.15.12-.31.11-.49l-.05-.33c-.06-.21-.17-.4-.32-.56-.25-.23-.55-.37-.89-.37h-1.38c-.17,0-.34.03-.49.11-.16.05-.29.14-.41.26-.12.11-.21.25-.26.41-.08.15-.12.31-.11.49l.05.33c.06.21.17.4.32.56.25.23.55.37.89.37h0Z"/>
        <path class="cls-1" d="M149.85,51.05h1.38c.17,0,.34-.03.49-.11.16-.05.29-.14.41-.26.12-.11.21-.25.26-.41.08-.15.12-.31.11-.49l-.05-.33c-.06-.21-.17-.4-.32-.56-.25-.23-.55-.37-.89-.37h-1.38c-.17,0-.34.03-.49.11-.16.05-.29.14-.41.26-.12.11-.21.25-.26.41-.08.15-.12.31-.11.49l.05.33c.06.21.17.4.32.56.25.23.55.37.89.37h0Z"/>
        <path class="cls-1" d="M159.14,49.13l3.43-.5c.29-.04.61-.34.75-.58.16-.27.22-.67.13-.97s-.29-.6-.58-.75l-.3-.13c-.22-.06-.45-.06-.67,0l-3.43.5c-.29.04-.61.34-.75.58-.16.27-.22.67-.13.97s.29.6.58.75l.3.13c.22.06.45.06.67,0h0Z"/>
        <path class="cls-1" d="M155.35,46.1h-2.75c-.32,0-.66.14-.89.37s-.38.58-.37.89.12.66.37.89.55.37.89.37h2.75c.32,0,.66-.14.89-.37s.38-.58.37-.89-.12-.66-.37-.89-.55-.37-.89-.37h0Z"/>
        <path class="cls-1" d="M147.06,48.43c2.76-.28,5.52-.55,8.28-.83.65-.07,1.29-.53,1.26-1.26-.03-.63-.56-1.33-1.26-1.26-2.76.28-5.52.55-8.28.83-.65.07-1.29.53-1.26,1.26.03.63.56,1.33,1.26,1.26h0Z"/>
        <path class="cls-1" d="M173.87,41.91l-.69-.49c-.14-.09-.3-.14-.47-.15-.17-.04-.33-.03-.5.02-.16.04-.31.11-.43.23-.14.09-.25.21-.32.35l-.13.3c-.06.22-.06.45,0,.67l.13.3c.11.19.26.34.45.45l.69.49c.14.09.3.14.47.15.17.04.33.03.5-.02.16-.04.31-.11.43-.23.14-.09.25-.21.32-.35l.13-.3c.06-.22.06-.45,0-.67l-.13-.3c-.11-.19-.26-.34-.45-.45h0Z"/>
        <path class="cls-1" d="M169.74,40.93l-.69-.49c-.14-.09-.3-.14-.47-.15-.17-.04-.33-.03-.5.02-.16.04-.31.11-.43.23-.14.09-.25.21-.32.35l-.13.3c-.06.22-.06.45,0,.67l.13.3c.11.19.26.34.45.45l.69.49c.14.09.3.14.47.15.17.04.33.03.5-.02.16-.04.31-.11.43-.23.14-.09.25-.21.32-.35l.13-.3c.06-.22.06-.45,0-.67l-.13-.3c-.11-.19-.26-.34-.45-.45h0Z"/>
        <path class="cls-1" d="M161.59,37.77l.69.49c.14.09.3.14.47.15.17.04.33.03.5-.02.16-.04.31-.11.43-.23.14-.09.25-.21.32-.35l.13-.3c.06-.22.06-.45,0-.67l-.13-.3c-.11-.19-.26-.34-.45-.45l-.69-.49c-.14-.09-.3-.14-.47-.15-.17-.04-.33-.03-.5.02-.16.04-.31.11-.43.23-.14.09-.25.21-.32.35l-.13.3c-.06.22-.06.45,0,.67l.13.3c.11.19.26.34.45.45h0Z"/>
        <path class="cls-1" d="M144.34,34.45h-1.38c-.17,0-.34.03-.49.11-.16.05-.29.14-.41.26-.12.11-.21.25-.26.41-.08.15-.12.31-.11.49l.05.33c.06.21.17.4.32.56.25.23.55.37.89.37h1.38c.17,0,.34-.03.49-.11.16-.05.29-.14.41-.26.12-.11.21-.25.26-.41.08-.15.12-.31.11-.49l-.05-.33c-.06-.21-.17-.4-.32-.56-.25-.23-.55-.37-.89-.37h0Z"/>
        <path class="cls-1" d="M131.27,37.94h2.06c.32,0,.66-.14.89-.37s.38-.58.37-.89-.12-.66-.37-.89-.55-.37-.89-.37h-2.06c-.32,0-.66.14-.89.37s-.38.58-.37.89.12.66.37.89.55.37.89.37h0Z"/>
        <path class="cls-1" d="M152.6,35.42h-1.38c-.17,0-.34.03-.49.11-.16.05-.29.14-.41.26-.12.11-.21.25-.26.41-.08.15-.12.31-.11.49l.05.33c.06.21.17.4.32.56.25.23.55.37.89.37h1.38c.17,0,.34-.03.49-.11.16-.05.29-.14.41-.26.12-.11.21-.25.26-.41.08-.15.12-.31.11-.49l-.05-.33c-.06-.21-.17-.4-.32-.56-.25-.23-.55-.37-.89-.37h0Z"/>
        <path class="cls-1" d="M133.34,35.42h-.69c-.17,0-.34.03-.49.11-.16.05-.29.14-.41.26-.12.11-.21.25-.26.41-.08.15-.12.31-.11.49l.05.33c.06.21.17.4.32.56l.25.2c.2.11.41.17.64.17h.69c.17,0,.34-.03.49-.11.16-.05.29-.14.41-.26.12-.11.21-.25.26-.41.08-.15.12-.31.11-.49l-.05-.33c-.06-.21-.17-.4-.32-.56l-.25-.2c-.2-.11-.41-.17-.64-.17h0Z"/>
        <path class="cls-1" d="M139.48,45.05l4.13-2.91c.27-.19.49-.42.58-.75.08-.3.05-.7-.13-.97-.34-.53-1.15-.86-1.72-.45l-4.13,2.91c-.27.19-.49.42-.58.75-.08.3-.05.7.13.97.34.53,1.15.86,1.72.45h0Z"/>
        <path class="cls-1" d="M129.9,35.91h-2.06c-.32,0-.66.14-.89.37s-.38.58-.37.89.12.66.37.89.55.37.89.37h2.06c.32,0,.66-.14.89-.37s.38-.58.37-.89-.12-.66-.37-.89-.55-.37-.89-.37h0Z"/>
        <path class="cls-1" d="M133.34,46.19h5.5c.66,0,1.29-.58,1.26-1.26s-.55-1.26-1.26-1.26h-5.5c-.66,0-1.29.58-1.26,1.26s.55,1.26,1.26,1.26h0Z"/>
        <path class="cls-1" d="M152.6,48.14h2.75c.32,0,.66-.14.89-.37s.38-.58.37-.89-.12-.66-.37-.89-.55-.37-.89-.37h-2.75c-.32,0-.66.14-.89.37s-.38.58-.37.89.12.66.37.89.55.37.89.37h0Z"/>
        <path class="cls-1" d="M172.43,42.02v-1.94c0-.32-.14-.66-.37-.89s-.58-.38-.89-.37-.66.12-.89.37-.37.55-.37.89v1.94c0,.32.14.66.37.89s.58.38.89.37.66-.12.89-.37.37-.55.37-.89h0Z"/>
        <path class="cls-1" d="M173.52,36.06c-2.63-.65-5.53-.39-7.94.86-.59.31-.81,1.17-.45,1.72.38.6,1.1.78,1.72.45.13-.07.25-.13.38-.19.13-.06.13-.06,0,0,.07-.03.13-.05.2-.08.24-.09.49-.17.74-.24.29-.08.59-.15.88-.21.11-.02.23-.04.34-.06.15-.02.15-.02,0,0,.08,0,.15-.02.23-.03.58-.06,1.16-.07,1.74-.03.12,0,.23.02.35.03.08,0,.15.02.23.02-.14-.02-.14-.02,0,0,.3.05.6.11.89.18.64.16,1.4-.21,1.55-.88s-.2-1.38-.88-1.55h0Z"/>
        <path class="cls-1" d="M180.92,39.11v2.43c0,.32.14.66.37.89s.58.38.89.37.66-.12.89-.37.37-.55.37-.89v-2.43c0-.32-.14-.66-.37-.89s-.58-.38-.89-.37-.66.12-.89.37-.37.55-.37.89h0Z"/>
        <path class="cls-1" d="M189.51,45.52c-3.03-1.24-6.05-2.48-9.08-3.72-.63-.26-1.38.28-1.55.88-.2.72.25,1.29.88,1.55,3.03,1.24,6.05,2.48,9.08,3.72.63.26,1.38-.28,1.55-.88.2-.72-.25-1.29-.88-1.55h0Z"/>
        <path class="cls-1" d="M179.08,42.29l4.16-.9c.64-.14,1.08-.93.88-1.55-.22-.68-.86-1.03-1.55-.88l-4.16.9c-.64.14-1.08.93-.88,1.55.22.68.86,1.03,1.55.88h0Z"/>
        <path class="cls-1" d="M193.18,40.86h.69c.17,0,.34-.03.49-.11.16-.05.29-.14.41-.26.12-.11.21-.25.26-.41.08-.15.12-.31.11-.49l-.05-.33c-.06-.21-.17-.4-.32-.56l-.25-.2c-.2-.11-.41-.17-.64-.17h-.69c-.17,0-.34.03-.49.11-.16.05-.29.14-.41.26-.12.11-.21.25-.26.41-.08.15-.12.31-.11.49l.05.33c.06.21.17.4.32.56l.25.2c.2.11.41.17.64.17h0Z"/>
        <path class="cls-1" d="M183.22,46.13c1.61.24,3.28.15,4.82-.44.32-.12.58-.28.75-.58.16-.27.22-.67.13-.97-.19-.6-.89-1.13-1.55-.88-.58.22-1.18.37-1.8.45l.33-.05c-.73.09-1.47.1-2.2,0l.33.05s-.1-.01-.14-.02c-.35-.05-.65-.06-.97.13-.26.15-.51.45-.58.75-.07.32-.06.68.13.97.17.26.44.53.75.58h0Z"/>
        <path class="cls-1" d="M171.32,42.22l1.4,1.93c.08.15.19.26.32.35.12.11.26.19.43.23.17.05.33.06.5.02.17,0,.32-.06.47-.15.27-.17.51-.43.58-.75s.07-.7-.13-.97l-1.4-1.93c-.08-.15-.19-.26-.32-.35-.12-.11-.26-.19-.43-.23-.17-.05-.33-.06-.5-.02-.17,0-.32.06-.47.15-.27.17-.51.43-.58.75s-.07.7.13.97h0Z"/>
        <path class="cls-1" d="M172.55,40.86h1.38c.17,0,.34-.03.49-.11.16-.05.29-.14.41-.26.12-.11.21-.25.26-.41.08-.15.12-.31.11-.49l-.05-.33c-.06-.21-.17-.4-.32-.56-.25-.23-.55-.37-.89-.37h-1.38c-.17,0-.34.03-.49.11-.16.05-.29.14-.41.26-.12.11-.21.25-.26.41-.08.15-.12.31-.11.49l.05.33c.06.21.17.4.32.56.25.23.55.37.89.37h0Z"/>
        <path class="cls-1" d="M184.36,41.05v.49c0,.17.03.34.11.49.05.16.14.29.26.41.11.12.25.21.41.26.15.08.31.12.49.11l.33-.05c.21-.06.4-.17.56-.32l.2-.25c.11-.2.17-.41.17-.64v-.49c0-.17-.03-.34-.11-.49-.05-.16-.14-.29-.26-.41-.11-.12-.25-.21-.41-.26-.15-.08-.31-.12-.49-.11l-.33.05c-.21.06-.4.17-.56.32l-.2.25c-.11.2-.17.41-.17.64h0Z"/>
        <path class="cls-1" d="M191.12,41.73h-.69c-.17,0-.34.03-.49.11-.16.05-.29.14-.41.26-.12.11-.21.25-.26.41-.08.15-.12.31-.11.49l.05.33c.06.21.17.4.32.56l.25.2c.2.11.41.17.64.17h.69c.17,0,.34-.03.49-.11.16-.05.29-.14.41-.26.12-.11.21-.25.26-.41.08-.15.12-.31.11-.49l-.05-.33c-.06-.21-.17-.4-.32-.56l-.25-.2c-.2-.11-.41-.17-.64-.17h0Z"/>
        <path class="cls-1" d="M127.14,40.79c-2.64-.26-5.32-.09-7.92.45-.65.13-1.08.93-.88,1.55.22.68.86,1.02,1.55.88,1.25-.26,2.21-.39,3.5-.45s2.5-.03,3.75.09c.66.06,1.29-.62,1.26-1.26-.03-.74-.55-1.19-1.26-1.26h0Z"/>
        <path class="cls-1" d="M112.01,36.88h-1.38c-.17,0-.34.03-.49.11-.16.05-.29.14-.41.26-.12.11-.21.25-.26.41-.08.15-.12.31-.11.49l.05.33c.06.21.17.4.32.56.25.23.55.37.89.37h1.38c.17,0,.34-.03.49-.11.16-.05.29-.14.41-.26.12-.11.21-.25.26-.41.08-.15.12-.31.11-.49l-.05-.33c-.06-.21-.17-.4-.32-.56-.25-.23-.55-.37-.89-.37h0Z"/>
        <path class="cls-1" d="M160.17,41.83h.69c.17,0,.34-.03.49-.11.16-.05.29-.14.41-.26.12-.11.21-.25.26-.41.08-.15.12-.31.11-.49l-.05-.33c-.06-.21-.17-.4-.32-.56l-.25-.2c-.2-.11-.41-.17-.64-.17h-.69c-.17,0-.34.03-.49.11-.16.05-.29.14-.41.26-.12.11-.21.25-.26.41-.08.15-.12.31-.11.49l.05.33c.06.21.17.4.32.56l.25.2c.2.11.41.17.64.17h0Z"/>
        <path class="cls-1" d="M176.56,38.63v-.97c0-.17-.03-.34-.11-.49-.05-.16-.14-.29-.26-.41-.11-.12-.25-.21-.41-.26-.15-.08-.31-.12-.49-.11l-.33.05c-.21.06-.4.17-.56.32l-.2.25c-.11.2-.17.41-.17.64v.97c0,.17.03.34.11.49.05.16.14.29.26.41.11.12.25.21.41.26.15.08.31.12.49.11l.33-.05c.21-.06.4-.17.56-.32l.2-.25c.11-.2.17-.41.17-.64h0Z"/>
        <path class="cls-1" d="M151.91,32.51h-1.38c-.17,0-.34.03-.49.11-.16.05-.29.14-.41.26-.12.11-.21.25-.26.41-.08.15-.12.31-.11.49l.05.33c.06.21.17.4.32.56.25.23.55.37.89.37h1.38c.17,0,.34-.03.49-.11.16-.05.29-.14.41-.26.12-.11.21-.25.26-.41.08-.15.12-.31.11-.49l-.05-.33c-.06-.21-.17-.4-.32-.56-.25-.23-.55-.37-.89-.37h0Z"/>
        <path class="cls-1" d="M151.91,33.09h1.38c.17,0,.34-.03.49-.11.16-.05.29-.14.41-.26.12-.11.21-.25.26-.41.08-.15.12-.31.11-.49l-.05-.33c-.06-.21-.17-.4-.32-.56-.25-.23-.55-.37-.89-.37h-1.38c-.17,0-.34.03-.49.11-.16.05-.29.14-.41.26-.12.11-.21.25-.26.41-.08.15-.12.31-.11.49l.05.33c.06.21.17.4.32.56.25.23.55.37.89.37h0Z"/>
        <path class="cls-1" d="M175.93,37.54l-.69-.49c-.14-.09-.3-.14-.47-.15-.17-.04-.33-.03-.5.02-.16.04-.31.11-.43.23-.14.09-.25.21-.32.35l-.13.3c-.06.22-.06.45,0,.67l.13.3c.11.19.26.34.45.45l.69.49c.14.09.3.14.47.15.17.04.33.03.5-.02.16-.04.31-.11.43-.23.14-.09.25-.21.32-.35l.13-.3c.06-.22.06-.45,0-.67l-.13-.3c-.11-.19-.26-.34-.45-.45h0Z"/>
        <path class="cls-1" d="M196.28,35.44c-3.3-.53-6.64-.71-9.97-.48-.68.05-1.26.55-1.26,1.26,0,.65.58,1.31,1.26,1.26,3.1-.22,6.23-.11,9.3.39.67.11,1.36-.17,1.55-.88.17-.6-.2-1.44-.88-1.55h0Z"/>
        <path class="cls-1" d="M216.57,39.31h-.69c-.17,0-.34.03-.49.11-.16.05-.29.14-.41.26-.12.11-.21.25-.26.41-.08.15-.12.31-.11.49l.05.33c.06.21.17.4.32.56l.25.2c.2.11.41.17.64.17h.69c.17,0,.34-.03.49-.11.16-.05.29-.14.41-.26.12-.11.21-.25.26-.41.08-.15.12-.31.11-.49l-.05-.33c-.06-.21-.17-.4-.32-.56l-.25-.2c-.2-.11-.41-.17-.64-.17h0Z"/>
        <path class="cls-1" d="M224.49,37.41l1.38.49c.17.05.33.06.5.02.17,0,.32-.06.47-.15.15-.08.26-.19.35-.32.11-.12.19-.26.23-.43l.05-.33c0-.23-.06-.44-.17-.64l-.2-.25c-.16-.16-.34-.26-.56-.32l-1.38-.49c-.17-.05-.33-.06-.5-.02-.17,0-.32.06-.47.15-.15.08-.26.19-.35.32-.11.12-.19.26-.23.43l-.05.33c0,.23.06.44.17.64l.2.25c.16.16.34.26.56.32h0Z"/>
        <path class="cls-1" d="M224.46,33.98l3.44-.98c.63-.18,1.09-.9.88-1.55s-.87-1.07-1.55-.88l-3.44.98c-.63.18-1.09.9-.88,1.55s.87,1.07,1.55.88h0Z"/>
        <path class="cls-1" d="M230.28,28.32l-.69-.49c-.14-.09-.3-.14-.47-.15-.17-.04-.33-.03-.5.02-.16.04-.31.11-.43.23-.14.09-.25.21-.32.35l-.13.3c-.06.22-.06.45,0,.67l.13.3c.11.19.26.34.45.45l.69.49c.14.09.3.14.47.15.17.04.33.03.5-.02.16-.04.31-.11.43-.23.14-.09.25-.21.32-.35l.13-.3c.06-.22.06-.45,0-.67l-.13-.3c-.11-.19-.26-.34-.45-.45h0Z"/>
        <path class="cls-1" d="M232.39,30.18h.69c.17,0,.34-.03.49-.11.16-.05.29-.14.41-.26.12-.11.21-.25.26-.41.08-.15.12-.31.11-.49l-.05-.33c-.06-.21-.17-.4-.32-.56l-.25-.2c-.2-.11-.41-.17-.64-.17h-.69c-.17,0-.34.03-.49.11-.16.05-.29.14-.41.26-.12.11-.21.25-.26.41-.08.15-.12.31-.11.49l.05.33c.06.21.17.4.32.56l.25.2c.2.11.41.17.64.17h0Z"/>
        <path class="cls-1" d="M214.19,35.04l1.37-.49c.16-.04.31-.11.43-.23.14-.09.25-.21.32-.35.09-.14.14-.3.15-.47.04-.17.03-.33-.02-.5-.1-.3-.29-.6-.58-.75s-.65-.24-.97-.13l-1.37.49c-.16.04-.31.11-.43.23-.14.09-.25.21-.32.35-.09.14-.14.3-.15.47-.04.17-.03.33.02.5.1.3.29.6.58.75s.65.24.97.13h0Z"/>
        <path class="cls-1" d="M199.09,34.11l-.69-.97c-.08-.15-.19-.26-.32-.35-.12-.11-.26-.19-.43-.23-.17-.05-.33-.06-.5-.02-.17,0-.32.06-.47.15l-.25.2c-.16.16-.26.34-.32.56l-.05.33c0,.23.06.44.17.64l.69.97c.08.15.19.26.32.35.12.11.26.19.43.23.17.05.33.06.5.02.17,0,.32-.06.47-.15l.25-.2c.16-.16.26-.34.32-.56l.05-.33c0-.23-.06-.44-.17-.64h0Z"/>
        <path class="cls-1" d="M207.68,37.05l-.69.49c-.15.08-.26.19-.35.32-.11.12-.19.26-.23.43-.05.17-.06.33-.02.5,0,.17.06.32.15.47l.2.25c.16.16.34.26.56.32l.33.05c.23,0,.44-.06.64-.17l.69-.49c.15-.08.26-.19.35-.32.11-.12.19-.26.23-.43.05-.17.06-.33.02-.5,0-.17-.06-.32-.15-.47l-.2-.25c-.16-.16-.34-.26-.56-.32l-.33-.05c-.23,0-.44.06-.64.17h0Z"/>
        <path class="cls-1" d="M225.46,44.08l.69-.49c.15-.08.26-.19.35-.32.11-.12.19-.26.23-.43.05-.17.06-.33.02-.5,0-.17-.06-.32-.15-.47l-.2-.25c-.16-.16-.34-.26-.56-.32l-.33-.05c-.23,0-.44.06-.64.17l-.69.49c-.15.08-.26.19-.35.32-.11.12-.19.26-.23.43-.05.17-.06.33-.02.5,0,.17.06.32.15.47l.2.25c.16.16.34.26.56.32l.33.05c.23,0,.44-.06.64-.17h0Z"/>
        <path class="cls-1" d="M235.52,43.29l1.37-.49c.16-.04.31-.11.43-.23.14-.09.25-.21.32-.35.09-.14.14-.3.15-.47.04-.17.03-.33-.02-.5-.1-.3-.29-.6-.58-.75s-.65-.24-.97-.13l-1.37.49c-.16.04-.31.11-.43.23-.14.09-.25.21-.32.35-.09.14-.14.3-.15.47-.04.17-.03.33.02.5.1.3.29.6.58.75s.65.24.97.13h0Z"/>
        <path class="cls-1" d="M235.51,33.56l-2.06.49c-.3.07-.6.31-.75.58s-.22.67-.13.97.29.6.58.75.63.21.97.13l2.06-.49c.3-.07.6-.31.75-.58s.22-.67.13-.97-.29-.6-.58-.75-.63-.21-.97-.13h0Z"/>
        <path class="cls-1" d="M241.69,40.81l1.38.49c.17.05.33.06.5.02.17,0,.32-.06.47-.15.15-.08.26-.19.35-.32.11-.12.19-.26.23-.43l.05-.33c0-.23-.06-.44-.17-.64l-.2-.25c-.16-.16-.34-.26-.56-.32l-1.38-.49c-.17-.05-.33-.06-.5-.02-.17,0-.32.06-.47.15-.15.08-.26.19-.35.32-.11.12-.19.26-.23.43l-.05.33c0,.23.06.44.17.64l.2.25c.16.16.34.26.56.32h0Z"/>
        <path class="cls-1" d="M215.94,35.83l.69.49c.14.09.3.14.47.15.17.04.33.03.5-.02.16-.04.31-.11.43-.23.14-.09.25-.21.32-.35l.13-.3c.06-.22.06-.45,0-.67l-.13-.3c-.11-.19-.26-.34-.45-.45l-.69-.49c-.14-.09-.3-.14-.47-.15-.17-.04-.33-.03-.5.02-.16.04-.31.11-.43.23-.14.09-.25.21-.32.35l-.13.3c-.06.22-.06.45,0,.67l.13.3c.11.19.26.34.45.45h0Z"/>
        <path class="cls-1" d="M211.12,51.85l2.06.97c.14.09.3.14.47.15.17.04.33.03.5-.02.29-.08.61-.31.75-.58.15-.29.23-.65.13-.97-.1-.3-.29-.62-.58-.75l-2.06-.97c-.14-.09-.3-.14-.47-.15-.17-.04-.33-.03-.5.02-.29.08-.61.31-.75.58-.15.29-.23.65-.13.97.1.3.29.62.58.75h0Z"/>
        <path class="cls-1" d="M251.66,54.93h3.44c.66,0,1.29-.58,1.26-1.26s-.55-1.26-1.26-1.26h-3.44c-.66,0-1.29.58-1.26,1.26s.55,1.26,1.26,1.26h0Z"/>
        <path class="cls-1" d="M272.98,52.5h.69c.17,0,.34-.03.49-.11.16-.05.29-.14.41-.26.12-.11.21-.25.26-.41.08-.15.12-.31.11-.49l-.05-.33c-.06-.21-.17-.4-.32-.56l-.25-.2c-.2-.11-.41-.17-.64-.17h-.69c-.17,0-.34.03-.49.11-.16.05-.29.14-.41.26-.12.11-.21.25-.26.41-.08.15-.12.31-.11.49l.05.33c.06.21.17.4.32.56l.25.2c.2.11.41.17.64.17h0Z"/>
        <path class="cls-1" d="M264.78,50.15l-.69.49c-.15.08-.26.19-.35.32-.11.12-.19.26-.23.43-.05.17-.06.33-.02.5,0,.17.06.32.15.47l.2.25c.16.16.34.26.56.32l.33.05c.23,0,.44-.06.64-.17l.69-.49c.15-.08.26-.19.35-.32.11-.12.19-.26.23-.43.05-.17.06-.33.02-.5,0-.17-.06-.32-.15-.47l-.2-.25c-.16-.16-.34-.26-.56-.32l-.33-.05c-.23,0-.44.06-.64.17h0Z"/>
        <path class="cls-1" d="M200.75,57.26h-2.06c-.32,0-.66.14-.89.37s-.38.58-.37.89.12.66.37.89.55.37.89.37h2.06c.32,0,.66-.14.89-.37s.38-.58.37-.89-.12-.66-.37-.89-.55-.37-.89-.37h0Z"/>
        <path class="cls-1" d="M197.95,53.79l.69-.49c.15-.08.26-.19.35-.32.11-.12.19-.26.23-.43.05-.17.06-.33.02-.5,0-.17-.06-.32-.15-.47l-.2-.25c-.16-.16-.34-.26-.56-.32l-.33-.05c-.23,0-.44.06-.64.17l-.69.49c-.15.08-.26.19-.35.32-.11.12-.19.26-.23.43-.05.17-.06.33-.02.5,0,.17.06.32.15.47l.2.25c.16.16.34.26.56.32l.33.05c.23,0,.44-.06.64-.17h0Z"/>
        <path class="cls-1" d="M192.55,51.61l-.69.49c-.15.08-.26.19-.35.32-.11.12-.19.26-.23.43-.05.17-.06.33-.02.5,0,.17.06.32.15.47l.2.25c.16.16.34.26.56.32l.33.05c.23,0,.44-.06.64-.17l.69-.49c.15-.08.26-.19.35-.32.11-.12.19-.26.23-.43.05-.17.06-.33.02-.5,0-.17-.06-.32-.15-.47l-.2-.25c-.16-.16-.34-.26-.56-.32l-.33-.05c-.23,0-.44.06-.64.17h0Z"/>
        <path class="cls-1" d="M198,57.35h.69c.17,0,.34-.03.49-.11.16-.05.29-.14.41-.26.12-.11.21-.25.26-.41.08-.15.12-.31.11-.49l-.05-.33c-.06-.21-.17-.4-.32-.56l-.25-.2c-.2-.11-.41-.17-.64-.17h-.69c-.17,0-.34.03-.49.11-.16.05-.29.14-.41.26-.12.11-.21.25-.26.41-.08.15-.12.31-.11.49l.05.33c.06.21.17.4.32.56l.25.2c.2.11.41.17.64.17h0Z"/>
        <path class="cls-1" d="M229.59,56.94c-.69-.32-1.37-.53-2.12-.63s-1.51-.08-2.29.04c-.29.04-.61.34-.75.58-.16.27-.22.67-.13.97s.29.6.58.75l.3.13c.22.06.45.06.67,0,.04,0,.08-.01.12-.02l-.33.05c.55-.07,1.11-.07,1.67,0l-.33-.05c.5.07.98.19,1.45.39l-.3-.13c.07.03.14.06.2.09.31.15.63.22.97.13.29-.08.61-.31.75-.58.15-.29.23-.65.13-.97-.1-.3-.29-.61-.58-.75h0Z"/>
        <path class="cls-1" d="M248.9,56.87h2.06c.32,0,.66-.14.89-.37s.38-.58.37-.89-.12-.66-.37-.89-.55-.37-.89-.37h-2.06c-.32,0-.66.14-.89.37s-.38.58-.37.89.12.66.37.89.55.37.89.37h0Z"/>
        <path class="cls-1" d="M277.8,53.96h1.38c.17,0,.34-.03.49-.11.16-.05.29-.14.41-.26.12-.11.21-.25.26-.41.08-.15.12-.31.11-.49l-.05-.33c-.06-.21-.17-.4-.32-.56-.25-.23-.55-.37-.89-.37h-1.38c-.17,0-.34.03-.49.11-.16.05-.29.14-.41.26-.12.11-.21.25-.26.41-.08.15-.12.31-.11.49l.05.33c.06.21.17.4.32.56.25.23.55.37.89.37h0Z"/>
        <path class="cls-1" d="M282.61,52.99h1.38c.17,0,.34-.03.49-.11.16-.05.29-.14.41-.26.12-.11.21-.25.26-.41.08-.15.12-.31.11-.49l-.05-.33c-.06-.21-.17-.4-.32-.56-.25-.23-.55-.37-.89-.37h-1.38c-.17,0-.34.03-.49.11-.16.05-.29.14-.41.26-.12.11-.21.25-.26.41-.08.15-.12.31-.11.49l.05.33c.06.21.17.4.32.56.25.23.55.37.89.37h0Z"/>
        <path class="cls-1" d="M297.11,54.76l.69.49c.14.09.3.14.47.15.17.04.33.03.5-.02.16-.04.31-.11.43-.23.14-.09.25-.21.32-.35l.13-.3c.06-.22.06-.45,0-.67l-.13-.3c-.11-.19-.26-.34-.45-.45l-.69-.49c-.14-.09-.3-.14-.47-.15-.17-.04-.33-.03-.5.02-.16.04-.31.11-.43.23-.14.09-.25.21-.32.35l-.13.3c-.06.22-.06.45,0,.67l.13.3c.11.19.26.34.45.45h0Z"/>
        <path class="cls-1" d="M304.51,53.18v-.97c0-.17-.03-.34-.11-.49-.05-.16-.14-.29-.26-.41-.11-.12-.25-.21-.41-.26-.15-.08-.31-.12-.49-.11l-.33.05c-.21.06-.4.17-.56.32l-.2.25c-.11.2-.17.41-.17.64v.97c0,.17.03.34.11.49.05.16.14.29.26.41.11.12.25.21.41.26.15.08.31.12.49.11l.33-.05c.21-.06.4-.17.56-.32l.2-.25c.11-.2.17-.41.17-.64h0Z"/>
        <path class="cls-1" d="M282.61,51.53h1.38c.17,0,.34-.03.49-.11.16-.05.29-.14.41-.26.12-.11.21-.25.26-.41.08-.15.12-.31.11-.49l-.05-.33c-.06-.21-.17-.4-.32-.56-.25-.23-.55-.37-.89-.37h-1.38c-.17,0-.34.03-.49.11-.16.05-.29.14-.41.26-.12.11-.21.25-.26.41-.08.15-.12.31-.11.49l.05.33c.06.21.17.4.32.56.25.23.55.37.89.37h0Z"/>
        <path class="cls-1" d="M206.89,50.64l-.69-.49c-.14-.09-.3-.14-.47-.15-.17-.04-.33-.03-.5.02-.16.04-.31.11-.43.23-.14.09-.25.21-.32.35l-.13.3c-.06.22-.06.45,0,.67l.13.3c.11.19.26.34.45.45l.69.49c.14.09.3.14.47.15.17.04.33.03.5-.02.16-.04.31-.11.43-.23.14-.09.25-.21.32-.35l.13-.3c.06-.22.06-.45,0-.67l-.13-.3c-.11-.19-.26-.34-.45-.45h0Z"/>
        <path class="cls-1" d="M192.44,46.99l.69-.49c.15-.08.26-.19.35-.32.11-.12.19-.26.23-.43.05-.17.06-.33.02-.5,0-.17-.06-.32-.15-.47l-.2-.25c-.16-.16-.34-.26-.56-.32l-.33-.05c-.23,0-.44.06-.64.17l-.69.49c-.15.08-.26.19-.35.32-.11.12-.19.26-.23.43-.05.17-.06.33-.02.5,0,.17.06.32.15.47l.2.25c.16.16.34.26.56.32l.33.05c.23,0,.44-.06.64-.17h0Z"/>
        <path class="cls-1" d="M108.06,45.03c-.46-.49-.92-.97-1.38-1.46-.11-.12-.25-.21-.41-.26-.15-.08-.31-.12-.49-.11-.17,0-.34.03-.49.11-.16.05-.29.14-.41.26-.22.24-.38.56-.37.89l.05.33c.06.21.17.4.32.56.46.49.92.97,1.38,1.46.11.12.25.21.41.26.15.08.31.12.49.11.17,0,.34-.03.49-.11.16-.05.29-.14.41-.26.22-.24.38-.56.37-.89l-.05-.33c-.06-.21-.17-.4-.32-.56h0Z"/>
        <path class="cls-1" d="M115.57,35.71v.49c0,.17.03.34.11.49.05.16.14.29.26.41.11.12.25.21.41.26.15.08.31.12.49.11l.33-.05c.21-.06.4-.17.56-.32l.2-.25c.11-.2.17-.41.17-.64v-.49c0-.17-.03-.34-.11-.49-.05-.16-.14-.29-.26-.41-.11-.12-.25-.21-.41-.26-.15-.08-.31-.12-.49-.11l-.33.05c-.21.06-.4.17-.56.32l-.2.25c-.11.2-.17.41-.17.64h0Z"/>
        <path class="cls-1" d="M134.71,32.61h1.38c.17,0,.34-.03.49-.11.16-.05.29-.14.41-.26.12-.11.21-.25.26-.41.08-.15.12-.31.11-.49l-.05-.33c-.06-.21-.17-.4-.32-.56-.25-.23-.55-.37-.89-.37h-1.38c-.17,0-.34.03-.49.11-.16.05-.29.14-.41.26-.12.11-.21.25-.26.41-.08.15-.12.31-.11.49l.05.33c.06.21.17.4.32.56.25.23.55.37.89.37h0Z"/>
        <path class="cls-1" d="M128.18,31.08l-2.75.49c-.29.05-.61.33-.75.58-.16.27-.22.67-.13.97s.29.6.58.75c.32.17.62.19.97.13l2.75-.49c.29-.05.61-.33.75-.58.16-.27.22-.67.13-.97s-.29-.6-.58-.75c-.32-.17-.62-.19-.97-.13h0Z"/>
        <path class="cls-1" d="M116.78,41.42l-.69-.49c-.14-.09-.3-.14-.47-.15-.17-.04-.33-.03-.5.02-.16.04-.31.11-.43.23-.14.09-.25.21-.32.35l-.13.3c-.06.22-.06.45,0,.67l.13.3c.11.19.26.34.45.45l.69.49c.14.09.3.14.47.15.17.04.33.03.5-.02.16-.04.31-.11.43-.23.14-.09.25-.21.32-.35l.13-.3c.06-.22.06-.45,0-.67l-.13-.3c-.11-.19-.26-.34-.45-.45h0Z"/>
        <path class="cls-1" d="M108.94,39.31l-1.37-.49c-.17-.05-.33-.06-.5-.02-.17,0-.32.06-.47.15-.15.08-.26.19-.35.32-.11.12-.19.26-.23.43l-.05.33c0,.23.06.44.17.64l.2.25c.16.16.34.26.56.32l1.37.49c.17.05.33.06.5.02.17,0,.32-.06.47-.15.15-.08.26-.19.35-.32.11-.12.19-.26.23-.43l.05-.33c0-.23-.06-.44-.17-.64l-.2-.25c-.16-.16-.34-.26-.56-.32h0Z"/>
        <path class="cls-1" d="M103.76,45.13h-.69c-.17,0-.34.03-.49.11-.16.05-.29.14-.41.26-.12.11-.21.25-.26.41-.08.15-.12.31-.11.49l.05.33c.06.21.17.4.32.56l.25.2c.2.11.41.17.64.17h.69c.17,0,.34-.03.49-.11.16-.05.29-.14.41-.26.12-.11.21-.25.26-.41.08-.15.12-.31.11-.49l-.05-.33c-.06-.21-.17-.4-.32-.56l-.25-.2c-.2-.11-.41-.17-.64-.17h0Z"/>
        <path class="cls-1" d="M92.06,43.67h-2.06c-.32,0-.66.14-.89.37s-.38.58-.37.89.12.66.37.89.55.37.89.37h2.06c.32,0,.66-.14.89-.37s.38-.58.37-.89-.12-.66-.37-.89-.55-.37-.89-.37h0Z"/>
        <path class="cls-1" d="M85.18,45.22h.69c.17,0,.34-.03.49-.11.16-.05.29-.14.41-.26.12-.11.21-.25.26-.41.08-.15.12-.31.11-.49l-.05-.33c-.06-.21-.17-.4-.32-.56l-.25-.2c-.2-.11-.41-.17-.64-.17h-.69c-.17,0-.34.03-.49.11-.16.05-.29.14-.41.26-.12.11-.21.25-.26.41-.08.15-.12.31-.11.49l.05.33c.06.21.17.4.32.56l.25.2c.2.11.41.17.64.17h0Z"/>
        <path class="cls-1" d="M74.18,42.7h-.69c-.17,0-.34.03-.49.11-.16.05-.29.14-.41.26-.12.11-.21.25-.26.41-.08.15-.12.31-.11.49l.05.33c.06.21.17.4.32.56l.25.2c.2.11.41.17.64.17h.69c.17,0,.34-.03.49-.11.16-.05.29-.14.41-.26.12-.11.21-.25.26-.41.08-.15.12-.31.11-.49l-.05-.33c-.06-.21-.17-.4-.32-.56l-.25-.2c-.2-.11-.41-.17-.64-.17h0Z"/>
        <path class="cls-1" d="M62.83,49.52l-3.44-.97c-.63-.18-1.4.22-1.55.88s.2,1.36.88,1.55l3.44.97c.63.18,1.4-.22,1.55-.88s-.2-1.36-.88-1.55h0Z"/>
        <path class="cls-1" d="M45.97,47.65h6.19c.66,0,1.29-.58,1.26-1.26s-.55-1.26-1.26-1.26h-6.19c-.66,0-1.29.58-1.26,1.26s.55,1.26,1.26,1.26h0Z"/>
        <path class="cls-1" d="M79.68,49.59h6.88c.66,0,1.29-.58,1.26-1.26s-.55-1.26-1.26-1.26h-6.88c-.66,0-1.29.58-1.26,1.26s.55,1.26,1.26,1.26h0Z"/>
        <path class="cls-1" d="M94.81,47.07h-.69c-.17,0-.34.03-.49.11-.16.05-.29.14-.41.26-.12.11-.21.25-.26.41-.08.15-.12.31-.11.49l.05.33c.06.21.17.4.32.56l.25.2c.2.11.41.17.64.17h.69c.17,0,.34-.03.49-.11.16-.05.29-.14.41-.26.12-.11.21-.25.26-.41.08-.15.12-.31.11-.49l-.05-.33c-.06-.21-.17-.4-.32-.56l-.25-.2c-.2-.11-.41-.17-.64-.17h0Z"/>
        <path class="cls-1" d="M79.68,47.07h-1.38c-.17,0-.34.03-.49.11-.16.05-.29.14-.41.26-.12.11-.21.25-.26.41-.08.15-.12.31-.11.49l.05.33c.06.21.17.4.32.56.25.23.55.37.89.37h1.38c.17,0,.34-.03.49-.11.16-.05.29-.14.41-.26.12-.11.21-.25.26-.41.08-.15.12-.31.11-.49l-.05-.33c-.06-.21-.17-.4-.32-.56-.25-.23-.55-.37-.89-.37h0Z"/>
        <path class="cls-1" d="M73.49,45.22h2.75c.32,0,.66-.14.89-.37s.38-.58.37-.89-.12-.66-.37-.89-.55-.37-.89-.37h-2.75c-.32,0-.66.14-.89.37s-.38.58-.37.89.12.66.37.89.55.37.89.37h0Z"/>
        <path class="cls-1" d="M91.07,43.34l-3.44.48c-.29.04-.61.34-.75.58-.16.27-.22.67-.13.97s.29.6.58.75l.3.13c.22.06.45.06.67,0l3.44-.48c.29-.04.61-.34.75-.58.16-.27.22-.67.13-.97s-.29-.6-.58-.75l-.3-.13c-.22-.06-.45-.06-.67,0h0Z"/>
        <path class="cls-1" d="M70.35,46.03l-2.06.49c-.3.07-.6.32-.75.58s-.22.67-.13.97.29.6.58.75c.31.16.63.21.97.13l2.06-.49c.3-.07.6-.32.75-.58s.22-.67.13-.97-.29-.6-.58-.75c-.31-.16-.63-.21-.97-.13h0Z"/>
        <path class="cls-1" d="M76.24,49.11h1.38c.17,0,.34-.03.49-.11.16-.05.29-.14.41-.26.12-.11.21-.25.26-.41.08-.15.12-.31.11-.49l-.05-.33c-.06-.21-.17-.4-.32-.56-.25-.23-.55-.37-.89-.37h-1.38c-.17,0-.34.03-.49.11-.16.05-.29.14-.41.26-.12.11-.21.25-.26.41-.08.15-.12.31-.11.49l.05.33c.06.21.17.4.32.56.25.23.55.37.89.37h0Z"/>
        <path class="cls-1" d="M92.12,50.15l-.69.49c-.15.08-.26.19-.35.32-.11.12-.19.26-.23.43-.05.17-.06.33-.02.5,0,.17.06.32.15.47l.2.25c.16.16.34.26.56.32l.33.05c.23,0,.44-.06.64-.17l.69-.49c.15-.08.26-.19.35-.32.11-.12.19-.26.23-.43.05-.17.06-.33.02-.5,0-.17-.06-.32-.15-.47l-.2-.25c-.16-.16-.34-.26-.56-.32l-.33-.05c-.23,0-.44.06-.64.17h0Z"/>
        <path class="cls-1" d="M94.47,39.81l-2.75.49c-.29.05-.61.33-.75.58-.16.27-.22.67-.13.97s.29.6.58.75c.32.17.62.19.97.13l2.75-.49c.29-.05.61-.33.75-.58.16-.27.22-.67.13-.97s-.29-.6-.58-.75c-.32-.17-.62-.19-.97-.13h0Z"/>
        <path class="cls-1" d="M84.44,40.45l-.69-.49c-.14-.09-.3-.14-.47-.15-.17-.04-.33-.03-.5.02-.16.04-.31.11-.43.23-.14.09-.25.21-.32.35l-.13.3c-.06.22-.06.45,0,.67l.13.3c.11.19.26.34.45.45l.69.49c.14.09.3.14.47.15.17.04.33.03.5-.02.16-.04.31-.11.43-.23.14-.09.25-.21.32-.35l.13-.3c.06-.22.06-.45,0-.67l-.13-.3c-.11-.19-.26-.34-.45-.45h0Z"/>
        <path class="cls-1" d="M72.11,33.09h.69c.17,0,.34-.03.49-.11.16-.05.29-.14.41-.26.12-.11.21-.25.26-.41.08-.15.12-.31.11-.49l-.05-.33c-.06-.21-.17-.4-.32-.56l-.25-.2c-.2-.11-.41-.17-.64-.17h-.69c-.17,0-.34.03-.49.11-.16.05-.29.14-.41.26-.12.11-.21.25-.26.41-.08.15-.12.31-.11.49l.05.33c.06.21.17.4.32.56l.25.2c.2.11.41.17.64.17h0Z"/>
        <path class="cls-1" d="M88.62,39.89h2.06c.32,0,.66-.14.89-.37s.38-.58.37-.89-.12-.66-.37-.89-.55-.37-.89-.37h-2.06c-.32,0-.66.14-.89.37s-.38.58-.37.89.12.66.37.89.55.37.89.37h0Z"/>
        <path class="cls-1" d="M96.19,40.37h.69c.17,0,.34-.03.49-.11.16-.05.29-.14.41-.26.12-.11.21-.25.26-.41.08-.15.12-.31.11-.49l-.05-.33c-.06-.21-.17-.4-.32-.56l-.25-.2c-.2-.11-.41-.17-.64-.17h-.69c-.17,0-.34.03-.49.11-.16.05-.29.14-.41.26-.12.11-.21.25-.26.41-.08.15-.12.31-.11.49l.05.33c.06.21.17.4.32.56l.25.2c.2.11.41.17.64.17h0Z"/>
        <path class="cls-1" d="M79.68,35.03h.69c.17,0,.34-.03.49-.11.16-.05.29-.14.41-.26.12-.11.21-.25.26-.41.08-.15.12-.31.11-.49l-.05-.33c-.06-.21-.17-.4-.32-.56l-.25-.2c-.2-.11-.41-.17-.64-.17h-.69c-.17,0-.34.03-.49.11-.16.05-.29.14-.41.26-.12.11-.21.25-.26.41-.08.15-.12.31-.11.49l.05.33c.06.21.17.4.32.56l.25.2c.2.11.41.17.64.17h0Z"/>
        <path class="cls-1" d="M90.64,38.02l-.69-.49c-.14-.09-.3-.14-.47-.15-.17-.04-.33-.03-.5.02-.16.04-.31.11-.43.23-.14.09-.25.21-.32.35l-.13.3c-.06.22-.06.45,0,.67l.13.3c.11.19.26.34.45.45l.69.49c.14.09.3.14.47.15.17.04.33.03.5-.02.16-.04.31-.11.43-.23.14-.09.25-.21.32-.35l.13-.3c.06-.22.06-.45,0-.67l-.13-.3c-.11-.19-.26-.34-.45-.45h0Z"/>
        <path class="cls-1" d="M96.88,38.34h-1.38c-.17,0-.34.03-.49.11-.16.05-.29.14-.41.26-.12.11-.21.25-.26.41-.08.15-.12.31-.11.49l.05.33c.06.21.17.4.32.56.25.23.55.37.89.37h1.38c.17,0,.34-.03.49-.11.16-.05.29-.14.41-.26.12-.11.21-.25.26-.41.08-.15.12-.31.11-.49l-.05-.33c-.06-.21-.17-.4-.32-.56-.25-.23-.55-.37-.89-.37h0Z"/>
        <path class="cls-1" d="M81.74,36.88h-4.13c-.66,0-1.29.58-1.26,1.26s.55,1.26,1.26,1.26h4.13c.66,0,1.29-.58,1.26-1.26s-.55-1.26-1.26-1.26h0Z"/>
        <path class="cls-1" d="M67.25,34.14l-.69-.49c-.14-.09-.3-.14-.47-.15-.17-.04-.33-.03-.5.02-.16.04-.31.11-.43.23-.14.09-.25.21-.32.35l-.13.3c-.06.22-.06.45,0,.67l.13.3c.11.19.26.34.45.45l.69.49c.14.09.3.14.47.15.17.04.33.03.5-.02.16-.04.31-.11.43-.23.14-.09.25-.21.32-.35l.13-.3c.06-.22.06-.45,0-.67l-.13-.3c-.11-.19-.26-.34-.45-.45h0Z"/>
        <path class="cls-1" d="M76.57,35.48c-3.64-1.26-7.48-1.92-11.33-2.05-1.62-.06-1.62,2.46,0,2.52,3.63.12,7.22.77,10.66,1.96.64.22,1.38-.25,1.55-.88.19-.69-.23-1.33-.88-1.55h0Z"/>
        <path class="cls-1" d="M86.68,38.63v.49c0,.17.03.34.11.49.05.16.14.29.26.41.11.12.25.21.41.26.15.08.31.12.49.11l.33-.05c.21-.06.4-.17.56-.32l.2-.25c.11-.2.17-.41.17-.64v-.49c0-.17-.03-.34-.11-.49-.05-.16-.14-.29-.26-.41-.11-.12-.25-.21-.41-.26-.15-.08-.31-.12-.49-.11l-.33.05c-.21.06-.4.17-.56.32l-.2.25c-.11.2-.17.41-.17.64h0Z"/>
        <path class="cls-1" d="M96.19,43.77h1.38c.17,0,.34-.03.49-.11.16-.05.29-.14.41-.26.12-.11.21-.25.26-.41.08-.15.12-.31.11-.49l-.05-.33c-.06-.21-.17-.4-.32-.56-.25-.23-.55-.37-.89-.37h-1.38c-.17,0-.34.03-.49.11-.16.05-.29.14-.41.26-.12.11-.21.25-.26.41-.08.15-.12.31-.11.49l.05.33c.06.21.17.4.32.56.25.23.55.37.89.37h0Z"/>
        <path class="cls-1" d="M91.38,37.46h4.13c.66,0,1.29-.58,1.26-1.26s-.55-1.26-1.26-1.26h-4.13c-.66,0-1.29.58-1.26,1.26s.55,1.26,1.26,1.26h0Z"/>
        <path class="cls-1" d="M101.69,36.97h.69c.17,0,.34-.03.49-.11.16-.05.29-.14.41-.26.12-.11.21-.25.26-.41.08-.15.12-.31.11-.49l-.05-.33c-.06-.21-.17-.4-.32-.56l-.25-.2c-.2-.11-.41-.17-.64-.17h-.69c-.17,0-.34.03-.49.11-.16.05-.29.14-.41.26-.12.11-.21.25-.26.41-.08.15-.12.31-.11.49l.05.33c.06.21.17.4.32.56l.25.2c.2.11.41.17.64.17h0Z"/>
        <path class="cls-1" d="M127.15,35.52h5.5c.66,0,1.29-.58,1.26-1.26s-.55-1.26-1.26-1.26h-5.5c-.66,0-1.29.58-1.26,1.26s.55,1.26,1.26,1.26h0Z"/>
        <path class="cls-1" d="M170.87,37.85l1.37.49c.17.05.33.06.5.02.17,0,.32-.06.47-.15.15-.08.26-.19.35-.32.11-.12.19-.26.23-.43l.05-.33c0-.23-.06-.44-.17-.64l-.2-.25c-.16-.16-.34-.26-.56-.32l-1.37-.49c-.17-.05-.33-.06-.5-.02-.17,0-.32.06-.47.15-.15.08-.26.19-.35.32-.11.12-.19.26-.23.43l-.05.33c0,.23.06.44.17.64l.2.25c.16.16.34.26.56.32h0Z"/>
        <path class="cls-1" d="M187.68,36.4h-1.38c-.17,0-.34.03-.49.11-.16.05-.29.14-.41.26-.12.11-.21.25-.26.41-.08.15-.12.31-.11.49l.05.33c.06.21.17.4.32.56.25.23.55.37.89.37h1.38c.17,0,.34-.03.49-.11.16-.05.29-.14.41-.26.12-.11.21-.25.26-.41.08-.15.12-.31.11-.49l-.05-.33c-.06-.21-.17-.4-.32-.56-.25-.23-.55-.37-.89-.37h0Z"/>
        <path class="cls-1" d="M193.52,37.9l1.38-.49c.16-.04.31-.11.43-.23.14-.09.25-.21.32-.35.09-.14.14-.3.15-.47.04-.17.03-.33-.02-.5-.1-.3-.29-.6-.58-.75s-.65-.24-.97-.13l-1.38.49c-.16.04-.31.11-.43.23-.14.09-.25.21-.32.35-.09.14-.14.3-.15.47-.04.17-.03.33.02.5.1.3.29.6.58.75s.65.24.97.13h0Z"/>
        <path class="cls-1" d="M229.62,31.62c-4.03-.49-8.15-.22-12.07.82-1.57.41-.9,2.84.67,2.43,3.72-.98,7.59-1.2,11.4-.73.68.08,1.26-.64,1.26-1.26,0-.75-.58-1.18-1.26-1.26h0Z"/>
        <path class="cls-1" d="M249.59,36.97h2.06c.32,0,.66-.14.89-.37s.38-.58.37-.89-.12-.66-.37-.89-.55-.37-.89-.37h-2.06c-.32,0-.66.14-.89.37s-.38.58-.37.89.12.66.37.89.55.37.89.37h0Z"/>
        <path class="cls-1" d="M269.21,39.84l-4.13.97c-.64.15-1.08.92-.88,1.55.22.67.86,1.04,1.55.88l4.13-.97c.64-.15,1.08-.92.88-1.55-.22-.67-.86-1.04-1.55-.88h0Z"/>
        <path class="cls-1" d="M180.11,30.09h-.69c-.17,0-.34.03-.49.11-.16.05-.29.14-.41.26-.12.11-.21.25-.26.41-.08.15-.12.31-.11.49l.05.33c.06.21.17.4.32.56l.25.2c.2.11.41.17.64.17h.69c.17,0,.34-.03.49-.11.16-.05.29-.14.41-.26.12-.11.21-.25.26-.41.08-.15.12-.31.11-.49l-.05-.33c-.06-.21-.17-.4-.32-.56l-.25-.2c-.2-.11-.41-.17-.64-.17h0Z"/>
        <path class="cls-1" d="M144.34,29.6h-.69c-.17,0-.34.03-.49.11-.16.05-.29.14-.41.26-.12.11-.21.25-.26.41-.08.15-.12.31-.11.49l.05.33c.06.21.17.4.32.56l.25.2c.2.11.41.17.64.17h.69c.17,0,.34-.03.49-.11.16-.05.29-.14.41-.26.12-.11.21-.25.26-.41.08-.15.12-.31.11-.49l-.05-.33c-.06-.21-.17-.4-.32-.56l-.25-.2c-.2-.11-.41-.17-.64-.17h0Z"/>
        <path class="cls-1" d="M133.67,34.99l1.38-.49c.16-.04.31-.11.43-.23.14-.09.25-.21.32-.35.09-.14.14-.3.15-.47.04-.17.03-.33-.02-.5-.1-.3-.29-.6-.58-.75s-.65-.24-.97-.13l-1.38.49c-.16.04-.31.11-.43.23-.14.09-.25.21-.32.35-.09.14-.14.3-.15.47-.04.17-.03.33.02.5.1.3.29.6.58.75s.65.24.97.13h0Z"/>
        <path class="cls-1" d="M151.91,32.61h2.06c.32,0,.66-.14.89-.37s.38-.58.37-.89-.12-.66-.37-.89-.55-.37-.89-.37h-2.06c-.32,0-.66.14-.89.37s-.38.58-.37.89.12.66.37.89.55.37.89.37h0Z"/>
        <path class="cls-1" d="M190.1,31.1l-1.38.49c-.16.04-.31.11-.43.23-.14.09-.25.21-.32.35-.09.14-.14.3-.15.47-.04.17-.03.33.02.5.1.3.29.6.58.75s.65.24.97.13l1.38-.49c.16-.04.31-.11.43-.23.14-.09.25-.21.32-.35.09-.14.14-.3.15-.47.04-.17.03-.33-.02-.5-.1-.3-.29-.6-.58-.75s-.65-.24-.97-.13h0Z"/>
        <path class="cls-1" d="M185.62,33h-.69c-.17,0-.34.03-.49.11-.16.05-.29.14-.41.26-.12.11-.21.25-.26.41-.08.15-.12.31-.11.49l.05.33c.06.21.17.4.32.56l.25.2c.2.11.41.17.64.17h.69c.17,0,.34-.03.49-.11.16-.05.29-.14.41-.26.12-.11.21-.25.26-.41.08-.15.12-.31.11-.49l-.05-.33c-.06-.21-.17-.4-.32-.56l-.25-.2c-.2-.11-.41-.17-.64-.17h0Z"/>
        <path class="cls-1" d="M193.87,38.43h1.38c.17,0,.34-.03.49-.11.16-.05.29-.14.41-.26.12-.11.21-.25.26-.41.08-.15.12-.31.11-.49l-.05-.33c-.06-.21-.17-.4-.32-.56-.25-.23-.55-.37-.89-.37h-1.38c-.17,0-.34.03-.49.11-.16.05-.29.14-.41.26-.12.11-.21.25-.26.41-.08.15-.12.31-.11.49l.05.33c.06.21.17.4.32.56.25.23.55.37.89.37h0Z"/>
        <path class="cls-1" d="M205.45,34.26v-.49c0-.17-.03-.34-.11-.49-.05-.16-.14-.29-.26-.41-.11-.12-.25-.21-.41-.26-.15-.08-.31-.12-.49-.11l-.33.05c-.21.06-.4.17-.56.32l-.2.25c-.11.2-.17.41-.17.64v.49c0,.17.03.34.11.49.05.16.14.29.26.41.11.12.25.21.41.26.15.08.31.12.49.11l.33-.05c.21-.06.4-.17.56-.32l.2-.25c.11-.2.17-.41.17-.64h0Z"/>
        <path class="cls-1" d="M227.58,43.77h2.75c.32,0,.66-.14.89-.37s.38-.58.37-.89-.12-.66-.37-.89-.55-.37-.89-.37h-2.75c-.32,0-.66.14-.89.37s-.38.58-.37.89.12.66.37.89.55.37.89.37h0Z"/>
        <path class="cls-1" d="M254.07,42.8l3.44-.48c.29-.04.61-.34.75-.58.16-.27.22-.67.13-.97s-.29-.6-.58-.75l-.3-.13c-.22-.06-.45-.06-.67,0l-3.44.48c-.29.04-.61.34-.75.58-.16.27-.22.67-.13.97s.29.6.58.75l.3.13c.22.06.45.06.67,0h0Z"/>
        <path class="cls-1" d="M267.48,42.31h2.06c.32,0,.66-.14.89-.37s.38-.58.37-.89-.12-.66-.37-.89-.55-.37-.89-.37h-2.06c-.32,0-.66.14-.89.37s-.38.58-.37.89.12.66.37.89.55.37.89.37h0Z"/>
        <path class="cls-1" d="M208.32,37.85h-1.38c-.17,0-.34.03-.49.11-.16.05-.29.14-.41.26-.12.11-.21.25-.26.41-.08.15-.12.31-.11.49l.05.33c.06.21.17.4.32.56.25.23.55.37.89.37h1.38c.17,0,.34-.03.49-.11.16-.05.29-.14.41-.26.12-.11.21-.25.26-.41.08-.15.12-.31.11-.49l-.05-.33c-.06-.21-.17-.4-.32-.56-.25-.23-.55-.37-.89-.37h0Z"/>
        <path class="cls-1" d="M203.5,33.97h-1.38c-.17,0-.34.03-.49.11-.16.05-.29.14-.41.26-.12.11-.21.25-.26.41-.08.15-.12.31-.11.49l.05.33c.06.21.17.4.32.56.25.23.55.37.89.37h1.38c.17,0,.34-.03.49-.11.16-.05.29-.14.41-.26.12-.11.21-.25.26-.41.08-.15.12-.31.11-.49l-.05-.33c-.06-.21-.17-.4-.32-.56-.25-.23-.55-.37-.89-.37h0Z"/>
        <path class="cls-1" d="M172.83,32.46c-.91.33-1.83.66-2.74.99-.31.11-.58.28-.75.58-.16.27-.22.67-.13.97s.29.6.58.75.65.24.97.13c.91-.33,1.83-.66,2.74-.99.31-.11.58-.28.75-.58.16-.27.22-.67.13-.97s-.29-.6-.58-.75-.65-.24-.97-.13h0Z"/>
        <path class="cls-1" d="M68.04,44.82l-.69.49c-.15.08-.26.19-.35.32-.11.12-.19.26-.23.43-.05.17-.06.33-.02.5,0,.17.06.32.15.47l.2.25c.16.16.34.26.56.32l.33.05c.23,0,.44-.06.64-.17l.69-.49c.15-.08.26-.19.35-.32.11-.12.19-.26.23-.43.05-.17.06-.33.02-.5,0-.17-.06-.32-.15-.47l-.2-.25c-.16-.16-.34-.26-.56-.32l-.33-.05c-.23,0-.44.06-.64.17h0Z"/>
        <path class="cls-1" d="M52.17,45.13h-.69c-.17,0-.34.03-.49.11-.16.05-.29.14-.41.26-.12.11-.21.25-.26.41-.08.15-.12.31-.11.49l.05.33c.06.21.17.4.32.56l.25.2c.2.11.41.17.64.17h.69c.17,0,.34-.03.49-.11.16-.05.29-.14.41-.26.12-.11.21-.25.26-.41.08-.15.12-.31.11-.49l-.05-.33c-.06-.21-.17-.4-.32-.56l-.25-.2c-.2-.11-.41-.17-.64-.17h0Z"/>
        <path class="cls-1" d="M52.17,56.87h4.13c.66,0,1.29-.58,1.26-1.26s-.55-1.26-1.26-1.26h-4.13c-.66,0-1.29.58-1.26,1.26s.55,1.26,1.26,1.26h0Z"/>
        <path class="cls-1" d="M107.88,52.44c-2.65-.26-5.32-.1-7.92.42-.65.13-1.08.93-.88,1.55.22.69.86,1.02,1.55.88,2.31-.46,4.78-.57,7.25-.33.66.06,1.29-.62,1.26-1.26-.03-.74-.55-1.19-1.26-1.26h0Z"/>
        <path class="cls-1" d="M128.52,56.87h1.38c.17,0,.34-.03.49-.11.16-.05.29-.14.41-.26.12-.11.21-.25.26-.41.08-.15.12-.31.11-.49l-.05-.33c-.06-.21-.17-.4-.32-.56-.25-.23-.55-.37-.89-.37h-1.38c-.17,0-.34.03-.49.11-.16.05-.29.14-.41.26-.12.11-.21.25-.26.41-.08.15-.12.31-.11.49l.05.33c.06.21.17.4.32.56.25.23.55.37.89.37h0Z"/>
        <path class="cls-1" d="M174.3,57.37l-2.75.49c-.29.05-.61.33-.75.58-.16.27-.22.67-.13.97s.29.6.58.75c.31.17.62.19.97.13l2.75-.49c.29-.05.61-.33.75-.58.16-.27.22-.67.13-.97s-.29-.6-.58-.75c-.31-.17-.62-.19-.97-.13h0Z"/>
        <path class="cls-1" d="M150.53,60.27h5.5c.66,0,1.29-.58,1.26-1.26s-.55-1.26-1.26-1.26h-5.5c-.66,0-1.29.58-1.26,1.26s.55,1.26,1.26,1.26h0Z"/>
        <path class="cls-1" d="M166.36,59.78h1.38c.17,0,.34-.03.49-.11.16-.05.29-.14.41-.26.12-.11.21-.25.26-.41.08-.15.12-.31.11-.49l-.05-.33c-.06-.21-.17-.4-.32-.56-.25-.23-.55-.37-.89-.37h-1.38c-.17,0-.34.03-.49.11-.16.05-.29.14-.41.26-.12.11-.21.25-.26.41-.08.15-.12.31-.11.49l.05.33c.06.21.17.4.32.56.25.23.55.37.89.37h0Z"/>
        <path class="cls-1" d="M106.51,51.92h-.69c-.17,0-.34.03-.49.11-.16.05-.29.14-.41.26-.12.11-.21.25-.26.41-.08.15-.12.31-.11.49l.05.33c.06.21.17.4.32.56l.25.2c.2.11.41.17.64.17h.69c.17,0,.34-.03.49-.11.16-.05.29-.14.41-.26.12-.11.21-.25.26-.41.08-.15.12-.31.11-.49l-.05-.33c-.06-.21-.17-.4-.32-.56l-.25-.2c-.2-.11-.41-.17-.64-.17h0Z"/>
        <path class="cls-1" d="M55.6,50.47h-2.06c-.32,0-.66.14-.89.37s-.38.58-.37.89.12.66.37.89.55.37.89.37h2.06c.32,0,.66-.14.89-.37s.38-.58.37-.89-.12-.66-.37-.89-.55-.37-.89-.37h0Z"/>
        <path class="cls-1" d="M58.36,56.38h.69c.17,0,.34-.03.49-.11.16-.05.29-.14.41-.26.12-.11.21-.25.26-.41.08-.15.12-.31.11-.49l-.05-.33c-.06-.21-.17-.4-.32-.56l-.25-.2c-.2-.11-.41-.17-.64-.17h-.69c-.17,0-.34.03-.49.11-.16.05-.29.14-.41.26-.12.11-.21.25-.26.41-.08.15-.12.31-.11.49l.05.33c.06.21.17.4.32.56l.25.2c.2.11.41.17.64.17h0Z"/>
        <path class="cls-1" d="M158.1,56.29h-3.44c-.66,0-1.29.58-1.26,1.26s.55,1.26,1.26,1.26h3.44c.66,0,1.29-.58,1.26-1.26s-.55-1.26-1.26-1.26h0Z"/>
        <path class="cls-1" d="M170.15,60.22l2.06.49c.33.08.68.04.97-.13.26-.15.51-.45.58-.75.07-.32.06-.68-.13-.97-.17-.27-.43-.5-.75-.58l-2.06-.49c-.33-.08-.68-.04-.97.13-.26.15-.51.45-.58.75-.07.32-.06.68.13.97.17.27.43.5.75.58h0Z"/>
        <path class="cls-1" d="M178.05,59.69h-2.06c-.32,0-.66.14-.89.37s-.38.58-.37.89.12.66.37.89.55.37.89.37h2.06c.32,0,.66-.14.89-.37s.38-.58.37-.89-.12-.66-.37-.89-.55-.37-.89-.37h0Z"/>
        <path class="cls-1" d="M152.65,60.83l-.69.49c-.15.08-.26.19-.35.32-.11.12-.19.26-.23.43-.05.17-.06.33-.02.5,0,.17.06.32.15.47l.2.25c.16.16.34.26.56.32l.33.05c.23,0,.44-.06.64-.17l.69-.49c.15-.08.26-.19.35-.32.11-.12.19-.26.23-.43.05-.17.06-.33.02-.5,0-.17-.06-.32-.15-.47l-.2-.25c-.16-.16-.34-.26-.56-.32l-.33-.05c-.23,0-.44.06-.64.17h0Z"/>
        <path class="cls-1" d="M160.85,65.12h2.75c.32,0,.66-.14.89-.37s.38-.58.37-.89-.12-.66-.37-.89-.55-.37-.89-.37h-2.75c-.32,0-.66.14-.89.37s-.38.58-.37.89.12.66.37.89.55.37.89.37h0Z"/>
        <path class="cls-1" d="M169.8,65.12h1.38c.17,0,.34-.03.49-.11.16-.05.29-.14.41-.26.12-.11.21-.25.26-.41.08-.15.12-.31.11-.49l-.05-.33c-.06-.21-.17-.4-.32-.56-.25-.23-.55-.37-.89-.37h-1.38c-.17,0-.34.03-.49.11-.16.05-.29.14-.41.26-.12.11-.21.25-.26.41-.08.15-.12.31-.11.49l.05.33c.06.21.17.4.32.56.25.23.55.37.89.37h0Z"/>
        <path class="cls-1" d="M123.71,62.11h-2.06c-.32,0-.66.14-.89.37s-.38.58-.37.89.12.66.37.89.55.37.89.37h2.06c.32,0,.66-.14.89-.37s.38-.58.37-.89-.12-.66-.37-.89-.55-.37-.89-.37h0Z"/>
        <path class="cls-1" d="M99.63,61.14h-1.38c-.17,0-.34.03-.49.11-.16.05-.29.14-.41.26-.12.11-.21.25-.26.41-.08.15-.12.31-.11.49l.05.33c.06.21.17.4.32.56.25.23.55.37.89.37h1.38c.17,0,.34-.03.49-.11.16-.05.29-.14.41-.26.12-.11.21-.25.26-.41.08-.15.12-.31.11-.49l-.05-.33c-.06-.21-.17-.4-.32-.56-.25-.23-.55-.37-.89-.37h0Z"/>
        <path class="cls-1" d="M106.51,61.24h2.06c.32,0,.66-.14.89-.37s.38-.58.37-.89-.12-.66-.37-.89-.55-.37-.89-.37h-2.06c-.32,0-.66.14-.89.37s-.38.58-.37.89.12.66.37.89.55.37.89.37h0Z"/>
        <path class="cls-1" d="M98.62,50.47l-1.37-.49c-.17-.05-.33-.06-.5-.02-.17,0-.32.06-.47.15-.15.08-.26.19-.35.32-.11.12-.19.26-.23.43l-.05.33c0,.23.06.44.17.64l.2.25c.16.16.34.26.56.32l1.37.49c.17.05.33.06.5.02.17,0,.32-.06.47-.15.15-.08.26-.19.35-.32.11-.12.19-.26.23-.43l.05-.33c0-.23-.06-.44-.17-.64l-.2-.25c-.16-.16-.34-.26-.56-.32h0Z"/>
        <path class="cls-1" d="M92.75,38.92h1.38c.17,0,.34-.03.49-.11.16-.05.29-.14.41-.26.12-.11.21-.25.26-.41.08-.15.12-.31.11-.49l-.05-.33c-.06-.21-.17-.4-.32-.56-.25-.23-.55-.37-.89-.37h-1.38c-.17,0-.34.03-.49.11-.16.05-.29.14-.41.26-.12.11-.21.25-.26.41-.08.15-.12.31-.11.49l.05.33c.06.21.17.4.32.56.25.23.55.37.89.37h0Z"/>
        <path class="cls-1" d="M107.2,38.92h2.06c.32,0,.66-.14.89-.37s.38-.58.37-.89-.12-.66-.37-.89-.55-.37-.89-.37h-2.06c-.32,0-.66.14-.89.37s-.38.58-.37.89.12.66.37.89.55.37.89.37h0Z"/>
        <path class="cls-1" d="M112.01,28.24h2.75c.32,0,.66-.14.89-.37s.38-.58.37-.89-.12-.66-.37-.89-.55-.37-.89-.37h-2.75c-.32,0-.66.14-.89.37s-.38.58-.37.89.12.66.37.89.55.37.89.37h0Z"/>
        <path class="cls-1" d="M164.98,25.81h.69c.17,0,.34-.03.49-.11.16-.05.29-.14.41-.26.12-.11.21-.25.26-.41.08-.15.12-.31.11-.49l-.05-.33c-.06-.21-.17-.4-.32-.56l-.25-.2c-.2-.11-.41-.17-.64-.17h-.69c-.17,0-.34.03-.49.11-.16.05-.29.14-.41.26-.12.11-.21.25-.26.41-.08.15-.12.31-.11.49l.05.33c.06.21.17.4.32.56l.25.2c.2.11.41.17.64.17h0Z"/>
        <path class="cls-1" d="M175.3,26.78h1.38c.17,0,.34-.03.49-.11.16-.05.29-.14.41-.26.12-.11.21-.25.26-.41.08-.15.12-.31.11-.49l-.05-.33c-.06-.21-.17-.4-.32-.56-.25-.23-.55-.37-.89-.37h-1.38c-.17,0-.34.03-.49.11-.16.05-.29.14-.41.26-.12.11-.21.25-.26.41-.08.15-.12.31-.11.49l.05.33c.06.21.17.4.32.56.25.23.55.37.89.37h0Z"/>
        <path class="cls-1" d="M195.25,18.05h2.06c.32,0,.66-.14.89-.37s.38-.58.37-.89-.12-.66-.37-.89-.55-.37-.89-.37h-2.06c-.32,0-.66.14-.89.37s-.38.58-.37.89.12.66.37.89.55.37.89.37h0Z"/>
        <path class="cls-1" d="M191.49,19.9l2.75.49c.34.06.66.05.97-.13.26-.15.51-.45.58-.75.07-.32.06-.68-.13-.97-.17-.26-.43-.52-.75-.58l-2.75-.49c-.34-.06-.66-.05-.97.13-.26.15-.51.45-.58.75-.07.32-.06.68.13.97.17.26.43.52.75.58h0Z"/>
        <path class="cls-1" d="M168.42,23.78h-3.44c-.66,0-1.29.58-1.26,1.26s.55,1.26,1.26,1.26h3.44c.66,0,1.29-.58,1.26-1.26s-.55-1.26-1.26-1.26h0Z"/>
        <path class="cls-1" d="M120.27,25.23h-4.82c-.66,0-1.29.58-1.26,1.26s.55,1.26,1.26,1.26h4.82c.66,0,1.29-.58,1.26-1.26s-.55-1.26-1.26-1.26h0Z"/>
        <path class="cls-1" d="M136.42,30.14l1.38-.49c.16-.04.31-.11.43-.23.14-.09.25-.21.32-.35.09-.14.14-.3.15-.47.04-.17.03-.33-.02-.5-.1-.3-.29-.6-.58-.75s-.65-.24-.97-.13l-1.38.49c-.16.04-.31.11-.43.23-.14.09-.25.21-.32.35-.09.14-.14.3-.15.47-.04.17-.03.33.02.5.1.3.29.6.58.75s.65.24.97.13h0Z"/>
        <path class="cls-1" d="M142.97,25.23h-1.38c-.17,0-.34.03-.49.11-.16.05-.29.14-.41.26-.12.11-.21.25-.26.41-.08.15-.12.31-.11.49l.05.33c.06.21.17.4.32.56.25.23.55.37.89.37h1.38c.17,0,.34-.03.49-.11.16-.05.29-.14.41-.26.12-.11.21-.25.26-.41.08-.15.12-.31.11-.49l-.05-.33c-.06-.21-.17-.4-.32-.56-.25-.23-.55-.37-.89-.37h0Z"/>
        <path class="cls-1" d="M131.61,24.76l-2.06.49c-.3.07-.6.31-.75.58s-.22.67-.13.97.29.6.58.75.63.21.97.13l2.06-.49c.3-.07.6-.31.75-.58s.22-.67.13-.97-.29-.6-.58-.75-.63-.21-.97-.13h0Z"/>
        <path class="cls-1" d="M133.34,27.66h-3.44c-.66,0-1.29.58-1.26,1.26s.55,1.26,1.26,1.26h3.44c.66,0,1.29-.58,1.26-1.26s-.55-1.26-1.26-1.26h0Z"/>
        <path class="cls-1" d="M162.01,28.12c.23-.32.47-.64.7-.97.09-.14.14-.3.15-.47.04-.17.03-.33-.02-.5-.04-.16-.11-.31-.23-.43-.09-.14-.21-.25-.35-.32l-.3-.13c-.22-.06-.45-.06-.67,0l-.3.13c-.19.11-.34.26-.45.45-.23.32-.47.64-.7.97-.09.14-.14.3-.15.47-.04.17-.03.33.02.5.04.16.11.31.23.43.09.14.21.25.35.32l.3.13c.22.06.45.06.67,0l.3-.13c.19-.11.34-.26.45-.45h0Z"/>
        <path class="cls-1" d="M163.24,27.2l2.06-.49c.3-.07.6-.31.75-.58s.22-.67.13-.97-.29-.6-.58-.75-.63-.21-.97-.13l-2.06.49c-.3.07-.6.31-.75.58s-.22.67-.13.97.29.6.58.75.63.21.97.13h0Z"/>
        <path class="cls-1" d="M187.35,21.88l-3.44.49c-.29.04-.61.34-.75.58-.16.27-.22.67-.13.97s.29.6.58.75l.3.13c.22.06.45.06.67,0l3.44-.49c.29-.04.61-.34.75-.58.16-.27.22-.67.13-.97s-.29-.6-.58-.75l-.3-.13c-.22-.06-.45-.06-.67,0h0Z"/>
        <path class="cls-1" d="M159.48,25.33h1.38c.17,0,.34-.03.49-.11.16-.05.29-.14.41-.26.12-.11.21-.25.26-.41.08-.15.12-.31.11-.49l-.05-.33c-.06-.21-.17-.4-.32-.56-.25-.23-.55-.37-.89-.37h-1.38c-.17,0-.34.03-.49.11-.16.05-.29.14-.41.26-.12.11-.21.25-.26.41-.08.15-.12.31-.11.49l.05.33c.06.21.17.4.32.56.25.23.55.37.89.37h0Z"/>
        <path class="cls-1" d="M209.01,20.38h-6.19c-.66,0-1.29.58-1.26,1.26s.55,1.26,1.26,1.26h6.19c.66,0,1.29-.58,1.26-1.26s-.55-1.26-1.26-1.26h0Z"/>
        <path class="cls-1" d="M122.33,20.96h1.38c.17,0,.34-.03.49-.11.16-.05.29-.14.41-.26.12-.11.21-.25.26-.41.08-.15.12-.31.11-.49l-.05-.33c-.06-.21-.17-.4-.32-.56-.25-.23-.55-.37-.89-.37h-1.38c-.17,0-.34.03-.49.11-.16.05-.29.14-.41.26-.12.11-.21.25-.26.41-.08.15-.12.31-.11.49l.05.33c.06.21.17.4.32.56.25.23.55.37.89.37h0Z"/>
        <path class="cls-1" d="M121.69,14.97c.46.32.92.65,1.38.97.14.09.3.14.47.15.17.04.33.03.5-.02.16-.04.31-.11.43-.23.14-.09.25-.21.32-.35.15-.29.23-.65.13-.97l-.13-.3c-.11-.19-.26-.34-.45-.45-.46-.32-.92-.65-1.38-.97-.14-.09-.3-.14-.47-.15-.17-.04-.33-.03-.5.02-.16.04-.31.11-.43.23-.14.09-.25.21-.32.35-.15.29-.23.65-.13.97l.13.3c.11.19.26.34.45.45h0Z"/>
        <path class="cls-1" d="M111.32,8.74h-1.38c-.17,0-.34.03-.49.11-.16.05-.29.14-.41.26-.12.11-.21.25-.26.41-.08.15-.12.31-.11.49l.05.33c.06.21.17.4.32.56.25.23.55.37.89.37h1.38c.17,0,.34-.03.49-.11.16-.05.29-.14.41-.26.12-.11.21-.25.26-.41.08-.15.12-.31.11-.49l-.05-.33c-.06-.21-.17-.4-.32-.56-.25-.23-.55-.37-.89-.37h0Z"/>
        <path class="cls-1" d="M181.49,19.41h-1.38c-.17,0-.34.03-.49.11-.16.05-.29.14-.41.26-.12.11-.21.25-.26.41-.08.15-.12.31-.11.49l.05.33c.06.21.17.4.32.56.25.23.55.37.89.37h1.38c.17,0,.34-.03.49-.11.16-.05.29-.14.41-.26.12-.11.21-.25.26-.41.08-.15.12-.31.11-.49l-.05-.33c-.06-.21-.17-.4-.32-.56-.25-.23-.55-.37-.89-.37h0Z"/>
        <path class="cls-1" d="M140.22,22.9h1.38c.17,0,.34-.03.49-.11.16-.05.29-.14.41-.26.12-.11.21-.25.26-.41.08-.15.12-.31.11-.49l-.05-.33c-.06-.21-.17-.4-.32-.56-.25-.23-.55-.37-.89-.37h-1.38c-.17,0-.34.03-.49.11-.16.05-.29.14-.41.26-.12.11-.21.25-.26.41-.08.15-.12.31-.11.49l.05.33c.06.21.17.4.32.56.25.23.55.37.89.37h0Z"/>
        <path class="cls-1" d="M132.6,14.73l-1.38-.97c-.14-.09-.3-.14-.47-.15-.17-.04-.33-.03-.5.02-.16.04-.31.11-.43.23-.14.09-.25.21-.32.35-.15.29-.23.65-.13.97l.13.3c.11.19.26.34.45.45l1.38.97c.14.09.3.14.47.15.17.04.33.03.5-.02.16-.04.31-.11.43-.23.14-.09.25-.21.32-.35.15-.29.23-.65.13-.97l-.13-.3c-.11-.19-.26-.34-.45-.45h0Z"/>
        <path class="cls-1" d="M82.43,0h-1.38c-.17,0-.34.03-.49.11-.16.05-.29.14-.41.26-.12.11-.21.25-.26.41-.08.15-.12.31-.11.49l.05.33c.06.21.17.4.32.56.25.23.55.37.89.37h1.38c.17,0,.34-.03.49-.11.16-.05.29-.14.41-.26.12-.11.21-.25.26-.41.08-.15.12-.31.11-.49l-.05-.33c-.06-.21-.17-.4-.32-.56-.25-.23-.55-.37-.89-.37h0Z"/>
        <path class="cls-1" d="M86.56,8.34h1.38c.17,0,.34-.03.49-.11.16-.05.29-.14.41-.26.12-.11.21-.25.26-.41.08-.15.12-.31.11-.49l-.05-.33c-.06-.21-.17-.4-.32-.56-.25-.23-.55-.37-.89-.37h-1.38c-.17,0-.34.03-.49.11-.16.05-.29.14-.41.26-.12.11-.21.25-.26.41-.08.15-.12.31-.11.49l.05.33c.06.21.17.4.32.56.25.23.55.37.89.37h0Z"/>
        <path class="cls-1" d="M95.45,9.88l-1.38-.97c-.14-.09-.3-.14-.47-.15-.17-.04-.33-.03-.5.02-.16.04-.31.11-.43.23-.14.09-.25.21-.32.35-.15.29-.23.65-.13.97l.13.3c.11.19.26.34.45.45l1.38.97c.14.09.3.14.47.15.17.04.33.03.5-.02.16-.04.31-.11.43-.23.14-.09.25-.21.32-.35.15-.29.23-.65.13-.97l-.13-.3c-.11-.19-.26-.34-.45-.45h0Z"/>
        <path class="cls-1" d="M34.28,11.26h2.75c.32,0,.66-.14.89-.37s.38-.58.37-.89-.12-.66-.37-.89-.55-.37-.89-.37h-2.75c-.32,0-.66.14-.89.37s-.38.58-.37.89.12.66.37.89.55.37.89.37h0Z"/>
        <path class="cls-1" d="M52.17,14.17h1.38c.17,0,.34-.03.49-.11.16-.05.29-.14.41-.26.12-.11.21-.25.26-.41.08-.15.12-.31.11-.49l-.05-.33c-.06-.21-.17-.4-.32-.56-.25-.23-.55-.37-.89-.37h-1.38c-.17,0-.34.03-.49.11-.16.05-.29.14-.41.26-.12.11-.21.25-.26.41-.08.15-.12.31-.11.49l.05.33c.06.21.17.4.32.56.25.23.55.37.89.37h0Z"/>
        <path class="cls-1" d="M83.81,10.28h1.38c.17,0,.34-.03.49-.11.16-.05.29-.14.41-.26.12-.11.21-.25.26-.41.08-.15.12-.31.11-.49l-.05-.33c-.06-.21-.17-.4-.32-.56-.25-.23-.55-.37-.89-.37h-1.38c-.17,0-.34.03-.49.11-.16.05-.29.14-.41.26-.12.11-.21.25-.26.41-.08.15-.12.31-.11.49l.05.33c.06.21.17.4.32.56.25.23.55.37.89.37h0Z"/>
        <path class="cls-1" d="M141.59,18.05h1.38c.17,0,.34-.03.49-.11.16-.05.29-.14.41-.26.12-.11.21-.25.26-.41.08-.15.12-.31.11-.49l-.05-.33c-.06-.21-.17-.4-.32-.56-.25-.23-.55-.37-.89-.37h-1.38c-.17,0-.34.03-.49.11-.16.05-.29.14-.41.26-.12.11-.21.25-.26.41-.08.15-.12.31-.11.49l.05.33c.06.21.17.4.32.56.25.23.55.37.89.37h0Z"/>
        <path class="cls-1" d="M161.89,16.54l-2.75.97c-.31.11-.58.29-.75.58-.16.27-.22.67-.13.97s.29.6.58.75.65.24.97.13l2.75-.97c.31-.11.58-.29.75-.58.16-.27.22-.67.13-.97s-.29-.6-.58-.75-.65-.24-.97-.13h0Z"/>
        <path class="cls-1" d="M144.34,17.47h-5.5c-.66,0-1.29.58-1.26,1.26s.55,1.26,1.26,1.26h5.5c.66,0,1.29-.58,1.26-1.26s-.55-1.26-1.26-1.26h0Z"/>
        <path class="cls-1" d="M99.58,6l-1.38-.97c-.14-.09-.3-.14-.47-.15-.17-.04-.33-.03-.5.02-.16.04-.31.11-.43.23-.14.09-.25.21-.32.35-.15.29-.23.65-.13.97l.13.3c.11.19.26.34.45.45l1.38.97c.14.09.3.14.47.15.17.04.33.03.5-.02.16-.04.31-.11.43-.23.14-.09.25-.21.32-.35.15-.29.23-.65.13-.97l-.13-.3c-.11-.19-.26-.34-.45-.45h0Z"/>
        <path class="cls-1" d="M49.41,12.62h-1.38c-.17,0-.34.03-.49.11-.16.05-.29.14-.41.26-.12.11-.21.25-.26.41-.08.15-.12.31-.11.49l.05.33c.06.21.17.4.32.56.25.23.55.37.89.37h1.38c.17,0,.34-.03.49-.11.16-.05.29-.14.41-.26.12-.11.21-.25.26-.41.08-.15.12-.31.11-.49l-.05-.33c-.06-.21-.17-.4-.32-.56-.25-.23-.55-.37-.89-.37h0Z"/>
        <path class="cls-1" d="M45.62,14.12c2.29-.32,4.59-.65,6.88-.97.65-.09,1.07-.96.88-1.55-.23-.72-.85-.98-1.55-.88-2.29.32-4.59.65-6.88.97-.65.09-1.07.96-.88,1.55.23.72.85.98,1.55.88h0Z"/>
        <path class="cls-1" d="M72.47,5.87l-4.13.97c-.64.15-1.08.92-.88,1.55.22.67.86,1.04,1.55.88l4.13-.97c.64-.15,1.08-.92.88-1.55-.22-.67-.86-1.04-1.55-.88h0Z"/>
        <path class="cls-1" d="M94.81,6.4h8.25c.66,0,1.29-.58,1.26-1.26s-.55-1.26-1.26-1.26h-8.25c-.66,0-1.29.58-1.26,1.26s.55,1.26,1.26,1.26h0Z"/>
        <path class="cls-1" d="M166.36,18.44h-1.38c-.17,0-.34.03-.49.11-.16.05-.29.14-.41.26-.12.11-.21.25-.26.41-.08.15-.12.31-.11.49l.05.33c.06.21.17.4.32.56.25.23.55.37.89.37h1.38c.17,0,.34-.03.49-.11.16-.05.29-.14.41-.26.12-.11.21-.25.26-.41.08-.15.12-.31.11-.49l-.05-.33c-.06-.21-.17-.4-.32-.56-.25-.23-.55-.37-.89-.37h0Z"/>
        <path class="cls-1" d="M177.36,18.44h-1.38c-.17,0-.34.03-.49.11-.16.05-.29.14-.41.26-.12.11-.21.25-.26.41-.08.15-.12.31-.11.49l.05.33c.06.21.17.4.32.56.25.23.55.37.89.37h1.38c.17,0,.34-.03.49-.11.16-.05.29-.14.41-.26.12-.11.21-.25.26-.41.08-.15.12-.31.11-.49l-.05-.33c-.06-.21-.17-.4-.32-.56-.25-.23-.55-.37-.89-.37h0Z"/>
        <path class="cls-1" d="M200.75,20.96h1.38c.17,0,.34-.03.49-.11.16-.05.29-.14.41-.26.12-.11.21-.25.26-.41.08-.15.12-.31.11-.49l-.05-.33c-.06-.21-.17-.4-.32-.56-.25-.23-.55-.37-.89-.37h-1.38c-.17,0-.34.03-.49.11-.16.05-.29.14-.41.26-.12.11-.21.25-.26.41-.08.15-.12.31-.11.49l.05.33c.06.21.17.4.32.56.25.23.55.37.89.37h0Z"/>
        <path class="cls-1" d="M220.01,20.96h2.75c.32,0,.66-.14.89-.37s.38-.58.37-.89-.12-.66-.37-.89-.55-.37-.89-.37h-2.75c-.32,0-.66.14-.89.37s-.38.58-.37.89.12.66.37.89.55.37.89.37h0Z"/>
        <path class="cls-1" d="M251.66,27.75h6.88c.66,0,1.29-.58,1.26-1.26s-.55-1.26-1.26-1.26h-6.88c-.66,0-1.29.58-1.26,1.26s.55,1.26,1.26,1.26h0Z"/>
        <path class="cls-1" d="M296.69,30.7c4.61.91,9.22,1.82,13.83,2.73,1.58.31,2.26-2.12.67-2.43-4.61-.91-9.22-1.82-13.83-2.73-1.58-.31-2.26,2.12-.67,2.43h0Z"/>
        <path class="cls-1" d="M316.72,36.83l-2.75-.97c-.3-.1-.71-.03-.97.13s-.51.45-.58.75c-.07.32-.06.68.13.97s.43.46.75.58l2.75.97c.3.1.71.03.97-.13s.51-.45.58-.75c.07-.32.06-.68-.13-.97s-.43-.46-.75-.58h0Z"/>
        <path class="cls-1" d="M274.73,32.48l12.38,1.96c.67.11,1.36-.17,1.55-.88.16-.6-.2-1.44-.88-1.55l-12.38-1.96c-.67-.11-1.36.17-1.55.88-.16.6.2,1.44.88,1.55h0Z"/>
        <path class="cls-1" d="M261.92,27.35l-1.38-.97c-.14-.09-.3-.14-.47-.15-.17-.04-.33-.03-.5.02-.16.04-.31.11-.43.23-.14.09-.25.21-.32.35-.15.29-.23.65-.13.97l.13.3c.11.19.26.34.45.45l1.38.97c.14.09.3.14.47.15.17.04.33.03.5-.02.16-.04.31-.11.43-.23.14-.09.25-.21.32-.35.15-.29.23-.65.13-.97l-.13-.3c-.11-.19-.26-.34-.45-.45h0Z"/>
        <path class="cls-1" d="M253.03,25.23h-1.38c-.17,0-.34.03-.49.11-.16.05-.29.14-.41.26-.12.11-.21.25-.26.41-.08.15-.12.31-.11.49l.05.33c.06.21.17.4.32.56.25.23.55.37.89.37h1.38c.17,0,.34-.03.49-.11.16-.05.29-.14.41-.26.12-.11.21-.25.26-.41.08-.15.12-.31.11-.49l-.05-.33c-.06-.21-.17-.4-.32-.56-.25-.23-.55-.37-.89-.37h0Z"/>
        <path class="cls-1" d="M231.76,23.7l1.38.97c.14.09.3.14.47.15.17.04.33.03.5-.02.16-.04.31-.11.43-.23.14-.09.25-.21.32-.35.15-.29.23-.65.13-.97l-.13-.3c-.11-.19-.26-.34-.45-.45l-1.38-.97c-.14-.09-.3-.14-.47-.15-.17-.04-.33-.03-.5.02-.16.04-.31.11-.43.23-.14.09-.25.21-.32.35-.15.29-.23.65-.13.97l.13.3c.11.19.26.34.45.45h0Z"/>
        <path class="cls-1" d="M217.6,18.49c-.92-.32-1.83-.65-2.75-.97-.3-.1-.71-.03-.97.13s-.51.45-.58.75c-.07.32-.06.68.13.97s.43.47.75.58c.92.32,1.83.65,2.75.97.3.1.71.03.97-.13s.51-.45.58-.75c.07-.32.06-.68-.13-.97s-.43-.47-.75-.58h0Z"/>
        <path class="cls-1" d="M210.38,19.99h2.75c.32,0,.66-.14.89-.37s.38-.58.37-.89-.12-.66-.37-.89-.55-.37-.89-.37h-2.75c-.32,0-.66.14-.89.37s-.38.58-.37.89.12.66.37.89.55.37.89.37h0Z"/>
        <path class="cls-1" d="M232.39,21.93h4.13c.66,0,1.29-.58,1.26-1.26s-.55-1.26-1.26-1.26h-4.13c-.66,0-1.29.58-1.26,1.26s.55,1.26,1.26,1.26h0Z"/>
        <path class="cls-1" d="M283.3,30.09h-1.38c-.17,0-.34.03-.49.11-.16.05-.29.14-.41.26-.12.11-.21.25-.26.41-.08.15-.12.31-.11.49l.05.33c.06.21.17.4.32.56.25.23.55.37.89.37h1.38c.17,0,.34-.03.49-.11.16-.05.29-.14.41-.26.12-.11.21-.25.26-.41.08-.15.12-.31.11-.49l-.05-.33c-.06-.21-.17-.4-.32-.56-.25-.23-.55-.37-.89-.37h0Z"/>
        <path class="cls-1" d="M229.01,19.82l1.38.97c.14.09.3.14.47.15.17.04.33.03.5-.02.16-.04.31-.11.43-.23.14-.09.25-.21.32-.35.15-.29.23-.65.13-.97l-.13-.3c-.11-.19-.26-.34-.45-.45l-1.38-.97c-.14-.09-.3-.14-.47-.15-.17-.04-.33-.03-.5.02-.16.04-.31.11-.43.23-.14.09-.25.21-.32.35-.15.29-.23.65-.13.97l.13.3c.11.19.26.34.45.45h0Z"/>
        <path class="cls-1" d="M232.14,21.78l2.74.99c.29.11.71.03.97-.13s.51-.45.58-.75c.07-.32.06-.68-.13-.97s-.43-.46-.75-.58l-2.74-.99c-.29-.11-.71-.03-.97.13s-.51.45-.58.75c-.07.32-.06.68.13.97s.43.46.75.58h0Z"/>
        <path class="cls-1" d="M257.16,27.75h2.75c.32,0,.66-.14.89-.37s.38-.58.37-.89-.12-.66-.37-.89-.55-.37-.89-.37h-2.75c-.32,0-.66.14-.89.37s-.38.58-.37.89.12.66.37.89.55.37.89.37h0Z"/>
        <path class="cls-1" d="M305.65,29.16l-4.13-.97c-.64-.15-1.39.2-1.55.88-.15.64.19,1.39.88,1.55l4.13.97c.64.15,1.39-.2,1.55-.88.15-.64-.19-1.39-.88-1.55h0Z"/>
        <path class="cls-1" d="M264.04,54.93h1.38c.17,0,.34-.03.49-.11.16-.05.29-.14.41-.26.12-.11.21-.25.26-.41.08-.15.12-.31.11-.49l-.05-.33c-.06-.21-.17-.4-.32-.56-.25-.23-.55-.37-.89-.37h-1.38c-.17,0-.34.03-.49.11-.16.05-.29.14-.41.26-.12.11-.21.25-.26.41-.08.15-.12.31-.11.49l.05.33c.06.21.17.4.32.56.25.23.55.37.89.37h0Z"/>
        <path class="cls-1" d="M310.07,31.23l-1.38-.97c-.14-.09-.3-.14-.47-.15-.17-.04-.33-.03-.5.02-.16.04-.31.11-.43.23-.14.09-.25.21-.32.35-.15.29-.23.65-.13.97l.13.3c.11.19.26.34.45.45l1.38.97c.14.09.3.14.47.15.17.04.33.03.5-.02.16-.04.31-.11.43-.23.14-.09.25-.21.32-.35.15-.29.23-.65.13-.97l-.13-.3c-.11-.19-.26-.34-.45-.45h0Z"/>
        <path class="cls-1" d="M317.81,35.23v1.94c0,.32.14.66.37.89s.58.38.89.37.66-.12.89-.37.37-.55.37-.89v-1.94c0-.32-.14-.66-.37-.89s-.58-.38-.89-.37-.66.12-.89.37-.37.55-.37.89h0Z"/>
        <path class="cls-1" d="M347.96,51.44h-4.13c-.66,0-1.29.58-1.26,1.26s.55,1.26,1.26,1.26h4.13c.66,0,1.29-.58,1.26-1.26s-.55-1.26-1.26-1.26h0Z"/>
        <path class="cls-1" d="M301.47,38.78c.46.65.92,1.29,1.38,1.94.08.15.19.26.32.35.12.11.26.19.43.23.17.05.33.06.5.02.17,0,.32-.06.47-.15.27-.17.51-.43.58-.75s.07-.7-.13-.97c-.46-.65-.92-1.29-1.38-1.94-.08-.15-.19-.26-.32-.35-.12-.11-.26-.19-.43-.23-.17-.05-.33-.06-.5-.02-.17,0-.32.06-.47.15-.27.17-.51.43-.58.75s-.07.7.13.97h0Z"/>
        <path class="cls-1" d="M316.32,52.02h2.75c.32,0,.66-.14.89-.37s.38-.58.37-.89-.12-.66-.37-.89-.55-.37-.89-.37h-2.75c-.32,0-.66.14-.89.37s-.38.58-.37.89.12.66.37.89.55.37.89.37h0Z"/>
        <path class="cls-1" d="M351,51.64l-6.88-.98c-.65-.09-1.39.16-1.55.88-.14.6.18,1.45.88,1.55,2.29.33,4.58.65,6.88.98.65.09,1.39-.16,1.55-.88.14-.6-.18-1.45-.88-1.55h0Z"/>
        <path class="cls-1" d="M323.2,49.5h-1.38c-.17,0-.34.03-.49.11-.16.05-.29.14-.41.26-.12.11-.21.25-.26.41-.08.15-.12.31-.11.49l.05.33c.06.21.17.4.32.56.25.23.55.37.89.37h1.38c.17,0,.34-.03.49-.11.16-.05.29-.14.41-.26.12-.11.21-.25.26-.41.08-.15.12-.31.11-.49l-.05-.33c-.06-.21-.17-.4-.32-.56-.25-.23-.55-.37-.89-.37h0Z"/>
        <path class="cls-1" d="M311.55,49.67l-1.38.97c-.15.08-.26.19-.35.32-.11.12-.19.26-.23.43-.05.17-.06.33-.02.5,0,.17.06.32.15.47.17.27.43.51.75.58l.33.05c.23,0,.44-.06.64-.17l1.38-.97c.15-.08.26-.19.35-.32.11-.12.19-.26.23-.43.05-.17.06-.33.02-.5,0-.17-.06-.32-.15-.47-.17-.27-.43-.51-.75-.58l-.33-.05c-.23,0-.44.06-.64.17h0Z"/>
        <path class="cls-1" d="M286.05,53.38h-1.38c-.17,0-.34.03-.49.11-.16.05-.29.14-.41.26-.12.11-.21.25-.26.41-.08.15-.12.31-.11.49l.05.33c.06.21.17.4.32.56.25.23.55.37.89.37h1.38c.17,0,.34-.03.49-.11.16-.05.29-.14.41-.26.12-.11.21-.25.26-.41.08-.15.12-.31.11-.49l-.05-.33c-.06-.21-.17-.4-.32-.56-.25-.23-.55-.37-.89-.37h0Z"/>
        <path class="cls-1" d="M264.04,55.32h-2.75c-.32,0-.66.14-.89.37s-.38.58-.37.89.12.66.37.89.55.37.89.37h2.75c.32,0,.66-.14.89-.37s.38-.58.37-.89-.12-.66-.37-.89-.55-.37-.89-.37h0Z"/>
        <path class="cls-1" d="M247.53,56.29h-2.75c-.32,0-.66.14-.89.37s-.38.58-.37.89.12.66.37.89.55.37.89.37h2.75c.32,0,.66-.14.89-.37s.38-.58.37-.89-.12-.66-.37-.89-.55-.37-.89-.37h0Z"/>
        <path class="cls-1" d="M57.67,33h-11.01c-1.62,0-1.62,2.52,0,2.52h11.01c1.62,0,1.62-2.52,0-2.52h0Z"/>
        <path class="cls-1" d="M35.66,35.52h1.38c.17,0,.34-.03.49-.11.16-.05.29-.14.41-.26.12-.11.21-.25.26-.41.08-.15.12-.31.11-.49l-.05-.33c-.06-.21-.17-.4-.32-.56-.25-.23-.55-.37-.89-.37h-1.38c-.17,0-.34.03-.49.11-.16.05-.29.14-.41.26-.12.11-.21.25-.26.41-.08.15-.12.31-.11.49l.05.33c.06.21.17.4.32.56.25.23.55.37.89.37h0Z"/>
        <path class="cls-1" d="M4.01,45.22h1.38c.17,0,.34-.03.49-.11.16-.05.29-.14.41-.26.12-.11.21-.25.26-.41.08-.15.12-.31.11-.49l-.05-.33c-.06-.21-.17-.4-.32-.56-.25-.23-.55-.37-.89-.37h-1.38c-.17,0-.34.03-.49.11-.16.05-.29.14-.41.26-.12.11-.21.25-.26.41-.08.15-.12.31-.11.49l.05.33c.06.21.17.4.32.56.25.23.55.37.89.37h0Z"/>
        <path class="cls-1" d="M24.65,50.08h2.75c.32,0,.66-.14.89-.37s.38-.58.37-.89-.12-.66-.37-.89-.55-.37-.89-.37h-2.75c-.32,0-.66.14-.89.37s-.38.58-.37.89.12.66.37.89.55.37.89.37h0Z"/>
        <path class="cls-1" d="M45.29,52.99h2.75c.32,0,.66-.14.89-.37s.38-.58.37-.89-.12-.66-.37-.89-.55-.37-.89-.37h-2.75c-.32,0-.66.14-.89.37s-.38.58-.37.89.12.66.37.89.55.37.89.37h0Z"/>
        <path class="cls-1" d="M75.55,54.35h-2.75c-.32,0-.66.14-.89.37s-.38.58-.37.89.12.66.37.89.55.37.89.37h2.75c.32,0,.66-.14.89-.37s.38-.58.37-.89-.12-.66-.37-.89-.55-.37-.89-.37h0Z"/>
        <path class="cls-1" d="M32.9,50.47h-5.5c-.66,0-1.29.58-1.26,1.26s.55,1.26,1.26,1.26h5.5c.66,0,1.29-.58,1.26-1.26s-.55-1.26-1.26-1.26h0Z"/>
        <path class="cls-1" d="M1.26,42.31h1.38c.17,0,.34-.03.49-.11.16-.05.29-.14.41-.26.12-.11.21-.25.26-.41.08-.15.12-.31.11-.49l-.05-.33c-.06-.21-.17-.4-.32-.56-.25-.23-.55-.37-.89-.37h-1.38c-.17,0-.34.03-.49.11-.16.05-.29.14-.41.26-.12.11-.21.25-.26.41-.08.15-.12.31-.11.49l.05.33c.06.21.17.4.32.56.25.23.55.37.89.37h0Z"/>
        <path class="cls-1" d="M19.15,40.37c3.66-.36,7.32-.71,10.99-1.07.68-.07,1.26-.53,1.26-1.26,0-.63-.58-1.33-1.26-1.26-3.66.36-7.32.71-10.99,1.07-.68.07-1.26.53-1.26,1.26,0,.63.58,1.33,1.26,1.26h0Z"/>
        <path class="cls-1" d="M45.29,40.37h2.75c.32,0,.66-.14.89-.37s.38-.58.37-.89-.12-.66-.37-.89-.55-.37-.89-.37h-2.75c-.32,0-.66.14-.89.37s-.38.58-.37.89.12.66.37.89.55.37.89.37h0Z"/>
        <path class="cls-1" d="M56.29,38.82h-2.75c-.32,0-.66.14-.89.37s-.38.58-.37.89.12.66.37.89.55.37.89.37h2.75c.32,0,.66-.14.89-.37s.38-.58.37-.89-.12-.66-.37-.89-.55-.37-.89-.37h0Z"/>
        <path class="cls-1" d="M24.65,37.85h-2.75c-.32,0-.66.14-.89.37s-.38.58-.37.89.12.66.37.89.55.37.89.37h2.75c.32,0,.66-.14.89-.37s.38-.58.37-.89-.12-.66-.37-.89-.55-.37-.89-.37h0Z"/>
        <path class="cls-1" d="M92.06,58.81h1.38c.17,0,.34-.03.49-.11.16-.05.29-.14.41-.26.12-.11.21-.25.26-.41.08-.15.12-.31.11-.49l-.05-.33c-.06-.21-.17-.4-.32-.56-.25-.23-.55-.37-.89-.37h-1.38c-.17,0-.34.03-.49.11-.16.05-.29.14-.41.26-.12.11-.21.25-.26.41-.08.15-.12.31-.11.49l.05.33c.06.21.17.4.32.56.25.23.55.37.89.37h0Z"/>
        <path class="cls-1" d="M118.2,56.87h4.13c.66,0,1.29-.58,1.26-1.26s-.55-1.26-1.26-1.26h-4.13c-.66,0-1.29.58-1.26,1.26s.55,1.26,1.26,1.26h0Z"/>
        <path class="cls-1" d="M174.61,60.75h2.75c.32,0,.66-.14.89-.37s.38-.58.37-.89-.12-.66-.37-.89-.55-.37-.89-.37h-2.75c-.32,0-.66.14-.89.37s-.38.58-.37.89.12.66.37.89.55.37.89.37h0Z"/>
        <path class="cls-1" d="M207.63,60.75h1.38c.17,0,.34-.03.49-.11.16-.05.29-.14.41-.26.12-.11.21-.25.26-.41.08-.15.12-.31.11-.49l-.05-.33c-.06-.21-.17-.4-.32-.56-.25-.23-.55-.37-.89-.37h-1.38c-.17,0-.34.03-.49.11-.16.05-.29.14-.41.26-.12.11-.21.25-.26.41-.08.15-.12.31-.11.49l.05.33c.06.21.17.4.32.56.25.23.55.37.89.37h0Z"/>
        <path class="cls-1" d="M270.62,20.82l5.5.97c.65.11,1.39-.17,1.55-.88.14-.61-.19-1.43-.88-1.55l-5.5-.97c-.65-.11-1.39.17-1.55.88-.14.61.19,1.43.88,1.55h0Z"/>
        <path class="cls-1" d="M250.28,15.53h-2.75c-.32,0-.66.14-.89.37s-.38.58-.37.89.12.66.37.89.55.37.89.37h2.75c.32,0,.66-.14.89-.37s.38-.58.37-.89-.12-.66-.37-.89-.55-.37-.89-.37h0Z"/>
        <path class="cls-1" d="M226.89,15.53h-2.75c-.32,0-.66.14-.89.37s-.38.58-.37.89.12.66.37.89.55.37.89.37h2.75c.32,0,.66-.14.89-.37s.38-.58.37-.89-.12-.66-.37-.89-.55-.37-.89-.37h0Z"/>
        <path class="cls-1" d="M218.64,19.02h5.5c.66,0,1.29-.58,1.26-1.26s-.55-1.26-1.26-1.26h-5.5c-.66,0-1.29.58-1.26,1.26s.55,1.26,1.26,1.26h0Z"/>
        <path class="cls-1" d="M255.78,15.53h-1.38c-.17,0-.34.03-.49.11-.16.05-.29.14-.41.26-.12.11-.21.25-.26.41-.08.15-.12.31-.11.49l.05.33c.06.21.17.4.32.56.25.23.55.37.89.37h1.38c.17,0,.34-.03.49-.11.16-.05.29-.14.41-.26.12-.11.21-.25.26-.41.08-.15.12-.31.11-.49l-.05-.33c-.06-.21-.17-.4-.32-.56-.25-.23-.55-.37-.89-.37h0Z"/>
        <path class="cls-1" d="M242.02,18.05h1.38c.17,0,.34-.03.49-.11.16-.05.29-.14.41-.26.12-.11.21-.25.26-.41.08-.15.12-.31.11-.49l-.05-.33c-.06-.21-.17-.4-.32-.56-.25-.23-.55-.37-.89-.37h-1.38c-.17,0-.34.03-.49.11-.16.05-.29.14-.41.26-.12.11-.21.25-.26.41-.08.15-.12.31-.11.49l.05.33c.06.21.17.4.32.56.25.23.55.37.89.37h0Z"/>
        <path class="cls-1" d="M248.9,18.05h1.38c.17,0,.34-.03.49-.11.16-.05.29-.14.41-.26.12-.11.21-.25.26-.41.08-.15.12-.31.11-.49l-.05-.33c-.06-.21-.17-.4-.32-.56-.25-.23-.55-.37-.89-.37h-1.38c-.17,0-.34.03-.49.11-.16.05-.29.14-.41.26-.12.11-.21.25-.26.41-.08.15-.12.31-.11.49l.05.33c.06.21.17.4.32.56.25.23.55.37.89.37h0Z"/>
        <path class="cls-1" d="M290.92,27.35c-.46.32-.92.65-1.38.97-.15.08-.26.19-.35.32-.11.12-.19.26-.23.43-.05.17-.06.33-.02.5,0,.17.06.32.15.47.17.27.43.51.75.58l.33.05c.23,0,.44-.06.64-.17.46-.32.92-.65,1.38-.97.15-.08.26-.19.35-.32.11-.12.19-.26.23-.43.05-.17.06-.33.02-.5,0-.17-.06-.32-.15-.47-.17-.27-.43-.51-.75-.58l-.33-.05c-.23,0-.44.06-.64.17h0Z"/>
        <path class="cls-1" d="M264.04,30.09h-2.75c-.32,0-.66.14-.89.37s-.38.58-.37.89.12.66.37.89.55.37.89.37h2.75c.32,0,.66-.14.89-.37s.38-.58.37-.89-.12-.66-.37-.89-.55-.37-.89-.37h0Z"/>
        <path class="cls-1" d="M240.67,33.69l8.25-.97c.65-.08,1.29-.52,1.26-1.26-.03-.62-.56-1.34-1.26-1.26l-8.25.97c-.65.08-1.29.52-1.26,1.26.03.62.56,1.34,1.26,1.26h0Z"/>
        <path class="cls-1" d="M167.32,41.44c4.16,1.08,8.52,1.35,12.77.8.67-.09,1.26-.52,1.26-1.26,0-.61-.58-1.35-1.26-1.26-4.04.52-8.15.31-12.1-.71-1.57-.41-2.24,2.02-.67,2.43h0Z"/>
        <path class="cls-1" d="M23.27,13.59h-4.13c-.66,0-1.29.58-1.26,1.26s.55,1.26,1.26,1.26h4.13c.66,0,1.29-.58,1.26-1.26s-.55-1.26-1.26-1.26h0Z"/>
        <path class="cls-1" d="M8.14,16.11h11.01c1.62,0,1.62-2.52,0-2.52h-11.01c-1.62,0-1.62,2.52,0,2.52h0Z"/>
        <path class="cls-1" d="M30.15,19.99h2.75c.32,0,.66-.14.89-.37s.38-.58.37-.89-.12-.66-.37-.89-.55-.37-.89-.37h-2.75c-.32,0-.66.14-.89.37s-.38.58-.37.89.12.66.37.89.55.37.89.37h0Z"/>
        <path class="cls-1" d="M51.43,22.49l-1.38-.97c-.14-.09-.3-.14-.47-.15-.17-.04-.33-.03-.5.02-.16.04-.31.11-.43.23-.14.09-.25.21-.32.35-.15.29-.23.65-.13.97l.13.3c.11.19.26.34.45.45l1.38.97c.14.09.3.14.47.15.17.04.33.03.5-.02.16-.04.31-.11.43-.23.14-.09.25-.21.32-.35.15-.29.23-.65.13-.97l-.13-.3c-.11-.19-.26-.34-.45-.45h0Z"/>
      </g>
    </g>
  </g>
</svg>