<?xml version="1.0" encoding="UTF-8"?>
<svg id="Layer_2" data-name="Layer 2" xmlns="http://www.w3.org/2000/svg" xmlns:xlink="http://www.w3.org/1999/xlink" viewBox="0 0 440.93 81.77">
  <defs>
    <style>
      .cls-1 {
        fill: url(#linear-gradient);
      }
    </style>
    <linearGradient id="linear-gradient" x1="220.46" y1="0" x2="220.46" y2="81.77" gradientUnits="userSpaceOnUse">
      <stop offset="0" stop-color="#43992e"/>
      <stop offset="1" stop-color="#347824"/>
    </linearGradient>
  </defs>
  <g id="Assets">
    <path id="Spirogyra" class="cls-1" d="M75.39.03c-3.54-.08-7.32-.11-10.32,1.52-3,1.63-4.54,5.58-2.1,7.8-2.11,0-4.22.01-6.33.02,1.03,1.78,2.06,3.57,3.08,5.35-13.07.9-26.14,1.8-39.21,2.7,8.13,4.44,17.27,7.51,26.74,9-.62-1.16-2.73.46-2.12,1.63.61,1.17,2.21,1.71,3.04,2.77,1.39,1.77.09,4.33-2.01,5.46-2.1,1.13-4.7,1.24-7.17,1.41-13.79.94-27.3,4.81-38.99,11.17,12.15-.4,24.81-.72,35.92,3.55,2.69,1.04,5.28,2.34,8.15,2.94,5.61,1.18,11.47-.45,17.25-.44,4.52.01,8.95,1.04,13.31,2.06,13.74,3.21,27.47,6.41,41.21,9.62-3.97,2.56-7.12,6.06-9.03,10.01,37.07.47,74.19-1.52,110.91-5.93,1.07,2.03-.69,4.74-3.25,5.03,20.5.36,41,.72,61.5,1.07l2.44-8.04c10.69-2.09,22.05-1.56,32.41,1.52,6.53,1.94,12.62,4.85,19.06,7.02,18.05,6.08,38.8,6,56.79-.23-1.97-1.82-2.65-4.6-1.7-6.95,16.58-6.08,38.18,2.93,52.64-6.34,2.31-1.48,4.38-4.24,2.76-6.28-1.13-1.42-3.43-1.63-5.42-1.76-9.4-.59-18.7-2.24-27.6-4.89-3.23-.96-6.61-2.19-8.51-4.64-1.9-2.45-1.42-6.45,1.73-7.59-12.26-1.2-24.51-2.4-36.77-3.6-2.67-.26-5.48-.57-7.66-1.93s-3.4-4.15-1.89-6.07c-12.25.58-24.51,1.16-36.76,1.75,5.08-1.75,9.52-4.86,12.53-8.8-4.08-2.28-8.77-3.73-13.59-4.22,6.57-1.68,13.14-3.35,19.71-5.03,1.22-.31,2.56-.7,3.19-1.66,1.65-2.5-2.95-4.52-6.29-4.67-25.4-1.11-51.03,1.88-75.17,8.76-4.96-7.09-16.22-8.19-25.82-8.03-10.36.17-20.71.91-30.96,2.21-10.96,1.39-16.52-3.6-26.55-5.49-7.21-1.35-14.76-.14-22.06-.09C126.82,1.95,101.03.61,75.39.03Z"/>
  </g>
</svg>