<?xml version="1.0" encoding="UTF-8"?>
<svg id="Layer_2" data-name="Layer 2" xmlns="http://www.w3.org/2000/svg" viewBox="0 0 585.27 725.41">
  <defs>
    <style>
      .cls-1 {
        fill: #4fcf5e;
      }

      .cls-2 {
        fill: #8cef73;
      }
    </style>
  </defs>
  <g id="Info">
    <g>
      <path class="cls-2" d="M585.08,396.02l-.26-16.69-1.96-16.69-.36-16.69,1.27-16.69.71-16.69.78-16.69-.26-16.69-.87-16.69-.18-16.69-.4-16.69.99-16.69.55-16.69-1.43-16.69,1.36-16.69-.83-16.69-1.65-16.69,1.06-16.69.37-16.69.87-16.69-.51-16.69-1.6-16.69-2.37-16.84-8.61-15.2-15.15-8.74-16.89-4.22-17.05,1L505.61.06l-17.05,2.64-17.05-1.59-17.04.14-17.04-.63-17.04,2.07-17.04-1.23-17.04-.36-17.04-.68-17.04.42-17.04.14-17.04-.93-17.04,1.61-17.04.51-17.04-1.56-17.04-.43-17.04.37-17.04,1.2-17.04.46-17.04-1.03-17.04.51-17.04-.93-17.04,1.57-17.04-.63-17.04.42-17.04-2.13-17.04.38L45.51.11l-17.08,4.15-13.7,10.45-10.14,13.83L.12,45.49l1.92,16.7-1.03,16.7.69,16.7-1.69,16.7.41,16.69.91,16.7,1.22,16.7-1.02,16.7-.27,16.69,1.48,16.7-1.23,16.69-1.06,16.69,1.26,16.69.79,16.69-1.71,16.69-.34,16.7,2.01,16.69-1.47,16.69.64,16.69-.45,16.69,1.02,16.69-1.77,16.69,1.77,16.69-.02,16.69-.69,16.69-.23,16.69.93,16.69-.87,16.69.85,16.69.12,16.69.33,16.69-1.01,16.69-.64,16.69-.14,16.69.56,16.69.93,16.69.37,16.69-1.08,16.69,2.72,17.07,10.46,13.69,13.74,10.34,17.02,1.71,17.05,2.14,17.05-.26,17.05.42,17.05-.75,17.04-.1,17.04-.31,17.04.45,17.04,1.16,17.04-.72,17.04-1.7,17.04.5,17.04,1.2,17.04-.17,17.04.4,17.04-.76,17.04,1.18,17.04-.89,17.04-1.25,17.04,1.54,17.04-1.38,17.04-.44,17.04,2.08,17.04.35,17.04.06,17.04-.09,17.04-.76,17.04-1.12,17.04.22,17.04.17,16.74-3.58,14-9.68,9.77-13.96,3.05-16.77-.38-16.7.11-16.7.55-16.7.1-16.7-.74-16.69.33-16.7,1.81-16.7-1.72-16.7.14-16.69-.12-16.7.13-16.69,1.56-16.69-1.92-16.69,1.69-16.69-2.11-16.69.77-16.7,1.62-16.69ZM550.56,366.08c0,12.34-10.01,22.35-22.35,22.35H60.03c-12.34,0-22.35-10.01-22.35-22.35v-205.3c0-12.34,10.01-22.35,22.35-22.35h468.18c12.34,0,22.35,10.01,22.35,22.35v205.3Z"/>
      <path class="cls-1" d="M526.72,394.77l-18-1.4-18-.23-18-1.18-18.01,2.47-18.01-.44-18.01-1.16-18-.34-18-.37-18.01,1.97-18.01.29-18.01-2.05-18.01.72-18.01-.72-18,2.04-18-.71-18.01.18-18.01-.1-18.01-.5-18.01.3-18.01-.13-18.01-1.12-18,.19-18.01.98-18.01.59-18.01-.87-18.01-.48-20.3-6.35-7.2-20.3.61-18.66-1.35-18.66-.37-18.66-.08-18.66,2.04-18.66-1.98-18.66,1.8-18.66-1.42-18.67,1.6-18.67-.16-18.67-1.14-18.67,9.54-18.4,18.4-7.94,18,.23,18-2.08,18,2.3,18.01-.25,18.01-1.81,18.01-.89,18,1.66,18-1.13,18.01-.25,18.01,2.38,18.01.19,18.01-.83,18.01.51,18-2.53,18,.58,18.01-.55,18.01,1.1,18.01-.95,18.01.99,18.01-.83,18.01,1.72,18-.18,18.01-1.85,18.01,1.7,18.01.43,18.01-.53,18.51,8.7,10.2,18.51-1.29,18.66-.44,18.66,1.69,18.66-1.24,18.66.15,18.66.79,18.66-.33,18.66-.97,18.67-.38,18.67.86,18.67.59,18.67-8.63,19.51-19.51,9.19ZM58.54,144.77l-12.29,3.71-5.33,12.29-1.18,18.66,2.47,18.66-.44,18.66-1.16,18.66-.34,18.66-.37,18.66,1.97,18.66.29,18.67-2.05,18.67.72,18.67-.72,18.67,6.85,11.58,11.58,5.51,18-.18,18,.1,18,.5,18.01-.3,18.01.13,18.01,1.12,18-.19,18-.98,18.01-.59,18.01.87,18.01.48,18.01-2.07,18.01,1.22,18,.61,18-1.35,18.01-.37,18.01-.08,18.01,2.04,18.01-1.98,18.01,1.8,18.01-1.42,18,1.6,18.01-.16,18.01-1.14,18.01,1.91,18.01-.3,13.14-5.22,3.37-13.14,2.3-18.66-.25-18.66-1.81-18.66-.89-18.66,1.66-18.66-1.13-18.66-.25-18.66,2.38-18.67.19-18.67-.83-18.67.51-18.67-7.18-11.21-11.21-5.24-18,.55-18-1.1-18,.95-18.01-.99-18.01.83-18.01-1.72-18,.18-18,1.85-18.01-1.7-18.01-.43-18.01.53-18.01-1.02-18.01,2.52-18-1.29-18-.44-18.01,1.69-18.01-1.24-18.01.15-18.01.79-18.01-.33-18.01-.97-18-.38-18.01.86-18.01.59-18.01-.54-18.02,1.1Z"/>
      <polygon class="cls-1" points="543.99 458.8 525.81 459.24 507.87 458.38 489.94 457.66 472 458.05 454.07 459.55 436.14 458.5 418.2 457.91 400.27 456.97 382.33 458.57 364.4 459.51 346.46 459.03 328.53 459.49 310.59 459.64 292.65 459.78 274.72 457.72 256.78 457.94 238.85 457.09 220.92 457.75 202.98 458.91 185.04 459.03 167.11 457.84 149.17 458.05 131.23 457.98 113.3 457.4 95.36 459.64 77.41 457.56 59.47 459.51 41.92 457.64 41.9 449.01 59.46 448.18 77.39 448.69 95.33 449.73 113.26 447.56 131.19 448.03 149.13 449.14 167.07 448.13 185 447.32 202.93 446.97 220.87 447.83 238.8 448.91 256.74 447.96 274.68 447.66 292.61 449.02 310.55 449.05 328.48 449.82 346.42 446.97 364.35 448.64 382.29 449.25 400.22 449.76 418.16 448.42 436.1 449.22 454.04 447.87 471.97 447.77 489.91 447 507.85 448.57 525.8 447.41 543.79 448.26 543.99 458.8"/>
    </g>
  </g>
</svg>