<?xml version="1.0" encoding="UTF-8"?>
<svg id="Layer_2" data-name="Layer 2" xmlns="http://www.w3.org/2000/svg" xmlns:xlink="http://www.w3.org/1999/xlink" viewBox="0 0 268.64 233.78">
  <defs>
    <style>
      .cls-1 {
        fill: url(#radial-gradient);
      }
    </style>
    <radialGradient id="radial-gradient" cx="410.03" cy="178.9" fx="410.03" fy="209.97" r="212.93" gradientTransform="translate(-256.51 40.73) scale(.87 .86)" gradientUnits="userSpaceOnUse">
      <stop offset=".06" stop-color="#427d47"/>
      <stop offset=".15" stop-color="#47844a"/>
      <stop offset=".29" stop-color="#559852"/>
      <stop offset=".45" stop-color="#6cb860"/>
      <stop offset=".48" stop-color="#72c064"/>
      <stop offset=".66" stop-color="#88d979"/>
      <stop offset=".8" stop-color="#9cf08b"/>
    </radialGradient>
  </defs>
  <g id="Assets">
    <path id="Sea_Lettuce" data-name="Sea Lettuce" class="cls-1" d="M266.42,88.07c-4.33-6.48-12.21-6.57-19.27-6.4-13.63.33-27.74.78-40.01,6.63-5.87,2.8-12.7,6.84-18.35,3.63-3.76-2.14-5.2-7.44-3.03-11.14,1.39-2.36,4.09-3.79,6.84-3.96,3.6-.22,5.88-3.99,4.39-7.23-.46-.99-1.02-1.95-1.64-2.81-2.3-3.24-5.34-6.17-6.27-10.01-.93-3.85.44-7.85.49-11.8.12-9.04-7.74-17.48-16.91-18.17-7.78-.58-15.49,4.5-18.41,11.53-.97,2.32-3.49,3.63-6,3.18-6.76-1.21-13.46-3.39-17.1-8.88-3.3-4.98-3.12-11.34-3.79-17.25-.67-5.91-3.04-12.53-8.71-14.59-1.8-.65-3.76-.76-5.68-.78-12.55-.19-25.13,2.67-36.34,8.23-6.33,3.15-12.51,7.48-15.38,13.85-2.87,6.38-1.18,15.11,5.13,18.29,2.96,1.49,6.7,1.73,8.93,4.16,3.79,4.12.43,10.89,2.24,16.15,1.66,4.83,7.23,7.28,9.79,11.71,2.53,4.37,1.44,10.45-2.46,13.7-3.9,3.25-10.18,3.32-14.15.15l-.42-2.27c-.6-3.25-3.6-5.54-6.95-5.3l-10.94.78c-2.68.19-5.23-1.41-5.98-3.94-1.59-5.32-6.47-9.74-12.13-10.34-7.15-.77-14.42,4.67-15.57,11.65-1.27,7.64,3.91,14.74,5.78,22.26,2.44,9.83-.86,20.09-.65,30.21.22,10.11,6.67,21.91,16.95,21.47,5.75-.25,11.56-4.37,16.83-2.08,1.97.86,3.57,2.55,5.69,2.97,3.09.61,6.48-1.68,9.29-.29,2.17,1.07,2.9,3.87,4.96,5.15,1.72,1.07,3.92.82,5.93,1.13,6.03.95,9.97,7.25,10.23,13.25.38,8.57-6.09,29.09-9.24,42.85-.04-.33-.08-.66-.13-.99-.43-2.74-1.11-5.66-3.23-7.49-2.38-2.06-6.16-2.35-8-4.9-2.31-3.2-.1-7.49.69-11.33,1.56-7.6-3.17-15.41-9.7-19.77-6.53-4.35-14.54-5.91-22.35-7.03-7.81-1.12-15.81-1.93-23.02-5.08-2.87-1.25-5.75-2.9-8.88-2.78-3.14.12-6.4,3.05-5.37,5.96.46,1.28,1.65,2.34,1.65,3.69,0,1.66-1.7,2.72-2.95,3.84-3.99,3.56-4.14,10.09-1.3,14.59,2.85,4.5,8.01,7.16,13.27,8.34,1.32.3,2.7.53,3.81,1.3.81.57,1.41,1.38,1.98,2.18,4.33,6.06,8.51,12.32,14.02,17.37,3.49,3.2,8.08,6,12.76,5.07,5.19-1.04,9.44-6.49,14.6-5.28,2.88.67,4.82,3.27,7.36,4.77,3.61,2.13,8.49,2.1,11.39,5.1.75.77,1.3,1.69,1.75,2.66.03.99.4,1.85.99,2.5.02.05.04.1.05.15,0,0,.02-.03.04-.05.01.01.03.03.04.04-.09,2.67,13.79,2.99,15.78,3.45,5.07,1.16,9.86,3.98,15.06,3.71,4.77-.25,8.94-3.05,13.25-5.09,8.92-4.21,18.99-5.25,28.84-6.17,3.89-.36,7.79-.72,11.7-.66,7.53.11,15.44,1.68,22.35-1.27.38-.16.76-.34,1.06-.63,1.12-1.07.52-2.92-.25-4.26-.76-1.34-1.64-2.96-.88-4.3.36-.63,1.01-1.03,1.56-1.51,3.1-2.67,2.78-7.91.04-10.93-2.75-3.02-7.19-4.07-11.31-3.77s-8.02,1.78-11.93,3.09c-3.9,1.31-7.97,2.48-12.08,2.16-.81-.06-1.67-.21-2.28-.75-.62-.55-.87-1.42-1.44-2.03-1.04-1.1-2.81-1.01-4.32-.81-3.2.43-6.51,1.08-9.04,3.06-4.89,3.82-5.81,11.73-11.56,14.11-2.24.93-4.79.78-7.12,1.43-2.35.65-4.41,2.1-6.04,3.88-2.03,2.22-3.72,5.15-6.67,5.82-1.62.37-3.3-.04-4.92-.35-3.47-.66-7.04-.84-10.56-.56-.08,0-.19.01-.29.02,13.93-11.32,35.91-33.26,50.08-34.74,2.88-.3,4.99-2.67,5.11-5.51.19-4.44,3.75-9.07,8.21-10.85,6.19-2.47,13.16-1.31,19.81-.74,7.27.62,14.6.48,21.84-.41,1.93-.24,3.41-1.96,3.12-3.85-.49-3.19,2.16-7.45,5.79-8.37,5.09-1.29,10.33.98,15.56,1.53,5.23.56,11.88-2.12,11.74-7.29-.07-2.56-1.88-4.91-1.65-7.46.42-4.61,7.11-7.13,6.83-11.76-.44-7.1-14.35-4.53-16.6-11.69-.82-2.61.32-5.44,2.55-7.06,4.69-3.4,10.21-2.3,15.49-1.98,9.98.61,20.94-2.16,25.97-11.47,2.48-4.59,2.51-10.18-.39-14.52Z"/>
  </g>
</svg>