<?xml version="1.0" encoding="UTF-8"?>
<svg id="Layer_2" data-name="Layer 2" xmlns="http://www.w3.org/2000/svg" xmlns:xlink="http://www.w3.org/1999/xlink" viewBox="0 0 226.71 278.8">
  <defs>
    <style>
      .cls-1 {
        fill: url(#linear-gradient-2);
      }

      .cls-2 {
        fill: #a4d174;
      }

      .cls-3 {
        fill: url(#linear-gradient-4);
      }

      .cls-4 {
        fill: url(#linear-gradient-3);
      }

      .cls-5 {
        fill: url(#linear-gradient-5);
      }

      .cls-6 {
        fill: #5d8236;
      }

      .cls-7 {
        fill: url(#linear-gradient-8);
      }

      .cls-8 {
        fill: #88bc50;
      }

      .cls-9 {
        fill: url(#linear-gradient-7);
      }

      .cls-10 {
        fill: url(#linear-gradient-9);
      }

      .cls-11 {
        fill: #72aa3c;
      }

      .cls-12 {
        fill: url(#linear-gradient-6);
      }

      .cls-13 {
        fill: url(#linear-gradient);
      }
    </style>
    <linearGradient id="linear-gradient" x1="109.81" y1="46.16" x2="112.98" y2="82.84" gradientTransform="translate(2.66 -3.69)" gradientUnits="userSpaceOnUse">
      <stop offset="0" stop-color="#cceda6"/>
      <stop offset=".02" stop-color="#c5e69f"/>
      <stop offset=".13" stop-color="#a5c77f"/>
      <stop offset=".25" stop-color="#8aae64"/>
      <stop offset=".39" stop-color="#769a4f"/>
      <stop offset=".54" stop-color="#688c41"/>
      <stop offset=".71" stop-color="#5f8438"/>
      <stop offset="1" stop-color="#5d8236"/>
    </linearGradient>
    <linearGradient id="linear-gradient-2" x1="50.16" y1="41.15" x2="53.33" y2="77.8" gradientTransform="translate(4.83 -3.88) rotate(4.5)" xlink:href="#linear-gradient"/>
    <linearGradient id="linear-gradient-3" x1="85.73" y1="4.37" x2="89.43" y2="47.13" gradientUnits="userSpaceOnUse">
      <stop offset="0" stop-color="#cceda6"/>
      <stop offset="0" stop-color="#cbeca5"/>
      <stop offset=".12" stop-color="#afd884"/>
      <stop offset=".24" stop-color="#99c76a"/>
      <stop offset=".38" stop-color="#87ba55"/>
      <stop offset=".53" stop-color="#7bb147"/>
      <stop offset=".71" stop-color="#74ab3e"/>
      <stop offset="1" stop-color="#72aa3c"/>
    </linearGradient>
    <linearGradient id="linear-gradient-4" x1="118.19" y1="74.34" x2="120.82" y2="104.77" gradientTransform="translate(198.81 -36.98) rotate(85.23)" gradientUnits="userSpaceOnUse">
      <stop offset="0" stop-color="#cceda6"/>
      <stop offset=".05" stop-color="#c1e598"/>
      <stop offset=".19" stop-color="#acd67e"/>
      <stop offset=".33" stop-color="#9cca69"/>
      <stop offset=".49" stop-color="#90c25b"/>
      <stop offset=".69" stop-color="#8abd52"/>
      <stop offset="1" stop-color="#88bc50"/>
    </linearGradient>
    <linearGradient id="linear-gradient-5" x1="69.58" y1="94.66" x2="72.08" y2="123.6" gradientTransform="translate(2.66 -3.69)" xlink:href="#linear-gradient-4"/>
    <linearGradient id="linear-gradient-6" x1="85.91" y1="122.87" x2="88.02" y2="147.26" gradientTransform="translate(2.66 -3.69)" xlink:href="#linear-gradient-3"/>
    <linearGradient id="linear-gradient-7" x1="125.83" y1="120.81" x2="127.93" y2="145.2" gradientTransform="translate(2.66 -3.69)" xlink:href="#linear-gradient-3"/>
    <linearGradient id="linear-gradient-8" x1="53.55" y1="168.61" x2="54.77" y2="182.79" gradientTransform="translate(2.66 -3.69)" xlink:href="#linear-gradient-3"/>
    <linearGradient id="linear-gradient-9" x1="101.65" y1="160.6" x2="103.12" y2="177.61" gradientTransform="translate(2.66 -3.69)" gradientUnits="userSpaceOnUse">
      <stop offset="0" stop-color="#cceda6"/>
      <stop offset=".03" stop-color="#c8eaa2"/>
      <stop offset=".2" stop-color="#b8df8d"/>
      <stop offset=".39" stop-color="#acd77f"/>
      <stop offset=".63" stop-color="#a6d276"/>
      <stop offset="1" stop-color="#a4d174"/>
    </linearGradient>
  </defs>
  <g id="Assets">
    <g id="Benthic_Mats" data-name="Benthic Mats">
      <path class="cls-11" d="M55.67,196.4c-.81,11.48-8.1,21.56-17.34,24-6.34,1.67-15.16,1.89-16.2,9.66-.63,4.71,2.5,9.5,1.77,14.18-1.66,10.56-17.17,4.94-22.47,13.42-3.31,5.29-.44,13.75,4.38,17.4,4.82,3.65,10.76,3.78,16.34,3.63,23.52-.65,46.87-4.35,69.55-11,2.76-.81,5.61-1.67,8.46-1.13,3.24.62,6.09,2.96,9.06,4.71,20.2,11.84,43.09-4.45,65.17-2.33,16,1.54,31.75,12.84,47.33,9.11,1.3-.31,2.63-.76,3.59-1.82,3.14-3.44.47-9.92-2.56-13.8-9.81-12.61-22.97-21.34-36.86-24.46-6.32-1.42-13.64-2.29-17.46-8.68-1.75-2.92-2.42-6.54-3.71-9.77-6.36-15.91-24.21-17.56-36.69-26.8-5.3-3.92-10.28-9.66-16.38-9.99-4.36-.24-8.32,2.39-12.24,4.51-10.09,5.46-21.36,7.9-32.58,7.05l-11.16,2.11Z"/>
      <g>
        <path class="cls-6" d="M129.88,97.76c5.66-12.42,9.07-27.2,4.89-40.35-4.18-13.15-18.15-22.75-29.4-16.93-9.68,5.01-13.48,18.84-12.16,30.77,1.32,11.93,6.49,22.81,10.15,34.1,12.67,39.06,7.19,82.19,3.1,123.53-.78,7.88-.97,17.28,4.62,22.09,6.54,5.63,16.76.08,20.12-8.4,3.36-8.48,1.92-18.29.33-27.4-6.72-38.58-13.95-79.59-2-116.51l.34-.88Z"/>
        <ellipse class="cls-13" cx="113.95" cy="59.61" rx="18.03" ry="18.52"/>
      </g>
      <g>
        <path class="cls-6" d="M70.49,96c4.64-12.74,6.86-27.64,1.7-40.34-5.16-12.7-19.74-21.11-30.43-14.48-9.2,5.71-11.88,19.7-9.64,31.42,2.24,11.71,8.2,22.08,12.71,32.98,15.6,37.68,13.53,80.82,12.7,122.07-.16,7.87.39,17.18,6.29,21.51,6.92,5.07,16.61-1.23,19.27-9.89,2.66-8.66.47-18.26-1.81-27.16-9.66-37.68-20.02-77.72-11.06-115.22l.27-.9Z"/>
        <ellipse class="cls-1" cx="51.74" cy="59.48" rx="17.91" ry="18.39" transform="translate(-4.51 4.25) rotate(-4.5)"/>
      </g>
      <g>
        <path class="cls-11" d="M106.02,68.81c6.6-14.48,10.57-31.71,5.71-47.05-4.87-15.33-21.16-26.52-34.27-19.74-11.29,5.84-15.71,21.96-14.17,35.88,1.54,13.92,7.57,26.59,11.84,39.76,14.78,45.53,8.38,95.82,3.61,144.02-.91,9.19-1.13,20.14,5.38,25.75,7.63,6.57,19.54.09,23.46-9.8s2.23-21.32.38-31.95c-7.84-44.98-16.26-92.79-2.33-135.85l.39-1.02Z"/>
        <ellipse class="cls-4" cx="87.46" cy="24.34" rx="21.02" ry="21.59"/>
      </g>
      <g>
        <path class="cls-8" d="M129.98,122.01c5.51-9.82,9.32-21.74,6.79-32.84-2.53-11.1-13.36-19.95-23-15.94-8.3,3.45-12.37,14.56-12.11,24.46.27,9.9,3.77,19.2,6.01,28.73,7.74,32.98.27,68.06-5.93,101.76-1.18,6.43-1.98,14.14,2.28,18.47,4.99,5.08,13.78,1.22,17.12-5.53,3.34-6.74,2.83-14.9,2.15-22.51-2.88-32.18-6.01-66.38,6.36-95.92l.34-.7Z"/>
        <ellipse class="cls-3" cx="119.5" cy="89.56" rx="15.28" ry="14.87" transform="translate(20.32 201.2) rotate(-85.23)"/>
      </g>
      <g>
        <path class="cls-8" d="M85.97,134.58c4.47-9.8,7.16-21.46,3.86-31.84-3.29-10.38-14.32-17.95-23.19-13.36-7.64,3.95-10.63,14.86-9.59,24.28,1.04,9.42,5.12,18,8.01,26.91,10,30.81,5.67,64.85,2.44,97.46-.62,6.22-.76,13.63,3.64,17.43,5.16,4.44,13.23.06,15.88-6.63,2.65-6.69,1.51-14.43.26-21.62-5.3-30.44-11.01-62.79-1.57-91.93l.27-.69Z"/>
        <ellipse class="cls-5" cx="73.41" cy="104.49" rx="14.22" ry="14.61"/>
      </g>
      <g>
        <path class="cls-11" d="M100.14,155.94c3.77-8.26,6.03-18.09,3.25-26.83-2.78-8.74-12.07-15.13-19.55-11.26-6.44,3.33-8.96,12.53-8.08,20.46.88,7.94,4.31,15.17,6.75,22.67,8.43,25.97,4.78,54.65,2.06,82.13-.52,5.24-.64,11.49,3.07,14.69,4.35,3.75,11.15.05,13.38-5.59,2.23-5.64,1.27-12.16.22-18.22-4.47-25.65-9.28-52.92-1.33-77.47l.23-.58Z"/>
        <ellipse class="cls-12" cx="89.55" cy="130.58" rx="11.99" ry="12.31"/>
      </g>
      <g>
        <path class="cls-11" d="M140.06,153.88c3.77-8.26,6.03-18.09,3.25-26.83-2.78-8.74-12.07-15.13-19.55-11.26-6.44,3.33-8.96,12.53-8.08,20.46.88,7.94,4.31,15.17,6.75,22.67,8.43,25.97,4.78,54.65,2.06,82.13-.52,5.24-.64,11.49,3.07,14.69,4.35,3.75,11.15.05,13.38-5.59,2.23-5.64,1.27-12.16.22-18.22-4.47-25.65-9.28-52.92-1.33-77.47l.23-.58Z"/>
        <ellipse class="cls-9" cx="129.47" cy="128.52" rx="11.99" ry="12.31"/>
      </g>
      <g>
        <path class="cls-11" d="M62.93,186.29c2.19-4.8,3.5-10.51,1.89-15.59-1.61-5.08-7.01-8.79-11.36-6.54-3.74,1.93-5.21,7.28-4.7,11.89.51,4.61,2.51,8.81,3.92,13.18,4.9,15.09,2.78,31.76,1.2,47.73-.3,3.05-.37,6.68,1.78,8.53,2.53,2.18,6.48.03,7.77-3.25,1.3-3.28.74-7.07.13-10.59-2.6-14.91-5.39-30.75-.77-45.02l.13-.34Z"/>
        <ellipse class="cls-7" cx="56.78" cy="171.55" rx="6.97" ry="7.16"/>
      </g>
      <g>
        <path class="cls-2" d="M112.38,182.55c2.63-5.76,4.21-12.62,2.27-18.71-1.94-6.1-8.42-10.55-13.63-7.85-4.49,2.32-6.25,8.74-5.64,14.27.61,5.54,3.01,10.58,4.71,15.82,5.88,18.11,3.33,38.12,1.44,57.29-.36,3.66-.45,8.01,2.14,10.24,3.03,2.61,7.77.04,9.33-3.9,1.56-3.93.89-8.48.15-12.71-3.12-17.89-6.47-36.91-.93-54.04l.16-.41Z"/>
        <ellipse class="cls-10" cx="105" cy="164.86" rx="8.36" ry="8.59"/>
      </g>
    </g>
  </g>
</svg>