<?xml version="1.0" encoding="UTF-8"?>
<svg id="Layer_2" data-name="Layer 2" xmlns="http://www.w3.org/2000/svg" xmlns:xlink="http://www.w3.org/1999/xlink" viewBox="0 0 174.82 117.54">
  <defs>
    <style>
      .cls-1 {
        fill: url(#radial-gradient);
      }

      .cls-2 {
        fill: url(#radial-gradient-3);
      }

      .cls-3 {
        fill: url(#radial-gradient-2);
      }
    </style>
    <radialGradient id="radial-gradient" cx="93.52" cy="11.37" fx="93.52" fy="11.37" r="71.27" gradientUnits="userSpaceOnUse">
      <stop offset="0" stop-color="#74db86"/>
      <stop offset="1" stop-color="#3c7a26"/>
    </radialGradient>
    <radialGradient id="radial-gradient-2" cx="136.91" cy="68.7" fx="136.91" fy="68.7" r="38.54" xlink:href="#radial-gradient"/>
    <radialGradient id="radial-gradient-3" cx="30.51" cy="45.78" fx="30.51" fy="45.78" r="56.69" xlink:href="#radial-gradient"/>
  </defs>
  <g id="Assets">
    <g id="Bubble_Algae" data-name="Bubble Algae">
      <path class="cls-1" d="M163.02,40.45c5.44,35.22-25.67,61.39-56.98,61.14-28.15-.23-49.33-24.75-50.82-53.91C53.78,19.41,77.28,4,105.86.48c28.44-3.51,52.93,12.58,57.16,39.97Z"/>
      <path class="cls-3" d="M174.49,84.42c2.94,19.05-13.88,33.2-30.81,33.06-15.22-.12-26.67-13.38-27.48-29.15-.78-15.29,11.93-23.62,27.38-25.53,15.38-1.9,28.63,6.8,30.91,21.61Z"/>
      <path class="cls-2" d="M85.79,68.9c4.33,28.02-20.42,48.83-45.32,48.63C18.08,117.35,1.24,97.85.05,74.66c-1.15-22.49,17.55-34.74,40.27-37.55,22.62-2.79,42.1,10.01,45.47,31.79Z"/>
    </g>
  </g>
</svg>