<?xml version="1.0" encoding="UTF-8"?>
<svg id="Layer_2" data-name="Layer 2" xmlns="http://www.w3.org/2000/svg" viewBox="0 0 142.37 157.34">
  <defs>
    <style>
      .cls-1 {
        fill: none;
        stroke: #b75a58;
        stroke-linecap: round;
        stroke-linejoin: round;
        stroke-width: 3.72px;
      }
    </style>
  </defs>
  <g id="Assets">
    <g id="Gracilaria">
      <path class="cls-1" d="M71.96,155.48c-1.22-6.38-2.44-12.97-1.05-19.32.99-4.55,3.27-8.69,5.26-12.9,5.14-10.87,8.53-23.26,5.54-34.91-3.4-13.22-14.41-23.31-18.62-36.29-1.92-5.92-2.35-12.2-2.77-18.4-.48-7.2-.87-14.87,2.66-21.17,1.24-2.22,3.01-4.48,2.64-7"/>
      <path class="cls-1" d="M85.42,27.06c-6.56,1.52-11.73,7.74-12.02,14.46-.06,1.34.04,2.75-.55,3.96-.39.8-1.05,1.44-1.73,2.02-2.13,1.82-4.56,3.28-7.17,4.3"/>
      <path class="cls-1" d="M86.21,39c-1.31-.7-2.63-1.39-3.94-2.09-.36-.19-.74-.38-1.14-.37-.56.01-1.03.41-1.48.76-1.68,1.29-3.78,2.02-5.9,2.05"/>
      <path class="cls-1" d="M59.78,27.82c-2.35-1.71-4.73-3.43-7.38-4.63-1.92-.87-3.96-1.46-6-1.99-8.21-2.13-16.65-3.38-25.12-3.69-2.03-.08-4.13-.11-5.99-.95s-3.42-2.7-3.21-4.72"/>
      <path class="cls-1" d="M7.68,20.63c3.32-1.87,7.07-2.97,10.87-3.19"/>
      <path class="cls-1" d="M18.02,5.93c3.35,1.09,6.38,3.14,8.64,5.85,2.09,2.52,3.77,5.76,6.88,6.78"/>
      <path class="cls-1" d="M73.37,70.6c-13.76-10.27-31.28-15.37-48.4-14.1-5.03.37-10.35,1.44-13.98,4.94"/>
      <path class="cls-1" d="M61.83,47.68c-2.7-3-7.1-4.37-11.03-3.43-1.12.27-2.22.71-3.37.67-1.82-.06-3.51-1.48-3.88-3.26"/>
      <path class="cls-1" d="M21.8,57.07c-.38-.66-.78-1.33-1.38-1.8-.98-.77-2.31-.86-3.55-.93-3.44-.18-6.87-.35-10.31-.53.05-.96-.15-1.94-.58-2.8"/>
      <path class="cls-1" d="M1.86,55.89c1.76.43,3.73-.14,5-1.44"/>
      <path class="cls-1" d="M36.5,57.11c-.9-.44-2.11-.14-2.69.69.62.88,1.24,1.76,1.87,2.64.2.28.41.61.33.95-.09.37-.48.57-.83.71-1.32.53-2.69.96-4.09,1.26"/>
      <path class="cls-1" d="M36.7,66.1c.26-1.45.44-3.18-.64-4.19-.4-.37-.92-.59-1.3-.98s-.57-1.07-.17-1.45"/>
      <path class="cls-1" d="M40.81,19.97c.69-2.11,1.04-4.34,1.03-6.56,0-.78-.07-1.61-.51-2.26-.51-.75-1.41-1.11-2.16-1.62-2.38-1.63-3.13-5.23-1.59-7.67"/>
      <path class="cls-1" d="M42.27,12.76c.84-1.41,1.58-2.88,2.21-4.39,1.21.12,2.41.25,3.62.37.49.05,1.18-.07,1.18-.56"/>
      <path class="cls-1" d="M62.68,12.73c2.04-.36,4.15-.25,6.14.33,1.98.57,4.2,1.57,5.95.49"/>
      <path class="cls-1" d="M82.69,92.62c3.58-2.9,8.43-3.67,13.03-3.78,4.61-.11,9.27.34,13.79-.54,9.27-1.81,16.51-8.85,23.16-15.57,1.7-1.72,3.4-3.44,5.1-5.16"/>
      <path class="cls-1" d="M124.66,80.56c1.29-1.45,2.67-3.28,2.1-5.13-.36-1.16-1.44-2.04-1.58-3.25-.15-1.25.75-2.34,1.49-3.35s1.38-2.39.74-3.46"/>
      <path class="cls-1" d="M125.57,70.81c-1.38-.46-2.57-1.5-3.2-2.81"/>
      <path class="cls-1" d="M112.34,87.29c.95-1.21,1.94-2.52,2.08-4.05s-.94-3.29-2.48-3.24c-.28,0-.59.07-.83-.07-.25-.15-.34-.45-.41-.73-.63-2.47-1.18-5.37.46-7.32.54-.64,1.27-1.12,1.68-1.84.56-1,.37-2.29-.2-3.29s-1.46-1.77-2.33-2.52"/>
      <path class="cls-1" d="M110.41,78.79c-1.58-.34-3.14-.75-4.69-1.24-.87-.27-1.75-.58-2.45-1.15s-1.2-1.48-1.06-2.37"/>
      <path class="cls-1" d="M95.87,89.04c2.57-.8,5.64,1,6.2,3.63.2.97.13,2.04.67,2.87.74,1.13,2.3,1.31,3.65,1.39,2.04.11,4.08.23,6.12.34"/>
      <path class="cls-1" d="M103.01,95.85c.09.88.76,1.58,1.3,2.29s.97,1.69.53,2.46"/>
      <path class="cls-1" d="M121.65,82.33c1.39,0,2.79-.01,4.18-.02.23,0,.5.01.65.19.13.15.13.36.13.55,0,.99,0,1.99.01,2.98,3.31.67,6.89-.18,9.54-2.27"/>
      <path class="cls-1" d="M130.24,86.81c1.54.57,2.89,1.64,3.79,3"/>
      <path class="cls-1" d="M134.69,71.35c1.81-.56,3.83-.39,5.53.44"/>
      <path class="cls-1" d="M136.89,68.2c-.38-1.32-1.06-2.56-1.99-3.58"/>
      <path class="cls-1" d="M137.31,67.92c1.22.04,2.44-.51,3.21-1.46"/>
      <path class="cls-1" d="M90.86,89.18c2.05-.78,4.11-1.55,6.16-2.33.75-.28,1.67-.97,1.28-1.67-.14-.25-.4-.39-.66-.51-1.27-.63-2.54-1.26-3.81-1.89-.33-2.62-.22-5.3.33-7.89.06-.27.12-.58-.03-.82-.12-.2-.35-.3-.56-.39-.74-.31-1.48-.61-2.23-.92"/>
      <path class="cls-1" d="M95.07,81.89c1.29-.68,2.5-1.5,3.61-2.44"/>
      <path class="cls-1" d="M56.62,61.48c-1.59-1.68-3.18-3.36-4.76-5.04-.24-.25-.5-.57-.42-.91.08-.34.44-.51.71-.72.77-.61.82-1.92.11-2.6"/>
      <path class="cls-1" d="M45.42,44.71c-1.22.17-2.44.35-3.65.52-1.13.16-2.32.34-3.22,1.04-.26.2-.5.44-.82.53-.99.27-1.59-1.05-1.76-2.06"/>
      <path class="cls-1" d="M54.58,43.69c-.26-1.13.37-2.44-.24-3.42-.22-.36-.59-.61-.89-.91-.76-.76-1.13-1.9-.96-2.97"/>
      <path class="cls-1" d="M70.75,47.59l2.57.35c.02.86.04,1.71.06,2.57,2.71,1.13,5.88,1.12,8.59-.04"/>
      <path class="cls-1" d="M72.9,43.4c-1.12-1.3-2.78-2.14-3.55-3.67-1.11-2.18.01-4.85-.45-7.26"/>
      <path class="cls-1" d="M75.12,71.91c.77-2.73,1.68-5.41,2.73-8.04,1.16-2.89,2.52-5.78,4.73-7.98,4.62-4.62,11.74-5.25,17.85-7.57,10.46-3.96,18.49-13.76,20.32-24.8"/>
      <path class="cls-1" d="M107.56,44.53c2.78-.25,5.59-.09,8.32.47.21,1.33-.13,2.75-.92,3.84,1.2.54,2.51.85,3.82.9"/>
      <path class="cls-1" d="M115.89,44.9c2.11-1.1,4.8,1.49,6.93.44"/>
      <path class="cls-1" d="M91.8,51.41l3.99-4.33c.16-.17.33-.38.27-.61-.05-.2-.25-.31-.42-.42-2.01-1.23-2.65-3.98-2.12-6.28.53-2.3,1.99-4.26,3.4-6.15"/>
      <path class="cls-1" d="M84.12,54.03c1.87-.38,4.2-.59,5.3.97.52.75.61,1.73,1.1,2.49.8,1.23,2.45,1.58,3.92,1.64.81.04,1.63.02,2.4-.22,1.15-.36,2.08-1.19,3.09-1.85s2.27-1.15,3.4-.75"/>
      <path class="cls-1" d="M97.18,59.33c.64-.03,1.31-.04,1.87.27s.89,1.09.52,1.61c-.12.17-.3.29-.42.46-.32.44-.16,1.09.21,1.49s.9.6,1.41.79"/>
      <path class="cls-1" d="M118.63,29.89c-.52-3.1-4.38-4.8-4.86-7.9-.18-1.13.13-2.27.16-3.41s-.33-2.44-1.36-2.93"/>
      <path class="cls-1" d="M114.59,23.59l.05-3.64c.7.24,1.55-.09,1.91-.73"/>
      <path class="cls-1" d="M119.05,30.47c1.96-.18,3.92-.36,5.89-.54.21-.02.44-.03.6.11.15.14.17.36.21.56.28,1.55,2.14,2.38,3.69,2.12s2.85-1.3,4.07-2.3,2.53-2.02,4.09-2.26"/>
      <path class="cls-1" d="M124.82,30.44l2.88-2.93c.29-.29.58-.59.76-.96.26-.54.23-1.17.29-1.76.15-1.53.92-2.98,2.09-3.97"/>
      <path class="cls-1" d="M82.62,92.39c-6.98-7.01-16.57-11.08-26.37-12.44-4.24-.59-8.63-.69-12.73.56s-7.87,4.01-9.61,7.92"/>
      <path class="cls-1" d="M47.81,97.86c2.04-.36,4.14-.74,5.92-1.81s3.19-3.02,3.02-5.08c-.09-1.1-.6-2.11-1.05-3.12-.7-1.61-1.24-3.29-1.6-5-.15-.72-.27-1.5,0-2.18s1.1-1.2,1.77-.89"/>
      <path class="cls-1" d="M38.91,91.99c1.4-.26,2.76-.77,3.98-1.5.16-.09.32-.2.42-.36.23-.37.01-.84-.17-1.24-1.33-2.87-.6-6.55,1.72-8.7"/>
      <path class="cls-1" d="M52.56,80.2l.58-4.14c.12-.83.22-1.74-.2-2.46-.52-.88-1.64-1.19-2.36-1.92-.95-.95-1.02-2.64-.16-3.67"/>
      <path class="cls-1" d="M51.69,71.6c-2.02.17-4.06-.04-6-.62.25-1.42-2.48-2.15-2.06-3.53.14-.46.63-.85.49-1.31"/>
      <path class="cls-1" d="M67.29,82.81l-.82-5.42c-.03-.18-.05-.38.04-.54.14-.25.48-.28.75-.37.81-.27,1.2-1.27,1.06-2.11s-.65-1.58-1.16-2.27"/>
      <path class="cls-1" d="M70.6,83.47c.46.64.36,1.53.07,2.25s-.77,1.37-1.04,2.11c-.18.51-.27,1.04-.33,1.58-.19,1.63-.22,3.28-.07,4.91"/>
      <path class="cls-1" d="M60.7,80.34c-1.12,1.05-.88,2.93-.14,4.28s1.89,2.46,2.47,3.88c.75,1.81.49,3.86.23,5.8"/>
      <path class="cls-1" d="M81.88,108.89c-4.04-.98-8.44-1.93-12.23-.22-3.44,1.56-5.63,5.02-8.82,7.04-2.41,1.53-5.38,2.18-8.21,1.79"/>
      <path class="cls-1" d="M65.37,112.57c1.15,1.9.89,4.54-.61,6.17"/>
      <path class="cls-1" d="M68.98,109.38c.12-1.37-1.17-2.54-2.52-2.79s-2.73.16-4.03.58-2.68.85-4.03.63"/>
      <path class="cls-1" d="M74.58,72.18c1.56-.95,3.29-1.95,5.1-1.68,1.17.17,2.18.84,3.27,1.3s2.43.66,3.37-.03"/>
      <path class="cls-1" d="M45.94,21.28l-5.62-.83c.48,2.6.8,5.7-1.15,7.48-.94.85-2.21,1.19-3.43,1.56"/>
      <path class="cls-1" d="M22.38,17.98c-1.61-.95-3.89.22-4.45,2s.34,3.79,1.78,4.98c1.44,1.19,3.33,1.7,5.18,1.96"/>
      <path class="cls-1" d="M21.6,56.14c-.21-.98-.73-1.86-1.04-2.81s-.37-2.08.25-2.86,2.09-.83,2.49.09"/>
      <path class="cls-1" d="M81.23,108.3c1.68-.3,3.5-.59,5.02.18,3.45,1.74,2.64,6.92,4.52,10.3,2.35,4.21,8.08,4.61,12.86,5.25,5.71.76,11.28,2.59,16.33,5.38,1.74.96,3.43,2.04,4.76,3.51.74.82,1.36,1.75,2.19,2.49,2.87,2.55,8.06,1.62,9.87-1.77"/>
      <path class="cls-1" d="M98.43,122.97c2.49.28,4.97.55,7.46.83.47.05.99.1,1.39-.15.27-.16.46-.44.61-.72.75-1.4.69-3.25-.32-4.47s-2.98-1.59-4.26-.65"/>
      <path class="cls-1" d="M116.11,127.93c2.18-.54,4.55-1.07,6.59-.15.53.24,1.02.57,1.56.8,1.92.83,4.24.25,5.88-1.05,1.64-1.3,2.69-3.21,3.43-5.17"/>
      <path class="cls-1" d="M131.47,126.75c.9,1.49,2.24,3.2,3.95,2.88"/>
      <path class="cls-1" d="M96.81,123.46c1.83,2.86,2.53,6.41,1.93,9.75"/>
      <path class="cls-1" d="M110.91,125.87c1.73,1.08,2.68,3.3,2.27,5.3-.17.83-.55,1.63-.55,2.48,0,2.48,3.08,3.85,3.85,6.21"/>
      <path class="cls-1" d="M112.92,135.18c-.18,1.41-.75,2.76-1.65,3.86"/>
      <path class="cls-1" d="M81.42,112.87c-2.6,1.37-4.99,3.12-7.09,5.18-1.31,1.28-2.52,2.69-4.07,3.66-3.05,1.9-6.93,1.8-10.48,1.23-6.64-1.07-13.02-3.54-19.7-4.36-6.68-.82-14.16.37-18.65,5.37"/>
      <path class="cls-1" d="M45.11,119.5c-1.17.11-2.37.23-3.39.8s-1.81,1.73-1.58,2.88c.13.67.58,1.22.99,1.77,1.4,1.86,2.56,3.9,3.42,6.07.16.4.31.84.18,1.25-.14.44-.56.73-.95.97-.84.53-1.67,1.06-2.51,1.59"/>
      <path class="cls-1" d="M32.85,118.21l-2.41-4.09c-.25-.43-.63-.91-1.11-.83-.31.06-.52.33-.72.57-1.41,1.64-3.91,2.21-5.89,1.36"/>
      <path class="cls-1" d="M31.04,114.31l3.5-1.1c.02-.64.04-1.28.06-1.91"/>
      <path class="cls-1" d="M61.22,123.45c-1.71-.02-3.41-.04-5.12-.06-.43,0-.87,0-1.26.16-1.38.6-1.11,2.68-.31,3.97s1.94,2.65,1.54,4.11"/>
      <path class="cls-1" d="M45.66,119.77c2.03-1.34,2.02-4.52.62-6.52s-3.73-3.08-5.95-4.09"/>
      <path class="cls-1" d="M45.31,111.85c1.99-.79,4.3-2.01,4.41-4.14"/>
      <path class="cls-1" d="M55.09,93.81c-1.24-2.45-4.06-4.01-6.8-3.74"/>
    </g>
  </g>
</svg>