<?xml version="1.0" encoding="UTF-8"?>
<svg id="Layer_2" data-name="Layer 2" xmlns="http://www.w3.org/2000/svg" viewBox="0 0 281.73 297.92">
  <defs>
    <style>
      .cls-1 {
        fill: #69903d;
      }

      .cls-2 {
        fill: #4f682f;
      }

      .cls-3 {
        fill: #997033;
      }

      .cls-4 {
        fill: #72aa3c;
      }
    </style>
  </defs>
  <g id="Assets">
    <g id="Grape_Algae" data-name="Grape Algae">
      <g id="Grape_Algae-2" data-name="Grape Algae">
        <circle class="cls-2" cx="159.22" cy="30.04" r="10.8"/>
        <circle class="cls-2" cx="161.7" cy="58.6" r="10.8"/>
        <circle class="cls-2" cx="160.75" cy="87.24" r="10.8"/>
        <circle class="cls-2" cx="158.26" cy="120.54" r="10.8"/>
        <circle class="cls-2" cx="153.19" cy="148.82" r="10.8"/>
        <circle class="cls-2" cx="144.65" cy="176.64" r="10.8"/>
        <circle class="cls-2" cx="138.12" cy="205" r="10.8"/>
        <circle class="cls-2" cx="135.32" cy="233.43" r="10.8"/>
        <circle class="cls-2" cx="141.47" cy="260.13" r="10.8"/>
        <path class="cls-3" d="M159.53,279.27c-24.91-23.38-20.41-60.62-12.58-90.42,4.61-17.52,9.95-34.77,13.29-52.61,3.39-18.09,5.38-36.47,5.89-54.87.57-20.64-.83-41.25-3.86-61.67-.85-5.71-9.52-3.28-8.68,2.39,5.64,37.94,4.82,76.9-2.56,114.54-6.74,34.38-23.05,68.76-18.73,104.45,2.02,16.72,8.41,32.85,20.87,44.54,4.22,3.96,10.6-2.39,6.36-6.36h0Z"/>
        <circle class="cls-1" cx="155.45" cy="10.8" r="10.8"/>
        <circle class="cls-1" cx="148.92" cy="35.09" r="10.8"/>
        <circle class="cls-1" cx="173.23" cy="32.33" r="10.8"/>
        <circle class="cls-1" cx="175.37" cy="59.24" r="10.8"/>
        <circle class="cls-1" cx="175.37" cy="91.95" r="10.8"/>
        <circle class="cls-1" cx="170.52" cy="127.21" r="10.8"/>
        <circle class="cls-1" cx="164.57" cy="158.09" r="10.8"/>
        <circle class="cls-1" cx="156.93" cy="185.92" r="10.8"/>
        <circle class="cls-1" cx="150.9" cy="214.04" r="10.8"/>
        <circle class="cls-1" cx="150.9" cy="238.5" r="10.8"/>
        <circle class="cls-1" cx="156.93" cy="262.67" r="10.8"/>
        <circle class="cls-1" cx="148.92" cy="62.14" r="10.8"/>
        <circle class="cls-1" cx="148.92" cy="91.95" r="10.8"/>
        <circle class="cls-1" cx="144.65" cy="121.76" r="10.8"/>
        <circle class="cls-1" cx="138.12" cy="148.82" r="10.8"/>
        <circle class="cls-1" cx="131.59" cy="178.17" r="10.8"/>
        <circle class="cls-1" cx="123.33" cy="207.52" r="10.8"/>
        <circle class="cls-1" cx="123.33" cy="239.62" r="10.8"/>
        <circle class="cls-1" cx="129.29" cy="266.22" r="10.8"/>
        <circle class="cls-1" cx="142.39" cy="286.83" r="10.8"/>
        <circle class="cls-4" cx="161.7" cy="43.14" r="10.8"/>
        <circle class="cls-4" cx="162.43" cy="67.54" r="10.8"/>
        <circle class="cls-4" cx="161.7" cy="100.61" r="10.8"/>
        <circle class="cls-4" cx="155.45" cy="131.34" r="10.8"/>
        <circle class="cls-4" cx="149.95" cy="159.62" r="10.8"/>
        <circle class="cls-4" cx="141.47" cy="188.97" r="10.8"/>
        <circle class="cls-4" cx="136.65" cy="215.8" r="10.8"/>
        <circle class="cls-4" cx="139.15" cy="247.18" r="10.8"/>
        <circle class="cls-4" cx="146.12" cy="271.72" r="10.8"/>
      </g>
      <g id="Grape_Algae-3" data-name="Grape Algae">
        <circle class="cls-2" cx="91.57" cy="68.14" r="6.71"/>
        <circle class="cls-2" cx="96.48" cy="85.25" r="6.71"/>
        <circle class="cls-2" cx="99.32" cy="102.81" r="6.71"/>
        <circle class="cls-2" cx="101.77" cy="123.4" r="6.71"/>
        <circle class="cls-2" cx="102.05" cy="141.24" r="6.71"/>
        <circle class="cls-2" cx="100.17" cy="159.21" r="6.71"/>
        <circle class="cls-2" cx="99.56" cy="177.27" r="6.71"/>
        <circle class="cls-2" cx="101.25" cy="194.93" r="6.71"/>
        <circle class="cls-2" cx="108.18" cy="210.47" r="6.71"/>
        <path class="cls-3" d="M121.47,219.98c-17.97-11.28-19.67-34.51-18.44-53.6.72-11.23,1.92-22.38,1.83-33.64-.09-11.43-1.07-22.86-2.95-34.14-2.11-12.65-5.42-25.04-9.7-37.12-1.2-3.38-6.19-.87-5,2.49,7.96,22.45,12.1,46.28,12.09,70.11,0,21.75-5.85,44.65,1.04,65.88,3.23,9.95,9.04,19.02,18.02,24.65,3.04,1.91,6.17-2.72,3.12-4.64h0Z"/>
        <circle class="cls-1" cx="86.98" cy="56.87" r="6.71"/>
        <circle class="cls-1" cx="85.89" cy="72.44" r="6.71"/>
        <circle class="cls-1" cx="100.38" cy="67.87" r="6.71"/>
        <circle class="cls-1" cx="104.89" cy="84.01" r="6.71"/>
        <circle class="cls-1" cx="108.79" cy="103.94" r="6.71"/>
        <circle class="cls-1" cx="110.04" cy="126.01" r="6.71"/>
        <circle class="cls-1" cx="110.09" cy="145.53" r="6.71"/>
        <circle class="cls-1" cx="108.75" cy="163.4" r="6.71"/>
        <circle class="cls-1" cx="108.43" cy="181.26" r="6.71"/>
        <circle class="cls-1" cx="111.34" cy="196.16" r="6.71"/>
        <circle class="cls-1" cx="117.9" cy="210.17" r="6.71"/>
        <circle class="cls-1" cx="89.12" cy="88.93" r="6.71"/>
        <circle class="cls-1" cx="92.67" cy="107.1" r="6.71"/>
        <circle class="cls-1" cx="93.62" cy="125.77" r="6.71"/>
        <circle class="cls-1" cx="92.87" cy="143.04" r="6.71"/>
        <circle class="cls-1" cx="92.38" cy="161.7" r="6.71"/>
        <circle class="cls-1" cx="90.85" cy="180.57" r="6.71"/>
        <circle class="cls-1" cx="94.68" cy="200.13" r="6.71"/>
        <circle class="cls-1" cx="101.48" cy="215.63" r="6.71"/>
        <circle class="cls-1" cx="111.92" cy="226.63" r="6.71"/>
        <circle class="cls-4" cx="94.64" cy="75.82" r="6.71"/>
        <circle class="cls-4" cx="97.99" cy="90.61" r="6.71"/>
        <circle class="cls-4" cx="101.49" cy="110.85" r="6.71"/>
        <circle class="cls-4" cx="101.35" cy="130.32" r="6.71"/>
        <circle class="cls-4" cx="101.37" cy="148.21" r="6.71"/>
        <circle class="cls-4" cx="99.69" cy="167.1" r="6.71"/>
        <circle class="cls-4" cx="99.96" cy="184.03" r="6.71"/>
        <circle class="cls-4" cx="105.22" cy="202.85" r="6.71"/>
        <circle class="cls-4" cx="112.4" cy="216.98" r="6.71"/>
      </g>
      <g id="Grape_Algae-4" data-name="Grape Algae">
        <circle class="cls-2" cx="267.19" cy="168.55" r="6.09"/>
        <circle class="cls-2" cx="256.03" cy="180.23" r="6.09"/>
        <circle class="cls-2" cx="246.34" cy="193.14" r="6.09"/>
        <circle class="cls-2" cx="235.68" cy="208.66" r="6.09"/>
        <circle class="cls-2" cx="227.93" cy="222.88" r="6.09"/>
        <circle class="cls-2" cx="221.86" cy="238.11" r="6.09"/>
        <circle class="cls-2" cx="214.73" cy="252.88" r="6.09"/>
        <circle class="cls-2" cx="205.93" cy="266.36" r="6.09"/>
        <circle class="cls-2" cx="193.8" cy="275.93" r="6.09"/>
        <path class="cls-3" d="M179.11,277.97c19.2-1.48,30.36-19.44,37.43-35.3,4.16-9.33,7.9-18.79,12.72-27.81,4.89-9.15,10.5-17.92,16.77-26.19,7.03-9.27,14.92-17.84,23.46-25.74,2.39-2.21,5.34,1.92,2.97,4.11-15.87,14.69-29.25,32.09-39.29,51.24-9.17,17.49-14.13,38.35-28.63,52.51-6.79,6.64-15.29,11.47-24.89,12.21-3.25.25-3.81-4.79-.55-5.04h0Z"/>
        <circle class="cls-1" cx="275.64" cy="161.42" r="6.09"/>
        <circle class="cls-1" cx="269.94" cy="174.4" r="6.09"/>
        <circle class="cls-1" cx="260.23" cy="164.61" r="6.09"/>
        <circle class="cls-1" cx="249.79" cy="175.68" r="6.09"/>
        <circle class="cls-1" cx="238.25" cy="190.06" r="6.09"/>
        <circle class="cls-1" cx="227.94" cy="207.26" r="6.09"/>
        <circle class="cls-1" cx="219.66" cy="222.94" r="6.09"/>
        <circle class="cls-1" cx="213.2" cy="237.86" r="6.09"/>
        <circle class="cls-1" cx="205.92" cy="252.35" r="6.09"/>
        <circle class="cls-1" cx="197.29" cy="263.1" r="6.09"/>
        <circle class="cls-1" cx="186.11" cy="271.59" r="6.09"/>
        <circle class="cls-1" cx="260.39" cy="186.29" r="6.09"/>
        <circle class="cls-1" cx="249.87" cy="199.39" r="6.09"/>
        <circle class="cls-1" cx="241.23" cy="214" r="6.09"/>
        <circle class="cls-1" cx="234.55" cy="228.19" r="6.09"/>
        <circle class="cls-1" cx="227.07" cy="243.4" r="6.09"/>
        <circle class="cls-1" cx="220.34" cy="259.21" r="6.09"/>
        <circle class="cls-1" cx="209.01" cy="273.32" r="6.09"/>
        <circle class="cls-1" cx="197" cy="282.9" r="6.09"/>
        <circle class="cls-1" cx="183.98" cy="287.34" r="6.09"/>
        <circle class="cls-4" cx="261.48" cy="173.43" r="6.09"/>
        <circle class="cls-4" cx="252.55" cy="183.9" r="6.09"/>
        <circle class="cls-4" cx="241.2" cy="198.69" r="6.09"/>
        <circle class="cls-4" cx="233.1" cy="214.4" r="6.09"/>
        <circle class="cls-4" cx="225.54" cy="228.77" r="6.09"/>
        <circle class="cls-4" cx="218.91" cy="244.66" r="6.09"/>
        <circle class="cls-4" cx="211.56" cy="258.15" r="6.09"/>
        <circle class="cls-4" cx="199.39" cy="271.06" r="6.09"/>
        <circle class="cls-4" cx="187.67" cy="279.38" r="6.09"/>
      </g>
      <g id="Grape_Algae-5" data-name="Grape Algae">
        <circle class="cls-2" cx="222.51" cy="85.72" r="8.87"/>
        <circle class="cls-2" cx="212.74" cy="107.14" r="8.87"/>
        <circle class="cls-2" cx="205.6" cy="129.56" r="8.87"/>
        <circle class="cls-2" cx="198.39" cy="156.01" r="8.87"/>
        <circle class="cls-2" cx="194.54" cy="179.29" r="8.87"/>
        <circle class="cls-2" cx="193.5" cy="203.16" r="8.87"/>
        <circle class="cls-2" cx="190.76" cy="226.9" r="8.87"/>
        <circle class="cls-2" cx="185.11" cy="249.66" r="8.87"/>
        <circle class="cls-2" cx="173.02" cy="268.64" r="8.87"/>
        <path class="cls-3" d="M153.79,278.48c25.7-11.24,32.45-41.3,34.58-66.51,1.25-14.82,1.85-29.64,4.17-44.36,2.35-14.93,5.86-29.69,10.52-44.07,5.23-16.13,11.97-31.69,19.93-46.66,2.22-4.18,8.27.08,6.06,4.24-14.79,27.81-24.86,58.18-29.49,89.33-4.23,28.45-1.06,59.53-14.21,85.97-6.16,12.38-15.54,23.11-28.38,28.73-4.35,1.9-7.54-4.76-3.18-6.67h0Z"/>
        <circle class="cls-1" cx="230.71" cy="71.87" r="8.87"/>
        <circle class="cls-1" cx="229.09" cy="92.46" r="8.87"/>
        <circle class="cls-1" cx="211.03" cy="83.65" r="8.87"/>
        <circle class="cls-1" cx="201.99" cy="103.88" r="8.87"/>
        <circle class="cls-1" cx="193" cy="129.19" r="8.87"/>
        <circle class="cls-1" cx="187.06" cy="157.81" r="8.87"/>
        <circle class="cls-1" cx="183.18" cy="183.34" r="8.87"/>
        <circle class="cls-1" cx="181.45" cy="206.96" r="8.87"/>
        <circle class="cls-1" cx="178.39" cy="230.38" r="8.87"/>
        <circle class="cls-1" cx="171.67" cy="249.31" r="8.87"/>
        <circle class="cls-1" cx="160.36" cy="266.35" r="8.87"/>
        <circle class="cls-1" cx="221.65" cy="113.39" r="8.87"/>
        <circle class="cls-1" cx="213.46" cy="136.46" r="8.87"/>
        <circle class="cls-1" cx="208.58" cy="160.7" r="8.87"/>
        <circle class="cls-1" cx="206.2" cy="183.43" r="8.87"/>
        <circle class="cls-1" cx="203.19" cy="207.93" r="8.87"/>
        <circle class="cls-1" cx="201.51" cy="232.91" r="8.87"/>
        <circle class="cls-1" cx="192.69" cy="257.75" r="8.87"/>
        <circle class="cls-1" cx="180.77" cy="276.69" r="8.87"/>
        <circle class="cls-1" cx="164.97" cy="289.05" r="8.87"/>
        <circle class="cls-4" cx="216.99" cy="95.18" r="8.87"/>
        <circle class="cls-4" cx="209.72" cy="113.86" r="8.87"/>
        <circle class="cls-4" cx="201.2" cy="139.65" r="8.87"/>
        <circle class="cls-4" cx="197.59" cy="165.14" r="8.87"/>
        <circle class="cls-4" cx="194.07" cy="188.53" r="8.87"/>
        <circle class="cls-4" cx="192.57" cy="213.57" r="8.87"/>
        <circle class="cls-4" cx="188.93" cy="235.66" r="8.87"/>
        <circle class="cls-4" cx="178.37" cy="259.25" r="8.87"/>
        <circle class="cls-4" cx="166.23" cy="276.33" r="8.87"/>
      </g>
      <g id="Grape_Algae-6" data-name="Grape Algae">
        <ellipse class="cls-2" cx="18" cy="121.33" rx="8.9" ry="8.35" transform="translate(-56.79 24.11) rotate(-29.13)"/>
        <ellipse class="cls-2" cx="26.97" cy="141.61" rx="8.9" ry="8.35" transform="translate(-65.53 31.04) rotate(-29.13)"/>
        <ellipse class="cls-2" cx="38.42" cy="160.57" rx="8.9" ry="8.35" transform="translate(-73.31 39.02) rotate(-29.13)"/>
        <ellipse class="cls-2" cx="52.76" cy="182.06" rx="8.9" ry="8.35" transform="translate(-81.96 48.71) rotate(-29.13)"/>
        <ellipse class="cls-2" cx="67.05" cy="199.12" rx="8.9" ry="8.35" transform="translate(-88.45 57.83) rotate(-29.13)"/>
        <ellipse class="cls-2" cx="83.66" cy="214.48" rx="8.9" ry="8.35" transform="translate(-93.83 67.86) rotate(-29.13)"/>
        <ellipse class="cls-2" cx="99.04" cy="231.01" rx="8.9" ry="8.35" transform="translate(-99.93 77.44) rotate(-29.13)"/>
        <ellipse class="cls-2" cx="111.75" cy="249.08" rx="8.9" ry="8.35" transform="translate(-107.12 85.91) rotate(-29.13)"/>
        <ellipse class="cls-2" cx="117.38" cy="269.58" rx="8.9" ry="8.35" transform="translate(-116.39 91.25) rotate(-29.13)"/>
        <path class="cls-3" d="M111.57,289.75c9.14-25.78-8.12-49.13-24.97-66.1-9.91-9.98-20.25-19.49-29.37-30.19-9.25-10.86-17.6-22.47-24.89-34.69-8.18-13.71-14.93-28.19-20.43-43.19-1.54-4.2,5.62-6.04,7.15-1.87,10.22,27.88,25.47,53.86,44.95,76.32,17.79,20.51,42.47,37.18,52.8,63.02,4.84,12.1,6.31,25.56,1.74,38.45-1.55,4.37-8.53,2.64-6.98-1.74h0Z"/>
        <ellipse class="cls-1" cx="13.47" cy="106.83" rx="8.9" ry="8.35" transform="translate(-50.3 20.07) rotate(-29.13)"/>
        <ellipse class="cls-1" cx="27.32" cy="120.61" rx="8.9" ry="8.35" transform="translate(-55.26 28.55) rotate(-29.13)"/>
        <ellipse class="cls-1" cx="8.78" cy="128.5" rx="8.9" ry="8.35" transform="translate(-61.45 20.53) rotate(-29.13)"/>
        <ellipse class="cls-1" cx="17.36" cy="147.53" rx="8.9" ry="8.35" transform="translate(-69.62 27.11) rotate(-29.13)"/>
        <ellipse class="cls-1" cx="29.67" cy="169.62" rx="8.9" ry="8.35" transform="translate(-78.82 35.9) rotate(-29.13)"/>
        <ellipse class="cls-1" cx="46.43" cy="191.49" rx="8.9" ry="8.35" transform="translate(-87.35 46.83) rotate(-29.13)"/>
        <ellipse class="cls-1" cx="62.34" cy="209.95" rx="8.9" ry="8.35" transform="translate(-94.32 56.91) rotate(-29.13)"/>
        <ellipse class="cls-1" cx="78.32" cy="225.67" rx="8.9" ry="8.35" transform="translate(-99.95 66.67) rotate(-29.13)"/>
        <ellipse class="cls-1" cx="93.24" cy="242.24" rx="8.9" ry="8.35" transform="translate(-106.13 76.04) rotate(-29.13)"/>
        <ellipse class="cls-1" cx="102.45" cy="258.76" rx="8.9" ry="8.35" transform="translate(-113.01 82.61) rotate(-29.13)"/>
        <ellipse class="cls-1" cx="107.2" cy="277.5" rx="8.9" ry="8.35" transform="translate(-121.53 87.29) rotate(-29.13)"/>
        <ellipse class="cls-1" cx="37.5" cy="138.88" rx="8.9" ry="8.35" transform="translate(-62.86 35.82) rotate(-29.13)"/>
        <ellipse class="cls-1" cx="48.72" cy="159.01" rx="8.9" ry="8.35" transform="translate(-71.25 43.83) rotate(-29.13)"/>
        <ellipse class="cls-1" cx="63.01" cy="177.42" rx="8.9" ry="8.35" transform="translate(-78.4 53.12) rotate(-29.13)"/>
        <ellipse class="cls-1" cx="77.9" cy="193.07" rx="8.9" ry="8.35" transform="translate(-84.14 62.35) rotate(-29.13)"/>
        <ellipse class="cls-1" cx="93.65" cy="210.27" rx="8.9" ry="8.35" transform="translate(-90.52 72.19) rotate(-29.13)"/>
        <ellipse class="cls-1" cx="110.64" cy="226.78" rx="8.9" ry="8.35" transform="translate(-96.4 82.55) rotate(-29.13)"/>
        <ellipse class="cls-1" cx="122.72" cy="248.45" rx="8.9" ry="8.35" transform="translate(-105.43 91.17) rotate(-29.13)"/>
        <ellipse class="cls-1" cx="128.44" cy="268.81" rx="8.9" ry="8.35" transform="translate(-114.61 96.53) rotate(-29.13)"/>
        <ellipse class="cls-1" cx="126.77" cy="287.98" rx="8.9" ry="8.35" transform="translate(-124.16 98.14) rotate(-29.13)"/>
        <ellipse class="cls-4" cx="21.15" cy="131.17" rx="8.9" ry="8.35" transform="translate(-61.18 26.89) rotate(-29.13)"/>
        <ellipse class="cls-4" cx="29.81" cy="147.94" rx="8.9" ry="8.35" transform="translate(-68.25 33.23) rotate(-29.13)"/>
        <ellipse class="cls-4" cx="42.78" cy="169.98" rx="8.9" ry="8.35" transform="translate(-77.34 42.33) rotate(-29.13)"/>
        <ellipse class="cls-4" cx="58.84" cy="188.23" rx="8.9" ry="8.35" transform="translate(-84.19 52.45) rotate(-29.13)"/>
        <ellipse class="cls-4" cx="73.44" cy="205.11" rx="8.9" ry="8.35" transform="translate(-90.56 61.7) rotate(-29.13)"/>
        <ellipse class="cls-4" cx="90.6" cy="221.53" rx="8.9" ry="8.35" transform="translate(-96.39 72.13) rotate(-29.13)"/>
        <ellipse class="cls-4" cx="104.16" cy="237.71" rx="8.9" ry="8.35" transform="translate(-102.55 80.78) rotate(-29.13)"/>
        <ellipse class="cls-4" cx="114.17" cy="259.9" rx="8.9" ry="8.35" transform="translate(-112.08 88.46) rotate(-29.13)"/>
        <ellipse class="cls-4" cx="118.39" cy="279.28" rx="8.9" ry="8.35" transform="translate(-120.98 92.96) rotate(-29.13)"/>
      </g>
    </g>
  </g>
</svg>