<?xml version="1.0" encoding="UTF-8"?>
<svg id="Layer_2" data-name="Layer 2" xmlns="http://www.w3.org/2000/svg" xmlns:xlink="http://www.w3.org/1999/xlink" viewBox="0 0 254.89 364.74">
  <defs>
    <style>
      .cls-1 {
        fill: url(#radial-gradient-34);
      }

      .cls-2 {
        fill: url(#radial-gradient-10);
      }

      .cls-3 {
        fill: url(#radial-gradient-35);
      }

      .cls-4 {
        fill: url(#radial-gradient-9);
      }

      .cls-5 {
        fill: url(#radial-gradient-28);
      }

      .cls-6 {
        fill: #755c26;
      }

      .cls-7 {
        fill: url(#radial-gradient-14);
      }

      .cls-8 {
        fill: url(#radial-gradient-16);
      }

      .cls-9 {
        fill: url(#radial-gradient-40);
      }

      .cls-10 {
        fill: url(#radial-gradient-18);
      }

      .cls-11 {
        fill: url(#radial-gradient-38);
      }

      .cls-12 {
        fill: url(#radial-gradient-5);
      }

      .cls-13 {
        fill: url(#radial-gradient-37);
      }

      .cls-14 {
        fill: url(#radial-gradient);
      }

      .cls-15 {
        fill: url(#radial-gradient-3);
      }

      .cls-16 {
        fill: url(#radial-gradient-32);
      }

      .cls-17 {
        fill: url(#radial-gradient-24);
      }

      .cls-18 {
        fill: url(#radial-gradient-20);
      }

      .cls-19 {
        fill: url(#radial-gradient-44);
      }

      .cls-20 {
        fill: url(#radial-gradient-29);
      }

      .cls-21 {
        fill: url(#radial-gradient-41);
      }

      .cls-22 {
        fill: url(#radial-gradient-39);
      }

      .cls-23 {
        fill: url(#radial-gradient-11);
      }

      .cls-24 {
        fill: url(#radial-gradient-26);
      }

      .cls-25 {
        fill: url(#radial-gradient-8);
      }

      .cls-26 {
        fill: url(#radial-gradient-42);
      }

      .cls-27 {
        fill: url(#radial-gradient-2);
      }

      .cls-28 {
        fill: url(#radial-gradient-23);
      }

      .cls-29 {
        fill: url(#radial-gradient-27);
      }

      .cls-30 {
        fill: url(#radial-gradient-30);
      }

      .cls-31 {
        fill: url(#radial-gradient-21);
      }

      .cls-32 {
        fill: url(#radial-gradient-4);
      }

      .cls-33 {
        fill: url(#radial-gradient-25);
      }

      .cls-34 {
        fill: url(#radial-gradient-22);
      }

      .cls-35 {
        fill: url(#radial-gradient-36);
      }

      .cls-36 {
        fill: url(#radial-gradient-12);
      }

      .cls-37 {
        fill: url(#radial-gradient-19);
      }

      .cls-38 {
        fill: url(#radial-gradient-31);
      }

      .cls-39 {
        fill: url(#radial-gradient-15);
      }

      .cls-40 {
        fill: url(#radial-gradient-6);
      }

      .cls-41 {
        fill: url(#radial-gradient-33);
      }

      .cls-42 {
        fill: url(#radial-gradient-7);
      }

      .cls-43 {
        fill: url(#radial-gradient-17);
      }

      .cls-44 {
        fill: url(#radial-gradient-43);
      }

      .cls-45 {
        fill: #472d14;
      }

      .cls-46 {
        fill: url(#radial-gradient-13);
      }

      .cls-47 {
        fill: #826926;
      }
    </style>
    <radialGradient id="radial-gradient" cx="130.25" cy="199.84" fx="130.25" fy="199.84" r="3.33" gradientUnits="userSpaceOnUse">
      <stop offset="0" stop-color="#ffda5c"/>
      <stop offset=".2" stop-color="#dabb4f"/>
      <stop offset=".41" stop-color="#bda244"/>
      <stop offset=".61" stop-color="#a8903d"/>
      <stop offset=".81" stop-color="#9c8538"/>
      <stop offset="1" stop-color="#988237"/>
    </radialGradient>
    <radialGradient id="radial-gradient-2" cx="127.62" cy="207.31" fx="127.62" fy="207.31" r="3.02" xlink:href="#radial-gradient"/>
    <radialGradient id="radial-gradient-3" cx="122.79" cy="164.14" fx="122.79" fy="164.14" r="3.33" xlink:href="#radial-gradient"/>
    <radialGradient id="radial-gradient-4" cy="148.63" fy="148.63" r="3.33" xlink:href="#radial-gradient"/>
    <radialGradient id="radial-gradient-5" cx="142.67" cy="229.63" fx="142.67" fy="229.63" r="3.33" xlink:href="#radial-gradient"/>
    <radialGradient id="radial-gradient-6" cx="134.52" cy="257.63" fx="134.52" fy="257.63" xlink:href="#radial-gradient"/>
    <radialGradient id="radial-gradient-7" cx="139.12" cy="276.86" fx="139.12" fy="276.86" r="3.33" xlink:href="#radial-gradient"/>
    <radialGradient id="radial-gradient-8" cx="137.91" cy="284.06" fx="137.91" fy="284.06" r="3.33" xlink:href="#radial-gradient"/>
    <radialGradient id="radial-gradient-9" cx="147.41" cy="340.1" fx="147.41" fy="340.1" r="3.33" xlink:href="#radial-gradient"/>
    <radialGradient id="radial-gradient-10" cx="118.05" cy="97.59" fx="118.05" fy="97.59" r="3.33" xlink:href="#radial-gradient"/>
    <radialGradient id="radial-gradient-11" cx="108.56" cy="291.38" fx="108.56" fy="291.38" r="3.33" xlink:href="#radial-gradient"/>
    <radialGradient id="radial-gradient-12" cx="130.07" cy="41.88" fx="130.07" fy="41.88" r="3.33" gradientTransform="translate(16.45 140.26) rotate(4.75)" xlink:href="#radial-gradient"/>
    <radialGradient id="radial-gradient-13" cx="127.44" cy="49.35" fx="127.44" fy="49.35" r="3.02" gradientTransform="translate(16.45 140.26) rotate(4.75)" xlink:href="#radial-gradient"/>
    <radialGradient id="radial-gradient-14" cx="122.61" cy="6.19" fx="122.61" fy="6.19" gradientTransform="translate(16.45 140.26) rotate(4.75)" xlink:href="#radial-gradient"/>
    <radialGradient id="radial-gradient-15" cx="130.07" cy="-9.33" fx="130.07" fy="-9.33" r="3.33" gradientTransform="translate(16.45 140.26) rotate(4.75)" xlink:href="#radial-gradient"/>
    <radialGradient id="radial-gradient-16" cx="142.48" cy="71.67" fx="142.48" fy="71.67" r="3.33" gradientTransform="translate(16.45 140.26) rotate(4.75)" xlink:href="#radial-gradient"/>
    <radialGradient id="radial-gradient-17" cx="134.33" cy="99.68" fx="134.33" fy="99.68" gradientTransform="translate(16.45 140.26) rotate(4.75)" xlink:href="#radial-gradient"/>
    <radialGradient id="radial-gradient-18" cx="138.94" cy="118.9" fx="138.94" fy="118.9" r="3.33" gradientTransform="translate(16.45 140.26) rotate(4.75)" xlink:href="#radial-gradient"/>
    <radialGradient id="radial-gradient-19" cx="137.73" cy="126.1" fx="137.73" fy="126.1" r="3.33" gradientTransform="translate(16.45 140.26) rotate(4.75)" xlink:href="#radial-gradient"/>
    <radialGradient id="radial-gradient-20" cx="147.23" cy="182.14" fx="147.23" fy="182.14" r="3.33" gradientTransform="translate(16.45 140.26) rotate(4.75)" xlink:href="#radial-gradient"/>
    <radialGradient id="radial-gradient-21" cx="117.87" cy="-60.37" fx="117.87" fy="-60.37" r="3.33" gradientTransform="translate(16.45 140.26) rotate(4.75)" xlink:href="#radial-gradient"/>
    <radialGradient id="radial-gradient-22" cx="108.38" cy="133.43" fx="108.38" fy="133.43" r="3.33" gradientTransform="translate(16.45 140.26) rotate(4.75)" xlink:href="#radial-gradient"/>
    <radialGradient id="radial-gradient-23" cx="-52.37" cy="1013.01" fx="-52.37" fy="1013.01" r="2.58" gradientTransform="translate(-274.91 -698.85) rotate(-23.59)" xlink:href="#radial-gradient"/>
    <radialGradient id="radial-gradient-24" cx="-54.39" cy="1018.79" fx="-54.39" fy="1018.79" r="2.34" gradientTransform="translate(-274.91 -698.85) rotate(-23.59)" xlink:href="#radial-gradient"/>
    <radialGradient id="radial-gradient-25" cx="-58.13" cy="985.42" fx="-58.13" fy="985.42" r="2.58" gradientTransform="translate(-274.91 -698.85) rotate(-23.59)" xlink:href="#radial-gradient"/>
    <radialGradient id="radial-gradient-26" cx="-52.37" cy="973.42" fx="-52.37" fy="973.42" r="2.58" gradientTransform="translate(-274.91 -698.85) rotate(-23.59)" xlink:href="#radial-gradient"/>
    <radialGradient id="radial-gradient-27" cx="-42.77" cy="1036.04" fx="-42.77" fy="1036.04" r="2.58" gradientTransform="translate(-274.91 -698.85) rotate(-23.59)" xlink:href="#radial-gradient"/>
    <radialGradient id="radial-gradient-28" cx="-49.07" cy="1057.69" fx="-49.07" fy="1057.69" r="2.58" gradientTransform="translate(-274.91 -698.85) rotate(-23.59)" xlink:href="#radial-gradient"/>
    <radialGradient id="radial-gradient-29" cx="-45.5" cy="1072.55" fx="-45.5" fy="1072.55" r="2.58" gradientTransform="translate(-274.91 -698.85) rotate(-23.59)" xlink:href="#radial-gradient"/>
    <radialGradient id="radial-gradient-30" cx="-46.44" cy="1078.12" fx="-46.44" fy="1078.12" r="2.58" gradientTransform="translate(-274.91 -698.85) rotate(-23.59)" xlink:href="#radial-gradient"/>
    <radialGradient id="radial-gradient-31" cx="-39.1" cy="1121.44" fx="-39.1" fy="1121.44" r="2.58" gradientTransform="translate(-274.91 -698.85) rotate(-23.59)" xlink:href="#radial-gradient"/>
    <radialGradient id="radial-gradient-32" cx="-61.8" cy="933.97" fx="-61.8" fy="933.97" r="2.58" gradientTransform="translate(-274.91 -698.85) rotate(-23.59)" xlink:href="#radial-gradient"/>
    <radialGradient id="radial-gradient-33" cx="-69.13" cy="1083.78" fx="-69.13" fy="1083.78" r="2.58" gradientTransform="translate(-274.91 -698.85) rotate(-23.59)" xlink:href="#radial-gradient"/>
    <radialGradient id="radial-gradient-34" cx="-3541.63" cy="15.96" fx="-3541.63" fy="15.96" r="2.21" gradientTransform="translate(-3310.73 -224.24) rotate(-172.58) scale(1 -1)" xlink:href="#radial-gradient"/>
    <radialGradient id="radial-gradient-35" cx="-3543.36" cy="20.9" fx="-3543.36" fy="20.9" r="2" gradientTransform="translate(-3310.73 -224.24) rotate(-172.58) scale(1 -1)" xlink:href="#radial-gradient"/>
    <radialGradient id="radial-gradient-36" cx="-3546.56" cy="-7.67" fx="-3546.56" fy="-7.67" r="2.21" gradientTransform="translate(-3310.73 -224.24) rotate(-172.58) scale(1 -1)" xlink:href="#radial-gradient"/>
    <radialGradient id="radial-gradient-37" cx="-3541.63" cy="-17.93" fx="-3541.63" fy="-17.93" r="2.21" gradientTransform="translate(-3310.73 -224.24) rotate(-172.58) scale(1 -1)" xlink:href="#radial-gradient"/>
    <radialGradient id="radial-gradient-38" cx="-3533.41" cy="35.67" fx="-3533.41" fy="35.67" r="2.21" gradientTransform="translate(-3310.73 -224.24) rotate(-172.58) scale(1 -1)" xlink:href="#radial-gradient"/>
    <radialGradient id="radial-gradient-39" cx="-3538.8" cy="54.21" fx="-3538.8" fy="54.21" r="2.21" gradientTransform="translate(-3310.73 -224.24) rotate(-172.58) scale(1 -1)" xlink:href="#radial-gradient"/>
    <radialGradient id="radial-gradient-40" cx="-3535.75" cy="66.93" fx="-3535.75" fy="66.93" r="2.21" gradientTransform="translate(-3310.73 -224.24) rotate(-172.58) scale(1 -1)" xlink:href="#radial-gradient"/>
    <radialGradient id="radial-gradient-41" cx="-3536.55" cy="71.69" fx="-3536.55" fy="71.69" r="2.21" gradientTransform="translate(-3310.73 -224.24) rotate(-172.58) scale(1 -1)" xlink:href="#radial-gradient"/>
    <radialGradient id="radial-gradient-42" cx="-3530.27" cy="108.78" fx="-3530.27" fy="108.78" r="2.21" gradientTransform="translate(-3310.73 -224.24) rotate(-172.58) scale(1 -1)" xlink:href="#radial-gradient"/>
    <radialGradient id="radial-gradient-43" cx="-3549.7" cy="-51.71" fx="-3549.7" fy="-51.71" r="2.21" gradientTransform="translate(-3310.73 -224.24) rotate(-172.58) scale(1 -1)" xlink:href="#radial-gradient"/>
    <radialGradient id="radial-gradient-44" cx="-3555.98" cy="76.54" fx="-3555.98" fy="76.54" r="2.21" gradientTransform="translate(-3310.73 -224.24) rotate(-172.58) scale(1 -1)" xlink:href="#radial-gradient"/>
  </defs>
  <g id="Assets">
    <g id="Gulfweed">
      <g>
        <path class="cls-6" d="M110.35,252.05c-2.28-2.68-3.05-6.32-4.8-9.37s-5.45-5.68-8.64-4.18c-.12-2.36-.24-4.72-.35-7.08-3.59,1.34-8.13,2.51-10.85-.19-1.32-1.31-1.83-3.23-2.9-4.75s-3.35-2.59-4.75-1.36c.9-2.95-1.11-5.99-3.37-8.09s-4.98-3.93-6.18-6.77c-3.61,4.72-3.73,11.8-.29,16.64.95,1.33,2.15,2.54,2.7,4.08,1.16,3.28-.72,7.68,1.88,9.99,1.1.98,2.73,1.22,3.75,2.28,1.2,1.23,1.23,3.2,2.16,4.65,2.37,3.72,8.69,2.09,11.83,5.2.95.95,1.48,2.22,2.21,3.35,2.23,3.48,6.54,5.49,10.64,4.97,2.07-.26,4.22-1.1,6.15-.3,1.5.62,2.47,2.1,3.83,2.99,3.86,2.51,8.78-.46,13.27-1.49,3.97-.91,7.54.51,11.15,1.09.7-10.3-21.77-5.04-27.42-11.67Z"/>
        <path class="cls-6" d="M97.43,121.64c-.98-2.19-1.72-4.52-3.08-6.5-.97-1.41-2.24-2.61-3.08-4.1-2.74-4.88-.96-12.56-5.93-15.14-1.57-.81-3.42-.8-5.19-.77-6.03.11-12.07.22-18.1.32-.97.02-2.05.08-2.74.76-.83.81-.76,2.16-.48,3.29,1.13,4.52,4.89,8.29,9.41,9.41-3.21,1.29-6.81,1.58-10.19.8-.17,4.39,4.03,7.59,7.95,9.59,3.92,2,8.42,4.06,9.87,8.21-4.03,1.11-8.64-.24-11.44-3.35,3.75,6.85,9.18,12.77,15.67,17.09-.21,2.29,2.35,3.69,4.42,4.68s4.38,3.11,3.35,5.16c6.06-2.1,11.71,5.19,18.12,4.95,6.82,6.11,14.54,11.23,22.83,15.13-1.18-4.71-4.71-8.39-7.53-12.34-4.06-5.7-3.27-12.83-7.59-18.15-5.47-6.73-12.56-10.73-16.28-19.06Z"/>
        <path class="cls-6" d="M114.01,69.94c-.34-1.28-1.23-2.4-1.35-3.73-.17-1.85,1.19-3.43,2.19-4.99,2.78-4.3,3.2-10.03,1.08-14.7s-6.71-8.11-11.78-8.85c-3.73-.54-8.05.13-10.82-2.43-.61-.57-1.22-1.32-2.05-1.32-.96,0-1.59.99-1.93,1.88-1.32,3.41-1.23,7.34.24,10.69,1.22,2.77,2.84,6.94,0,8.02-2.82,1.07-4.85-3.39-7.84-3.71-1.9,2.06-1.52,5.45-.04,7.84s3.78,4.12,5.76,6.11c4.62,4.64,7.54,10.95,8.09,17.48-2.59-2.15-4.72-4.85-6.21-7.87-1.5,3.78,1.05,7.89,3.73,10.95s5.83,6.36,5.71,10.42c-.05,1.82-.64,4.03.77,5.18.85.69,2.05.63,3.13.83,3.29.61,5.64,4.3,4.81,7.54,1.49-1.17,3.73.34,4.38,2.12s.49,3.8,1.29,5.52c1.18,2.55,4.6,3.79,7.14,2.58.46,1.41.92,2.83,1.38,4.24,2.58,1.34,5.59-1.76,5.55-4.67-.06-4.8-3.98-9.29-4.96-14.03-.75-3.66-.3-7.6-1.36-11.2s-3.4-5.78-5.3-8.87c-3.69-6-.05-9.21-1.61-15.06Z"/>
        <path class="cls-45" d="M148.79,349.87c-1.69-1.72-3.49-3.66-3.61-6.06-.17-3.37,2.93-5.92,4.22-9.04,2.54-6.18-2.39-12.74-7.12-17.45s-10.08-10.66-8.45-17.14c.93-3.7,4.1-6.92,3.6-10.7-.38-2.85-2.74-4.96-4.13-7.48-2.43-4.41-1.74-9.95.22-14.58s5.05-8.69,7.5-13.09c2.08-3.73,3.73-7.99,2.99-12.2-1.79-10.24-16.44-15.4-16.08-25.79.1-2.96,1.52-5.92.78-8.79-.36-1.42-1.22-2.65-2.06-3.85-2.83-4.05-5.67-8.09-8.5-12.14-.75-1.07-1.52-2.2-1.66-3.5-.17-1.62.69-3.15,1.56-4.52,4.33-6.87,9.93-13.84,9.51-21.95-.34-6.59-4.66-12.28-6.26-18.67-1.61-6.4-.43-13.13-.73-19.71-.54-12.08-5.98-24.5-1.81-35.86,2.53.04,5.07.08,7.6.11-1.66,8.27-3.28,17.08-.24,24.95,1.11,2.87,2.82,5.54,3.44,8.55.92,4.46-.64,9.02-.75,13.57-.3,12.47,10.21,24.15,7.13,36.24-2.08,8.16-10.19,15.35-7.79,23.42,1.65,5.54,7.92,9.06,8.68,14.79.37,2.83-.71,5.78.08,8.53.82,2.87,3.44,4.77,5.63,6.78,9.77,8.98,12.83,24.49,7.2,36.51-3.07,6.56-8.57,13.17-6.5,20.1,1.23,4.14,5.1,7.64,4.53,11.92-.69,5.16-7.69,8.96-5.95,13.87.59,1.68,2.11,2.83,3.52,3.91,3.85,2.93,7.7,6.26,9.42,10.78,3.18,8.36-1.11,17.64,3.21,25.73,1.27,2.38,6.66,5.87,2.43,8.61-3.38,2.19-9.69-3.9-11.61-5.85Z"/>
        <path class="cls-47" d="M154.18,215.39c1.82-2.85,2.62-6.21,3.39-9.49,3.24.87,6.94-.3,9.1-2.88.62-.74,1.16-1.62,2.05-2.02.91-.41,1.96-.22,2.94-.36,1.37-.21,2.55-1.06,3.64-1.92,3.11-2.43,6.08-5.04,8.89-7.82,3.88-3.85,8.91-8.4,14.02-6.48,2.14,2.01,1.57,5.61.14,8.18s-3.56,4.83-4.24,7.69c-.22.9-.29,1.85-.75,2.65-.86,1.48-2.73,1.95-4.21,2.83-1.92,1.15-3.26,3.21-3.54,5.43-.09.71-.09,1.46-.42,2.09-.59,1.12-2,1.48-2.98,2.28s-1.2,2.81.05,2.98c-4.96-1.24-10.61,1.49-12.72,6.14-.42.93-.78,2-1.68,2.48-1.14.61-2.54-.02-3.82.18-2.23.35-3.12,3.8-1.33,5.18-3.83-.4-7.66-.8-11.48-1.2-.07,1.18-.14,2.35-.2,3.53-7.39-.54-7.74-2.77-6.47-8.59,1.56-7.1,6-5.22,9.62-10.87Z"/>
        <path class="cls-47" d="M137.42,142.95c.05-.63.03-1.34.46-1.79.4-.42,1.06-.49,1.44-.92.41-.45.36-1.14.29-1.74-.45-3.99-.89-7.98-1.34-11.97-.12-1.11-.24-2.25.1-3.31.3-.92.92-1.68,1.42-2.51,2.26-3.76,1.82-8.49,1.31-12.86,3.77-.63,6.84-3.29,9.68-5.85.98,3.76,2.48,7.39,4.46,10.73.37.63.77,1.29.8,2.03.02.51-.14,1-.3,1.48-.98,2.94-1.95,5.89-2.93,8.83.91.39,1.92.57,2.9.49-1.58,1.66-3.16,3.32-4.74,4.99.29.59.58,1.17.86,1.76,1.15,0,2.29.3,3.3.85-1.88,1.21-3.76,2.42-5.63,3.63-1.02.66-2.18,1.64-1.88,2.82.14.54.56.95.96,1.33,1.24,1.16,2.47,2.33,3.71,3.49-2.21,1.24-4.42,2.49-6.63,3.73-.81.45-1.68.99-1.96,1.87s.55,2.06,1.41,1.71c-4.41,1.79-11.51,2.08-16.26,2.68-.7-4.74,8.11-5.54,8.55-11.48Z"/>
        <path class="cls-47" d="M151.62,277.27c.92-.92,1.73-1.97,2.8-2.71,1.15-.8,2.52-1.21,3.84-1.7,5.77-2.19,10.55-6.35,15.19-10.42,2.01-1.76,4.05-3.55,5.53-5.78.53-.8,1-1.65,1.69-2.31.78-.74,1.79-1.19,2.71-1.75,3.27-2,5.4-5.75,5.46-9.58,1.92,3.92,3.85,8.61,1.79,12.47-1.03,1.92-2.98,3.45-3.19,5.61-.17,1.74.87,3.52.36,5.2-1.13,3.75-7.41,2.08-10.14,4.9,1.27,1.66-.4,4.12-2.38,4.81s-4.18.44-6.14,1.17c-3.67,1.38-5.59,5.9-9.39,6.86-1.31.33-2.68.19-4.02.34-1.94.22-3.75,1.05-5.64,1.54-4.82,1.23-10.82.03-14.26-3.63,5.74-1.24,11.03-.22,15.77-5Z"/>
        <path class="cls-47" d="M122.2,274.22c-4.56,1.84-9.87,2.96-14.28.8-2.29-1.12-4.21-3.08-6.7-3.65-2.7-.62-5.46.53-8.19.99-5.82.99-12.09-1.36-15.82-5.94-2.28-2.8-4.01-6.59-7.51-7.47-1.66-.42-3.42-.06-5.13-.21-4.07-.36-7.26-3.44-10.57-5.82-3.31-2.39-7.94-4.17-11.32-1.88-.98.83-.54,2.53.46,3.35s2.32,1.06,3.52,1.54c5.15,2.05,7.35,7.98,9.2,13.21s4.66,11.08,10.07,12.3c2.94.66,6.18-.22,8.93,1,2.02.9,3.4,2.78,5.15,4.13,5.18,4.02,12.49,2.92,19.04,2.69,2.89-.1,5.97.06,8.38,1.66s3.77,5.11,2.16,7.51c5.67-9.4,14-17.18,23.77-22.21,2.37-1.22,10.34-6.18,5.64-8.45-2.84-1.37-14.16,5.38-16.8,6.44Z"/>
        <path class="cls-47" d="M165.96,320.74c1.8-4.51,1.71-9.55,2.93-14.26,1.94-7.5,7.18-13.87,13.56-18.25,6.38-4.39,13.85-6.95,21.4-8.66-.17.97-.33,1.93-.5,2.9,3.55-.11,7.05-1.27,9.97-3.29,2.15,3.24.4,8.32-3.3,9.54-2.27.75-4.9.2-7.02,1.32-2.96,1.55-3.76,5.7-6.69,7.3-3.02,1.65-8.09.66-8.99,3.99-.23.85-.06,1.83-.53,2.58-.44.69-1.29.98-2.09,1.17-3.21.77-7.1,1.17-8.63,4.09-2.01,3.81,1.31,9.9-2.36,12.15-1.4.86-3.42.7-4.4,2.02-1,1.36-.3,3.6-1.57,4.71-.83.73-2.08.58-3.16.82-2.33.52-3.84,3.33-3,5.56-2.76-1.28-6.08-2.37-8.27-4.28,4.95-3.43,9.55-3.23,12.64-9.42Z"/>
        <path class="cls-47" d="M117.82,179.89c-1.43-3.65-2.88-7.38-3.05-11.29-.07-1.7.03-3.6-1.12-4.85-.76-.83-1.93-1.19-2.71-2-.99-1.04-1.15-2.6-1.26-4.03-.3-4.08-.61-8.16-.91-12.23-.13-1.72-.27-3.49-.96-5.07-.65-1.48-1.77-2.73-3.06-3.71-3.83-2.91-9.34-3.42-13.64-1.27-4.3,2.15-7.19,6.87-7.16,11.68.01,1.74.37,3.46.73,5.16.91,4.3,1.84,8.67,3.97,12.52,1.3,2.35,3.08,4.5,5.39,5.88,2.66,1.6,5.85,2.1,8.66,3.42s5.45,4.01,5.05,7.09c-7.56,1.17-15.48-.13-22.25-3.68,2.71,6.59,13.38,7.43,15.16,14.33.7,2.7-.27,5.52-1.23,8.13,4.83,0,9.03,3.08,13.47,4.97,5.76,2.44,12.13,2.9,18.37,3.34,1.42-6.55-2.52-8.61-5.96-13.24s-5.45-9.94-7.5-15.15Z"/>
        <path class="cls-6" d="M133.27,333.51c-.55-.73-.98-1.61-1.77-2.06-1.11-.63-2.49-.19-3.73.09-4.38.99-9.2-.25-12.55-3.23-2.46-2.19-4.42-5.38-7.66-5.97-1.32-.24-2.71.01-4.01-.31-3.16-.78-4.56-4.37-6.73-6.79-5.85-6.54-17.87-4.84-22.86-12.06-4.56,1.45-5.78,7.59-4.34,12.16s4.61,8.43,6.04,13c.35,1.1.61,2.28,1.34,3.18.73.89,1.83,1.37,2.81,1.98,2.81,1.73,4.83,4.69,5.42,7.93,4.16-.79,8.62.21,12.05,2.69,1.42,1.03,2.72,2.32,4.4,2.81,5.33,1.56,11.07-5.63,15.82-2.75.83.5,1.5,1.28,2.42,1.59,2.51.85,4.75-2.15,7.39-2.33,2.35-.17,4.27,1.9,6.59,2.33,2.18.41,4.33-.68,6.45-1.34,4.28-1.33,8.67-.71,12.75.89-2.41-10.4-14.65-4.98-19.82-11.8Z"/>
        <path class="cls-47" d="M122.72,76.73c4.07.35,6.17-4.68,7-8.69.85-4.13,1.7-8.27,2.55-12.4,1.8-8.74,3.43-18.49-1.31-26.05-1.47-2.34-3.54-4.47-3.88-7.21-.25-2.04.53-4.06,1.29-5.97,1.31-3.28,2.74-6.71,5.5-8.91s7.31-2.59,9.56.14c.63.76,1.05,1.73,1.87,2.28,2.69,1.83,5.88-2.17,9.14-2.05,2.36.09,3.99,2.28,5.41,4.16,4.27,5.65,9.78,10.35,16.04,13.68-1.71,4.34-.39,9.69,3.14,12.74-3.49.23-6.63,3.1-7.19,6.55,1.01.6,2.02,1.21,3.04,1.81-5.82.81-9.23,8.7-5.83,13.49l-12.08,6.22c.22,2.68,1.76,5.22,4.04,6.65-2.96.48-5.89,1.44-8.31,3.22-2.66,1.95-4.59,4.87-5.35,8.08-.9,1.83-.83,4.1.18,5.88-5.8-2.27-12.6.19-17.15,4.45s-7.31,10.04-9.98,15.67c-.9-5.75-1.62-9.64-.2-15.1,1.69-6.47,3.49-11.76,2.54-18.63Z"/>
        <circle class="cls-14" cx="131.58" cy="202.14" r="4.74"/>
        <circle class="cls-27" cx="128.83" cy="209.4" r="4.3"/>
        <circle class="cls-15" cx="124.12" cy="166.45" r="4.74"/>
        <circle class="cls-32" cx="131.58" cy="150.94" r="4.74"/>
        <circle class="cls-12" cx="144" cy="231.94" r="4.74"/>
        <circle class="cls-40" cx="135.85" cy="259.94" r="4.74"/>
        <circle class="cls-42" cx="140.45" cy="279.17" r="4.74"/>
        <circle class="cls-25" cx="139.24" cy="286.37" r="4.74"/>
        <circle class="cls-4" cx="148.74" cy="342.41" r="4.74"/>
        <circle class="cls-2" cx="119.38" cy="99.9" r="4.74"/>
        <circle class="cls-23" cx="109.89" cy="293.69" r="4.74"/>
      </g>
      <g>
        <path class="cls-6" d="M118.45,243.16c-2.05-2.86-2.52-6.55-4.01-9.74s-4.96-6.11-8.26-4.88c.08-2.36.16-4.73.23-7.09-3.69,1.04-8.31,1.82-10.8-1.09-1.21-1.41-1.55-3.37-2.5-4.97s-3.13-2.86-4.62-1.75c1.14-2.86-.61-6.06-2.69-8.34s-4.64-4.33-5.6-7.26c-3.98,4.4-4.69,11.45-1.67,16.56.83,1.41,1.93,2.71,2.35,4.29.89,3.37-1.35,7.59,1.05,10.11,1.01,1.07,2.62,1.45,3.55,2.58,1.09,1.33.96,3.29,1.77,4.82,2.05,3.91,8.49,2.8,11.36,6.16.87,1.02,1.29,2.34,1.92,3.53,1.93,3.65,6.07,6.01,10.19,5.83,2.08-.09,4.3-.74,6.15.21,1.45.74,2.29,2.3,3.57,3.3,3.64,2.82,8.78.27,13.35-.38,4.03-.58,7.47,1.13,11.02,2.01,1.55-10.2-21.28-6.83-26.36-13.9Z"/>
        <path class="cls-6" d="M116.37,112.12c-.79-2.27-1.34-4.65-2.53-6.73-.85-1.49-2.01-2.79-2.73-4.34-2.33-5.09.09-12.6-4.65-15.58-1.5-.94-3.34-1.08-5.11-1.19-6.02-.39-12.04-.78-18.07-1.17-.97-.06-2.05-.09-2.8.53-.9.74-.94,2.09-.75,3.24.75,4.6,4.19,8.66,8.6,10.16-3.3,1.02-6.92,1.01-10.22-.04-.54,4.36,3.39,7.9,7.13,10.22s8.06,4.74,9.15,9c-4.11.77-8.59-.96-11.12-4.28,3.17,7.13,8.09,13.48,14.2,18.33-.4,2.26,2.03,3.87,4.02,5.03s4.11,3.46,2.92,5.42c6.21-1.59,11.24,6.14,17.65,6.43,6.29,6.66,13.56,12.39,21.5,16.97-.79-4.79-4-8.75-6.48-12.92-3.57-6.01-2.19-13.06-6.06-18.72-4.89-7.16-11.63-11.73-14.65-20.34Z"/>
        <path class="cls-6" d="M137.17,61.97c-.24-1.31-1.03-2.5-1.04-3.83-.01-1.86,1.47-3.32,2.6-4.79,3.13-4.06,4.02-9.73,2.29-14.56s-6.02-8.64-11.01-9.8c-3.67-.85-8.03-.54-10.58-3.31-.56-.62-1.1-1.41-1.94-1.48-.95-.08-1.66.85-2.08,1.71-1.6,3.29-1.83,7.22-.64,10.67.99,2.87,2.25,7.16-.66,8-2.9.84-4.55-3.78-7.51-4.34-2.07,1.9-1.96,5.3-.69,7.81s3.43,4.42,5.24,6.57c4.22,5.01,6.61,11.54,6.62,18.09-2.4-2.36-4.3-5.22-5.54-8.35-1.81,3.64.39,7.95,2.81,11.22s5.28,6.82,4.83,10.86c-.2,1.81-.97,3.96.33,5.23.79.76,1.99.8,3.05,1.09,3.23.88,5.27,4.76,4.17,7.91,1.58-1.04,3.69.65,4.19,2.47s.18,3.83.83,5.61c.97,2.64,4.27,4.16,6.9,3.17.34,1.45.68,2.89,1.03,4.34,2.47,1.55,5.71-1.29,5.92-4.2.33-4.79-3.2-9.59-3.78-14.39-.45-3.71.33-7.6-.43-11.27-.76-3.67-2.91-6.04-4.55-9.28-3.18-6.29.72-9.19-.36-15.14Z"/>
        <path class="cls-45" d="M148.67,343.82c-1.54-1.85-3.17-3.93-3.1-6.34.11-3.38,3.41-5.66,4.95-8.66,3.04-5.95-1.32-12.89-5.65-17.98s-9.16-11.45-7-17.78c1.23-3.61,4.66-6.56,4.48-10.37-.14-2.87-2.32-5.17-3.5-7.8-2.06-4.59-.91-10.06,1.43-14.52s5.76-8.24,8.56-12.43c2.38-3.55,4.37-7.65,3.99-11.91-.93-10.35-15.11-16.71-13.89-27.03.35-2.94,2-5.77,1.51-8.7-.24-1.44-.99-2.74-1.73-4-2.49-4.27-4.98-8.53-7.47-12.8-.66-1.13-1.34-2.32-1.36-3.63-.03-1.63.95-3.08,1.92-4.38,4.88-6.49,11.04-12.98,11.29-21.09.21-6.59-3.62-12.62-4.7-19.13-1.07-6.51.65-13.12.91-19.71.46-12.09-3.93-24.91,1.16-35.89,2.52.25,5.04.49,7.56.74-2.34,8.11-4.68,16.75-2.3,24.85.87,2.95,2.35,5.75,2.72,8.81.55,4.52-1.39,8.94-1.87,13.47-1.33,12.4,8.18,24.92,4.11,36.71-2.75,7.96-11.42,14.45-9.7,22.69,1.18,5.66,7.14,9.68,7.42,15.46.14,2.85-1.18,5.7-.63,8.51.58,2.92,3.03,5.03,5.05,7.23,8.99,9.76,10.76,25.47,4.15,36.98-3.6,6.28-9.63,12.41-8.14,19.5.89,4.22,4.45,8.03,3.53,12.25-1.11,5.09-8.4,8.29-7.08,13.33.45,1.72,1.86,3,3.19,4.19,3.59,3.24,7.16,6.88,8.5,11.53,2.48,8.59-2.56,17.49,1.07,25.91,1.07,2.47,6.15,6.4,1.71,8.78-3.55,1.9-9.34-4.69-11.09-6.79Z"/>
        <path class="cls-47" d="M165.17,210.24c2.05-2.69,3.13-5.97,4.17-9.18,3.16,1.13,6.94.27,9.31-2.11.68-.69,1.29-1.52,2.21-1.84.94-.33,1.97-.05,2.96-.12,1.39-.09,2.63-.85,3.79-1.61,3.3-2.16,6.48-4.52,9.5-7.06,4.19-3.51,9.57-7.64,14.51-5.3,1.97,2.18,1.1,5.72-.53,8.16s-3.94,4.52-4.86,7.31c-.29.87-.44,1.82-.97,2.58-.98,1.41-2.89,1.72-4.43,2.48-2,.99-3.51,2.93-3.98,5.11-.15.7-.21,1.45-.59,2.05-.68,1.07-2.11,1.31-3.16,2.02s-1.43,2.7-.19,2.98c-4.84-1.65-10.7.6-13.18,5.07-.5.89-.94,1.93-1.88,2.33-1.18.52-2.53-.23-3.82-.14-2.25.16-3.42,3.53-1.75,5.05-3.78-.71-7.56-1.43-11.34-2.14-.16,1.17-.33,2.33-.49,3.5-7.32-1.15-7.49-3.41-5.74-9.1,2.14-6.94,6.42-4.7,10.48-10.03Z"/>
        <path class="cls-47" d="M154.46,136.66c.1-.62.14-1.33.61-1.75.43-.38,1.1-.4,1.51-.8.44-.42.46-1.11.44-1.71-.11-4.01-.23-8.02-.34-12.04-.03-1.11-.06-2.26.38-3.29.37-.89,1.06-1.6,1.62-2.38,2.57-3.56,2.52-8.31,2.37-12.7,3.81-.31,7.09-2.72,10.13-5.03.66,3.83,1.86,7.57,3.55,11.07.32.66.66,1.35.63,2.09-.02.51-.22.98-.42,1.45-1.22,2.85-2.43,5.7-3.65,8.56.87.47,1.86.72,2.85.73-1.71,1.53-3.42,3.05-5.14,4.58.24.61.48,1.22.71,1.83,1.14.1,2.26.49,3.22,1.12-1.97,1.05-3.94,2.1-5.92,3.16-1.07.57-2.31,1.46-2.11,2.65.09.55.48.99.85,1.4,1.14,1.26,2.27,2.52,3.41,3.78-2.3,1.06-4.61,2.11-6.91,3.17-.84.39-1.76.84-2.11,1.7s.38,2.1,1.26,1.82c-4.55,1.42-11.64,1.12-16.42,1.32-.3-4.78,8.54-4.85,9.47-10.73Z"/>
        <path class="cls-47" d="M157.49,271.7c.99-.85,1.89-1.82,3.01-2.47,1.21-.7,2.61-.99,3.96-1.38,5.93-1.71,11.04-5.45,16-9.13,2.15-1.59,4.33-3.21,5.99-5.3.6-.75,1.13-1.56,1.88-2.17.84-.68,1.88-1.03,2.85-1.52,3.43-1.73,5.86-5.28,6.23-9.1,1.59,4.07,3.13,8.9.76,12.57-1.18,1.83-3.26,3.19-3.64,5.33-.31,1.72.58,3.58-.07,5.21-1.44,3.65-7.56,1.46-10.51,4.04,1.13,1.75-.74,4.07-2.77,4.59s-4.21.09-6.22.66c-3.77,1.08-6.06,5.41-9.93,6.06-1.33.22-2.69-.03-4.03,0-1.95.06-3.82.74-5.75,1.06-4.9.82-10.79-.86-13.91-4.79,5.82-.76,11.01.7,16.13-3.68Z"/>
        <path class="cls-47" d="M128.43,266.22c-4.7,1.45-10.08,2.14-14.3-.38-2.19-1.31-3.94-3.42-6.38-4.19-2.64-.84-5.48.07-8.25.31-5.88.51-11.93-2.36-15.27-7.23-2.04-2.98-3.45-6.9-6.87-8.07-1.62-.56-3.4-.34-5.09-.63-4.02-.69-6.95-4.03-10.05-6.68-3.1-2.65-7.57-4.81-11.12-2.81-1.05.75-.74,2.48.18,3.37s2.22,1.25,3.38,1.82c4.96,2.47,6.67,8.56,8.07,13.92s3.73,11.43,9.02,13.09c2.87.91,6.17.29,8.82,1.74,1.94,1.06,3.16,3.05,4.79,4.54,4.83,4.44,12.2,3.95,18.76,4.26,2.89.14,5.94.55,8.22,2.35s3.34,5.4,1.53,7.66c6.43-8.9,15.38-15.96,25.52-20.16,2.46-1.02,10.81-5.3,6.32-7.95-2.72-1.6-14.56,4.19-17.27,5.03Z"/>
        <path class="cls-47" d="M168.19,316.2c2.17-4.35,2.5-9.38,4.1-13.97,2.55-7.31,8.3-13.22,15.02-17.07,6.72-3.84,14.38-5.78,22.05-6.86-.25.95-.49,1.9-.74,2.85,3.54.18,7.13-.69,10.2-2.46,1.88,3.41-.29,8.33-4.08,9.24-2.33.56-4.9-.2-7.1.73-3.07,1.3-4.22,5.37-7.27,6.73-3.15,1.4-8.12,0-9.28,3.23-.3.83-.21,1.82-.74,2.52-.49.65-1.37.87-2.18,1-3.26.5-7.17.58-8.94,3.36-2.31,3.63.49,9.98-3.36,11.91-1.46.74-3.47.42-4.55,1.65-1.11,1.27-.59,3.56-1.95,4.57-.89.66-2.12.41-3.22.56-2.36.33-4.1,3-3.45,5.3-2.65-1.5-5.86-2.86-7.89-4.95,5.22-3,9.78-2.43,13.38-8.34Z"/>
        <path class="cls-47" d="M131.87,171.85c-1.12-3.75-2.26-7.59-2.1-11.5.07-1.7.33-3.58-.71-4.93-.69-.89-1.83-1.34-2.53-2.22-.9-1.12-.93-2.68-.92-4.12.04-4.09.07-8.18.11-12.27.01-1.73.02-3.5-.54-5.13-.53-1.53-1.54-2.86-2.74-3.95-3.58-3.22-9.02-4.18-13.49-2.39s-7.74,6.25-8.11,11.04c-.13,1.74.08,3.48.3,5.2.55,4.36,1.12,8.8,2.92,12.8,1.1,2.45,2.7,4.74,4.88,6.31,2.52,1.82,5.65,2.58,8.35,4.12s5.1,4.45,4.45,7.49c-7.63.54-15.41-1.41-21.87-5.5,2.16,6.79,12.72,8.51,13.92,15.53.47,2.75-.73,5.47-1.9,8,4.81.4,8.74,3.82,13.02,6.07,5.54,2.91,11.85,3.9,18.03,4.84,1.96-6.41-1.8-8.79-4.84-13.69-2.98-4.79-4.61-10.36-6.22-15.72Z"/>
        <path class="cls-6" d="M134.56,326.23c-.49-.77-.84-1.68-1.6-2.2-1.05-.72-2.46-.4-3.72-.22-4.44.63-9.15-1.01-12.24-4.26-2.27-2.38-3.96-5.73-7.14-6.58-1.3-.35-2.7-.21-3.97-.64-3.08-1.04-4.18-4.73-6.14-7.32-5.29-7-17.41-6.3-21.78-13.91-4.67,1.06-6.39,7.09-5.33,11.76s3.89,8.78,4.94,13.45c.25,1.13.42,2.32,1.07,3.28.66.95,1.71,1.52,2.64,2.21,2.65,1.96,4.42,5.07,4.74,8.35,4.21-.44,8.58.92,11.79,3.68,1.33,1.14,2.52,2.54,4.15,3.17,5.19,1.99,11.5-4.7,16-1.44.79.57,1.39,1.4,2.28,1.79,2.43,1.05,4.91-1.75,7.56-1.71,2.35.03,4.1,2.25,6.37,2.87,2.14.59,4.37-.32,6.54-.8,4.38-.97,8.7.01,12.63,1.94-1.54-10.56-14.18-6.17-18.77-13.4Z"/>
        <path class="cls-47" d="M145.29,69.45c4.03.68,6.54-4.16,7.69-8.08,1.19-4.05,2.38-8.1,3.57-12.15,2.51-8.56,4.95-18.15.85-26.07-1.27-2.45-3.16-4.75-3.27-7.51-.08-2.06.86-4,1.78-5.84,1.58-3.16,3.28-6.46,6.22-8.43s7.5-1.97,9.51.93c.56.81.91,1.81,1.68,2.43,2.53,2.05,6.04-1.68,9.27-1.29,2.34.28,3.79,2.6,5.05,4.59,3.79,5.98,8.89,11.13,14.85,14.96-2.07,4.18-1.19,9.63,2.08,12.95-3.5-.06-6.87,2.54-7.71,5.93.96.69,1.92,1.37,2.88,2.06-5.87.32-9.92,7.91-6.93,12.96-4.19,1.73-8.37,3.47-12.56,5.2,0,2.69,1.32,5.35,3.47,6.96-2.99.24-5.99.95-8.55,2.52-2.81,1.73-4.98,4.47-6,7.61-1.05,1.75-1.17,4.02-.31,5.87-5.6-2.74-12.57-.85-17.46,3.02s-8.12,9.4-11.24,14.79c-.42-5.8-.82-9.74,1.05-15.06,2.22-6.31,4.45-11.43,4.07-18.36Z"/>
        <circle class="cls-36" cx="143.74" cy="195.17" r="4.74"/>
        <circle class="cls-46" cx="140.4" cy="202.18" r="4.3"/>
        <circle class="cls-7" cx="139.26" cy="158.99" r="4.74"/>
        <circle class="cls-39" cx="147.98" cy="144.14" r="4.74"/>
        <circle class="cls-8" cx="153.65" cy="225.89" r="4.74"/>
        <circle class="cls-43" cx="143.21" cy="253.13" r="4.74"/>
        <circle class="cls-10" cx="146.21" cy="272.67" r="4.74"/>
        <circle class="cls-37" cx="144.41" cy="279.74" r="4.74"/>
        <circle class="cls-18" cx="149.23" cy="336.38" r="4.74"/>
        <circle class="cls-31" cx="140.04" cy="92.27" r="4.74"/>
        <circle class="cls-34" cx="114.55" cy="284.61" r="4.74"/>
      </g>
      <g>
        <path class="cls-6" d="M84.47,293.64c-2.45-1.19-4.11-3.53-6.3-5.15-2.19-1.62-5.62-2.34-7.41-.29-.81-1.64-1.63-3.27-2.44-4.91-2.13,2.06-4.98,4.29-7.75,3.22-1.34-.52-2.29-1.72-3.52-2.47s-3.18-.8-3.79.51c-.27-2.37-2.64-3.9-4.89-4.69-2.25-.79-4.74-1.24-6.47-2.88-1.1,4.46,1.01,9.51,4.94,11.88,1.08.65,2.31,1.13,3.17,2.06,1.84,1.96,1.86,5.66,4.42,6.5,1.08.35,2.31.02,3.36.45,1.23.5,1.86,1.89,2.97,2.63,2.83,1.91,6.81-1.21,9.99.02.97.38,1.74,1.12,2.6,1.69,2.65,1.77,6.33,1.87,9.07.23,1.38-.82,2.65-2.08,4.26-2.12,1.26-.02,2.4.73,3.64.93,3.51.59,6.08-3.04,8.94-5.16,2.53-1.87,5.5-1.97,8.24-2.68-2.69-7.51-16.98,3.16-23.03.21Z"/>
        <path class="cls-6" d="M34.98,205.25c-1.37-1.25-2.61-2.67-4.19-3.65-1.12-.7-2.39-1.16-3.45-1.96-3.45-2.61-4.56-8.61-8.88-8.89-1.36-.09-2.67.49-3.91,1.06-4.24,1.94-8.48,3.89-12.72,5.83-.68.31-1.43.69-1.71,1.38-.34.83.13,1.77.68,2.48,2.2,2.86,6.03,4.36,9.58,3.76-1.87,1.91-4.34,3.22-6.97,3.72,1.24,3.17,5.21,4.13,8.6,4.34,3.39.2,7.22.27,9.53,2.77-2.52,2.03-6.2,2.5-9.14,1.17,4.77,3.69,10.45,6.21,16.39,7.26.56,1.69,2.8,1.89,4.58,1.95s4.06.85,3.97,2.62c3.64-3.36,9.9.05,14.37-2.1,6.72,2.22,13.77,3.46,20.85,3.66-2.29-2.97-5.93-4.48-9.15-6.41-4.64-2.78-6.28-8.08-10.99-10.51-5.96-3.07-12.22-3.72-17.43-8.47Z"/>
        <path class="cls-6" d="M30.74,163.49c-.64-.8-1.62-1.32-2.11-2.22-.69-1.26-.22-2.8.01-4.22.64-3.91-.84-8.1-3.78-10.75s-7.27-3.67-11.09-2.63c-2.81.77-5.66,2.58-8.42,1.63-.61-.21-1.27-.56-1.86-.3-.68.3-.82,1.19-.79,1.93.12,2.82,1.4,5.58,3.48,7.5,1.72,1.59,4.16,4.04,2.48,5.68-1.66,1.63-4.48-.9-6.7-.2-.71,2.05.61,4.33,2.39,5.57,1.78,1.24,3.95,1.75,5.97,2.55,4.71,1.86,8.73,5.42,11.14,9.88-2.5-.72-4.85-1.97-6.83-3.65.11,3.14,3.18,5.27,6.03,6.6s6.1,2.7,7.27,5.61c.53,1.31.79,3.05,2.15,3.44.81.23,1.65-.18,2.47-.38,2.52-.59,5.33,1.3,5.74,3.86.69-1.29,2.75-.91,3.76.14s1.52,2.54,2.62,3.51c1.63,1.44,4.43,1.26,5.86-.38.76.86,1.53,1.72,2.29,2.58,2.25.15,3.41-2.98,2.49-5.03-1.53-3.38-5.7-5.35-7.85-8.4-1.66-2.36-2.56-5.29-4.43-7.51-1.86-2.22-4.19-3.04-6.5-4.65-4.47-3.11-2.88-6.51-5.8-10.17Z"/>
        <path class="cls-45" d="M141.97,351.06c-1.73-.69-3.6-1.51-4.43-3.18-1.17-2.34.25-5.1.19-7.71-.11-5.17-5.63-8.29-10.44-10.16-4.81-1.88-10.44-4.43-11.29-9.53-.48-2.91.77-6.17-.76-8.7-1.15-1.9-3.48-2.67-5.24-4.02-3.09-2.37-4.31-6.51-4.36-10.4s.89-7.72,1.27-11.6c.32-3.29.17-6.81-1.65-9.57-4.43-6.7-16.41-5.83-19.37-13.3-.84-2.13-.76-4.66-2.16-6.47-.69-.89-1.68-1.5-2.65-2.09-3.26-1.99-6.52-3.98-9.78-5.97-.86-.53-1.76-1.09-2.26-1.97-.62-1.09-.48-2.44-.3-3.69.94-6.21,2.75-12.88-.05-18.5-2.28-4.56-7.1-7.26-10.21-11.29-3.12-4.03-4.37-9.17-6.61-13.74-4.12-8.39-11.82-15.51-12.37-24.84,1.81-.76,3.61-1.51,5.42-2.27,1.39,6.37,2.96,13.12,7.55,17.75,1.67,1.69,3.71,3.05,5.08,5,2.03,2.87,2.34,6.59,3.66,9.85,3.64,8.93,14.71,13.95,16.26,23.47,1.05,6.43-2.47,14.02,1.73,19,2.88,3.42,8.41,3.97,10.72,7.79,1.14,1.89,1.29,4.32,2.69,6.02,1.47,1.78,3.91,2.31,6.09,3.06,9.7,3.34,16.67,13.38,16.4,23.64-.15,5.6-2,11.98,1.61,16.25,2.15,2.55,5.98,3.83,6.9,7.04,1.11,3.87-2.67,8.72.07,11.67.94,1.01,2.37,1.36,3.71,1.68,3.63.89,7.39,2.05,10.01,4.72,4.84,4.94,4.67,12.84,10.24,17.23,1.63,1.29,6.53,2.1,4.38,5.35-1.71,2.59-8.07.24-10.04-.55Z"/>
        <path class="cls-47" d="M104.19,254.11c.41-2.58-.06-5.21-.53-7.78,2.57-.39,4.83-2.36,5.56-4.85.21-.72.32-1.51.82-2.06.51-.57,1.32-.76,1.97-1.17.91-.57,1.48-1.54,1.99-2.49,1.45-2.68,2.75-5.45,3.88-8.29,1.56-3.93,3.71-8.71,7.93-8.93,2.14.76,2.85,3.49,2.63,5.75-.22,2.26-1.03,4.52-.63,6.76.12.7.37,1.4.29,2.11-.15,1.32-1.33,2.23-2.1,3.31-1,1.41-1.32,3.28-.83,4.94.16.53.39,1.06.35,1.61-.07.98-.96,1.67-1.41,2.54s.02,2.36.96,2.1c-3.9.65-7.06,4.33-7.11,8.28-.01.79.06,1.66-.42,2.28-.62.78-1.81.77-2.65,1.31-1.47.94-1.03,3.66.66,4.08-2.84.9-5.67,1.8-8.51,2.7.32.85.63,1.71.95,2.56-5.4,1.9-6.35.43-7.24-4.09-1.09-5.51,2.64-5.55,3.45-10.67Z"/>
        <path class="cls-47" d="M69.9,207.97c-.16-.46-.39-.95-.23-1.41.15-.42.6-.68.74-1.1.15-.45-.1-.92-.33-1.33-1.55-2.69-3.1-5.38-4.65-8.06-.43-.75-.87-1.52-.95-2.38-.07-.74.13-1.48.23-2.22.44-3.37-1.34-6.58-3.05-9.51,2.48-1.61,3.83-4.45,5.05-7.14,1.86,2.36,4.04,4.46,6.48,6.23.46.33.95.68,1.2,1.19.17.35.21.75.24,1.14.22,2.39.44,4.77.66,7.16.77,0,1.53-.19,2.21-.55-.61,1.67-1.21,3.33-1.82,5,.39.33.77.65,1.16.98.82-.35,1.72-.49,2.6-.42-.96,1.44-1.91,2.88-2.87,4.32-.52.78-1.03,1.84-.46,2.58.26.34.69.5,1.09.64,1.24.44,2.47.88,3.71,1.32-1.18,1.56-2.36,3.13-3.54,4.69-.43.57-.89,1.22-.81,1.93s1.03,1.29,1.53.78c-2.57,2.63-7.51,5.03-10.69,6.93-1.96-3.14,4.03-6.43,2.51-10.78Z"/>
        <path class="cls-47" d="M121.51,298.74c.36-.94.62-1.93,1.14-2.79.57-.92,1.42-1.63,2.19-2.39,3.41-3.34,5.51-7.76,7.54-12.08.88-1.87,1.77-3.77,2.13-5.8.13-.73.2-1.48.48-2.16.32-.77.9-1.4,1.38-2.08,1.7-2.43,2.05-5.74.9-8.48,2.58,2.18,5.39,4.91,5.13,8.28-.13,1.68-1.05,3.36-.53,4.96.42,1.29,1.71,2.23,1.87,3.57.36,3.01-4.61,3.77-5.67,6.61,1.41.78.99,3.04-.2,4.14s-2.83,1.6-3.99,2.73c-2.17,2.12-2.14,5.91-4.53,7.76-.82.64-1.84.96-2.74,1.48-1.3.76-2.33,1.91-3.52,2.83-3.03,2.36-7.66,3.37-11.22,1.84,3.68-2.65,7.75-3.57,9.63-8.43Z"/>
        <path class="cls-47" d="M99.72,305.68c-2.66,2.71-6.08,5.15-9.87,4.99-1.97-.09-3.93-.88-5.88-.51-2.11.4-3.7,2.06-5.5,3.24-3.82,2.5-8.99,2.77-13.04.69-2.48-1.28-4.88-3.43-7.63-2.97-1.31.22-2.44,1.01-3.7,1.44-2.99,1.01-6.21-.19-9.29-.86s-6.92-.5-8.6,2.17c-.44.89.4,1.96,1.36,2.23s1.97.03,2.97,0c4.28-.14,7.68,3.38,10.6,6.51s6.73,6.41,10.94,5.6c2.29-.44,4.31-2.07,6.64-2.05,1.71.01,3.27.91,4.92,1.33,4.92,1.25,9.75-1.79,14.33-3.98,2.02-.97,4.25-1.81,6.45-1.42,2.21.39,4.25,2.45,3.85,4.65,1.11-8.42,4.61-16.5,9.97-23.08,1.3-1.6,5.41-7.58,1.38-7.73-2.44-.09-8.37,8.19-9.91,9.76Z"/>
        <path class="cls-47" d="M145.12,325.1c-.12-3.76-1.74-7.3-2.34-11.01-.95-5.91.8-12.04,3.96-17.12,3.16-5.08,7.66-9.21,12.49-12.76.18.74.36,1.47.54,2.21,2.48-1.18,4.6-3.08,6.04-5.42,2.53,1.63,2.86,5.77.62,7.78-1.38,1.24-3.41,1.66-4.57,3.11-1.61,2.02-.9,5.2-2.48,7.24-1.63,2.11-5.53,2.97-5.13,5.61.1.68.52,1.31.42,1.99-.09.63-.61,1.09-1.12,1.48-2.03,1.54-4.67,3.03-4.85,5.57-.24,3.32,3.99,6.61,2.09,9.34-.73,1.04-2.21,1.56-2.49,2.79-.29,1.27.9,2.64.35,3.82-.36.77-1.3,1.05-1.98,1.56-1.49,1.09-1.69,3.55-.4,4.87-2.35-.05-5.04.2-7.19-.47,2.45-3.96,5.77-5.24,6.04-10.58Z"/>
        <path class="cls-47" d="M67.44,240.2c-2.14-2.14-4.32-4.34-5.65-7.06-.58-1.18-1.09-2.56-2.29-3.09-.8-.35-1.74-.24-2.54-.58-1.02-.43-1.62-1.48-2.14-2.47-1.48-2.8-2.95-5.59-4.43-8.39-.62-1.18-1.27-2.39-2.25-3.29-.92-.85-2.1-1.38-3.31-1.68-3.61-.88-7.67.46-10.06,3.32-2.38,2.86-2.97,7.09-1.46,10.49.55,1.23,1.33,2.33,2.11,3.43,1.97,2.77,3.99,5.58,6.68,7.64,1.65,1.26,3.57,2.23,5.64,2.5,2.38.31,4.79-.32,7.19-.26s5.1,1.15,5.77,3.46c-4.99,3.17-11.01,4.69-16.9,4.28,3.96,3.83,11.78,1.12,15.17,5.46,1.33,1.7,1.51,3.99,1.64,6.14,3.42-1.5,7.35-.61,11.08-.65,4.83-.05,9.49-1.69,14.05-3.32-1.02-5.08-4.45-5.32-8.32-7.54-3.79-2.17-6.94-5.35-10-8.42Z"/>
        <path class="cls-6" d="M125.91,344.27c-.62-.35-1.19-.84-1.89-.91-.98-.1-1.82.63-2.62,1.22-2.79,2.06-6.59,2.67-9.89,1.59-2.42-.79-4.8-2.44-7.27-1.86-1.01.24-1.91.84-2.94,1.02-2.48.43-4.58-1.68-6.87-2.73-6.17-2.82-14.16,2.1-19.92-1.47-2.78,2.44-1.74,7.17.68,9.96,2.43,2.79,5.87,4.55,8.3,7.34.59.68,1.14,1.43,1.93,1.84.79.4,1.72.41,2.6.53,2.52.36,4.87,1.83,6.29,3.94,2.7-1.84,6.17-2.52,9.37-1.82,1.32.29,2.64.8,3.98.63,4.26-.55,6.1-7.42,10.36-6.85.74.1,1.46.44,2.21.38,2.04-.17,2.7-2.99,4.51-3.94,1.61-.84,3.62.02,5.39-.39,1.67-.39,2.85-1.82,4.15-2.94,2.62-2.27,5.92-3.18,9.31-3.31-4.92-6.62-11.91,1.01-17.69-2.23Z"/>
        <path class="cls-47" d="M39,165.6c2.99-1.01,2.93-5.23,2.27-8.32-.68-3.19-1.35-6.38-2.03-9.58-1.43-6.75-3.29-14.16-8.99-18.05-1.76-1.2-3.9-2.07-4.98-3.91-.81-1.37-.88-3.04-.93-4.63-.08-2.73-.14-5.6,1.14-8.02s4.38-4.09,6.82-2.86c.68.35,1.28.9,2.03,1.04,2.47.47,3.5-3.36,5.84-4.28,1.7-.67,3.53.38,5.12,1.27,4.77,2.68,10.13,4.31,15.59,4.73.13,3.6,2.72,6.99,6.17,8.05-2.4,1.25-3.74,4.24-3.07,6.87.9.11,1.81.23,2.71.34-3.87,2.37-3.85,9.02.04,11.36-2.21,2.71-4.42,5.43-6.64,8.14.98,1.83,2.86,3.15,4.92,3.46-1.95,1.26-3.73,2.85-4.89,4.85-1.28,2.2-1.74,4.87-1.29,7.38-.07,1.58.68,3.16,1.94,4.11-4.81.19-8.87,4.03-10.77,8.46s-2.08,9.37-2.22,14.19c-2.41-3.8-4.13-6.32-4.81-10.63-.81-5.11-1.17-9.41-3.97-13.98Z"/>
        <circle class="cls-28" cx="84.07" cy="251.72" r="3.67"/>
        <circle class="cls-17" cx="84.37" cy="257.71" r="3.32"/>
        <circle class="cls-33" cx="67.75" cy="228.74" r="3.67"/>
        <circle class="cls-24" cx="68.23" cy="215.44" r="3.67"/>
        <circle class="cls-29" cx="102.09" cy="268.99" r="3.67"/>
        <circle class="cls-5" cx="104.97" cy="291.35" r="3.67"/>
        <circle class="cls-20" cx="114.19" cy="303.54" r="3.67"/>
        <circle class="cls-30" cx="115.55" cy="309.02" r="3.67"/>
        <circle class="cls-38" cx="139.62" cy="345.79" r="3.67"/>
        <circle class="cls-16" cx="43.8" cy="183.05" r="3.67"/>
        <circle class="cls-41" cx="97.02" cy="323.29" r="3.67"/>
      </g>
      <g>
        <path class="cls-6" d="M207.78,284.87c1.73-1.56,2.54-3.88,3.95-5.74s4.06-3.26,6.03-2.01c.28-1.54.56-3.08.84-4.62,2.24,1.19,5.12,2.34,7.14.8.98-.75,1.48-1.96,2.31-2.87s2.42-1.41,3.23-.49c-.34-2.01,1.24-3.84,2.9-5.02s3.6-2.15,4.64-3.91c1.96,3.41,1.44,8.06-1.23,10.95-.74.8-1.63,1.48-2.12,2.45-1.04,2.05-.18,5.1-2.09,6.4-.8.55-1.9.57-2.66,1.17-.89.71-1.08,1.99-1.81,2.87-1.87,2.24-5.88.63-8.21,2.4-.71.54-1.16,1.33-1.74,2.01-1.76,2.09-4.76,3.04-7.41,2.35-1.33-.35-2.68-1.08-4.01-.72-1.04.28-1.8,1.17-2.77,1.64-2.75,1.32-5.72-1.05-8.58-2.11-2.53-.94-4.99-.31-7.41-.24.42-6.82,14.72-1.45,18.99-5.31Z"/>
        <path class="cls-6" d="M227.4,200.39c.83-1.36,1.51-2.82,2.58-4,.76-.84,1.69-1.52,2.37-2.43,2.22-2.97,1.7-8.16,5.18-9.43,1.1-.4,2.31-.23,3.47-.06,3.95.59,7.9,1.17,11.85,1.76.64.09,1.34.22,1.74.73.48.61.32,1.49.03,2.2-1.13,2.87-3.92,5.02-6.98,5.37,2,1.12,4.34,1.62,6.62,1.4-.26,2.9-3.29,4.64-6.03,5.62s-5.88,1.94-7.18,4.55c2.55,1.07,5.69.58,7.79-1.22-3.05,4.17-7.11,7.59-11.75,9.88-.06,1.52-1.85,2.22-3.3,2.69s-3.14,1.66-2.64,3.1c-3.8-1.9-8.13,2.4-12.31,1.7-5,3.43-10.5,6.13-16.27,7.98,1.18-2.99,3.81-5.1,5.99-7.45,3.15-3.39,3.24-8.14,6.53-11.26,4.16-3.95,9.16-5.97,12.31-11.12Z"/>
        <path class="cls-6" d="M220.94,165.04c.33-.81,1.02-1.47,1.21-2.33.27-1.2-.49-2.35-1.01-3.46-1.46-3.06-1.24-6.86.55-9.74s5.1-4.75,8.49-4.8c2.5-.04,5.27.77,7.31-.67.45-.32.91-.76,1.46-.69.63.08.96.78,1.11,1.4.57,2.35.18,4.92-1.07,6.99-1.04,1.72-2.45,4.32-.69,5.26,1.76.94,3.47-1.81,5.46-1.76,1.07,1.52.53,3.71-.64,5.15s-2.83,2.38-4.3,3.52c-3.43,2.65-5.89,6.54-6.81,10.78,1.88-1.19,3.51-2.78,4.75-4.63.66,2.61-1.36,5.09-3.38,6.86s-4.37,3.67-4.64,6.35c-.12,1.2.08,2.7-.95,3.34-.61.38-1.4.24-2.12.28-2.21.12-4.07,2.34-3.8,4.54-.88-.9-2.48-.1-3.06,1.02s-.65,2.45-1.32,3.51c-.99,1.58-3.34,2.09-4.91,1.09-.42.89-.85,1.78-1.27,2.66-1.81.66-3.52-1.63-3.24-3.54.45-3.14,3.41-5.76,4.45-8.78.81-2.33.84-4.96,1.85-7.23s2.72-3.5,4.24-5.37c2.93-3.62.82-6.04,2.34-9.74Z"/>
        <path class="cls-45" d="M174.19,345.78c1.26-.98,2.6-2.1,2.89-3.67.4-2.2-1.42-4.14-1.99-6.3-1.14-4.27,2.65-8.16,6.17-10.85s7.53-6.13,7.01-10.52c-.29-2.51-2.1-4.89-1.45-7.33.49-1.84,2.22-3.02,3.35-4.56,1.97-2.68,1.99-6.38,1.1-9.59s-2.57-6.14-3.8-9.23c-1.04-2.63-1.76-5.56-.92-8.26,2.05-6.57,12.1-8.7,12.76-15.55.19-1.95-.49-4.01.24-5.84.36-.9,1.03-1.63,1.68-2.35,2.21-2.41,4.41-4.83,6.62-7.24.58-.64,1.19-1.32,1.39-2.16.25-1.05-.18-2.12-.63-3.1-2.25-4.88-5.33-9.93-4.36-15.22.79-4.29,4.1-7.66,5.71-11.72,1.6-4.06,1.41-8.58,2.16-12.88,1.39-7.88,6.02-15.57,4.25-23.38-1.67-.19-3.33-.38-5-.57.38,5.57.69,11.49-1.98,16.4-.97,1.79-2.32,3.39-2.99,5.32-.98,2.85-.35,5.98-.67,8.97-.87,8.21-8.77,14.98-7.78,23.17.67,5.53,5.37,10.94,3.11,16.03-1.55,3.5-5.97,5.27-6.96,8.96-.49,1.83-.03,3.86-.78,5.59-.78,1.81-2.66,2.83-4.28,3.97-7.18,5.06-10.51,14.98-7.85,23.35,1.46,4.57,4.5,9.37,2.55,13.75-1.16,2.61-4,4.58-3.99,7.43,0,3.45,4.28,6.54,2.72,9.61-.53,1.05-1.62,1.68-2.65,2.27-2.78,1.59-5.59,3.45-7.11,6.27-2.8,5.21-.78,11.67-4.31,16.61-1.04,1.45-4.87,3.28-2.33,5.44,2.03,1.72,6.69-1.73,8.12-2.84Z"/>
        <path class="cls-47" d="M182.15,257.06c-.95-2.02-1.19-4.3-1.42-6.52-2.2.29-4.53-.79-5.73-2.67-.34-.54-.63-1.16-1.17-1.5-.56-.35-1.27-.31-1.9-.49-.88-.25-1.58-.92-2.23-1.57-1.84-1.86-3.56-3.83-5.16-5.89-2.22-2.86-5.13-6.28-8.65-5.45-1.58,1.14-1.51,3.54-.79,5.35s1.92,3.47,2.13,5.41c.06.61.03,1.24.27,1.8.44,1.05,1.63,1.51,2.52,2.22,1.16.92,1.86,2.38,1.86,3.86,0,.47-.07.96.1,1.41.29.79,1.18,1.14,1.76,1.75s.55,1.95-.29,1.95c3.36-.39,6.84,1.88,7.82,5.12.2.64.34,1.38.89,1.77.69.5,1.67.2,2.49.44,1.43.42,1.72,2.76.43,3.51,2.55.07,5.09.13,7.64.2-.06.78-.11,1.56-.17,2.33,4.9.28,5.32-1.16,4.98-5.09-.41-4.79-3.49-3.94-5.38-7.95Z"/>
        <path class="cls-47" d="M199.34,210.95c.02-.42.1-.88-.15-1.22-.22-.31-.65-.41-.87-.73-.23-.33-.14-.78-.04-1.17.63-2.58,1.27-5.16,1.9-7.74.18-.71.35-1.46.22-2.18-.12-.63-.46-1.18-.72-1.77-1.16-2.66-.47-5.73.24-8.55-2.42-.73-4.21-2.75-5.85-4.67-.96,2.38-2.26,4.63-3.84,6.66-.3.38-.62.78-.7,1.26-.06.33,0,.67.07,1,.39,2.01.78,4.03,1.17,6.04-.63.18-1.31.21-1.95.07.89,1.23,1.79,2.45,2.68,3.68-.24.36-.48.72-.72,1.08-.75-.09-1.53,0-2.24.28,1.13.96,2.26,1.91,3.39,2.87.61.52,1.29,1.27.99,2.01-.13.34-.45.58-.74.79-.91.66-1.82,1.32-2.73,1.97,1.34,1,2.69,2.01,4.03,3.01.49.37,1.02.79,1.13,1.39s-.54,1.3-1.07,1c2.74,1.55,7.38,2.35,10.44,3.15.86-3.05-4.85-4.33-4.63-8.26Z"/>
        <path class="cls-47" d="M178.54,297.89c-.52-.68-.97-1.44-1.6-2.02-.69-.63-1.55-1.01-2.37-1.45-3.6-1.93-6.38-5.07-9.08-8.14-1.17-1.33-2.35-2.68-3.14-4.26-.28-.57-.51-1.17-.91-1.66-.45-.56-1.07-.93-1.63-1.38-1.98-1.6-3.05-4.23-2.76-6.76-1.6,2.41-3.26,5.32-2.24,8.03.51,1.35,1.66,2.52,1.61,3.96-.04,1.16-.87,2.24-.68,3.38.42,2.56,4.69,2,6.24,4.08-.98.98-.09,2.74,1.15,3.36s2.71.64,3.93,1.3c2.29,1.22,3.17,4.35,5.58,5.3.83.33,1.74.35,2.61.57,1.25.31,2.37,1.01,3.57,1.49,3.06,1.22,7.1.95,9.67-1.16-3.66-1.3-7.22-1.09-9.92-4.63Z"/>
        <path class="cls-47" d="M198.11,298.4c2.84,1.59,6.22,2.79,9.3,1.75,1.6-.54,3.03-1.66,4.71-1.82,1.83-.17,3.54.81,5.29,1.35,3.73,1.15,8.05.14,10.89-2.54,1.74-1.64,3.2-3.98,5.57-4.26,1.13-.13,2.25.25,3.38.3,2.7.11,5.06-1.63,7.44-2.92s5.57-2.06,7.59-.26c.57.63.14,1.71-.59,2.16s-1.61.5-2.44.71c-3.56.91-5.51,4.61-7.17,7.88s-4.01,6.87-7.66,7.21c-1.99.18-4.03-.67-5.95-.11-1.4.42-2.47,1.53-3.73,2.27-3.75,2.2-8.45.85-12.73.14-1.89-.31-3.92-.47-5.64.37-1.72.85-2.91,3.03-2.06,4.74-2.92-6.65-7.72-12.47-13.7-16.6-1.45-1-6.25-4.94-2.98-6.03,1.98-.66,8.83,4.74,10.47,5.66Z"/>
        <path class="cls-47" d="M165.41,325.19c-.8-3.12-.31-6.41-.7-9.61-.63-5.09-3.52-9.71-7.34-13.14s-8.5-5.74-13.31-7.51c.03.65.05,1.3.08,1.94-2.32-.38-4.52-1.44-6.26-3.01-1.69,1.94-.97,5.43,1.35,6.55,1.43.69,3.2.55,4.49,1.47,1.81,1.27,1.98,4.06,3.77,5.37,1.84,1.34,5.26,1.13,5.56,3.39.08.58-.12,1.21.13,1.74.23.49.76.75,1.27.95,2.04.78,4.56,1.38,5.32,3.42.99,2.67-1.71,6.39.51,8.17.84.68,2.19.75,2.71,1.7.54.98-.11,2.39.62,3.23.48.55,1.32.56,2,.81,1.48.54,2.24,2.51,1.49,3.91,1.92-.6,4.19-1.03,5.8-2.1-2.95-2.67-5.99-2.93-7.49-7.26Z"/>
        <path class="cls-47" d="M209.04,236.87c1.25-2.27,2.52-4.6,2.96-7.15.19-1.11.29-2.36,1.15-3.09.57-.48,1.37-.61,1.95-1.08.74-.6.98-1.61,1.17-2.54.55-2.65,1.1-5.3,1.64-7.95.23-1.12.47-2.26,1.06-3.24.55-.92,1.39-1.64,2.32-2.17,2.76-1.58,6.42-1.45,9.06.33,2.64,1.78,4.13,5.12,3.7,8.28-.16,1.14-.54,2.24-.92,3.32-.96,2.74-1.95,5.54-3.67,7.88-1.06,1.43-2.41,2.69-4.04,3.4-1.89.82-4.02.88-5.98,1.5s-3.92,2.17-3.92,4.22c4.86,1.42,10.17,1.23,14.92-.51-2.34,4.09-9.42,3.73-11.17,8.11-.69,1.71-.29,3.64.11,5.44-3.17-.41-6.19,1.25-9.27,2.11-3.99,1.11-8.21.87-12.34.62-.37-4.42,2.39-5.44,5.04-8.18s4.43-6.06,6.21-9.3Z"/>
        <path class="cls-6" d="M185.78,336.37c.42-.43.78-.97,1.34-1.2.78-.32,1.65.09,2.44.38,2.79,1.03,6.06.62,8.51-1.05,1.8-1.23,3.36-3.15,5.54-3.26.89-.04,1.77.24,2.66.14,2.14-.24,3.36-2.48,5-3.88,4.4-3.79,12.14-1.65,16.03-5.96,2.87,1.34,3.14,5.48,1.81,8.35-1.33,2.87-3.74,5.14-5.07,8.02-.32.7-.59,1.45-1.15,1.97-.56.52-1.32.75-2.01,1.06-1.99.89-3.57,2.66-4.23,4.74-2.66-.87-5.68-.6-8.14.74-1.02.55-1.98,1.29-3.13,1.47-3.63.57-6.78-4.64-10.15-3.16-.59.26-1.1.71-1.73.84-1.72.34-2.93-1.81-4.65-2.16-1.53-.31-2.97.88-4.52.97-1.47.08-2.78-.82-4.12-1.43-2.7-1.24-5.63-1.2-8.44-.51,2.47-6.62,10.04-2.01,14.01-6.05Z"/>
        <path class="cls-47" d="M214.65,168.75c-2.7-.12-3.65-3.6-3.85-6.3-.2-2.79-.41-5.57-.61-8.36-.43-5.89-.67-12.43,3.09-16.99,1.16-1.41,2.71-2.63,3.16-4.4.34-1.32,0-2.71-.34-4.03-.58-2.27-1.22-4.64-2.85-6.32s-4.58-2.32-6.28-.73c-.48.45-.84,1.04-1.42,1.34-1.92.97-3.68-1.93-5.82-2.13-1.55-.14-2.82,1.15-3.91,2.27-3.28,3.34-7.31,5.96-11.69,7.6.75,2.99-.57,6.39-3.15,8.09,2.27.45,4.09,2.6,4.16,4.91-.72.31-1.43.62-2.15.93,3.75,1.03,5.31,6.5,2.67,9.35,2.47,1.7,4.93,3.41,7.4,5.11-.37,1.74-1.6,3.27-3.22,4.02,1.9.57,3.75,1.45,5.18,2.82,1.58,1.51,2.6,3.59,2.82,5.76.43,1.28.19,2.76-.62,3.84,4-.99,8.25,1.2,10.87,4.39s3.94,7.21,5.21,11.14c1.08-3.7,1.89-6.19,1.42-9.89-.55-4.39-1.28-8.01-.07-12.44Z"/>
        <circle class="cls-1" cx="198.12" cy="250.3" r="3.14"/>
        <circle class="cls-3" cx="199.3" cy="255.3" r="2.85"/>
        <circle class="cls-35" cx="206.06" cy="227.52" r="3.14"/>
        <circle class="cls-13" cx="202.49" cy="216.7" r="3.14"/>
        <circle class="cls-11" cx="187.42" cy="268.8" r="3.14"/>
        <circle class="cls-22" cx="190.38" cy="287.87" r="3.14"/>
        <circle class="cls-9" cx="185.71" cy="300.09" r="3.14"/>
        <circle class="cls-21" cx="185.89" cy="304.92" r="3.14"/>
        <circle class="cls-26" cx="174.87" cy="340.89" r="3.14"/>
        <circle class="cls-44" cx="214.86" cy="184.25" r="3.14"/>
        <circle class="cls-19" cx="204.53" cy="312.24" r="3.14"/>
      </g>
    </g>
  </g>
</svg>