<?xml version="1.0" encoding="UTF-8"?>
<svg id="Layer_2" data-name="Layer 2" xmlns="http://www.w3.org/2000/svg" xmlns:xlink="http://www.w3.org/1999/xlink" viewBox="0 0 163.97 129.78">
  <defs>
    <style>
      .cls-1 {
        fill: url(#radial-gradient);
      }
    </style>
    <radialGradient id="radial-gradient" cx="93.31" cy="94.01" fx="83.02" fy="94.01" r="98.35" gradientUnits="userSpaceOnUse">
      <stop offset="0" stop-color="#615d30"/>
      <stop offset=".03" stop-color="#625e30"/>
      <stop offset=".57" stop-color="#857f36"/>
      <stop offset=".86" stop-color="#938c39"/>
    </radialGradient>
  </defs>
  <g id="Assets">
    <path id="Peacock_s_Tail" data-name="Peacock&amp;apos;s Tail" class="cls-1" d="M160.43,77.05c-5.5-9.39-3.77-21.28-6.94-31.69-.64-2.11-2.18-4.57-4.34-4.17-1.65.31-2.5,2.15-2.76,3.81-.52,3.29.24,6.79-.99,9.88s-6.05,4.93-7.75,2.07c-3.31.72-6.98,1.69-8.74,4.59-1.12,1.85-1.21,4.14-1.99,6.17-1.81,4.72-6.97,7.19-11.83,8.58-7.14,2.04-14.66,2.75-22.05,2.07,6.85-.86,13.25-4.84,17.06-10.6,4.03-6.08,6.01-14.63,12.9-17.03,3.71-1.29,7.77-.29,11.7-.12,3.93.17,8.55-1.04,9.96-4.71,1.33-3.48-.94-7.27-3.44-10.04-2.5-2.76-5.51-5.52-5.99-9.22-.23-1.75.15-3.58-.38-5.27-.77-2.44-3.19-3.92-5.5-5-3.02-1.41-6.33-2.53-9.63-2.07-3.3.47-6.5,2.94-6.84,6.25-.3,2.92,1.57,5.55,2.61,8.29,3.09,8.07-.96,16.95-4.91,24.63-5.1,9.91-11.26,20.75-21.92,24,7.94-3.79,11.91-14.24,8.49-22.35-.53,3.86-2.52,7.5-5.49,10.02-3.29,2.79-7.71,4.27-10.26,7.74,1.31-2.86,2-5.99,2.09-9.13,1.9-.41,4-1.72,3.79-3.63-.15-1.29-1.35-2.41-1.07-3.67.25-1.12,1.5-1.63,2.51-2.17,1.01-.54,2.04-1.68,1.5-2.69-.54-1.01-2.15-.76-2.96.05s-1.2,1.97-2,2.79c-.77.8-1.84,1.2-2.82,1.73-1.01-3.48-2.25-7.7.55-9.82,1.84-1.4,4.41-.91,6.72-.87s5.18-1.04,5.24-3.35c.07-2.35-2.89-3.83-3.12-6.16-.26-2.67,3.16-4.24,5.82-3.88,2.66.36,5.21,1.76,7.88,1.48,4.44-.46,7.2-5.63,6.49-10.04-.71-4.41-3.9-7.99-7.3-10.87C91.41,1.38,72.44-2.78,55.65,1.88c-2.86.79-6.32,3.2-5.1,5.91,1.06,2.35,4.38,2.03,6.93,2.41,4.1.61,7.39,4.03,8.82,7.92,1.44,3.89,1.31,8.19.76,12.3-.29,2.18-.7,4.38-.45,6.56.36,3.1,2,5.88,3.21,8.76,3.02,7.19,3.33,15.48.87,22.88-3.33.75-6.29-2.48-7.31-5.74-1.02-3.25-.96-6.84-2.47-9.89-1.15-2.32-3.19-4.29-3.56-6.86-.48-3.37,2.02-6.31,3.81-9.21,2.62-4.24,3.9-9.31,3.6-14.29-.15-2.56-1.2-5.6-3.72-6.06-.97-.18-1.96.09-2.91.36-8.04,2.29-16.1,4.87-23.24,9.21-4.24,2.58-8.14,5.78-12.67,7.81-4.64,2.09-9.88,2.93-14.02,5.89-4.14,2.95-6.61,9.31-3.24,13.11,3.04-1.2,6.92.76,7.76,3.92-3.33-1.73-7.77-.99-10.36,1.73-2.59,2.72-3.12,7.19-1.23,10.43.46.8,1.06,1.53,1.83,2.03,3.76,2.47,8.28-1.36,12.32-3.34,3.63-1.78,7.8-2.04,11.84-2.26,6.35-.35,12.69-.71,19.04-1.06,1.04-.06,2.14-.1,3.07.37,1.13.57,1.77,1.78,2.5,2.82,2.35,3.36,6.33,5.51,10.42,5.64-9.07,1.54-18.47,1.12-27.37-1.23-2.24-.59-4.66-1.29-6.79-.38-2.36,1.01-3.68,3.75-6.1,4.58-2.08.72-4.33-.17-6.53-.18-6.32-.04-10.5,7.42-9.53,13.67.78,5.02,5.9,10.13,10.42,7.82,2.47-1.26,5.14-4.45,7.22-2.61.7,3.66,6.37,3.59,9.08,1.04,2.71-2.55,3.99-6.4,6.86-8.77,1.6-1.32,3.58-2.09,5.59-2.61,3.46-.89,7.1-1.04,10.64-.5.89.39,1.77.81,2.63,1.28.91.5,1.82,1.07,2.39,1.94.57.87.71,2.1.06,2.91,4.04.57,7.98,1.82,11.62,3.64.44.22.91.51,1.41.84,1.85,2.02,3.59,4.17,5.3,6.3-9,.64-17.03,6.48-26.04,7-2.69.15-5.33-.17-7.94-.77-.07-1.97-2.57-5.39-3.37-6.43-1-1.3-2.8-2.24-4.29-1.54-.47.55-.08,1.41.48,1.88.55.46,1.26.77,1.64,1.38.37.59.8,2.16,1.42,3.57-6.67-2.14-13.22-5.37-20.01-6.18-7.08-6.46-6.54,4.73-7.34,10.76-.39,2.92-.48,6.52,1.99,8.12,1.17.75,2.77.93,3.54,2.09.47.72.49,1.64.72,2.47.7,2.48,3.41,3.97,5.99,4.08,2.21.1,4.35-.59,6.43-1.38,3.09.55,6.35.44,9.51.24,2.15-.13,4.3-.31,6.45-.5.1.42.24.84.39,1.25.44,1.15,1.1,2.39,2.29,2.71,1.19.31,2.59-1.2,1.77-2.11,2.08.88,4.65.51,6.39-.93.77-.63,1.35-1.46,1.73-2.37.08-.01.15-.02.23-.03.43-1.37.86-2.74,1.29-4.11,1.6-1.2,4.25.96,3.4,2.77,3.55.13,5.1-4.29,6.11-7.69,1.01-3.4,4.47-7.31,7.37-5.27-3.2,2.27-3.53,7.6-.64,10.24,2.36-.79,2.64-3.92,3.16-6.35,1.03-4.82,4.85-8.94,9.58-10.33-.05,1.6-.1,3.21-.16,4.81-.09.3-.14.62-.15.95-.01.79.22,1.64-.18,2.31-.31.53-.98.86-1.08,1.46-.11.68.55,1.23.75,1.89.34,1.12-.68,2.4-.13,3.44,1.7,1.06,3.94,1.21,5.77.4.4-.18.82-.45.93-.87.26-1.06-1.35-1.4-2.22-2.07-1-.77-1.02-2.28-.68-3.5.29-1.05.79-2.03,1.43-2.9,2.56-.75,5.36-1.92,5.94-2.38.81,1.06,1.5,2.15,1.35,3.41-.12.99-.75,1.84-1.09,2.78-.33.94-.22,2.23.7,2.63.49.22,1.06.1,1.58-.02,1.33-.3,2.66-.6,3.99-.9.37.19.76.37,1.19.52-.07-.25-.13-.5-.2-.75l1.71-.38c.57-.89.27-2.12-.37-2.96-.64-.84-1.56-1.42-2.38-2.1-.19-.16-.37-.32-.55-.49-.75-2.79-1.5-5.57-2.25-8.36,4.78,3.19,8.64,7.75,10.96,13.01-.02-1.35,1.48-2.3,2.83-2.22,1.34.08,2.53.87,3.63,1.64.35-1.15.69-2.29,1.04-3.44,2.47.88,5.47-.05,7.01-2.17,1.55-2.12,1.51-5.25-.07-7.34-3.6,2.19-8.32,1.75-12.12-.05-3.8-1.81-6.89-4.8-9.91-7.74,1.06-3.35,5.42-4.48,8.85-3.7,3.43.78,6.44,2.84,9.83,3.78,1.74.48,3.59.67,5.15,1.56,2.26,1.28,3.55,3.8,5.64,5.36,2.94,2.19,6.92,2.14,10.58,2,1.97-.08,4.05-.18,5.71-1.26,1.66-1.07,2.63-3.47,1.49-5.09-.58-.82-1.54-1.26-2.45-1.68-6.13-2.85-11.86-6.56-16.96-10.99,1.47-3.55,5.6-5.78,9.38-5.06,2.94,2.77,4.28,6.87,7,9.86,2.72,2.99,8.25,4.29,10.44.89,2.13-3.31-.81-7.39-2.8-10.79Z"/>
  </g>
</svg>