<?xml version="1.0" encoding="UTF-8"?>
<svg id="Layer_2" data-name="Layer 2" xmlns="http://www.w3.org/2000/svg" viewBox="0 0 1920 1080">
  <defs>
    <style>
      .cls-1 {
        fill: #9acf49;
      }

      .cls-2 {
        fill: #e0f1ff;
      }

      .cls-3 {
        fill: #10526c;
      }

      .cls-4 {
        fill: #596442;
      }

      .cls-5 {
        fill: #5cb3ff;
      }

      .cls-6 {
        fill: #32a152;
      }

      .cls-7 {
        fill: #81c651;
      }

      .cls-8 {
        fill: #3e4431;
      }

      .cls-9 {
        fill: #b3dc58;
      }

      .cls-10 {
        fill: #1f7e3e;
      }

      .cls-11 {
        fill: #73bc46;
      }

      .cls-12 {
        fill: #349eb4;
      }
    </style>
  </defs>
  <g id="Background">
    <g id="Sky">
      <polygon class="cls-5" points="1729.56 0 1465.41 0 0 0 0 398.83 1920 398.83 1920 269.46 1920 72.76 1920 0 1729.56 0"/>
      <path class="cls-2" d="M1047.85,104.71c0-14.62-41.58-26.47-92.87-26.47-7.84,0-15.45.28-22.72.8,0-.27.02-.53.02-.8,0-29.24-40.04-52.95-89.43-52.95-45.05,0-82.31,19.72-88.51,45.38-10.8-2.65-23.03-4.15-36-4.15-43.69,0-79.11,16.94-79.11,37.83,0,5.67,2.62,11.04,7.29,15.87l400.33-11.64c.65-1.26.99-2.56.99-3.87Z"/>
      <path class="cls-2" d="M1695.46,102.29c.17-1.88.27-3.78.27-5.71,0-27.61-17.86-49.99-39.9-49.99-2.55,0-5.04.31-7.46.89-3.92-20.22-13.5-37.2-26.22-47.47h-56.45c-12.53,10.12-22.01,26.76-26.04,46.6-.71,0-1.42-.01-2.14-.01-50.15,0-90.8,22.38-90.8,49.99,0,8.58,3.93,16.66,10.86,23.72h287.38c-2.73-9.81-23.64-17.51-49.49-18.01Z"/>
      <path class="cls-2" d="M1351.11,148.65c-8.26,0-16.1.76-23.18,2.13-5.6-17.65-23.28-30.55-44.23-30.55s-38.11,12.51-43.98,29.75c-6.03-.86-12.44-1.32-19.1-1.32-34.84,0-63.08,12.66-63.08,28.28,0,0,0,0,0,0-47.23.19-85.02,4.82-85.02,10.51s39.42,10.52,88.05,10.52c5.96,0,11.77-.07,17.4-.21,11.23,4.62,26.2,7.45,42.65,7.45,14.82,0,28.44-2.3,39.21-6.14,6.96,3.89,15.13,6.14,23.87,6.14,12.69,0,24.19-4.73,32.52-12.39,9.65,3.22,21.75,5.15,34.89,5.15,31.53,0,57.1-11.04,57.1-24.66s-25.56-24.66-57.1-24.66Z"/>
      <path class="cls-2" d="M305.5,33.24c-8.26,0-16.1.76-23.18,2.13-5.6-17.65-23.28-30.55-44.23-30.55s-38.11,12.51-43.98,29.75c-6.03-.86-12.44-1.32-19.1-1.32-34.84,0-63.08,12.66-63.08,28.28,0,0,0,0,0,0-47.23.19-85.02,4.82-85.02,10.51s39.42,10.52,88.05,10.52c5.96,0,11.77-.07,17.4-.21,11.23,4.62,26.2,7.45,42.65,7.45,14.82,0,28.44-2.3,39.21-6.14,6.96,3.89,15.13,6.14,23.87,6.14,12.69,0,24.19-4.73,32.52-12.39,9.65,3.22,21.75,5.15,34.89,5.15,31.53,0,57.1-11.04,57.1-24.66s-25.56-24.66-57.1-24.66Z"/>
      <path class="cls-2" d="M1916.67,175.28c-1.91,0-3.81.02-5.7.06-2.9-11.83-9.73-22.35-19.2-30.44-1.5-23.33-15.95-41.65-33.57-41.65-13.72,0-25.53,11.11-30.78,27.05-28.64,6.92-49.7,30.21-49.7,57.89,0,5.54.86,10.89,2.44,15.98-.81,0-1.62,0-2.44,0-53.19,0-96.31,7.7-96.31,17.2,0,.27.04.54.11.81h238.48v-46.88c-1.11-.01-2.22-.02-3.33-.02Z"/>
    </g>
    <g id="Water">
      <polygon class="cls-3" points="0 385.54 0 1080 1920 1080 1920 851.42 1920 825.74 1920 579.93 1920 540 1920 385.54 0 385.54"/>
      <path class="cls-12" d="M0,552.59c180.07,17.22,1253.19,26.6,1350.3,21.93,97.75-4.7,506.29-27.6,569.7-21.93V237.61H0v314.97Z"/>
      <path class="cls-8" d="M0,665.26c141.12-21.79,749.79,174.3,912.98,176.72,163.19,2.42,463.12-50.84,551.33-55.68,88.21-4.84,366.08,12.1,434.45,106.52,68.36,94.41-374.9,113.78-374.9,113.78H0v-341.34Z"/>
      <path class="cls-4" d="M0,922.15c141.43-12.22,743.11,61.08,825.66,56.2s666.22-81.51,790.62-78.18c132.54,3.54,303.71-135.41,303.71-135.41v315.25H0v-157.85Z"/>
    </g>
    <g id="Hill_2" data-name="Hill 2">
      <path class="cls-9" d="M1122.08,171.77c-11.24-55.88-473.51-139.7-750.5-134.32C94.59,42.82,0,53.56,0,53.56v177.34s1122.08-59.14,1122.08-59.14Z"/>
      <path class="cls-1" d="M68.26,97.83c3.45-3.91,5.49-8.49,4.98-12.9-.2-1.73-.72-3.44-1.24-5.14-.07-.22-.12-.63-.15-.9.02,0,.06-.02.08-.03.32-.11.61-.22,0,0-.03,0-.05.02-.08.03,0,0,0-.02,0-.03,2.79-1.09,5.88-1.84,9.01-2.52,9.31-2.02,18.83-2.82,28.72-2.91,9.43-.08,18.54.26,27.54,1.99,7.05,1.36,13.74,3.47,19.66,6.1,12.03,5.35,21.05,12.68,31.5,18.97,12.03,7.25,25.59,12.61,42.01,15.8,17.72,3.44,36.9,4.98,55.54,4.96,17.43-.02,36.85-1.25,52.03-6.69,14.93-5.36,22.84-14.84,36.93-20.75,7.2-3.02,16.32-4.05,24.95-4.67,9.03-.65,18.44-1.38,27.55-1.34,10.11.05,20.24,1.03,30.36.45,9.69-.55,18.25-2.83,26.41-5.87,7.65-2.85,14.75-6.19,22.59-8.87,8.38-2.86,17.49-4.42,26.97-5.53,17.43-2.03,35.34-1.29,52.47,1.27,35.49,5.3,67.11,16.85,102.2,22.86,19.52,3.34,39.24,4.78,59.41,2.86,19.12-1.82,37.04-6.32,55.74-9.09,19.4-2.87,39.22-2.31,58.98-1.34,143.89,26.81,254.26,60.26,259.68,87.22L0,230.9v-121.98c24.92,1.81,55.6,3.23,68.26-11.09Z"/>
      <path class="cls-7" d="M31.79,141.74c13.13-4.74,25.39-6.94,41.05-6.33,33.13,1.28,58.22,14.51,87.01,22.53,15.67,4.37,33.45,8.09,50.93,5.54,13.36-1.95,23.21-7.59,34.28-11.98,6.4-2.54,13.06-4.7,20.73-5.56,8.19-.93,16.92-.5,25.05.44,17.67,2.05,33.77,6.44,50.22,10.54,32.14,8,71.75,22.55,105.82,8.93,11.64-4.65,15.68-11.95,14.72-19.94-.42-3.48-1.47-6.93-1.84-10.42-.18-1.66-.26-3.35.06-5,.04.02.47-1.34.54-1.49.34-.76.85-1.54.83-1.52,5.17-6.41,21.14-8.57,33.14-8.79,15.19-.28,30.01,2.06,44.35,4.76,30.13,5.68,61.18,14.51,93.66,12.85,16.75-.86,30.48-5.08,45.44-9.18,1.39-.38,1.13-.35,3.47-.78,1.24-.23,2.51-.42,3.79-.57,2.3-.27,6.61-.35,9.92-.32,10.04.11,19.83,1.5,29.36,3.27,37.68,7.02,79.43,16.75,117.91,5.85,4.6-1.3,5.65-5.04,3.34-7.46-.17-.18-.32-.36-.48-.53-.05-.11-.09-.23-.13-.36,0-.02,0-.03,0-.05.21-.12.42-.25.61-.37.12-.05.23-.1.36-.14.69-.21,1.35-.46,2.04-.67.26-.08.55-.16.79-.22,1.53-.34,3.07-.65,4.64-.91,4.07-.68,8.23-1.12,12.4-1.49.12-.01.19-.02.23-.02.05,0,.1,0,.16-.01.56-.04,1.12-.08,1.68-.12,1-.07,2-.13,3-.19,2.23-.13,4.46-.24,6.69-.33,4.71-.19,9.44-.3,14.16-.37,9.96-.14,19.92-.05,29.87.15,15.59.32,31.16.94,46.7,1.75,9.28.48,19.52,1.9,29.93,3.99,14.41,2.89,28.09,6.83,41.9,10.57,18.41,4.99,37.02,9.46,56.49,11.22,15.08,7.88,24.04,15.55,25.48,22.76L0,230.9v-78.48c11.32-2.76,21.33-6.9,31.79-10.68Z"/>
    </g>
    <g id="Hill1">
      <path class="cls-11" d="M1528.03,189.31C1192.89,148.13,82.08,195.19,0,183.43v104.57c35.49-2.61,251.03-8.02,469.92-2.61,220.76,5.45,1309.46,3.92,1450.08-11.76v-79.08c-13.43,3.92-237.92,12.42-391.97-5.23Z"/>
      <path class="cls-6" d="M1907.45,251.25c-29.9.91-59.62,2.83-89.4,4.37-57.36,2.97-120.43,5.98-175.19-4.92-3.34-.67-5.6-2.84-2.32-4.25,4.98-2.13,12.43-4.12,16.09-6.85,2.67-1.99-3.66-3.8-6.87-4.65-9.11-2.42-20.53-3.06-30.69-3.57-12.34-.62-24.76-.79-37.16-.9-11.52-.1-23.05-.37-34.56-.43-18.76-.11-37.46.74-56.14,1.43-37.21,1.39-74.77,2.54-112.1,2.51-18.29-.02-36.61-.42-54.77-1.52-11.96-.72-24-1.03-35.95-1.77-11.94-.74-24.63-1.85-34.85-5.13-10.15-3.25-13.91-7.97-17.25-13.39-3.52-5.69-16.22-7.72-27.09-9.05-13.49-1.65-28.08-2.74-42.01-2.22-48.72,1.82-72.87,26.22-114.3,35.46-29.06,6.48-60.78,4.55-90.97,1.24-10.34-1.13-23.34-2.91-28.38-7.93-5.17-5.14,2.1-9.5,6.15-14.08,9.18-10.36-31.13-8.51-42.07-8.17-10.88.33-21.71.94-32.54,1.56-12.86.73-25.77,1.02-38.6,1.93-18.34,1.31-36.51,3.16-54.86,4.45-17.82,1.25-35.56,2.67-53.29,4.18-35.83,3.05-71.66,6.3-107.93,7.9-35.19,1.55-70.41,1.23-105.42-1.12-17.42-1.17-34.68-2.81-51.8-4.74-17.92-2.02-35.26-4.18-53.71-4.8-36.45-1.23-73.22.76-109.6,1.78-36.62,1.02-73.18,2.5-109.84,3.2-37,.71-74.89,1.21-111.72-.89-16.51-.94-31.1-3.5-46.23-6.74-7.21-1.55-14.54-3.23-22.07-4.6v78.47c35.49-2.61,251.03-8.02,469.92-2.61,220.76,5.45,1309.46,3.92,1450.08-11.76v-22.68c-4.19.08-8.37.18-12.55.31Z"/>
      <path class="cls-10" d="M1553.62,280.86c-14.07-.99-30.35-1.18-41.96-5.67-10.47-4.05-16.32-10.21-28.27-13.43-21.76-5.87-50.29-4.77-74.13-3.43-11.73.66-23.47,1.61-34.98,2.9-14.1,1.58-26.67,5.26-39.83,8.03-12.86,2.71-26.47,4.72-40.6,3.47-13.51-1.2-23.93-5.68-32.17-10.75-4.09-2.52-7.79-5.25-12.42-7.55-5.03-2.49-10.86-4.65-16.99-6.46-12.55-3.71-26.88-5.83-41.52-6.39-32.9-1.27-66.34,1.31-96.53,7.85-28.15,6.1-49.32,17.01-75.59,24.54-12.66,3.63-26.41,6.08-41.31,5.95-12.96-.12-25.04-2.36-35.94-5.65-13.29-4.01-24.89-9.03-38.86-12.56-13.32-3.36-27.93-5.64-42.97-6.15-29.58-1.01-58.14,4.25-84.62,10.04-28.7,6.28-56.71,13.51-87.12,17.74-30.38,4.22-61.06,4.41-91.91,1.29-30.06-3.04-57.21-9.99-83.73-17.23-26.89-7.34-54.67-15.99-85.21-19.23-30.43-3.23-60.44.96-89.35,5.39-14.65,2.24-29.3,4.53-44.37,6.02-16.87,1.66-34.23,2.31-51.43,2.28-35.72-.06-71.22-3.24-105.52-7.9-27.3-3.71-54.08-8.17-82.36-9.89-17.8-1.08-36.51-1.26-53.91.88v43.04c35.49-2.61,251.03-8.02,469.92-2.61,155.79,3.84,743.87,4.22,1125.91-1.41-14.06-1.07-28.13-2.12-42.21-3.12Z"/>
    </g>
  </g>
</svg>