<?xml version="1.0" encoding="UTF-8"?>
<svg id="Layer_1" xmlns="http://www.w3.org/2000/svg" version="1.1" xmlns:xlink="http://www.w3.org/1999/xlink" viewBox="0 0 1444 1400">
  <!-- Generator: Adobe Illustrator 30.0.0, SVG Export Plug-In . SVG Version: 2.1.1 Build 123)  -->
  <defs>
    <style>
      .st0 {
        fill: #bad67f;
      }

      .st1 {
        fill: #a1d87d;
      }

      .st2 {
        fill: #fff;
      }

      .st3 {
        fill: url(#linear-gradient1);
      }

      .st4 {
        fill: #4591d6;
      }

      .st4, .st5 {
        opacity: .5;
      }

      .st6, .st5 {
        fill: none;
      }

      .st7 {
        fill: #85bc62;
      }

      .st8 {
        fill: #9fd1ff;
      }

      .st9 {
        fill: #96cc72;
      }

      .st10 {
        fill: #d8d29c;
      }

      .st5 {
        stroke: #00c91c;
        stroke-linecap: round;
        stroke-linejoin: round;
        stroke-width: 7.5px;
      }

      .st11 {
        fill: url(#linear-gradient);
      }

      .st12 {
        clip-path: url(#clippath);
      }
    </style>
    <linearGradient id="linear-gradient" x1="716.7" y1="406.7" x2="716.7" y2="647.8" gradientUnits="userSpaceOnUse">
      <stop offset="0" stop-color="#85bc62"/>
      <stop offset="0" stop-color="#68b44c" stop-opacity=".8"/>
      <stop offset=".1" stop-color="#4cac38" stop-opacity=".6"/>
      <stop offset=".2" stop-color="#34a527" stop-opacity=".4"/>
      <stop offset=".3" stop-color="#21a018" stop-opacity=".3"/>
      <stop offset=".4" stop-color="#129c0d" stop-opacity=".1"/>
      <stop offset=".5" stop-color="#089905" stop-opacity="0"/>
      <stop offset=".6" stop-color="#019701" stop-opacity="0"/>
      <stop offset=".8" stop-color="#009700" stop-opacity="0"/>
    </linearGradient>
    <linearGradient id="linear-gradient1" x1="730" y1="584.3" x2="730" y2="1520" gradientUnits="userSpaceOnUse">
      <stop offset="0" stop-color="#9fd1ff"/>
      <stop offset=".5" stop-color="#4298c2"/>
      <stop offset="1" stop-color="#00487c"/>
    </linearGradient>
    <clipPath id="clippath">
      <path class="st6" d="M-45.3,337.6s69.3,22.7,144,22.7,209.3-8,344-40c134.7-32,298.7-117.3,550.7-117.3,252,0,485.3,117.3,485.3,117.3v93.3H-45.3s2-78,0-76Z"/>
    </clipPath>
  </defs>
  <rect class="st8" x="-18" y="-2.7" width="1469.3" height="394.5"/>
  <circle class="st10" cx="221.3" cy="448.7" r="2.3"/>
  <circle class="st10" cx="307" cy="451.1" r="4.7"/>
  <circle class="st10" cx="432.5" cy="447.6" r="1.2"/>
  <circle class="st10" cx="621.7" cy="453.1" r="2.3"/>
  <circle class="st10" cx="686" cy="450.7" r="3.3"/>
  <circle class="st10" cx="722" cy="450.7" r="3.1"/>
  <circle class="st10" cx="859.7" cy="449.1" r="2.7"/>
  <circle class="st10" cx="927.8" cy="446.1" r=".8"/>
  <circle class="st10" cx="1043.5" cy="448.5" r="2.3"/>
  <circle class="st10" cx="1129.2" cy="450.8" r="4.7"/>
  <circle class="st10" cx="1254.7" cy="447.3" r="1.2"/>
  <circle class="st10" cx="1443.8" cy="452.8" r="2.3"/>
  <rect class="st8" x="-18" y="406.7" width="1469.3" height="1205.3"/>
  <rect class="st11" x="-18" y="406.7" width="1469.3" height="241.1"/>
  <rect class="st3" x="-66" y="584.3" width="1592" height="935.7"/>
  <g class="st12">
    <rect class="st9" x="-116.4" y="136.9" width="1701.3" height="332"/>
    <path class="st1" d="M424.3,323.1c239-15.7,265,36.3,389,35.3s242-46,348-43,162,38,252,49,83-49.1,83-49.1l-425-173.9-647,181.7Z"/>
    <polygon class="st0" points="644.7 224 857.7 217 814.7 247.8 946.7 228.9 969.7 266.5 999.7 222.6 1099.7 269.6 1084.7 217 1201.7 246.4 1181.7 217 1299 226.9 1050.7 168.6 644.7 224"/>
    <path class="st7" d="M-96.3,398.6c287-21,121-12,368-4s243-11.9,405-9,249,19,402,13,152.7-21,273-11,125,23.7,166,12.3-21.3,34.7-21.3,34.7l-1578.7-6-14-30Z"/>
  </g>
  <path class="st2" d="M380.7,207.3s-57.3-20.3-67.7-27.3-10.7-12-10.7-15.7c0-23-18.7-41.7-41.7-41.7s-10,.9-14.5,2.6c-7.5-18.3-25.5-31.3-46.6-31.3s-41.6,14.8-48,35.2c-4.6-2-9.7-3.2-15.1-3.2-20.6,0-37.3,16.7-37.3,37.3s5.7,22.7,14.5,29.5c-37.3,7.8-65.2,14.6-65.2,14.6h332Z"/>
  <path class="st2" d="M877,64c-14.2-7.1-18.3-11.8-29.2-28.9s-15-22.7-30.4-22.7-29.1,13-29.1,29.1c-.9-.1-1.8-.2-2.7-.2-11,0-20,9-20,20s.6,5.7,1.8,8.2c-3.2.9-6.3,1.8-9.3,2.5-36,8.7-107,12-107,12h323s-79.7-11.3-97-20Z"/>
  <circle class="st4" cx="140.3" cy="1525" r="14.3"/>
  <circle class="st4" cx="67.9" cy="1110" r="8.7"/>
  <circle class="st4" cx="1421.7" cy="1458.3" r="9"/>
  <circle class="st4" cx="1230.3" cy="1152.3" r="21.7"/>
  <circle class="st4" cx="1322.7" cy="1114" r="8.7"/>
  <circle class="st4" cx="1316.7" cy="950.7" r="9.3"/>
  <circle class="st4" cx="1361.7" cy="853" r="9"/>
  <circle class="st4" cx="33" cy="1048.3" r="3"/>
  <circle class="st4" cx="34.7" cy="946" r="4.7"/>
  <circle class="st4" cx="79.3" cy="745.3" r="9.3"/>
  <circle class="st4" cx="102.7" cy="1188.7" r="23.3"/>
  <circle class="st4" cx="426.7" cy="1170.3" r="18"/>
  <circle class="st4" cx="1006" cy="976" r="16"/>
  <circle class="st4" cx="1035.3" cy="1385.3" r="13.3"/>
  <path class="st5" d="M74.8,905.7s1-13.9-2.3-24-3.9-8.7-1.9-21.8"/>
  <path class="st5" d="M1278.5,1008.2s7,2.5,14,21.5c7,19,6.2,19.5,15.3,25"/>
  <path class="st5" d="M212.9,1116c12-2,3.4-8.5,17.6-16"/>
  <path class="st5" d="M1253.5,1302.3c13.3,14,8,23.9,11.3,41"/>
  <path class="st5" d="M1315.6,1156.6s-1,13.9,2.3,24c3.2,10,3.9,8.7,1.9,21.8"/>
  <path class="st5" d="M77.9,1096.9s-7-2.5-14-21.5-6.2-19.5-15.3-25"/>
  <path class="st5" d="M1293,894.1c-12,2-3.4,8.5-17.6,16"/>
  <path class="st5" d="M173.4,810.7c-13.3-14-8-23.9-11.3-41"/>
</svg>