<?xml version="1.0" encoding="UTF-8"?>
<svg id="Layer_2" data-name="Layer 2" xmlns="http://www.w3.org/2000/svg" viewBox="0 0 430.36 156.66">
  <defs>
    <style>
      .cls-1 {
        fill: #4a4a4a;
      }

      .cls-2 {
        fill: #8f8f8f;
      }

      .cls-3 {
        fill: #a6a6a6;
      }

      .cls-4 {
        fill: #c0e3f9;
      }

      .cls-4, .cls-5 {
        isolation: isolate;
        opacity: .28;
      }

      .cls-6 {
        fill: #4fcf5e;
      }

      .cls-7 {
        fill: #f9ff58;
      }

      .cls-8 {
        fill: #8cef73;
      }

      .cls-9 {
        fill: #3d3d3d;
      }

      .cls-5 {
        fill: #f0f9ff;
      }

      .cls-10 {
        fill: #f2dd42;
      }
    </style>
  </defs>
  <g id="Title">
    <g>
      <path class="cls-6" d="M60.39,142.39v-57.84h16.56c4.62,0,8.17.49,10.63,1.48,2.46.99,4.82,2.81,7.07,5.48,2.25,2.67,3.96,5.9,5.14,9.7,1.18,3.8,1.76,8.03,1.76,12.68,0,3.89-.51,7.59-1.54,11.11s-2.46,6.58-4.3,9.19c-1.84,2.62-3.84,4.5-5.99,5.65-2.15,1.15-4.16,1.86-6.05,2.14-1.88.28-5.04.42-9.46.42h-13.83ZM78.17,106.61h-.38v13.34h.46c2.12,0,3.66-.54,4.62-1.61.96-1.07,1.44-2.79,1.44-5.14s-.48-4-1.44-5.04c-.96-1.04-2.53-1.55-4.7-1.55Z"/>
      <path class="cls-8" d="M124.52,127.87h15.24v14.52h-32.63v-57.84h32.63v14.52h-15.24v7.16h10.65v14.52h-10.65v7.13Z"/>
      <path class="cls-6" d="M168.3,142.39h-17.4v-34.45h-8.75v-23.39h34.91v23.39h-8.76v34.45Z"/>
      <path class="cls-8" d="M199.34,127.87h15.24v14.52h-32.63v-57.84h32.63v14.52h-15.24v7.16h10.65v14.52h-10.65v7.13Z"/>
      <path class="cls-6" d="M249.26,115.44l7.28,21.91c-1.52,1.44-3.73,2.79-6.65,4.04-2.92,1.25-6.13,1.88-9.65,1.88-6.19,0-11.32-2.77-15.39-8.32-4.07-5.55-6.1-12.62-6.1-21.21s2.07-15.93,6.2-21.62c4.13-5.7,9.36-8.55,15.67-8.55,2.75,0,5.6.56,8.53,1.67,2.93,1.11,5.39,2.62,7.39,4.51l-7.28,20.43c-2-1.09-4.36-1.63-7.09-1.63-3.71,0-5.57,1.45-5.57,4.36,0,1.39.51,2.5,1.52,3.34s2.39,1.25,4.13,1.25c2.7,0,5.04-.68,7.01-2.05Z"/>
      <path class="cls-8" d="M284.32,142.39h-17.4v-34.45h-8.76v-23.39h34.91v23.39h-8.76v34.45Z"/>
      <path class="cls-6" d="M315.44,142.39h-17.4v-57.84h17.4v57.84Z"/>
      <path class="cls-8" d="M363.5,84.55l-13.04,57.84h-16.83l-13.68-57.84h17.4l4.51,19.18,4.36-19.18h17.28Z"/>
      <path class="cls-6" d="M385.26,127.87h15.24v14.52h-32.63v-57.84h32.63v14.52h-15.24v7.16h10.65v14.52h-10.65v7.13Z"/>
      <path class="cls-7" d="M407.08,129.84c-.43-.69-1.42-5.8-2.96-15.33-1.54-9.52-1.65-18.33-.31-26.4,1.12-6.75,3.3-12.1,6.57-16.06,3.26-3.96,6.79-5.63,10.58-5,3.53.58,6.14,3.26,7.84,8.04,1.7,4.78,2,10.51.9,17.18-1.24,7.51-3.88,15.22-7.91,23.14-4.04,7.92-6.95,13.06-8.74,15.41,1.8,1.35,3.06,3.27,3.78,5.77.72,2.49.84,5.18.36,8.06-.62,3.75-2.05,6.78-4.28,9.08-2.23,2.3-4.6,3.24-7.1,2.83s-4.5-2.08-5.87-4.97-1.75-6.22-1.13-9.97c1.02-6.14,3.77-10.07,8.26-11.78Z"/>
      <g>
        <path class="cls-7" d="M137.89,61.93c-1.24.04-2.2-.35-2.87-1.18-.68-.83-1.03-1.83-1.07-2.99s.25-2.18.86-3.05c.62-.87,1.54-1.33,2.78-1.38-1.24.04-2.17-.26-2.78-.91-.62-.65-.94-1.4-.97-2.25s.24-1.61.81-2.28c.57-.67,1.48-1.02,2.72-1.06-1.91.07-3.2-.28-3.87-1.03-.67-.75-.7-1.53-.08-2.32.62-.8,1.88-1.23,3.79-1.29-1.29.04-2.28-.23-2.98-.83-.69-.6-1.05-1.31-1.08-2.13s.28-1.56.93-2.2c.65-.64,1.62-.99,2.91-1.03-1.45.05-2.53-.38-3.26-1.28-.73-.91-1.11-1.96-1.16-3.18s.27-2.3.93-3.25c.67-.95,1.72-1.46,3.17-1.51-.99-.28-1.62-.84-1.88-1.68s-.27-1.72-.01-2.64c.25-.91.72-1.65,1.4-2.22.68-.57,1.51-.71,2.5-.44-.06-1.6.19-2.67.74-3.2.55-.54,1.12-.55,1.7-.06.59.5.91,1.55.96,3.15-.03-.93.33-1.69,1.08-2.29.76-.59,1.71-1,2.87-1.22,1.16-.22,2.32-.26,3.49-.12,1.17.14,2.16.48,2.98,1.02.82.54,1.25,1.28,1.28,2.2-.06-1.65.3-2.76,1.09-3.33.78-.57,1.59-.6,2.44-.08.84.51,1.3,1.6,1.35,3.25-.05-1.39.25-2.44.9-3.13.65-.69,1.4-1.06,2.25-1.09s1.61.28,2.28.93c.67.65,1.03,1.67,1.08,3.06-.03-.93.3-1.69,1.01-2.28.7-.59,1.58-1,2.63-1.22,1.05-.22,2.12-.25,3.21-.11,1.09.14,2.01.49,2.75,1.03.74.54,1.13,1.28,1.16,2.21,1.55.1,2.58.39,3.09.86.51.47.48.94-.07,1.4-.55.46-1.61.64-3.16.54,1.35.11,2.35.57,2.99,1.37.65.8.94,1.71.87,2.72-.07,1.01-.47,1.88-1.19,2.6-.72.72-1.76,1.06-3.11,1,.06,1.65-.19,2.76-.74,3.32-.55.56-1.12.58-1.7.06-.59-.52-.91-1.61-.97-3.26.05,1.55-.31,2.61-1.09,3.18-.78.57-1.6.6-2.44.08-.85-.51-1.29-1.54-1.35-3.09.03.78-.34,1.41-1.1,1.9-.76.49-1.69.81-2.8.95-1.11.14-2.2.14-3.3,0-1.09-.14-1.93-.49-2.52-1.04.12.62.09,1.21-.09,1.79-.19.58-.51,1.08-.96,1.51.63.39,1.15.88,1.56,1.46.41.58.65,1.21.72,1.87.39-.63,1-1.08,1.81-1.34.82-.26,1.67-.35,2.55-.28.88.07,1.64.34,2.28.81.64.47.97,1.12,1,1.94-.04-1.14.23-2,.8-2.59.57-.59,1.25-.9,2.02-.92s1.47.23,2.08.78c.61.55.94,1.39.98,2.53.56-1.62,1.15-2.62,1.76-3.01.61-.38,1.04-.23,1.3.46.26.69.1,1.85-.46,3.47,1.45.05,2.51.53,3.19,1.44.68.91.98,1.93.92,3.07-.06,1.14-.47,2.12-1.22,2.95-.75.83-1.85,1.22-3.29,1.16.03.77-.33,1.41-1.06,1.9-.73.49-1.65.83-2.76,1.03-1.11.19-2.22.23-3.33.12-1.12-.12-2.06-.39-2.82-.83-.77-.44-1.16-1.05-1.19-1.82.04,1.03-.33,1.79-1.08,2.29-.76.49-1.59.7-2.5.63-.91-.07-1.61-.46-2.1-1.17-.03.62-.21,1.17-.52,1.65-.32.48-.71.85-1.16,1.13.59.5.86,1.11.84,1.83.63.13,1.18.48,1.66,1.03.48.55.74,1.32.78,2.3-.03-.93.45-1.66,1.44-2.18.99-.53,2.13-.81,3.42-.86s2.45.16,3.47.62c1.02.46,1.55,1.15,1.58,2.08-.06-1.6.29-2.67,1.05-3.22.76-.54,1.52-.57,2.28-.08.77.49,1.18,1.54,1.23,3.14.69-1.06,1.5-1.55,2.43-1.48.93.07,1.63.51,2.1,1.32.47.81.36,1.75-.33,2.8,1.1.38,1.79,1.05,2.09,2.02.29.97.27,1.97-.05,2.99-.33,1.02-.91,1.83-1.74,2.43-.83.6-1.8.71-2.9.33.05,1.39-.21,2.45-.78,3.17-.57.72-1.24,1.09-2.02,1.12s-1.46-.3-2.05-.98c-.59-.68-.91-1.71-.96-3.11.05,1.45-.34,2.53-1.17,3.26-.83.73-1.78,1.11-2.87,1.15s-2.06-.28-2.94-.95c-.88-.67-1.34-1.72-1.39-3.17.04,1.29-.26,2.27-.91,2.94-.65.67-1.43,1.02-2.33,1.05s-1.7-.26-2.4-.89c-.69-.62-1.06-1.58-1.11-2.87.05,1.5-.34,2.64-1.16,3.41-.83.78-1.78,1.19-2.87,1.22s-2.07-.3-2.94-1.02c-.88-.72-1.34-1.83-1.39-3.33.04,1.29-.32,2.22-1.11,2.79-.78.57-1.7.65-2.74.25-1.05-.4-1.99-1.43-2.82-3.08-.83-1.65-1.28-4.05-1.34-7.2Z"/>
        <path class="cls-10" d="M100.22,89.34c-1.86-.07-3.11-.37-3.73-.9-.63-.53-.61-1.05.04-1.56.66-.5,1.91-.72,3.77-.65-1.37-.06-2.39-.46-3.05-1.2-.66-.74-.98-1.57-.95-2.51.03-.93.4-1.74,1.11-2.42.71-.68,1.77-1,3.19-.96-1.42-.04-2.47-.58-3.14-1.62-.68-1.03-1-2.19-.96-3.47.03-1.28.42-2.42,1.17-3.41.75-.99,1.83-1.47,3.25-1.42-1.26-.04-2.17-.5-2.74-1.37-.57-.88-.85-1.89-.83-3.03.02-1.14.36-2.14,1.01-3,.65-.85,1.61-1.26,2.87-1.22-1.21-.05-2.1-.6-2.67-1.64s-.83-2.23-.79-3.57c.04-1.34.38-2.51,1.01-3.52.63-1.01,1.55-1.49,2.76-1.43-.94-.25-1.56-.87-1.84-1.86-.28-.99-.29-2.09-.01-3.28.28-1.2.75-2.18,1.43-2.96.68-.78,1.51-1.05,2.5-.82-.56-1.77-.63-3.04-.21-3.79.41-.75.99-.93,1.74-.54.74.39,1.39,1.47,1.95,3.25-.32-1.04-.21-1.98.33-2.82.55-.85,1.34-1.54,2.39-2.09,1.05-.54,2.16-.89,3.33-1.04,1.17-.15,2.22-.03,3.16.35.93.39,1.56,1.1,1.88,2.13.84-.96,1.71-1.48,2.64-1.56.92-.07,1.72.17,2.38.72.66.55,1.04,1.29,1.14,2.2.1.92-.29,1.89-1.16,2.92,1.09-.83,2.21-1.03,3.34-.6,1.14.43,2.12,1.18,2.94,2.25.82,1.07,1.26,2.22,1.32,3.44.06,1.23-.43,2.25-1.48,3.06,1.39-1.09,2.57-1.47,3.54-1.15.97.32,1.46.99,1.48,2.01.02,1.02-.67,2.05-2.08,3.09,1.23-.92,2.21-1.31,2.96-1.17.75.15,1.09.59,1.03,1.34-.06.75-.73,1.6-2.01,2.54,1.33-.96,2.4-1.33,3.22-1.13.82.2,1.22.73,1.18,1.58-.03.85-.7,1.78-2.01,2.78.8-.57,1.66-.72,2.58-.44.93.28,1.81.83,2.67,1.64.85.82,1.55,1.75,2.09,2.8.54,1.05.82,2.06.83,3.03,0,.97-.38,1.77-1.16,2.39.88-.65,1.78-.88,2.71-.69.93.2,1.8.67,2.63,1.41.83.74,1.48,1.61,1.95,2.6.47.99.67,1.96.58,2.9-.08.95-.56,1.75-1.44,2.4.81,1.04,1.04,1.98.67,2.79-.37.82-.99,1.28-1.88,1.4-.89.11-1.73-.35-2.55-1.4.42,1.33.43,2.42.05,3.27-.38.85-.96,1.4-1.72,1.63s-1.55.12-2.35-.36c-.8-.48-1.41-1.39-1.82-2.72-.52.92-1.27,1.39-2.24,1.39-.97,0-1.92-.28-2.83-.86-.91-.58-1.56-1.3-1.93-2.16-.3.96-.79,1.59-1.48,1.88-.69.3-1.38.23-2.05-.21-.68-.44-1.15-1.26-1.42-2.48.02,1.29-.47,2.34-1.49,3.15-1.02.81-2.19,1.25-3.52,1.34-1.33.09-2.41-.27-3.26-1.09.48,1.2.39,2.26-.27,3.17-.66.91-1.58,1.43-2.76,1.55-1.18.13-2.3-.46-3.35-1.75.74.8.96,1.72.66,2.76-.3,1.04-.9,1.99-1.79,2.83-.9.85-1.86,1.41-2.89,1.67-1.03.27-1.93,0-2.72-.77.54,1.73.59,2.98.16,3.77-.43.78-1.06.98-1.89.59-.83-.39-1.51-1.45-2.05-3.18.37,1.18.46,2.1.26,2.76-.2.66-.54.9-1.03.73-.49-.17-.96-.86-1.42-2.07-.46-1.21-.76-3.09-.91-5.64ZM117.85,70.67c-.23-.74-.08-1.41.47-2.01.54-.6,1.25-1.07,2.12-1.39.87-.33,1.69-.47,2.46-.44-.19-.43-.22-.92-.1-1.47.12-.55.4-1.01.83-1.36-.84.1-1.55-.16-2.15-.79-.6-.62-.94-1.34-1-2.16-.07-.82.3-1.51,1.09-2.09-.75.56-1.6.5-2.57-.17-.97-.67-1.72-1.52-2.26-2.54-.34.48-.74.92-1.21,1.31-.47.39-.95.61-1.42.65.71.37,1.15,1.04,1.31,1.99.16.95.05,1.84-.34,2.67-.39.83-1.04,1.25-1.96,1.26.7,0,1.26.39,1.67,1.18.41.79.77,1.67,1.07,2.63s.6,1.75.9,2.36c.3.61.66.74,1.1.39Z"/>
        <path class="cls-7" d="M72.43,82.35c-.68,1.54-1.51,2.43-2.46,2.65-.96.22-1.72-.09-2.28-.95-.56-.86-.5-2.06.18-3.6-.78.92-1.61,1.43-2.49,1.53-.88.1-1.64-.12-2.28-.64-.64-.52-1-1.22-1.07-2.1-.07-.88.29-1.78,1.07-2.7-1.14.51-2.16.5-3.06-.03-.9-.52-1.59-1.3-2.07-2.34-.48-1.04-.63-2.07-.44-3.1.19-1.03.83-1.8,1.92-2.31-1.45.09-2.57-.2-3.36-.88-.8-.68-1.23-1.49-1.3-2.45-.07-.96.23-1.82.91-2.59.68-.77,1.74-1.2,3.19-1.29-1.24-.01-2.18-.44-2.82-1.3-.64-.86-.95-1.84-.94-2.95s.34-2.09.99-2.94c.65-.85,1.6-1.27,2.84-1.26-.83-.16-1.39-.7-1.69-1.6-.3-.91-.4-1.95-.28-3.14.11-1.19.38-2.33.8-3.44.42-1.11.97-1.99,1.65-2.66s1.43-.92,2.25-.76c-.87-.94-1.18-1.96-.94-3.07.24-1.11.82-2.07,1.73-2.89.91-.82,1.92-1.29,3.03-1.41,1.11-.12,2.1.29,2.97,1.23-.61-1.61-.74-2.8-.4-3.57.34-.77.91-1,1.71-.68.8.32,1.53,1.28,2.19,2.89-.4-1.6-.28-2.77.38-3.48.65-.72,1.41-.89,2.29-.52.87.37,1.49,1.36,1.84,2.96-.04-1.34.34-2.37,1.15-3.09.81-.72,1.76-1.1,2.88-1.14,1.11-.04,2.1.25,2.98.88.87.63,1.33,1.61,1.37,2.96.17-1.34.55-2.33,1.15-2.97.6-.64,1.25-.92,1.94-.84.7.08,1.27.5,1.73,1.25.46.75.6,1.83.44,3.22.32-1.13.95-1.88,1.88-2.23.93-.35,1.89-.37,2.87-.05.98.32,1.75.87,2.31,1.65.56.78.68,1.74.36,2.87.73-.97,1.66-1.41,2.8-1.29,1.14.11,2.2.56,3.21,1.34,1,.78,1.69,1.71,2.07,2.77.38,1.06.18,2.08-.61,3.06,1.03.11,1.76.48,2.2,1.1.43.62.61,1.31.53,2.06-.08.75-.4,1.39-.95,1.93s-1.31.75-2.29.64c0,.72-.41,1.31-1.22,1.77-.81.46-1.78.75-2.91.87-1.14.12-2.29.11-3.45-.03-1.16-.14-2.13-.44-2.9-.92-.77-.47-1.15-1.07-1.15-1.79-.42.98-1.09,1.63-1.99,1.96-.91.33-1.89.39-2.95.17-1.06-.21-2.04-.61-2.93-1.19-.9-.58-1.55-1.28-1.96-2.11-.37.82-.98,1.46-1.84,1.92-.86.46-1.72.63-2.6.52.41.93.32,1.89-.26,2.87-.58.98-1.54,1.43-2.88,1.37,1.03.27,1.66.75,1.89,1.45.23.7.09,1.36-.4,1.97-.5.62-1.34.89-2.53.83,1.39.01,2.33.42,2.82,1.22.48.81.52,1.59.1,2.36-.42.77-1.28,1.15-2.57,1.14,1.14,0,1.99.34,2.55.99.56.65.84,1.42.83,2.29s-.32,1.6-.95,2.16c.72,0,1.35.24,1.89.71.54.47.88,1.04,1.03,1.71.78-.82,1.74-1.25,2.88-1.29,1.14-.04,2.12.28,2.94.95-.05-.57.1-.95.44-1.16.34-.2.79-.2,1.36.01l-.08-.08c-.93-.42-1.61-1.15-2.04-2.19-.43-1.04-.23-2.12.61-3.25-1.45-.01-2.41-.36-2.9-1.03-.49-.67-.48-1.33.02-1.98.5-.64,1.47-.96,2.91-.94-1.5-.01-2.49-.3-2.98-.88-.49-.57-.48-1.14.01-1.71.49-.56,1.49-.84,2.99-.83,0-.83.37-1.49,1.1-2.01.73-.51,1.63-.85,2.72-1.02,1.09-.17,2.17-.18,3.26-.01,1.08.16,1.98.51,2.7,1.03.72.52,1.08,1.2,1.07,2.02.11-.98.7-1.66,1.76-2.04,1.06-.38,2.25-.5,3.57-.36,1.32.14,2.45.51,3.4,1.11.95.6,1.37,1.39,1.26,2.37,1.5.01,2.63.33,3.4.96s1.15,1.34,1.14,2.14-.4,1.51-1.18,2.12c-.78.61-1.92.91-3.42.9,1.45.06,2.5.5,3.17,1.31.66.81.97,1.7.91,2.68-.06.98-.48,1.81-1.26,2.47-.78.67-1.89.94-3.34.82.98.58,1.47,1.43,1.49,2.57.02,1.14-.28,2.24-.88,3.33-.6,1.08-1.4,1.89-2.38,2.42-.99.53-1.99.51-3.02-.06.71,1.3.9,2.46.55,3.49-.35,1.03-1,1.83-1.96,2.39-.96.56-1.98.75-3.07.56-1.08-.19-2.01-.93-2.77-2.23.5,1.81.48,3.1-.07,3.87-.55.77-1.26.95-2.14.52-.88-.42-1.54-1.51-1.99-3.27.14,1.6-.55,2.71-2.08,3.32-1.53.61-3.67.6-6.43-.01-2.76-.62-5.89-1.95-9.38-3.99Z"/>
        <path class="cls-10" d="M40.13,84.95c-1.83.33-3.1.29-3.8-.11-.7-.4-.79-.89-.26-1.49.52-.59,1.7-1.05,3.53-1.38-1.42.25-2.55.11-3.38-.42-.83-.53-1.32-1.22-1.47-2.06s.07-1.64.67-2.4c.6-.76,1.61-1.27,3.03-1.52-1.37.24-2.44.15-3.2-.3-.76-.44-1.2-1.02-1.33-1.73s.09-1.41.65-2.08c.56-.68,1.53-1.14,2.9-1.38-1.22.22-2.22,0-2.99-.65-.77-.65-1.25-1.48-1.43-2.5s-.02-1.96.48-2.84c.5-.88,1.36-1.42,2.58-1.64-1.78.32-3.04.17-3.78-.43-.74-.6-.86-1.31-.38-2.14.48-.82,1.61-1.39,3.4-1.71-1.53.27-2.71.16-3.57-.35-.85-.5-1.35-1.18-1.5-2.02s.09-1.64.71-2.41c.62-.77,1.7-1.29,3.23-1.56-.94-.25-1.56-.79-1.86-1.6-.3-.81-.34-1.67-.1-2.58s.66-1.65,1.29-2.24c.63-.58,1.41-.77,2.34-.57-.22-1.22,0-2.19.66-2.91.66-.72,1.5-1.17,2.51-1.35s1.96-.05,2.83.4c.87.45,1.41,1.28,1.63,2.5.42-.86.98-1.4,1.68-1.6.7-.2,1.36-.15,2,.16.63.31,1.1.8,1.4,1.48.3.68.24,1.45-.18,2.31,1.32-.24,2.41.03,3.25.8.84.77,1.37,1.72,1.57,2.87s.04,2.22-.49,3.24c-.53,1.01-1.45,1.64-2.78,1.87,1.27-.23,2.3.04,3.09.79.79.75,1.28,1.69,1.48,2.81s.06,2.17-.42,3.15c-.48.98-1.36,1.58-2.63,1.81,1.73-.31,2.92-.26,3.57.15.65.41.74.92.27,1.53-.47.61-1.57,1.07-3.3,1.37,1.73-.31,2.98-.19,3.76.35.78.54,1.02,1.22.72,2.04-.3.82-1.17,1.46-2.61,1.92,1.38-.19,2.55.25,3.51,1.34.95,1.09,1.49,2.28,1.62,3.57.97-.43,2.01-.65,3.12-.63,1.1.01,2.09.31,2.95.89.86.58,1.4,1.46,1.61,2.63-.2-1.12.01-2.07.63-2.87.62-.79,1.43-1.38,2.44-1.77,1.01-.39,2.06-.58,3.17-.56,1.1.01,2.07.29,2.9.82.83.53,1.35,1.36,1.54,2.48,1.3-.34,2.36-.31,3.16.07.8.38,1.3.94,1.48,1.67.18.73,0,1.45-.52,2.18-.53.72-1.45,1.23-2.76,1.51.95.62,1.47,1.39,1.55,2.32.09.93-.14,1.82-.67,2.68-.53.86-1.24,1.45-2.12,1.79-.88.34-1.8.23-2.74-.34.22,1.22-.05,2.2-.81,2.94-.76.74-1.7,1.21-2.82,1.41s-2.16.08-3.13-.35c-.97-.43-1.56-1.26-1.78-2.48.23,1.27-.07,2.32-.9,3.15-.82.83-1.87,1.36-3.14,1.58s-2.44.09-3.5-.4c-1.06-.49-1.7-1.38-1.93-2.65.23,1.27-.06,2.32-.86,3.14-.8.82-1.81,1.34-3.03,1.56s-2.35.08-3.38-.42c-1.03-.5-1.66-1.38-1.89-2.66.27,1.53.16,2.66-.34,3.41-.5.74-1.19.91-2.08.49-.89-.42-1.8-1.58-2.75-3.49-.94-1.9-1.73-4.77-2.36-8.59Z"/>
        <path class="cls-7" d="M6.16,104.34c-1.86.14-3.13-.03-3.81-.49-.68-.46-.72-.98-.13-1.55.6-.57,1.82-.92,3.68-1.06-1.37.09-2.43-.19-3.17-.86-.74-.66-1.14-1.46-1.21-2.39-.07-.93.21-1.77.84-2.52.63-.75,1.65-1.19,3.07-1.3-1.42.11-2.52-.31-3.3-1.26-.78-.95-1.23-2.07-1.34-3.35-.11-1.28.16-2.45.79-3.52.63-1.07,1.66-1.66,3.08-1.77-1.25.1-2.21-.26-2.88-1.07-.66-.81-1.05-1.78-1.15-2.92-.1-1.14.12-2.17.68-3.09.56-.92,1.46-1.43,2.72-1.53-1.21.08-2.15-.37-2.83-1.34s-1.07-2.12-1.17-3.46c-.11-1.34.1-2.54.62-3.61.52-1.07,1.38-1.65,2.59-1.72-.96-.14-1.64-.69-2.03-1.65-.39-.96-.51-2.04-.37-3.26.14-1.22.51-2.25,1.1-3.1.59-.85,1.39-1.21,2.4-1.09-.74-1.7-.95-2.95-.62-3.75.33-.79.89-1.03,1.67-.73.78.31,1.55,1.31,2.29,3.02-.43-.99-.43-1.94.03-2.84.45-.9,1.17-1.68,2.15-2.34.98-.65,2.05-1.12,3.2-1.4,1.15-.28,2.21-.27,3.18,0,.97.28,1.67.92,2.11,1.91.73-1.05,1.54-1.66,2.45-1.83.91-.17,1.72-.02,2.44.46.72.48,1.17,1.17,1.37,2.07.2.9-.08,1.91-.83,3.03,1-.94,2.08-1.26,3.26-.96,1.18.3,2.23.94,3.16,1.92.93.97,1.5,2.07,1.69,3.28.19,1.21-.19,2.28-1.14,3.2,1.27-1.23,2.4-1.74,3.39-1.53.99.21,1.56.83,1.69,1.84.13,1.01-.44,2.11-1.73,3.29,1.12-1.05,2.06-1.55,2.82-1.49.76.06,1.15.47,1.17,1.22.02.75-.55,1.67-1.72,2.74,1.21-1.09,2.24-1.58,3.08-1.47.84.11,1.29.59,1.35,1.44.06.85-.51,1.84-1.7,2.98.73-.66,1.57-.9,2.52-.72.95.18,1.89.63,2.83,1.34.93.72,1.73,1.57,2.38,2.55.65.98,1.04,1.96,1.15,2.92.11.97-.19,1.8-.89,2.5.8-.74,1.67-1.07,2.62-.98.94.1,1.87.47,2.77,1.11.9.65,1.64,1.44,2.22,2.37.58.93.88,1.87.9,2.82.02.95-.37,1.8-1.17,2.54.92.95,1.25,1.85.97,2.71-.28.85-.85,1.38-1.71,1.59-.87.21-1.76-.16-2.68-1.11.56,1.28.69,2.36.41,3.25-.29.89-.8,1.49-1.53,1.81s-1.52.29-2.37-.1c-.85-.39-1.55-1.23-2.11-2.5-.42.97-1.11,1.52-2.08,1.63-.97.11-1.93-.07-2.9-.55-.97-.48-1.69-1.12-2.16-1.93-.19.99-.61,1.66-1.27,2.03-.66.37-1.34.38-2.07.02-.72-.36-1.28-1.13-1.69-2.31.17,1.28-.22,2.38-1.14,3.29-.93.91-2.04,1.49-3.35,1.72-1.31.23-2.43,0-3.36-.73.61,1.14.64,2.2.08,3.18-.56.98-1.42,1.59-2.58,1.85-1.16.25-2.33-.21-3.52-1.38.82.71,1.14,1.6.96,2.67-.18,1.07-.67,2.07-1.47,3.01-.8.94-1.7,1.6-2.69,1.98-.99.38-1.92.22-2.79-.47.72,1.66.91,2.9.57,3.73-.34.83-.95,1.09-1.81.79-.86-.3-1.66-1.28-2.38-2.93.5,1.14.68,2.04.55,2.72-.13.68-.44.95-.95.84-.5-.12-1.05-.75-1.64-1.91-.59-1.15-1.1-2.99-1.52-5.51ZM21.65,83.87c-.31-.71-.23-1.39.24-2.05.47-.66,1.13-1.2,1.96-1.62.83-.42,1.63-.66,2.4-.71-.23-.4-.32-.89-.25-1.45.06-.56.29-1.04.68-1.44-.82.19-1.56,0-2.23-.55-.67-.55-1.08-1.23-1.23-2.04-.16-.81.13-1.54.86-2.19-.68.64-1.54.67-2.57.11-1.04-.56-1.88-1.32-2.52-2.28-.28.52-.64,1-1.06,1.44-.43.44-.87.71-1.34.8.75.29,1.25.9,1.52,1.83.26.93.25,1.82-.05,2.69-.3.86-.9,1.35-1.81,1.47.7-.08,1.29.25,1.79.99.49.74.94,1.58,1.35,2.5s.79,1.67,1.15,2.25c.36.58.74.66,1.13.27Z"/>
      </g>
      <g>
        <path class="cls-3" d="M195.76,59.84l-1.91,3.51,20.78,11.14,1.83-3.36-20.7-11.29Z"/>
        <path class="cls-2" d="M192.45,65.92l20.7,11.3,1.49-2.73-20.78-11.14-1.4,2.57Z"/>
        <path class="cls-3" d="M146.25,7.92c19.66-7.57,41.74,2.23,49.31,21.89,7.57,19.66-2.23,41.74-21.89,49.31s-41.74-2.23-49.31-21.89c-7.57-19.66,2.23-41.74,21.89-49.31ZM144.32,2.91c-22.39,8.62-33.59,33.86-24.97,56.25,8.62,22.39,33.86,33.59,56.25,24.97,22.39-8.62,33.59-33.86,24.97-56.25-8.62-22.39-33.86-33.59-56.25-24.97Z"/>
        <path class="cls-5" d="M197.82,38.81c-.38-3.01-1.12-6.03-2.26-8.99-7.57-19.66-29.65-29.46-49.31-21.89-16.58,6.39-26.15,23.09-24.2,39.96,23.22-7.82,48.68-5.76,73.67-8.84.7-.07,1.4-.15,2.1-.24h0Z"/>
        <path class="cls-4" d="M195.72,39.04c-24.99,3.08-50.45,1.02-73.67,8.84.36,3.13,1.12,6.27,2.31,9.35,7.57,19.66,29.65,29.46,49.31,21.89,16.7-6.43,26.28-23.33,24.15-40.32-.7.08-1.4.16-2.1.24Z"/>
        <path class="cls-1" d="M264.75,97.28c.74-1.36.24-3.06-1.12-3.8l-53.64-29.27c-.66-.36-2.68,2.61-4.27,5.6l56.95,31.31,2.09-3.82h0Z"/>
        <path class="cls-9" d="M205.72,69.8c-1.43,2.7-2.51,5.42-1.92,5.74l53.64,29.27c1.36.74,3.06.24,3.8-1.12l1.42-2.59-56.95-31.31h0Z"/>
      </g>
    </g>
  </g>
</svg>