<?xml version="1.0" encoding="UTF-8"?>
<svg id="Layer_2" xmlns="http://www.w3.org/2000/svg" version="1.1" viewBox="0 0 585.3 725.4">
  <!-- Generator: Adobe Illustrator 29.8.4, SVG Export Plug-In . SVG Version: 2.1.1 Build 6)  -->
  <defs>
    <style>
      .st0 {
        fill: #4fcf5e;
      }

      .st1 {
        fill: #8cef73;
      }
    </style>
  </defs>
  <g id="Info">
    <g>
      <path class="st1" d="M585.1,396l-.3-16.7-2-16.7-.4-16.7,1.3-16.7.7-16.7.8-16.7-.3-16.7-.9-16.7-.2-16.7-.4-16.7,1-16.7.5-16.7-1.4-16.7,1.4-16.7-.8-16.7-1.7-16.7,1.1-16.7.4-16.7.9-16.7-.5-16.7-1.6-16.7-2.4-16.8-8.6-15.2-15.2-8.7-16.9-4.2-17,1L505.6,0l-17,2.6-17-1.6h-17c0,.1-17-.5-17-.5l-17,2.1-17-1.2-17-.4-17-.7-17,.4h-17c0,.1-17-.8-17-.8l-17,1.6-17,.5-17-1.6-17-.4-17,.4-17,1.2-17,.5-17-1-17,.5-17-.9-17,1.6-17-.6-17,.4L79.6,0l-17,.4L45.5.1l-17.1,4.2-13.7,10.4-10.1,13.8L.1,45.5l1.9,16.7-1,16.7.7,16.7L0,112.3l.4,16.7.9,16.7,1.2,16.7-1,16.7-.3,16.7,1.5,16.7-1.2,16.7-1.1,16.7,1.3,16.7.8,16.7-1.7,16.7-.3,16.7,2,16.7-1.5,16.7.6,16.7-.4,16.7,1,16.7-1.8,16.7,1.8,16.7v16.7s-.7,16.7-.7,16.7l-.2,16.7.9,16.7-.9,16.7.9,16.7v16.7c.1,0,.4,16.7.4,16.7l-1,16.7-.6,16.7v16.7c-.1,0,.4,16.7.4,16.7l.9,16.7.4,16.7-1.1,16.7,2.7,17.1,10.5,13.7,13.7,10.3,17,1.7,17,2.1,17-.3,17.1.4,17.1-.8h17c0,0,17-.4,17-.4l17,.5,17,1.2,17-.7,17-1.7,17,.5,17,1.2,17-.2,17,.4,17-.8,17,1.2,17-.9,17-1.2,17,1.5,17-1.4,17-.4,17,2.1,17,.3h17c0,0,17,0,17,0l17-.8,17-1.1,17,.2,17,.2,16.7-3.6,14-9.7,9.8-14,3-16.8-.4-16.7v-16.7c.1,0,.7-16.7.7-16.7v-16.7c0,0-.6-16.7-.6-16.7l.3-16.7,1.8-16.7-1.7-16.7v-16.7c.1,0,0-16.7,0-16.7v-16.7c.1,0,1.7-16.7,1.7-16.7l-1.9-16.7,1.7-16.7-2.1-16.7.8-16.7,1.6-16.7h0ZM550.6,366.1c0,12.3-10,22.4-22.3,22.4H60c-12.3,0-22.3-10-22.3-22.4v-205.3c0-12.3,10-22.4,22.3-22.4h468.2c12.3,0,22.3,10,22.3,22.4v205.3h0Z"/>
      <path class="st0" d="M526.7,394.8l-18-1.4-18-.2-18-1.2-18,2.5-18-.4-18-1.2-18-.3-18-.4-18,2-18,.3-18-2-18,.7-18-.7-18,2-18-.7-18,.2h-18c0-.1-18-.6-18-.6l-18,.3h-18c0-.1-18-1.2-18-1.2l-18,.2-18,1-18,.6-18-.9-18-.5-20.3-6.4-7.2-20.3.6-18.7-1.4-18.7-.4-18.7v-18.7c0,0,2-18.7,2-18.7l-2-18.7,1.8-18.7-1.4-18.7,1.6-18.7-.2-18.7-1.1-18.7,9.5-18.4,18.4-7.9,18,.2,18-2.1,18,2.3,18-.2,18-1.8,18-.9,18,1.7,18-1.1,18-.2,18,2.4,18,.2,18-.8,18,.5,18-2.5,18,.6,18-.6,18,1.1,18-.9,18,1,18-.8,18,1.7,18-.2,18-1.9,18,1.7,18,.4,18-.5,18.5,8.7,10.2,18.5-1.3,18.7-.4,18.7,1.7,18.7-1.2,18.7.2,18.7.8,18.7-.3,18.7-1,18.7-.4,18.7.9,18.7.6,18.7-8.6,19.5-19.5,9.2h0ZM58.5,144.8l-12.3,3.7-5.3,12.3-1.2,18.7,2.5,18.7-.4,18.7-1.2,18.7-.3,18.7-.4,18.7,2,18.7.3,18.7-2,18.7.7,18.7-.7,18.7,6.8,11.6,11.6,5.5,18-.2h18c0,.1,18,.6,18,.6l18-.3h18c0,.1,18,1.2,18,1.2l18-.2,18-1,18-.6,18,.9,18,.5,18-2.1,18,1.2,18,.6,18-1.4,18-.4h18c0,0,18,2,18,2l18-2,18,1.8,18-1.4,18,1.6,18-.2,18-1.1,18,1.9,18-.3,13.1-5.2,3.4-13.1,2.3-18.7-.2-18.7-1.8-18.7-.9-18.7,1.7-18.7-1.1-18.7-.2-18.7,2.4-18.7.2-18.7-.8-18.7.5-18.7-7.2-11.2-11.2-5.2-18,.6-18-1.1-18,.9-18-1-18,.8-18-1.7-18,.2-18,1.9-18-1.7-18-.4-18,.5-18-1-18,2.5-18-1.3-18-.4-18,1.7-18-1.2h-18c0,.1-18,.9-18,.9l-18-.3-18-1-18-.4-18,.9-18,.6-18-.5-18,1.1h0Z"/>
    </g>
  </g>
</svg>