<?xml version="1.0" encoding="UTF-8"?>
<svg id="Layer_2" data-name="Layer 2" xmlns="http://www.w3.org/2000/svg" viewBox="0 0 316.09 242.22">
  <defs>
    <style>
      .cls-1 {
        fill: #f9ff58;
      }

      .cls-2 {
        fill: #8cef73;
      }

      .cls-3 {
        fill: #f2dd42;
      }
    </style>
  </defs>
  <g id="Logo">
    <g>
      <path class="cls-2" d="M315.13,169.2c.38-1.18.64-2.42.8-3.71.36-3.04.12-6.05-.73-8.96-.33-1.14-.75-2.21-1.26-3.23.54-1.96.57-4,.06-5.95-.71-2.72-2.41-5.05-4.84-6.69-.59-2.43-1.69-4.74-3.27-6.89-1.96-2.67-4.37-4.71-7.2-6.08-1.48-3.64-4.1-6.48-7.63-8.25-2.27-1.13-4.69-1.7-7.18-1.7-.15,0-.31,0-.46,0-2.14-1.69-4.74-2.62-7.45-2.62-.64,0-1.28.05-1.91.15-2.21-1.29-4.66-2-7.28-2.1-.19,0-.38-.01-.56-.01-2.72,0-5.28.69-7.56,2.01-.96-.29-1.95-.5-2.98-.65-1.04-.15-2.1-.22-3.14-.22-.14,0-.29.01-.43.02.5-1.01.98-2.31,1.22-3.87.32.06.63.13.96.17.73.1,1.46.16,2.19.16.94,0,1.87-.09,2.78-.26,1.97,1.21,4.17,2.01,6.52,2.35.81.12,1.64.17,2.45.17,1.21,0,2.41-.13,3.57-.38,1.46.83,3.08,1.38,4.79,1.62.65.09,1.3.14,1.95.14,3.44,0,6.71-1.28,9.46-3.71.65-.57,1.24-1.2,1.78-1.88.83-.23,1.65-.54,2.45-.92,3.35-1.6,6.06-4.22,7.84-7.58,1.7-3.23,2.38-6.8,1.97-10.36-.18-1.5-.57-2.93-1.16-4.25.19-1.93-.05-3.89-.74-5.82-.55-1.52-1.33-2.9-2.29-4.1.4-.25.78-.52,1.16-.82,3.16-2.45,5.32-5.83,6.25-9.76.94-4,.47-8.05-1.37-11.72-.48-.96-1.06-1.86-1.73-2.68.04-.86,0-1.75-.16-2.64,1.07-.42,2.09-.97,3.04-1.63,3.29-2.29,5.54-5.55,6.5-9.43.51-2.06.62-4.14.32-6.16.35-.76.62-1.56.8-2.4.67-3.19-.1-6.45-2.17-9.21-1.17-1.56-2.61-2.71-4.1-3.57-.61-1.13-1.39-2.19-2.32-3.16-2.15-2.24-4.87-3.89-8.11-4.92-2.46-.78-5-1.17-7.54-1.17-.22,0-.45,0-.69,0-.75.02-1.48.08-2.19.17-1.94-1.44-4.2-2.38-6.63-2.73-.69-.1-1.39-.15-2.08-.15-1.2,0-2.38.15-3.54.44-1.61-.69-3.33-1.05-5.1-1.05-1.34,0-2.66.21-3.95.61-.9-.41-1.85-.77-2.84-1.07-2.61-.79-5.31-1.2-8.03-1.2h-.36c-.93.01-1.84.08-2.73.2-1.84-1.16-3.93-1.77-6.14-1.77-2.38,0-4.73.74-6.8,2.15-1.42.96-2.51,2.13-3.36,3.34-.66.25-1.3.56-1.91.91-2.94,1.68-5.29,4.23-6.79,7.37-.91,1.9-1.46,3.86-1.65,5.85-2.22,2.25-3.77,5.01-4.58,8.08-2.34-2.06-5.24-3.32-8.52-3.65-.46-.04-.93-.07-1.4-.07-.06,0-.11,0-.17,0-.25-.18-.5-.35-.76-.52-2.79-1.78-6.02-2.77-9.6-2.95-.41-.02-.83-.03-1.24-.03-2.56,0-5.11.39-7.58,1.16-.05.02-.11.04-.16.05-2.12-2.06-4.55-3.56-7.25-4.48-1.56-2.45-3.75-4.46-6.4-5.88-1.75-.94-3.59-1.55-5.49-1.82-1.65-1.96-3.78-3.38-6.26-4.13-1.23-.37-2.5-.56-3.78-.56-.94,0-1.87.1-2.78.3-1.91-1.09-4.03-1.81-6.29-2.13-.81-.11-1.64-.17-2.44-.17-1.78,0-3.49.27-5.14.79-1.53-.61-3.15-.93-4.77-.93s-3.1.29-4.56.85c-.88-.21-1.77-.31-2.67-.31-3.35,0-6.45,1.42-8.72,3.96-2.67.31-5.25,1.22-7.67,2.73-3.37,2.09-5.93,5.08-7.39,8.63-.26.64-.48,1.28-.65,1.93-.43.35-.85.73-1.25,1.12-1.03-2.18-2.57-4.05-4.56-5.5-2.16-1.57-4.66-2.48-7.29-2.67-.09-.08-.19-.15-.29-.23-2.94-2.25-6.49-3.44-10.28-3.44s-7.34,1.19-10.28,3.44c-1.12.86-2.09,1.86-2.89,2.97-.67.29-1.32.64-1.94,1.04-1.64,1.06-3.05,2.37-4.23,3.9-.06-.06-.11-.12-.17-.17-2.82-2.7-6.43-4.13-10.43-4.13h-.2c-.48,0-1.01.04-1.56.11-.26-.15-.53-.29-.81-.43-2.59-1.28-5.46-1.92-8.52-1.92-.44,0-.88.01-1.34.04-2.99.18-5.89.88-8.65,2.08-.76.33-1.5.7-2.19,1.11-.78-.16-1.57-.24-2.36-.24-4.04,0-7.68,2.05-9.99,5.65-.91,1.42-1.47,2.92-1.78,4.39-.31.27-.61.55-.91.84-2.28,2.3-3.96,5.19-4.99,8.58-.77,2.54-1.07,5.05-.89,7.49-1.51,2.2-2.55,4.67-3.11,7.36h-.04s.03.02.03.02c-.16.79-.29,1.6-.37,2.44-.25,2.58-.07,5.07.53,7.42-1.21,2.18-1.95,4.62-2.17,7.2-.17,2.02-.03,4.02.42,5.92-1.49,2.46-2.4,5.24-2.67,8.18-.23,2.43,0,4.84.64,7.12-.98,1.77-1.59,3.72-1.81,5.81-.15,1.4-.1,2.78.12,4.12-.59,1.2-.96,2.5-1.09,3.86-.32,3.45.96,6.77,3.6,9.34.93.91,1.97,1.64,3.05,2.23.21,1.54.49,2.9.87,4.12.36,1.19,1.23,3.99,3.3,6.42-.99,2.06-1.56,4.31-1.66,6.67-.09,2.13.2,4.2.84,6.16-.72,1.63-1.15,3.38-1.28,5.23-.08,1.19-.04,2.37.13,3.52-1.6,2.76-2.04,5.93-1.27,8.99-.95,1.92-1.52,4.02-1.7,6.24-.19,2.32.06,4.59.73,6.75-.98,1.81-1.6,3.79-1.83,5.9-.2,1.85-.09,3.66.34,5.39-1.32,2.72-1.6,5.77-.78,8.69-1.27,3.62-.84,7.6,1.33,11.14.92,1.5,2.38,3.2,4.65,4.58.42,1.76,1.02,3.42,1.8,4.97,1.83,3.61,4.32,6.55,7.42,8.74,3.03,2.14,6.29,3.49,9.71,4.01,1.03.15,2.05.23,3.04.23,2.77,0,5.39-.6,7.77-1.77.61-.3,1.19-.64,1.75-1.01.17,0,.34,0,.51,0,1.07,0,2.14-.12,3.19-.35,2.88-.64,5.45-1.96,7.55-3.87,1.32,2.73,3.06,5.04,5.17,6.89.08.07.17.15.26.22.25,1.43.7,2.87,1.45,4.27,2.16,4.03,6.02,6.44,10.33,6.44.83,0,1.86-.09,3.02-.41.98.41,2.02.72,3.1.91.86.15,1.73.23,2.59.23,2.95,0,5.86-.9,8.41-2.6.94-.63,1.99-1.5,2.99-2.69,1.26-.38,2.48-.94,3.63-1.66.66.47,1.35.92,2.08,1.33,2.58,1.42,5.37,2.36,8.3,2.79,1.02.15,2.03.23,3.03.23,2.46,0,4.83-.46,7.03-1.38.11-.05.22-.09.33-.14,4.79,2.5,8.76,3.66,12.42,3.66.57,0,1.13-.03,1.68-.09,3.21-.33,6.07-1.63,8.26-3.69.86,1.02,1.79,1.95,2.81,2.76,3.26,2.6,6.86,4.04,10.73,4.31.43.03.86.04,1.28.04,3.56,0,6.94-1.04,9.77-3.01.02-.02.04-.03.07-.05,5.11-.04,9.42-2.79,11.57-7.37.28.19.57.38.86.56,1.47,3.38,3.98,6.13,7.25,7.95,2.65,1.48,5.48,2.23,8.4,2.23.07,0,.14,0,.21,0,1.93,1.5,4.17,2.61,6.69,3.33,2.1.6,4.25.9,6.42.9.77,0,1.54-.04,2.32-.11,3.39-.33,6.45-1.42,9.08-3.23,2.21-1.52,3.91-3.52,5-5.86,2.73-2.52,3.93-5.26,4.43-7.56.16-.05.33-.08.49-.13,2.2,1.12,4.64,1.82,7.22,2.04.6.05,1.2.08,1.78.08,2.13,0,4.17-.33,6.1-.99,1.94.9,4.04,1.45,6.24,1.64.56.05,1.12.07,1.67.07,3.15,0,6.12-.77,8.83-2.28.64-.36,1.24-.75,1.8-1.19.25-.01.49-.03.73-.06,2.76-.3,5.37-1.28,7.66-2.87.7-.26,1.38-.55,2.04-.88,1.19.33,2.42.51,3.66.51.79,0,1.6-.07,2.39-.21,3-.53,5.72-2.03,7.83-4.29,1.61-.19,3.25-.57,4.9-1.15,2.56-.89,4.98-2.11,7.19-3.63,1.23-.85,2.35-1.76,3.34-2.74.33-.02.66-.05.98-.09,6.53-.84,10.95-6.22,10.54-12.81,1.66-2.19,2.91-4.74,3.71-7.63.79-2.84,1.04-5.63.76-8.34,2.28-3.47,2.67-7.61,1.19-11.29ZM180.23,129.11c.16-.2.31-.39.45-.59,2.35-.54,4.63-1.53,6.81-2.96,1.35-.89,2.56-1.88,3.62-2.98,3.61-.15,6.91-1.45,9.62-3.78.28.01.57.02.85.02,2.39,0,4.7-.42,6.9-1.25,1.46.55,3.01.84,4.58.84.16,0,.31,0,.47-.01-1.24.43-2.44.99-3.56,1.71-1.19.76-2.24,1.67-3.13,2.71-.69.24-1.37.53-2.02.88-2.9,1.53-5.21,3.81-6.88,6.77-.78,1.39-1.35,2.86-1.71,4.37-.99-.38-2.03-.7-3.11-.94-1.65-.37-3.3-.56-4.9-.56-1.12,0-2.23.09-3.31.27-2.06-1.29-4.37-2.08-6.84-2.3-.01,0-.03,0-.04,0,.8-.62,1.55-1.33,2.22-2.17ZM63.05,142.57c-.38.05-.75.11-1.11.19.71-3.22,0-6.7-2.23-9.67-.63-.83-1.33-1.54-2.06-2.15-.07-.28-.15-.56-.23-.84-1.04-3.34-3.06-6.26-5.86-8.46-1.95-1.53-4.15-2.59-6.48-3.14-.22-.31-.45-.61-.68-.9.2-.24.41-.48.6-.73,3.54-.55,6.72-2.21,9.15-4.8,2.68-.18,5.21-.87,7.56-2.06,1.05.27,2.13.41,3.22.41.75,0,1.49-.06,2.22-.19.12.07.24.13.35.19,1.24,2.17,2.7,3.86,4.48,5.12,2.27,1.61,4.84,2.46,7.43,2.46,1.44,0,2.86-.26,4.19-.76,1.92.65,3.97.98,6.09.98,2.54,0,4.99-.48,7.25-1.42,2.29.93,4.78,1.42,7.38,1.42,2.74,0,5.37-.54,7.77-1.59,2.01.73,4.16,1.11,6.37,1.11,3.72,0,7.28-1.07,10.28-3.09.61-.41,1.17-.86,1.7-1.34.24-.04.48-.08.72-.12,1.66-.32,3.23-.9,4.69-1.69,3.04.99,5.83,1.48,8.46,1.48,1.15,0,2.28-.1,3.37-.29.68.39,1.38.7,2.09.96.21.3.42.6.66.89.83,1.01,1.78,1.85,2.79,2.54.04,1.55.17,2.93.41,4.19.24,1.26.81,4.25,2.72,6.95-1.75.13-3.48.66-5.08,1.52-1.43-.82-3.03-1.35-4.75-1.51-2.29-2.11-5.2-3.27-8.37-3.27-1.38,0-2.77.23-4.15.68-1.69-.84-3.53-1.46-5.5-1.86-1.68-.34-3.38-.51-5.06-.51-1.54,0-3.09.14-4.62.43-2.29.43-4.41,1.17-6.34,2.2-1.26-.35-2.55-.53-3.85-.53-1.11,0-2.23.13-3.34.39-1.95.46-3.75,1.29-5.31,2.46-.54-.06-1.08-.08-1.61-.08-2.38,0-4.67.55-6.81,1.63-1.31.67-2.49,1.51-3.52,2.5-1.41.41-2.75,1.04-3.99,1.89-2.27,1.56-3.94,3.71-4.91,6.22-2.03,1.16-3.69,2.75-4.88,4.67-.3-.18-.6-.35-.92-.52-2.59-1.37-5.31-2.06-8.1-2.06-.72,0-1.44.05-2.17.14Z"/>
      <path class="cls-3" d="M232.46,204.22c-2.07.14-3.66-.27-4.77-1.23-1.11-.96-1.71-2.14-1.8-3.54s.34-2.67,1.3-3.81c.96-1.15,2.48-1.79,4.55-1.93-2.79.19-4.68-.16-5.66-1.05-.98-.89-1.05-1.85-.2-2.87.85-1.02,2.67-1.63,5.46-1.82-2.47.17-4.16-.17-5.06-1.03-.9-.86-.96-1.8-.19-2.81.77-1.01,2.39-1.61,4.86-1.77-1.99.14-3.55-.44-4.68-1.72-1.13-1.28-1.75-2.8-1.88-4.56s.29-3.34,1.23-4.77c.94-1.43,2.41-2.21,4.4-2.34-2.39.16-4.2-.15-5.41-.95-1.22-.8-1.86-1.75-1.94-2.87s.43-2.15,1.53-3.11c1.09-.96,2.84-1.52,5.23-1.68-2.79.19-4.71-.32-5.75-1.53-1.04-1.21-1.13-2.48-.26-3.83.87-1.34,2.7-2.11,5.49-2.3-1.91.13-3.4-.51-4.46-1.92-1.06-1.41-1.65-3.09-1.79-5.04s.23-3.7,1.08-5.24c.86-1.54,2.24-2.38,4.15-2.51-1.26-.87-1.88-1.99-1.85-3.36.03-1.36.44-2.61,1.24-3.75.8-1.14,1.83-1.91,3.09-2.31,1.25-.41,2.51-.17,3.77.7-.13-1.83.28-3.26,1.21-4.29.93-1.03,2.07-1.58,3.43-1.68s2.56.3,3.63,1.19,1.66,2.25,1.78,4.08c-.11-1.67.35-3.05,1.4-4.12,1.05-1.07,2.4-1.85,4.04-2.32s3.32-.59,5.02-.34,3.14.83,4.32,1.74c1.18.92,1.83,2.22,1.95,3.89.08-2.33.7-4.07,1.86-5.23,1.16-1.16,2.5-1.71,4.03-1.66,1.52.06,2.87.69,4.03,1.89,1.16,1.2,1.71,2.97,1.62,5.29.54-2.6,1.41-4.22,2.61-4.86,1.2-.64,2.21-.43,3.05.63.83,1.06.98,2.9.44,5.5,1.06-2,2.38-3.21,3.95-3.63,1.57-.43,3.06-.29,4.47.41,1.41.7,2.39,1.82,2.93,3.34.54,1.52.33,3.28-.66,5.27,1.53-1.07,3.11-1.27,4.76-.63,1.64.65,3.04,1.75,4.19,3.32,1.15,1.56,1.76,3.22,1.84,4.98.08,1.76-.64,3.21-2.16,4.35,2.75-.75,4.69-.82,5.81-.22,1.12.6,1.34,1.45.65,2.54-.69,1.09-2.37,2-5.04,2.75,1.67-.11,3.09.33,4.24,1.33s1.96,2.31,2.43,3.92c.47,1.61.6,3.26.4,4.96-.2,1.7-.77,3.14-1.69,4.32-.92,1.19-2.21,1.87-3.88,2.07,2.4-.08,4.03.38,4.9,1.4.87,1.02.9,2.06.09,3.12-.81,1.06-2.41,1.63-4.81,1.71,1.71.44,2.77,1.57,3.18,3.39.4,1.82.32,3.76-.26,5.84-.58,2.08-1.5,3.79-2.77,5.12-1.27,1.33-2.81,1.74-4.6,1.22,2.12,1.7,3.22,3.22,3.32,4.58s-.52,2.12-1.83,2.29c-1.31.17-3.03-.63-5.15-2.41.64,1.16.58,2.34-.18,3.56-.76,1.21-1.88,2.33-3.37,3.36-1.49,1.02-3.1,1.83-4.82,2.43-1.72.6-3.31.83-4.76.69-1.45-.14-2.45-.75-3.01-1.84.28,1.82.06,3.26-.67,4.31-.73,1.05-1.65,1.67-2.75,1.87-1.11.2-2.17-.11-3.19-.92-1.02-.81-1.67-2.13-1.95-3.95.11,1.6-.4,2.93-1.53,4.01-1.13,1.08-2.58,1.84-4.35,2.28-1.77.44-3.57.56-5.38.37-1.82-.2-3.38-.75-4.68-1.66-1.3-.91-2.01-2.16-2.12-3.76.1,1.52-.41,2.75-1.55,3.71s-2.57,1.6-4.31,1.92c-1.74.32-3.52.32-5.35,0-1.82-.32-3.35-.99-4.58-2.03-1.23-1.04-1.87-2.51-1.93-4.43ZM253.85,183.29c1.43-.1,2.47.43,3.11,1.59.48-1.15,1.12-1.46,1.92-.91.8.55,1.27,1.94,1.43,4.17-.13-1.83.1-3.13.69-3.89.59-.76,1.24-.94,1.94-.55.71.39,1.19,1.34,1.46,2.84.06-1.45.71-2.49,1.95-3.14,1.24-.64,2.43-.77,3.58-.37-.4-1.17-.37-2.42.1-3.73.47-1.31,1.19-2.46,2.17-3.45.97-.99,2.06-1.48,3.26-1.49-1.01-.65-1.75-1.6-2.24-2.85-.49-1.25-.66-2.56-.51-3.93.15-1.37.58-2.56,1.32-3.57.73-1.01,1.81-1.57,3.25-1.67-1.83.21-3.18-.2-4.05-1.22-.87-1.02-1.23-2.2-1.08-3.53.15-1.33.88-2.36,2.19-3.09-1.74.28-2.93-.12-3.57-1.2-.63-1.08-.47-2.21.49-3.4-.86.3-1.55.17-2.07-.4-.52-.57-.65-1.34-.4-2.32-1.14.96-2.5,1.19-4.1.7-1.59-.49-2.53-1.53-2.8-3.11-.2,1.7-.91,2.75-2.13,3.15-1.22.4-2.25.15-3.12-.75.05.8-.14,1.41-.59,1.84-.45.43-1.05.51-1.79.24-.61.44-1.51.7-2.71.79,1.43-.1,2.55.47,3.36,1.69.8,1.23,1.27,2.7,1.38,4.41s-.14,3.23-.77,4.56c-.63,1.33-1.66,2.04-3.1,2.14,1.43-.1,2.54.49,3.3,1.76.77,1.27,1.21,2.74,1.32,4.41s-.12,3.19-.71,4.55c-.59,1.36-1.6,2.09-3.03,2.19,2.07-.14,3.51.38,4.31,1.57.8,1.19.89,2.44.26,3.77-.63,1.33-1.98,2.06-4.05,2.2Z"/>
      <path class="cls-3" d="M141.94,206.86c-2.86-.26-4.73-.95-5.59-2.07-.86-1.12-.77-2.15.28-3.1,1.05-.95,3-1.29,5.87-1.04-1.43-.13-2.53-.85-3.29-2.16-.77-1.31-1.2-2.9-1.32-4.75-.12-1.85.05-3.7.5-5.55.45-1.84,1.16-3.34,2.15-4.5.99-1.15,2.2-1.67,3.63-1.54-1.99-.18-3.44-.97-4.36-2.38-.92-1.41-1.3-2.94-1.15-4.62s.8-3.12,1.96-4.34c1.15-1.22,2.72-1.74,4.71-1.56-2.71-.24-4.47-.92-5.29-2.04-.82-1.12-.73-2.15.28-3.1,1.01-.95,2.87-1.31,5.57-1.06-2.79-.25-4.6-.82-5.44-1.69-.84-.88-.77-1.65.21-2.33.98-.67,2.87-.89,5.65-.63-2.79-.25-4.59-.9-5.42-1.93-.83-1.04-.74-1.99.26-2.86,1-.87,2.89-1.18,5.68-.93-2.55-.23-4.18-.98-4.91-2.25-.73-1.27-.62-2.46.32-3.58s2.69-1.56,5.23-1.33c-1.11-1.94-1.33-3.53-.65-4.75.67-1.22,1.7-1.79,3.1-1.71,1.4.09,2.65,1.1,3.76,3.05.28-3.1,1.06-5.1,2.34-5.99,1.28-.89,2.48-.78,3.58.32,1.1,1.1,1.52,3.21,1.24,6.31.21-2.31.92-3.97,2.13-4.98s2.54-1.46,3.97-1.33,2.65.8,3.67,2.02c1.01,1.22,1.42,2.98,1.21,5.28.17-1.91.84-3.27,1.99-4.09,1.16-.82,2.41-1.17,3.76-1.04s2.53.69,3.52,1.7c.99,1.01,1.4,2.47,1.23,4.38.4-1.81,1.49-2.99,3.27-3.56,1.77-.56,3.68-.61,5.73-.15,2.04.47,3.73,1.32,5.06,2.56,1.33,1.24,1.8,2.77,1.39,4.58,1.45-2.76,2.84-4.36,4.16-4.8,1.32-.44,2.16.01,2.52,1.37.36,1.36-.15,3.42-1.52,6.18,1.13-.94,2.44-1.04,3.94-.31,1.5.74,2.88,1.88,4.14,3.44,1.26,1.56,2.08,3.16,2.46,4.79.37,1.64,0,2.93-1.13,3.87,2.11-.29,3.75-.04,4.93.74,1.17.79,1.84,1.77,2.02,2.95.17,1.18-.21,2.29-1.14,3.33-.94,1.04-2.46,1.7-4.57,2,1.4.53,2.18,1.66,2.34,3.4.16,1.74-.13,3.6-.86,5.58-.74,1.98-1.75,3.57-3.02,4.78-1.27,1.21-2.61,1.55-4,1.02,1.35,1.89,1.7,3.64,1.03,5.27-.67,1.62-1.71,2.77-3.14,3.45.37,1.24-.68,2.23-3.15,2.97,1.5.22,2.8.94,3.9,2.16,1.09,1.22,1.85,2.63,2.27,4.24.42,1.6.36,3.14-.17,4.62-.54,1.48-1.64,2.62-3.32,3.43,2.51-1.14,4.41-1.55,5.71-1.23,1.3.32,1.77,1,1.44,2.06-.34,1.05-1.6,2.16-3.79,3.33,1.92-.79,3.44-.75,4.56.11,1.13.86,1.6,2.03,1.43,3.5-.17,1.47-1.27,2.79-3.31,3.97-.14,1.59-.84,2.81-2.07,3.66-1.24.85-2.71,1.36-4.41,1.53-1.7.17-3.37.02-5.01-.45-1.64-.47-3-1.23-4.07-2.29-1.07-1.06-1.53-2.38-1.39-3.98-.86,1.53-2.02,2.37-3.48,2.51-1.46.15-2.87-.16-4.25-.92-1.38-.77-2.36-1.84-2.96-3.22-.6-1.38-.47-2.79.38-4.24-1.57.5-2.95.44-4.13-.19-1.19-.63-2.05-1.57-2.57-2.82-.53-1.25-.64-2.52-.32-3.82.32-1.3,1.15-2.32,2.5-3.08-1.66.57-3.25.23-4.78-1.03-1.53-1.26-2.58-2.8-3.13-4.61-.59.27-1.24.37-1.95.31.27,1.47-.04,2.87-.92,4.19-.88,1.32-2.28,1.9-4.19,1.73,1.59.14,2.75.69,3.46,1.64.72.95,1.02,1.98.92,3.09s-.59,2.05-1.46,2.82c-.87.76-2.1,1.07-3.69.93,1.05,1.7,1.32,3.11.82,4.23-.5,1.12-1.38,1.68-2.62,1.69-1.25,0-2.4-.8-3.45-2.42-.17,1.91-.92,3.33-2.25,4.25-1.33.92-2.89,1.32-4.68,1.2-1.79-.12-3.52-.84-5.16-2.15-1.65-1.31-2.95-3.27-3.92-5.89s-1.23-5.99-.77-10.12ZM168.04,170.95c1.59.14,2.67.82,3.25,2.04.57,1.22.77,2.34.6,3.36,1.36-.84,3.11-1.18,5.27-1.03,2.15.15,3.79.72,4.9,1.71.04-1.36.61-2.81,1.72-4.36,1.1-1.54,2.27-2.5,3.51-2.87-1-.49-1.22-1.11-.67-1.87-1.55.26-2.73-.2-3.54-1.4-.81-1.2-.84-2.48-.07-3.86-1,.39-2.19.52-3.59.4s-2.67-.46-3.82-1.01c-1.15-.54-1.85-1.27-2.09-2.17.02,1.61-.55,2.52-1.69,2.74,0,.8-.26,1.54-.8,2.21s-1.37.96-2.48.86c1.51.14,2.49.67,2.93,1.59.44.92.36,1.8-.24,2.63-.6.83-1.65,1.17-3.16,1.04Z"/>
      <path class="cls-1" d="M114.06,215.69c-.56,1.58-1.55,2.67-2.97,3.26-1.43.59-3.01.76-4.77.5-1.75-.26-3.4-.81-4.93-1.66-1.53-.84-2.71-1.95-3.54-3.31-.83-1.36-.96-2.83-.4-4.42-1.47,1.28-2.94,1.81-4.41,1.6-1.47-.21-2.7-.88-3.71-2.02-1-1.14-1.52-2.45-1.55-3.94-.03-1.48.68-2.86,2.16-4.14-1.49.32-2.83,0-4.02-.97-1.18-.96-2.15-2.29-2.88-3.98-.74-1.69-1.18-3.45-1.33-5.28-.15-1.83.08-3.46.69-4.89.61-1.43,1.67-2.3,3.16-2.62-1.84.11-3.34-.43-4.51-1.64-1.17-1.2-1.99-2.72-2.46-4.56-.47-1.84-.59-3.69-.34-5.57.25-1.87.86-3.46,1.85-4.77.99-1.31,2.36-2.05,4.1-2.24-1.17-.44-1.89-1.33-2.15-2.67-.26-1.34-.19-2.83.2-4.48.39-1.65,1.01-3.22,1.86-4.71.85-1.49,1.83-2.64,2.96-3.44,1.12-.8,2.23-.97,3.32-.53-1.72-1.83-2.48-3.4-2.3-4.7.18-1.3.95-2.03,2.3-2.17s2.88.7,4.6,2.53c-1.11-2.13-1.46-3.98-1.06-5.55.4-1.57,1.25-2.68,2.54-3.34,1.3-.66,2.72-.72,4.26-.2,1.54.52,2.86,1.81,3.96,3.87-.44-1.88-.32-3.42.36-4.62.68-1.19,1.65-1.94,2.9-2.23,1.25-.29,2.46-.08,3.62.65s2,2.02,2.51,3.9c-.03-1.84.64-3.3,2.01-4.37,1.37-1.07,3.03-1.78,4.96-2.14,1.93-.36,3.88-.34,5.85.05,1.97.4,3.61,1.15,4.93,2.26,1.32,1.11,1.96,2.59,1.91,4.44.91-2.82,2.1-4.51,3.57-5.07,1.47-.55,2.61-.17,3.43,1.15.82,1.32.78,3.39-.14,6.22,1.5-2.57,2.96-4,4.37-4.31,1.41-.31,2.31.22,2.7,1.59.38,1.37-.18,3.33-1.67,5.9,1.61-1.53,3.15-2.32,4.63-2.35,1.48-.03,2.65.41,3.51,1.32.86.92,1.2,2.1,1.03,3.57-.17,1.46-1.1,2.97-2.78,4.51,1.69-.74,3.12-.87,4.3-.39,1.17.48,1.98,1.24,2.41,2.28.43,1.04.4,2.13-.08,3.26-.48,1.13-1.57,2.07-3.26,2.81,1.5-.23,2.77.17,3.8,1.23,1.03,1.06,1.82,2.42,2.35,4.09.54,1.67.77,3.39.72,5.17-.06,1.77-.44,3.3-1.15,4.58s-1.82,2.04-3.32,2.27c2.94-.31,4.94.03,6.01,1,1.07.97,1.16,2.03.27,3.16-.89,1.14-2.8,1.82-5.75,2.05,1.94.12,3.35.88,4.21,2.27.87,1.4,1.23,2.94,1.09,4.65-.14,1.7-.76,3.15-1.84,4.35-1.08,1.2-2.59,1.7-4.54,1.5,1.05.78,1.52,1.89,1.43,3.35-.09,1.46-.57,2.97-1.45,4.55-.88,1.58-1.96,3-3.23,4.25-1.27,1.26-2.57,2.14-3.88,2.63-1.31.5-2.49.36-3.54-.41.67,1.78.42,3.41-.75,4.9-1.17,1.49-2.76,2.62-4.77,3.39-2.01.77-3.95,1.01-5.83.73-1.88-.29-3.15-1.32-3.82-3.1.69,4.34-.47,6.68-3.49,6.99s-7.77-1.68-14.24-5.99ZM131.87,195.88c-1.91-.6-3.01-1.71-3.3-3.33-.29-1.62,0-3.13.85-4.55.86-1.41,2.12-2.17,3.8-2.26-1.09-.45-1.93-1.32-2.5-2.63-.58-1.3-.87-2.72-.86-4.25,0-1.52.32-2.87.97-4.02.64-1.15,1.64-1.8,2.99-1.94-1.58.25-2.84-.29-3.78-1.59-.94-1.31-1.4-2.83-1.38-4.56.02-1.73.54-3.09,1.56-4.08-1.49.32-2.87-.14-4.12-1.38-1.25-1.23-1.8-2.58-1.63-4.05-.9.66-1.85.9-2.88.72-1.02-.17-1.86-.71-2.52-1.61-.18,1.39-.87,2.48-2.07,3.29-1.2.81-2.46,1.08-3.77.81.51,1.07.68,2.26.49,3.56-.19,1.3-.67,2.44-1.45,3.4s-1.81,1.51-3.08,1.65c1.14.2,2.03.79,2.65,1.77.62.98.94,2.09.95,3.34,0,1.25-.28,2.34-.86,3.28-.58.95-1.51,1.48-2.78,1.62,1.66-.25,2.8-.13,3.41.37.61.5.67,1.07.18,1.73-.49.65-1.58,1.07-3.24,1.24,1.9-.28,3.32.04,4.26.94.94.91,1.37,2.01,1.31,3.3-.07,1.29-.7,2.36-1.9,3.21,1.37.02,2.72.68,4.06,1.99,1.34,1.31,2.13,2.71,2.37,4.21.99-1.31,2.55-1.89,4.7-1.76,2.14.14,4.67.66,7.57,1.56Z"/>
      <path class="cls-1" d="M203.88,191.55c-2.87-.25-4.74-.81-5.63-1.68-.89-.88-.82-1.65.2-2.33,1.02-.67,2.96-.89,5.83-.64-2.23-.19-3.86-.85-4.88-1.98-1.03-1.13-1.48-2.35-1.37-3.67s.77-2.42,1.97-3.32c1.2-.9,2.91-1.25,5.14-1.06-2.15-.18-3.7-.76-4.66-1.72-.96-.96-1.39-2-1.3-3.12s.7-2.06,1.81-2.85c1.11-.79,2.74-1.09,4.89-.9-1.91-.16-3.31-.88-4.2-2.16-.89-1.28-1.27-2.71-1.13-4.31s.75-2.94,1.85-4.05c1.1-1.11,2.6-1.58,4.51-1.42-2.79-.24-4.61-.95-5.47-2.15-.86-1.19-.76-2.31.29-3.34,1.05-1.03,2.97-1.43,5.76-1.19-2.39-.2-4.12-.85-5.19-1.95-1.07-1.09-1.55-2.3-1.43-3.61s.79-2.42,2.03-3.31c1.24-.9,3.05-1.24,5.44-1.04-1.3-.75-2.01-1.8-2.14-3.13-.13-1.33.16-2.63.87-3.89s1.65-2.2,2.83-2.82c1.18-.62,2.42-.59,3.72.08.16-1.91.88-3.27,2.15-4.08,1.27-.81,2.7-1.15,4.3-1.01s2.95.71,4.06,1.73c1.12,1.02,1.59,2.48,1.43,4.39.98-1.12,2.03-1.69,3.15-1.71,1.12-.02,2.1.32,2.92,1.03.82.71,1.32,1.64,1.51,2.78.18,1.14-.21,2.27-1.19,3.39,2.07.18,3.58,1.01,4.54,2.49.95,1.49,1.36,3.12,1.2,4.91s-.83,3.34-2.02,4.64c-1.19,1.3-2.83,1.86-4.9,1.68,1.99.17,3.42.98,4.3,2.41.88,1.44,1.24,3.03,1.09,4.78s-.78,3.26-1.89,4.53c-1.11,1.27-2.66,1.82-4.65,1.65,2.7.23,4.46.78,5.27,1.65.81.87.74,1.67-.2,2.39-.94.72-2.77.97-5.48.73,2.7.23,4.53.91,5.48,2.03.95,1.12,1.03,2.23.26,3.33-.78,1.1-2.33,1.71-4.67,1.83,2.14.26,3.71,1.4,4.7,3.41.99,2.01,1.32,4,.99,5.98,1.63-.26,3.26-.16,4.91.3,1.64.46,3,1.3,4.05,2.51,1.06,1.21,1.51,2.74,1.35,4.57.15-1.75.85-3.09,2.09-4.03,1.24-.93,2.69-1.49,4.35-1.67,1.66-.18,3.31-.04,4.96.42,1.64.46,2.98,1.26,4.01,2.39,1.03,1.13,1.46,2.57,1.31,4.32,2.08.02,3.65.47,4.69,1.36,1.05.89,1.56,1.92,1.54,3.08-.02,1.16-.57,2.18-1.64,3.05-1.08.87-2.65,1.26-4.73,1.16,1.17,1.3,1.64,2.67,1.39,4.09-.24,1.42-.93,2.67-2.06,3.73-1.13,1.07-2.43,1.68-3.89,1.83-1.46.16-2.78-.38-3.95-1.6-.16,1.91-.96,3.27-2.39,4.07-1.43.8-3.02,1.12-4.77.97s-3.27-.74-4.54-1.77c-1.28-1.03-1.83-2.5-1.67-4.41-.17,1.99-1.04,3.44-2.6,4.35-1.56.91-3.34,1.28-5.33,1.11s-3.68-.84-5.06-2c-1.39-1.16-1.99-2.74-1.82-4.73-.17,1.99-1.02,3.44-2.54,4.35-1.52.91-3.24,1.29-5.15,1.12s-3.54-.83-4.88-1.98c-1.34-1.16-1.93-2.73-1.76-4.72-.2,2.39-.83,4.04-1.87,4.95-1.04.91-2.14.88-3.3-.1-1.16-.98-2.06-3.08-2.71-6.31-.65-3.22-.67-7.82-.08-13.78Z"/>
      <path class="cls-1" d="M228.76,76.39c-1.9-.27-3.25-1.13-4.05-2.57-.8-1.45-1.08-3.06-.82-4.84s.97-3.25,2.14-4.42c1.17-1.16,2.71-1.61,4.61-1.34-1.9-.27-3.23-.98-3.99-2.14-.76-1.16-1.05-2.39-.87-3.7s.8-2.39,1.86-3.25c1.05-.86,2.52-1.15,4.42-.88-2.93-.42-4.8-1.29-5.62-2.62-.82-1.33-.65-2.51.51-3.56,1.16-1.05,3.2-1.36,6.13-.94-1.98-.28-3.41-.97-4.31-2.07-.89-1.1-1.25-2.28-1.07-3.54s.85-2.3,2.02-3.1c1.16-.8,2.73-1.06,4.71-.78-2.21-.32-3.75-1.26-4.62-2.84-.86-1.58-1.16-3.29-.9-5.15s1.03-3.42,2.3-4.7c1.27-1.27,3.01-1.75,5.23-1.43-1.44-.69-2.24-1.71-2.41-3.07s.06-2.69.69-4.02c.63-1.32,1.54-2.32,2.73-3,1.19-.68,2.5-.67,3.93.01.35-2.45,1.01-4.01,2-4.68.98-.67,1.85-.54,2.61.37.76.92.96,2.6.61,5.05.2-1.42.96-2.48,2.27-3.19,1.31-.7,2.88-1.06,4.69-1.09,1.82-.02,3.6.23,5.34.76,1.74.53,3.16,1.32,4.26,2.36,1.1,1.05,1.55,2.28,1.35,3.7.36-2.53,1.21-4.12,2.56-4.78,1.34-.66,2.59-.48,3.74.53,1.15,1.01,1.54,2.78,1.18,5.31.3-2.14,1.04-3.64,2.22-4.53,1.17-.88,2.41-1.23,3.72-1.04s2.38.86,3.22,2.03c.84,1.17,1.11,2.82.81,4.96.2-1.42.92-2.49,2.15-3.2,1.23-.71,2.68-1.09,4.34-1.14,1.66-.05,3.3.19,4.92.7,1.62.51,2.92,1.28,3.91,2.31.98,1.03,1.37,2.25,1.17,3.68,2.34.58,3.83,1.29,4.47,2.15.64.86.48,1.56-.48,2.11-.97.55-2.62.54-4.96-.04,2.02.53,3.42,1.5,4.19,2.9.77,1.4.96,2.86.59,4.38-.38,1.52-1.22,2.73-2.52,3.64-1.3.9-2.97,1.13-5,.68-.36,2.53-1.03,4.15-2.02,4.86-.99.71-1.86.58-2.61-.37-.75-.95-.95-2.7-.59-5.23-.34,2.37-1.18,3.89-2.52,4.54-1.35.66-2.59.48-3.74-.53-1.15-1.01-1.55-2.7-1.21-5.08-.17,1.19-.9,2.05-2.19,2.59-1.29.54-2.79.77-4.52.69-1.72-.08-3.4-.38-5.02-.9-1.62-.51-2.81-1.27-3.55-2.26.02.97-.19,1.87-.63,2.7-.44.83-1.06,1.5-1.86,2.03.86.77,1.52,1.65,1.98,2.64.46,1,.66,2.01.59,3.05.77-.86,1.81-1.38,3.13-1.55,1.32-.18,2.63-.09,3.96.26,1.32.35,2.4.97,3.25,1.85.84.89,1.17,1.96.99,3.23.25-1.74.89-2.98,1.92-3.72,1.03-.74,2.14-1.03,3.33-.86s2.17.75,2.96,1.75c.78,1,1.05,2.37.81,4.11,1.3-2.32,2.46-3.68,3.49-4.1,1.03-.42,1.64-.07,1.85,1.05.2,1.12-.34,2.84-1.64,5.15,2.19.47,3.68,1.49,4.47,3.06.79,1.56.97,3.21.57,4.92-.41,1.72-1.29,3.11-2.65,4.16-1.36,1.06-3.14,1.35-5.33.88-.17,1.19-.88,2.05-2.13,2.6-1.25.55-2.74.82-4.47.82-1.74,0-3.44-.25-5.1-.73-1.67-.48-3.02-1.16-4.07-2.03-1.05-.87-1.48-1.91-1.31-3.09-.23,1.58-.98,2.64-2.27,3.19-1.29.54-2.61.64-3.97.28-1.36-.35-2.32-1.14-2.87-2.35-.22.94-.63,1.73-1.25,2.36-.62.64-1.31,1.11-2.08,1.4.76.92,1.02,1.92.78,3.02.92.37,1.67,1.05,2.25,2.02.59.97.78,2.21.56,3.71.2-1.42,1.13-2.4,2.78-2.93,1.65-.53,3.46-.66,5.44-.38s3.68.91,5.12,1.88c1.43.97,2.05,2.17,1.85,3.59.35-2.45,1.17-3.99,2.47-4.61,1.3-.62,2.46-.45,3.5.5,1.03.95,1.38,2.66,1.03,5.11,1.33-1.42,2.7-1.96,4.1-1.6,1.4.36,2.35,1.22,2.84,2.58.49,1.36.07,2.76-1.26,4.18,1.57.87,2.45,2.09,2.63,3.64.18,1.56-.12,3.07-.89,4.53-.77,1.46-1.87,2.54-3.3,3.22-1.43.69-2.93.59-4.5-.28-.3,2.14-.99,3.67-2.05,4.61-1.06.94-2.19,1.32-3.37,1.15s-2.14-.85-2.86-2.04c-.72-1.19-.92-2.86-.62-4.99-.32,2.22-1.2,3.76-2.66,4.65-1.46.88-3.02,1.2-4.68.97s-3.07-.98-4.22-2.24c-1.15-1.25-1.57-2.99-1.26-5.2-.28,1.98-1.01,3.39-2.18,4.23-1.17.84-2.45,1.16-3.83.97s-2.52-.86-3.41-2c-.89-1.13-1.19-2.69-.91-4.67-.33,2.3-1.22,3.92-2.69,4.88-1.47.96-3.03,1.32-4.69,1.09s-3.06-1.02-4.2-2.35c-1.14-1.33-1.55-3.15-1.22-5.44-.28,1.98-1.1,3.29-2.44,3.95-1.35.66-2.76.53-4.25-.36-1.49-.9-2.64-2.72-3.46-5.46-.82-2.74-.85-6.52-.08-11.33Z"/>
      <path class="cls-3" d="M163.99,107.91c-2.82-.61-4.63-1.4-5.44-2.39-.81-.98-.65-1.77.48-2.36,1.13-.59,3.11-.58,5.92.03-2.07-.46-3.51-1.34-4.33-2.65-.81-1.3-1.06-2.66-.76-4.07.3-1.41,1.08-2.53,2.35-3.38,1.26-.84,2.97-1.04,5.12-.59-2.15-.45-3.6-1.55-4.35-3.31-.75-1.76-.93-3.61-.53-5.55.4-1.94,1.3-3.57,2.7-4.88,1.4-1.31,3.18-1.74,5.33-1.29-1.9-.4-3.17-1.35-3.81-2.84-.63-1.49-.78-3.1-.44-4.84.34-1.73,1.12-3.16,2.35-4.29,1.22-1.12,2.79-1.48,4.69-1.08-1.83-.41-3.03-1.49-3.61-3.22s-.66-3.62-.24-5.65c.42-2.03,1.25-3.72,2.49-5.09,1.23-1.37,2.76-1.84,4.59-1.43-1.37-.63-2.14-1.74-2.3-3.33-.16-1.59.13-3.26.87-5,.74-1.74,1.73-3.12,2.98-4.13,1.24-1,2.58-1.2,4.03-.58-.36-2.85-.13-4.79.71-5.83.83-1.03,1.76-1.15,2.79-.36,1.03.8,1.72,2.62,2.09,5.47-.21-1.66.21-3.07,1.27-4.21,1.06-1.14,2.46-1.99,4.21-2.53,1.74-.54,3.53-.77,5.35-.68,1.82.09,3.39.55,4.71,1.39,1.32.84,2.08,2.09,2.29,3.75,1.53-1.24,3.01-1.79,4.44-1.65,1.43.14,2.57.72,3.42,1.74.86,1.02,1.23,2.24,1.13,3.66-.1,1.42-.95,2.8-2.55,4.13,1.89-.97,3.64-.97,5.25,0,1.61.96,2.9,2.37,3.86,4.22.96,1.85,1.32,3.72,1.08,5.6-.24,1.88-1.27,3.3-3.08,4.26,2.41-1.28,4.31-1.54,5.7-.79,1.38.75,1.95,1.91,1.71,3.47-.24,1.56-1.58,2.94-4,4.14,2.12-1.07,3.73-1.4,4.83-.98,1.1.42,1.5,1.2,1.2,2.32-.3,1.13-1.55,2.23-3.74,3.32,2.28-1.1,4.01-1.38,5.21-.85,1.2.53,1.65,1.44,1.38,2.72-.28,1.29-1.55,2.51-3.82,3.69,1.37-.66,2.72-.65,4.05.03,1.33.68,2.54,1.75,3.61,3.22,1.07,1.48,1.88,3.08,2.43,4.82.54,1.74.69,3.35.44,4.84-.25,1.48-1.06,2.59-2.41,3.33,1.51-.76,2.95-.86,4.31-.31,1.36.55,2.57,1.51,3.63,2.86,1.06,1.36,1.81,2.85,2.26,4.48.45,1.63.48,3.16.1,4.58-.38,1.42-1.33,2.51-2.84,3.26.96,1.81,1.04,3.29.26,4.44-.78,1.15-1.86,1.69-3.24,1.62-1.38-.07-2.55-1-3.5-2.82.27,2.14,0,3.81-.81,5-.81,1.19-1.84,1.86-3.06,2.02s-2.39-.24-3.47-1.19c-1.09-.95-1.77-2.49-2.04-4.63-1.05,1.26-2.31,1.77-3.79,1.51-1.48-.25-2.84-.95-4.07-2.08-1.23-1.13-2.02-2.4-2.36-3.81-.71,1.38-1.63,2.2-2.77,2.47-1.13.27-2.16-.03-3.07-.88-.91-.85-1.41-2.24-1.5-4.16-.31,1.97-1.35,3.43-3.12,4.39-1.77.95-3.68,1.32-5.72,1.09-2.04-.22-3.6-1.07-4.67-2.54.41,1.96-.01,3.55-1.27,4.75-1.26,1.21-2.8,1.75-4.63,1.62-1.83-.13-3.37-1.32-4.62-3.58.91,1.42.99,2.87.26,4.38-.74,1.5-1.9,2.78-3.5,3.83-1.6,1.05-3.21,1.64-4.85,1.77-1.64.13-2.95-.51-3.93-1.91.35,2.78.1,4.7-.77,5.78-.87,1.08-1.88,1.21-3.03.39-1.15-.82-1.91-2.61-2.26-5.39.24,1.9.12,3.33-.36,4.28-.48.95-1.07,1.22-1.77.83-.7-.39-1.23-1.57-1.6-3.54-.37-1.96-.33-4.91.14-8.84ZM195.89,84.27c-.15-1.19.27-2.17,1.26-2.94.99-.77,2.19-1.29,3.61-1.55,1.42-.26,2.7-.26,3.86-.01-.17-.7-.09-1.46.25-2.27.34-.81.88-1.42,1.64-1.84-1.3-.08-2.32-.67-3.07-1.78-.75-1.11-1.06-2.3-.94-3.57.12-1.26.86-2.23,2.23-2.88-1.29.65-2.58.33-3.87-.96-1.29-1.29-2.21-2.78-2.75-4.48-.64.65-1.38,1.2-2.2,1.67-.83.47-1.61.67-2.34.6.98.76,1.47,1.89,1.46,3.38-.01,1.49-.43,2.81-1.25,3.97-.82,1.15-1.93,1.62-3.33,1.39,1.07.19,1.81.94,2.22,2.25.41,1.32.71,2.75.91,4.29s.44,2.82.73,3.83c.29,1.01.81,1.31,1.56.89Z"/>
      <path class="cls-1" d="M123.58,89.75c-1.46,2.17-2.95,3.29-4.47,3.37-1.52.08-2.59-.61-3.21-2.06-.62-1.46-.2-3.27,1.26-5.43-1.44,1.19-2.85,1.75-4.21,1.65-1.37-.09-2.46-.62-3.3-1.59-.84-.97-1.19-2.13-1.06-3.49.13-1.36.92-2.63,2.36-3.83-1.88.46-3.43.17-4.65-.87-1.23-1.04-2.07-2.42-2.52-4.13-.46-1.71-.4-3.32.17-4.84.57-1.52,1.75-2.52,3.55-3-2.23-.25-3.86-1-4.88-2.25-1.03-1.25-1.46-2.61-1.31-4.08.15-1.47.85-2.71,2.09-3.69,1.24-.99,2.97-1.35,5.2-1.1-1.88-.35-3.2-1.27-3.94-2.75-.74-1.48-.95-3.06-.64-4.75s1.08-3.09,2.31-4.2c1.22-1.11,2.78-1.49,4.66-1.14-1.21-.47-1.93-1.44-2.14-2.9-.22-1.46-.08-3.08.42-4.86.49-1.78,1.21-3.45,2.16-5.02.94-1.57,2.02-2.77,3.23-3.6s2.42-1.01,3.64-.54c-1.07-1.66-1.27-3.3-.6-4.93.67-1.62,1.81-2.93,3.42-3.93,1.61-1,3.27-1.44,5-1.32,1.72.12,3.12,1.01,4.19,2.67-.49-2.61-.37-4.46.36-5.54.73-1.08,1.66-1.28,2.79-.58,1.13.7,1.98,2.36,2.55,4.98-.18-2.55.33-4.28,1.52-5.2,1.19-.92,2.39-.97,3.63-.18,1.23.8,1.9,2.47,1.99,5,.3-2.06,1.16-3.52,2.59-4.39,1.42-.87,2.98-1.19,4.69-.95,1.7.24,3.13.95,4.29,2.14,1.16,1.19,1.59,2.82,1.29,4.87.62-2,1.47-3.4,2.55-4.22,1.08-.81,2.15-1.06,3.19-.75,1.04.31,1.8,1.11,2.3,2.38.49,1.27.43,2.94-.21,5.02.79-1.64,1.95-2.6,3.46-2.89,1.52-.28,2.98-.05,4.38.69,1.4.75,2.43,1.79,3.07,3.13.64,1.34.57,2.83-.22,4.47,1.38-1.29,2.92-1.69,4.61-1.21,1.7.48,3.2,1.45,4.52,2.91,1.31,1.46,2.11,3.06,2.4,4.78.29,1.72-.3,3.22-1.75,4.49,1.54.45,2.56,1.21,3.05,2.28.49,1.07.57,2.16.24,3.28-.33,1.12-.98,2.01-1.96,2.68s-2.2.79-3.66.35c-.21,1.1-.98,1.89-2.33,2.37-1.35.48-2.91.66-4.67.53-1.76-.13-3.51-.45-5.24-.98-1.73-.52-3.12-1.25-4.17-2.18-1.05-.93-1.47-1.94-1.26-3.04-.91,1.38-2.1,2.19-3.57,2.44-1.47.26-2.98.07-4.53-.54-1.55-.61-2.94-1.48-4.15-2.6-1.21-1.12-2.02-2.37-2.41-3.74-.78,1.16-1.89,1.96-3.32,2.43-1.43.47-2.79.5-4.1.09.36,1.53-.03,2.96-1.17,4.29-1.14,1.33-2.73,1.77-4.75,1.31,1.5.69,2.32,1.59,2.48,2.72.16,1.13-.23,2.09-1.15,2.89-.92.8-2.28,1-4.07.58,2.12.4,3.44,1.27,3.96,2.63.52,1.36.35,2.57-.49,3.63-.85,1.06-2.26,1.41-4.22,1.04,1.73.32,2.93,1.06,3.61,2.2.68,1.14.9,2.38.65,3.72s-.92,2.35-2.03,3.04c1.1.21,2,.74,2.69,1.6.69.86,1.06,1.82,1.11,2.89,1.41-1.04,2.99-1.43,4.73-1.19,1.74.25,3.15.99,4.21,2.25.08-.88.41-1.43.98-1.65.57-.22,1.25-.09,2.06.38l-.1-.14c-1.3-.89-2.13-2.19-2.51-3.88-.38-1.69.23-3.29,1.81-4.78-2.2-.41-3.58-1.19-4.13-2.36-.56-1.16-.37-2.16.56-3,.93-.84,2.49-1.06,4.69-.65-2.28-.43-3.71-1.14-4.29-2.14-.59-1-.43-1.87.48-2.59.91-.72,2.5-.88,4.78-.45.23-1.26.97-2.17,2.22-2.76,1.25-.58,2.72-.85,4.42-.82,1.7.03,3.35.32,4.96.86,1.61.54,2.88,1.31,3.84,2.3.95.99,1.31,2.12,1.08,3.37.43-1.46,1.51-2.34,3.23-2.63,1.72-.29,3.56-.15,5.53.42,1.97.57,3.59,1.44,4.88,2.62,1.28,1.17,1.71,2.49,1.27,3.96,2.28.42,3.92,1.22,4.92,2.38s1.39,2.35,1.16,3.57-1.02,2.19-2.37,2.91c-1.35.72-3.17.87-5.45.45,2.18.49,3.67,1.44,4.47,2.84.79,1.41,1.01,2.85.66,4.33-.36,1.48-1.22,2.62-2.59,3.42-1.37.8-3.14.92-5.31.35,1.33,1.14,1.85,2.58,1.57,4.32-.28,1.74-1.03,3.34-2.24,4.82-1.21,1.48-2.64,2.49-4.28,3.04-1.65.55-3.18.24-4.58-.92.73,2.17.7,3.99-.1,5.47-.8,1.48-2.01,2.51-3.63,3.1-1.62.59-3.22.6-4.82.02-1.6-.58-2.8-1.97-3.61-4.15.27,2.9-.11,4.86-1.16,5.88-1.04,1.03-2.18,1.1-3.39.22-1.22-.88-1.93-2.72-2.14-5.52-.22,2.48-1.58,3.97-4.07,4.48-2.49.51-5.76-.08-9.79-1.77-4.03-1.69-8.44-4.56-13.2-8.62Z"/>
      <path class="cls-3" d="M73.68,84.95c-2.88,0-4.79-.4-5.75-1.2-.96-.8-.96-1.58,0-2.34.96-.76,2.88-1.14,5.75-1.14-2.24,0-3.92-.52-5.03-1.56-1.12-1.04-1.68-2.22-1.68-3.54s.56-2.48,1.68-3.48c1.12-1,2.8-1.5,5.03-1.5-2.16,0-3.76-.44-4.79-1.32-1.04-.88-1.56-1.88-1.56-3s.52-2.12,1.56-3c1.04-.88,2.64-1.32,4.79-1.32-1.92,0-3.38-.6-4.37-1.8-1-1.2-1.5-2.59-1.5-4.19s.5-3,1.5-4.19c1-1.2,2.46-1.8,4.37-1.8-2.8,0-4.67-.56-5.63-1.68-.96-1.12-.96-2.24,0-3.36.96-1.12,2.83-1.68,5.63-1.68-2.4,0-4.18-.5-5.33-1.5-1.16-1-1.74-2.16-1.74-3.48s.58-2.48,1.74-3.48c1.16-1,2.94-1.5,5.33-1.5-1.36-.64-2.16-1.62-2.4-2.94-.24-1.32-.06-2.64.54-3.96s1.46-2.34,2.58-3.06c1.12-.72,2.36-.8,3.72-.24,0-1.92.6-3.33,1.8-4.25,1.2-.92,2.6-1.38,4.2-1.38s3,.46,4.19,1.38c1.2.92,1.8,2.34,1.8,4.25.88-1.2,1.88-1.86,3-1.98,1.12-.12,2.12.14,3,.78.88.64,1.46,1.52,1.74,2.64.28,1.12-.02,2.28-.9,3.48,2.08,0,3.66.7,4.73,2.1,1.08,1.4,1.62,3,1.62,4.79s-.54,3.4-1.62,4.79c-1.08,1.4-2.66,2.1-4.73,2.1,2,0,3.49.68,4.49,2.04,1,1.36,1.5,2.92,1.5,4.67s-.5,3.32-1.5,4.67c-1,1.36-2.5,2.04-4.49,2.04,2.71,0,4.51.4,5.39,1.2.88.8.88,1.6,0,2.4-.88.8-2.68,1.2-5.39,1.2,2.71,0,4.59.52,5.63,1.56,1.04,1.04,1.22,2.14.54,3.3-.68,1.16-2.18,1.9-4.49,2.22,2.16.08,3.81,1.08,4.97,3,1.16,1.92,1.66,3.88,1.5,5.87,1.6-.4,3.24-.44,4.91-.12,1.68.32,3.1,1.04,4.25,2.16,1.16,1.12,1.74,2.6,1.74,4.43,0-1.76.58-3.16,1.74-4.19,1.16-1.04,2.56-1.72,4.19-2.04,1.64-.32,3.3-.32,4.97,0,1.68.32,3.08,1,4.19,2.04,1.12,1.04,1.68,2.44,1.68,4.19,2.08-.16,3.67.16,4.79.96,1.12.8,1.72,1.78,1.8,2.94.08,1.16-.38,2.22-1.38,3.18-1,.96-2.54,1.48-4.61,1.56,1.28,1.2,1.86,2.52,1.74,3.96-.12,1.44-.7,2.74-1.74,3.89-1.04,1.16-2.28,1.88-3.71,2.16-1.44.28-2.8-.14-4.08-1.26,0,1.92-.68,3.34-2.04,4.25-1.36.92-2.92,1.38-4.67,1.38s-3.32-.46-4.67-1.38c-1.36-.92-2.04-2.34-2.04-4.25,0,2-.74,3.52-2.22,4.55-1.48,1.04-3.22,1.56-5.21,1.56s-3.74-.52-5.21-1.56c-1.48-1.04-2.22-2.56-2.22-4.55,0,2-.72,3.52-2.16,4.55-1.44,1.04-3.12,1.56-5.03,1.56s-3.6-.52-5.03-1.56c-1.44-1.04-2.16-2.56-2.16-4.55,0,2.4-.48,4.09-1.44,5.09-.96,1-2.06,1.06-3.3.18-1.24-.88-2.32-2.89-3.24-6.05-.92-3.16-1.34-7.73-1.26-13.72Z"/>
      <path class="cls-1" d="M16.72,105.28c-2.87-.3-4.76-.89-5.67-1.78-.91-.89-.84-1.69.23-2.4,1.06-.71,3.03-.91,5.89-.62-2.11-.23-3.64-.95-4.59-2.16-.95-1.21-1.35-2.53-1.2-3.96.15-1.43.8-2.64,1.96-3.62,1.16-.98,2.84-1.36,5.02-1.15-2.19-.21-3.75-1.15-4.68-2.82-.94-1.66-1.31-3.48-1.13-5.46.18-1.97.9-3.69,2.15-5.14,1.25-1.45,2.97-2.07,5.16-1.86-1.94-.19-3.3-.99-4.09-2.4-.79-1.41-1.11-3-.96-4.76.15-1.76.77-3.27,1.87-4.52,1.1-1.25,2.61-1.78,4.55-1.59-1.86-.21-3.17-1.15-3.94-2.81s-1.05-3.53-.85-5.59c.2-2.06.84-3.84,1.92-5.33,1.08-1.49,2.55-2.13,4.41-1.92-1.43-.48-2.31-1.5-2.65-3.06-.34-1.56-.23-3.25.32-5.07.55-1.82,1.38-3.29,2.51-4.42,1.12-1.13,2.44-1.47,3.95-1.01-.67-2.8-.65-4.75.07-5.87.72-1.12,1.63-1.34,2.74-.66,1.11.68,2,2.42,2.67,5.21-.39-1.63-.12-3.07.81-4.32.93-1.25,2.23-2.24,3.91-2.97,1.67-.73,3.42-1.15,5.24-1.26,1.82-.11,3.43.18,4.83.87,1.4.69,2.29,1.85,2.69,3.48,1.39-1.4,2.8-2.11,4.23-2.13,1.43-.02,2.63.44,3.59,1.35.96.92,1.47,2.09,1.52,3.52.05,1.43-.64,2.89-2.09,4.39,1.77-1.17,3.51-1.36,5.22-.58,1.71.78,3.14,2.04,4.3,3.77,1.16,1.74,1.72,3.55,1.68,5.45-.04,1.9-.9,3.42-2.6,4.57,2.26-1.53,4.12-2,5.58-1.4,1.46.59,2.15,1.68,2.08,3.26-.07,1.58-1.25,3.09-3.53,4.55,1.99-1.3,3.55-1.8,4.69-1.5,1.14.3,1.62,1.03,1.45,2.18-.18,1.15-1.3,2.39-3.36,3.71,2.14-1.34,3.84-1.81,5.08-1.41,1.25.4,1.8,1.25,1.66,2.56-.14,1.31-1.27,2.67-3.39,4.08,1.29-.8,2.63-.94,4.03-.41,1.4.53,2.71,1.46,3.94,2.81,1.23,1.35,2.21,2.86,2.94,4.53.73,1.67,1.05,3.26.96,4.76-.09,1.5-.77,2.69-2.04,3.57,1.42-.92,2.84-1.18,4.25-.78,1.41.4,2.72,1.22,3.92,2.45,1.2,1.23,2.11,2.63,2.74,4.21.63,1.58.82,3.09.6,4.54-.23,1.45-1.05,2.64-2.47,3.55,1.15,1.7,1.4,3.16.75,4.38-.65,1.23-1.66,1.88-3.04,1.96-1.38.08-2.64-.72-3.79-2.42.5,2.1.42,3.78-.26,5.06-.68,1.27-1.62,2.05-2.83,2.34s-2.4.02-3.58-.8c-1.18-.82-2.03-2.29-2.53-4.38-.9,1.37-2.11,2.01-3.61,1.92-1.5-.09-2.93-.63-4.27-1.62-1.35-.99-2.27-2.17-2.76-3.53-.56,1.45-1.38,2.37-2.48,2.75-1.1.39-2.15.21-3.15-.54-1-.75-1.65-2.07-1.94-3.97-.1,1.99-.97,3.56-2.63,4.7-1.66,1.14-3.51,1.71-5.57,1.71-2.06,0-3.7-.67-4.92-2.02.62,1.91.38,3.53-.74,4.86-1.12,1.34-2.59,2.04-4.42,2.11-1.83.07-3.49-.95-4.99-3.05,1.05,1.31,1.3,2.75.73,4.32-.57,1.57-1.59,2.97-3.06,4.19-1.47,1.22-3.02,1.98-4.63,2.28-1.61.31-2.98-.19-4.11-1.48.65,2.72.61,4.66-.14,5.83-.75,1.17-1.74,1.4-2.97.71-1.23-.69-2.18-2.39-2.83-5.11.45,1.86.49,3.29.11,4.29-.38.99-.93,1.33-1.67,1.02-.73-.32-1.39-1.43-1.98-3.35-.58-1.91-.86-4.85-.82-8.8ZM45.85,78.3c-.28-1.17.03-2.18.93-3.06.9-.87,2.04-1.52,3.42-1.93,1.38-.41,2.66-.56,3.84-.43-.25-.68-.24-1.44,0-2.28.25-.84.72-1.51,1.43-2.01-1.3.07-2.38-.41-3.24-1.44-.86-1.03-1.3-2.17-1.32-3.44-.02-1.27.62-2.31,1.9-3.11-1.21.78-2.53.61-3.95-.53-1.42-1.14-2.5-2.52-3.22-4.16-.57.71-1.24,1.35-2.01,1.9-.77.56-1.52.84-2.26.85,1.06.65,1.66,1.72,1.82,3.2.15,1.49-.12,2.84-.81,4.08-.69,1.23-1.74,1.82-3.15,1.75,1.08.07,1.9.73,2.45,2,.55,1.27,1.01,2.65,1.37,4.17s.75,2.76,1.14,3.73c.4.97.95,1.21,1.65.71Z"/>
      <path class="cls-3" d="M20.12,195.28c-2.81-.26-4.63-1.07-5.46-2.42-.83-1.35-.73-2.62.3-3.81,1.02-1.19,2.98-1.65,5.87-1.37-3.05-.32-5.01-1.12-5.9-2.4-.88-1.28-.79-2.47.3-3.56,1.08-1.1,3.16-1.52,6.22-1.28-2.25-.21-3.9-.95-4.95-2.23-1.05-1.28-1.49-2.7-1.32-4.26.17-1.56.88-2.89,2.13-3.99,1.25-1.1,3-1.54,5.25-1.33-2.33-.23-3.99-1.1-4.98-2.61-.99-1.51-1.42-3.17-1.27-4.99.15-1.81.86-3.35,2.15-4.6,1.29-1.25,3.06-1.81,5.33-1.68-2.83-.19-4.67-.89-5.53-2.12-.86-1.23-.75-2.36.32-3.37,1.06-1.02,3-1.4,5.82-1.13-1.94-.14-3.32-.8-4.15-1.98-.83-1.18-1.19-2.5-1.09-3.96.1-1.45.68-2.69,1.75-3.71,1.06-1.02,2.57-1.46,4.51-1.32-2.04-.08-3.53-.78-4.48-2.12-.95-1.34-1.4-2.84-1.32-4.51.07-1.67.64-3.11,1.72-4.33,1.07-1.22,2.63-1.79,4.66-1.72.56-2.33,1.59-3.91,3.11-4.74,1.51-.83,3.05-1.06,4.6-.69s2.79,1.29,3.72,2.74c.92,1.45,1.11,3.35.55,5.68,1.07-1.39,2.34-2.07,3.82-2.04,1.47.03,2.81.51,4.03,1.46,1.21.95,2.04,2.13,2.48,3.55.44,1.42.12,2.82-.95,4.21,2.48.27,4.08.88,4.8,1.83.72.95.61,1.81-.31,2.58-.92.77-2.63,1.02-5.11.75,2.64.3,4.33,1.14,5.07,2.51.74,1.37.6,2.63-.41,3.78-1.02,1.15-2.88,1.57-5.6,1.25,2.08.25,3.37,1.26,3.9,3.03.52,1.77.33,3.33-.56,4.67.64.07,1.22.21,1.75.42.71-.57,1.61-.91,2.71-1.02,1.09-.11,2.28.24,3.57,1.04-1.16-1.67-1.57-3.05-1.23-4.12.34-1.07,1.08-1.61,2.24-1.62,1.15-.01,2.31.82,3.47,2.5.66-1.4,1.72-2.2,3.16-2.39,1.44-.19,2.87.09,4.3.84,1.42.75,2.5,1.75,3.23,2.99.73,1.24.72,2.56-.02,3.94,1.51-.13,2.7.22,3.57,1.04.87.82,1.39,1.83,1.56,3.02.17,1.19-.03,2.25-.58,3.19.48.04,1,.12,1.54.25.27-1.82.85-3.64,1.73-5.44.88-1.8,1.92-3.24,3.13-4.3,1.2-1.07,2.44-1.37,3.73-.89-1.89-.7-3.14-1.63-3.76-2.81-.62-1.18-.75-2.29-.37-3.35.38-1.06,1.2-1.83,2.46-2.31,1.26-.48,2.84-.37,4.73.33-1.06-1.4-1.53-2.71-1.4-3.91.12-1.2.63-2.11,1.51-2.72.89-.61,1.92-.81,3.1-.61,1.18.2,2.3,1.01,3.37,2.41.61-2.56,1.54-4.13,2.79-4.69,1.24-.56,2.31-.31,3.21.77.89,1.08,1.03,2.9.42,5.46.44-2.19,1.3-3.73,2.59-4.62,1.28-.88,2.62-1.18,4.03-.88,1.41.3,2.53,1.1,3.37,2.41.84,1.31,1.03,3.06.59,5.26,2.33.89,3.67,2.01,4,3.36.33,1.35-.08,2.4-1.25,3.15-1.17.75-2.91.64-5.22-.33,2.02.81,3.37,1.79,4.04,2.94.67,1.15.8,2.23.4,3.24-.41,1.01-1.25,1.69-2.52,2.04-1.28.35-2.89.13-4.83-.66,1.71.74,2.87,1.65,3.47,2.74.6,1.09.7,2.14.29,3.15-.41,1.01-1.21,1.72-2.42,2.13-1.21.41-2.67.24-4.38-.49,1.71.74,2.7,2,2.97,3.79.27,1.79,0,3.66-.79,5.6-.8,1.95-1.9,3.49-3.33,4.62-1.42,1.14-2.99,1.34-4.7.6,1.71.74,2.8,1.78,3.26,3.12.46,1.34.42,2.69-.11,4.04-.53,1.35-1.43,2.37-2.7,3.05-1.27.68-2.77.69-4.51.03,2.02.81,3.32,2.01,3.89,3.58.57,1.57.54,3.13-.07,4.67-.61,1.54-1.67,2.68-3.16,3.43-1.5.75-3.25.72-5.28-.09,1.71.74,2.7,2,2.97,3.79.27,1.79.02,3.62-.76,5.49-.78,1.87-1.91,3.32-3.39,4.36-1.48,1.04-3.08,1.19-4.79.45-.41,2.04-1.2,3.45-2.37,4.24-1.17.79-2.41,1.06-3.71.84-1.3-.23-2.34-.95-3.12-2.16-.78-1.21-.97-2.8-.58-4.76-.73,3.03-1.68,4.96-2.86,5.78-1.18.83-2.12.6-2.8-.67-.68-1.27-.66-3.42.07-6.45-1.37.58-2.7.3-3.99-.83-1.29-1.13-2.33-2.63-3.11-4.5-.78-1.87-1.12-3.66-1-5.35.12-1.7.86-2.83,2.23-3.41-2.03.25-3.46-.03-4.3-.84-.83-.82-.98-1.75-.43-2.81.54-1.06,1.83-1.72,3.86-1.97-1.43.15-2.64-.4-3.61-1.67-.97-1.26-1.65-2.8-2.04-4.62-.57,1.67-1.49,3.32-2.79,4.94-1.29,1.62-2.67,2.83-4.14,3.63-1.47.8-2.76.82-3.89.05,1.74,1.32,2.68,2.8,2.82,4.43.14,1.64-.27,3.1-1.24,4.39-.97,1.29-2.25,2.11-3.86,2.46-1.61.36-3.28-.13-5.01-1.45-.41,1.71-1.31,2.91-2.71,3.6s-3.03.9-4.89.61c-1.86-.28-3.67-1.05-5.43-2.29-1.76-1.24-3.18-2.94-4.27-5.09-1.09-2.15-1.55-4.77-1.39-7.85ZM55.95,182.55c.21.13.42.31.62.52l-.62-.52Z"/>
    </g>
  </g>
</svg>