<?xml version="1.0" encoding="UTF-8"?>
<svg id="Layer_2" data-name="Layer 2" xmlns="http://www.w3.org/2000/svg" viewBox="0 0 550.17 611.75">
  <defs>
    <style>
      .cls-1 {
        fill: #4a4a4a;
      }

      .cls-2 {
        fill: #8f8f8f;
      }

      .cls-3 {
        fill: #a6a6a6;
      }

      .cls-4 {
        fill: #c0e3f9;
      }

      .cls-4, .cls-5 {
        opacity: .28;
      }

      .cls-5 {
        fill: #f0f9ff;
      }

      .cls-6 {
        fill: #3d3d3d;
      }
    </style>
  </defs>
  <g id="Assets">
    <g id="Mangifying_Glass" data-name="Mangifying Glass">
      <polygon class="cls-3" points="317.92 320.41 304.27 332 373.13 411.92 386.17 400.85 317.92 320.41"/>
      <polygon class="cls-2" points="294.28 340.47 362.53 420.91 373.13 411.92 304.27 332 294.28 340.47"/>
      <path class="cls-3" d="M194.69,24.01c94.26,0,170.68,76.42,170.68,170.68s-76.42,170.68-170.68,170.68S24.01,288.96,24.01,194.69,100.43,24.01,194.69,24.01M194.69,0c-26.27,0-51.77,5.15-75.79,15.31-23.19,9.81-44.01,23.84-61.88,41.71-17.87,17.87-31.91,38.69-41.71,61.88C5.15,142.92,0,168.42,0,194.69s5.15,51.77,15.31,75.79c9.81,23.19,23.84,44.01,41.71,61.88,17.87,17.87,38.69,31.91,61.88,41.71,24.02,10.16,49.52,15.31,75.79,15.31s51.77-5.15,75.79-15.31c23.19-9.81,44.01-23.84,61.88-41.71,17.87-17.87,31.91-38.69,41.71-61.88,10.16-24.02,15.31-49.52,15.31-75.79s-5.15-51.77-15.31-75.79c-9.81-23.19-23.84-44.01-41.71-61.88-17.87-17.87-38.69-31.91-61.88-41.71C246.46,5.15,220.96,0,194.69,0h0Z"/>
      <path class="cls-5" d="M360.34,235.88c3.27-13.19,5.03-26.98,5.03-41.19,0-94.26-76.42-170.68-170.68-170.68-79.5,0-146.31,54.36-165.28,127.93,109.51,4.68,212.47,54.22,321.77,81.55,3.05.83,6.1,1.62,9.15,2.39Z"/>
      <path class="cls-4" d="M351.19,233.49c-109.31-27.33-212.26-76.86-321.77-81.55-3.52,13.66-5.4,27.99-5.4,42.75,0,94.26,76.42,170.68,170.68,170.68,80.06,0,147.22-55.13,165.65-129.49-3.05-.76-6.1-1.56-9.15-2.39Z"/>
      <path class="cls-1" d="M545.74,587.6c5.28-4.48,5.93-12.4,1.45-17.68l-176.88-208.48c-2.17-2.56-15.39,6.57-26.84,16.51l187.4,222.26,14.87-12.61Z"/>
      <path class="cls-6" d="M343.48,377.95c-10.32,8.96-19.2,18.58-17.25,20.89l176.88,208.48c4.48,5.28,12.4,5.93,17.68,1.45l10.08-8.56-187.4-222.26Z"/>
    </g>
  </g>
</svg>