<?xml version="1.0" encoding="UTF-8"?>
<svg id="Layer_2" data-name="Layer 2" xmlns="http://www.w3.org/2000/svg" viewBox="0 0 381.04 341.28">
  <defs>
    <style>
      .cls-1 {
        fill: #fff;
      }

      .cls-2 {
        fill: #48c400;
        stroke: #209929;
      }

      .cls-2, .cls-3, .cls-4, .cls-5 {
        stroke-linecap: round;
        stroke-linejoin: round;
        stroke-width: 5px;
      }

      .cls-3 {
        fill: none;
      }

      .cls-3, .cls-4 {
        stroke: #4fcf5e;
      }

      .cls-4, .cls-6 {
        fill: #8cef73;
      }

      .cls-5 {
        fill: #323333;
        stroke: #221f1f;
      }

      .cls-6 {
        opacity: .5;
      }
    </style>
  </defs>
  <g id="Playbtn_clicked" data-name="Playbtn clicked">
    <g>
      <path class="cls-4" d="M214.76,251.97c2.29,1,3.93,2.7,4.17,5.94"/>
      <path class="cls-4" d="M234.56,265.58c2.87.72,4.81,6.11,2.2,7.73"/>
      <path class="cls-4" d="M233.76,263.18s70.33-13.44,83.67-37.67c13.33-24.22-5.67-70.78-.44-93.78s61.56-85.11,61.56-85.11c0,0-48,65.24-53.11,86.51-5.11,21.27,21.33,66.57,6.67,99.09-14.67,32.53-96.12,44.37-96.12,44.37-11.38.67-13.71-10.25-2.21-13.42Z"/>
      <path class="cls-4" d="M213.05,249.13c7.24-3.71,64.46-31.18,71.08-58.02,6.61-26.85-23.78-66.9-24.68-90.47S296.89,2.5,296.89,2.5c0,0-29.49,75.43-28.93,97.3.56,21.87,37.82,58.78,32.07,94-5.75,35.21-81.37,67.72-81.37,67.72-11.54,4.23-12.84-8.68-5.61-12.39Z"/>
      <path class="cls-6" d="M73.7,321.58c-34.53-5.54-51.72,6.12-67.36-34.44-8.31-27.65,11.62-52.58,29.88-75.79s41.83-68.07,78.38-103.09,79.88-44.34,91.42-32.35c11.54,11.99,23.35,39.87,37.35,77.6,14,37.73,1.67,68.69,3.67,73.44s36,51.62,31.67,67.95c-10,40.33-63.98,47.67-105.49,42.33-41.51-5.33-64.98-10.13-99.51-15.67Z"/>
      <path class="cls-4" d="M132.94,318.45s35.59-4.91,42.4-9.39c6.81-4.48,20.74-25.18,20.74-25.18,0,0-6.28,27.67-16.86,33.51s-46.27,1.05-46.27,1.05Z"/>
      <path class="cls-4" d="M114.81,293.38s-12.47,13.35-20.25,11.81-14.78-2.93-15.67-10.26c-.9-7.33-5.63-2.15-10.6-7.16s4.9-20.34,10.11-21.5,9.42,5.66,13.8,5.73,3.84-14.58,18.67-14.07,14.37,11.96,14.8,19.81-10.85,15.63-10.85,15.63Z"/>
      <path class="cls-4" d="M138.53,294.78c-4.17-7.46,6.72-13.26,9.68-20.5,2.96-7.24,16.42-.33,20.42-3,4-2.67,1.61-8.25,8.76-8.25s9.05,9.23,7.15,15.79-14.16,6.93-16.41,10.03,3.67,3.09,1.81,7.94c-4.19,7.33-15.8.64-18.76,0s-8.47,5.45-12.64-2.01Z"/>
      <path class="cls-4" d="M224.58,177.92c.5-3.67-7-9.17,5.17-8.67s3.89,9.74,3.22,13.17,6.28,9-7.56,9.83c-13.83.83-1.33-10.67-.83-14.33Z"/>
      <path class="cls-4" d="M147.61,120.4c5.17-7.5,21.17-33.5,39-38.67,17.83-5.17,12.58,10.33,20.04,21.67,7.46,11.33,11.79,49.67,11.79,49.67,0,0,6.03,10.9-24.57,11.5s-47.1-33.17-47.1-33.17c0,0-4.33-3.5.83-11Z"/>
      <ellipse class="cls-2" cx="139.84" cy="216.66" rx="39.13" ry="45.66" transform="translate(-54.62 47.3) rotate(-16.11)"/>
      <path class="cls-6" d="M73.7,321.58c-34.53-5.54-51.72,6.12-67.36-34.44-8.31-27.65,11.62-52.58,29.88-75.79s41.83-68.07,78.38-103.09,79.88-44.34,91.42-32.35c11.54,11.99,23.35,39.87,37.35,77.6,14,37.73,1.67,68.69,3.67,73.44s36,51.62,31.67,67.95c-10,40.33-63.98,47.67-105.49,42.33-41.51-5.33-64.98-10.13-99.51-15.67Z"/>
      <path class="cls-3" d="M71.8,321.58c-34.53-5.54-51.72,6.12-67.36-34.44-8.31-27.65,11.62-52.58,29.88-75.79s41.83-68.07,78.38-103.09,79.88-44.34,91.42-32.35c11.54,11.99,23.35,39.87,37.35,77.6,14,37.73,1.67,68.69,3.67,73.44s36,51.62,31.67,67.95c-10,40.33-63.98,47.67-105.49,42.33-41.51-5.33-64.98-10.13-99.51-15.67Z"/>
      <path class="cls-3" d="M121.54,223.28s1.88,6.57,8.19,6.55,5.9-.99,8.23-1.82,2.24,2.91,9.05,2.91,11.15-5.22,11.15-5.22"/>
      <ellipse class="cls-5" cx="106.04" cy="187.65" rx="9.67" ry="20.07" transform="translate(-12.61 7.71) rotate(-3.93)"/>
      <ellipse class="cls-5" cx="177.96" cy="192.3" rx="20.07" ry="9.67" transform="translate(-50.5 320.57) rotate(-76.53)"/>
      <circle class="cls-1" cx="105.4" cy="178.35" r="4.56"/>
      <circle class="cls-1" cx="180.21" cy="182.9" r="4.56"/>
    </g>
  </g>
</svg>