<?xml version="1.0" encoding="UTF-8"?>
<svg id="Layer_2" data-name="Layer 2" xmlns="http://www.w3.org/2000/svg" viewBox="0 0 540.75 589.95">
  <defs>
    <style>
      .cls-1 {
        opacity: .28;
      }

      .cls-1, .cls-2 {
        fill: #1076be;
      }

      .cls-3 {
        fill: #dcdddf;
      }
    </style>
  </defs>
  <g id="Assets">
    <g id="Net">
      <rect class="cls-3" x="389.95" y="340.17" width="26" height="192.69" transform="translate(-188.02 376.01) rotate(-41.44)"/>
      <path class="cls-1" d="M334.74,189.46c-.24,10.92-4.88,20.92-13.07,28.15l-125.88,111.15c-8.17,7.21-18.64,10.59-29.49,9.49-10.85-1.1-20.43-6.49-27-15.2L22.48,168.15c-14.66-19.44-11.85-47.29,6.4-63.41L119.59,24.65c18.2-16.07,46.14-15.45,63.61,1.39l139.71,134.72c7.86,7.58,12.06,17.77,11.82,28.7Z"/>
      <path class="cls-2" d="M332.8,150.85L194.11,17.11c-22.9-22.08-59.52-22.88-83.37-1.83L20.69,94.79c-23.92,21.12-27.61,57.63-8.39,83.11l115.98,153.77c8.92,11.82,22.48,19.45,37.21,20.94,14.73,1.49,29.55-3.28,40.64-13.08l21.1-18.63c33.54-8.2,61.89,14.05,70.81,24.15l32.48,36.78c1.92,2.17,5.24,2.38,7.41.46l19.27-17.02c2.17-1.92,2.38-5.24.46-7.41l-32.48-36.78c-23.35-26.45-15.96-59.66-7.91-79.69l13.81-12.2c11.12-9.82,17.69-23.96,18.01-38.79.33-14.83-5.61-29.25-16.29-39.55ZM334.19,190.07c-.24,10.84-4.85,20.76-12.97,27.94l-124.96,110.34c-8.11,7.16-18.51,10.51-29.28,9.42-10.77-1.09-20.29-6.44-26.8-15.08L24.2,168.92c-14.56-19.3-11.76-46.95,6.36-62.95L120.6,26.46c18.06-15.95,45.8-15.34,63.15,1.38l138.7,133.74c7.81,7.53,11.98,17.65,11.74,28.49Z"/>
      <path class="cls-2" d="M455.87,524.65l51.8,58.66c6.8,7.71,18.67,8.99,26.5,2.33,7.98-6.79,8.8-18.77,1.9-26.58l-52.21-59.13c-1.74-1.97-4.74-2.15-6.71-.42l-20.87,18.43c-1.97,1.74-2.15,4.74-.42,6.71ZM529.79,580.16c-4.12,3.64-9.41,4.39-11.81,1.67s-1-7.87,3.12-11.51c4.12-3.64,9.41-4.39,11.81-1.67,2.4,2.72,1,7.87-3.12,11.51Z"/>
    </g>
  </g>
</svg>