<?xml version="1.0" encoding="UTF-8"?>
<svg id="Layer_2" data-name="Layer 2" xmlns="http://www.w3.org/2000/svg" viewBox="0 0 100 108.76">
  <defs>
    <style>
      .cls-1 {
        stroke-width: 2.5px;
      }

      .cls-1, .cls-2 {
        fill: none;
        stroke: #4fcf5e;
        stroke-miterlimit: 10;
      }

      .cls-2 {
        stroke-width: 3.48px;
      }

      .cls-3 {
        fill: #4fcf5e;
      }

      .cls-4 {
        fill: #8cef73;
      }
    </style>
  </defs>
  <g id="Net_default" data-name="Net default">
    <g>
      <rect class="cls-3" x="0" y="8.76" width="100" height="100" rx="23.14" ry="23.14"/>
      <rect class="cls-4" x="0" y="0" width="100" height="100" rx="23.14" ry="23.14"/>
      <polyline class="cls-3" points="96.28 70.55 75.4 60.33 79.26 52.53 96.31 60.96"/>
      <rect class="cls-3" x="39.82" y="5.1" width="11.26" height="71.13" transform="translate(-11.15 63.38) rotate(-63.69)"/>
      <path class="cls-2" d="M73.17,55.69c-9.96,20.14-30.67,30.21-46.27,22.49S6.73,47.9,16.68,27.76"/>
      <g>
        <line class="cls-1" x1="13.73" y1="36.59" x2="28.35" y2="79.81"/>
        <line class="cls-1" x1="21.79" y1="30.2" x2="39.01" y2="81.11"/>
        <line class="cls-1" x1="32.04" y1="30.27" x2="48.18" y2="78.01"/>
        <line class="cls-1" x1="44.43" y1="36.7" x2="57.36" y2="74.9"/>
        <line class="cls-1" x1="56.59" y1="42.41" x2="65.2" y2="67.89"/>
        <line class="cls-1" x1="36.94" y1="33" x2="11.2" y2="41.71"/>
        <line class="cls-1" x1="50.18" y1="38.74" x2="11.02" y2="51.99"/>
        <line class="cls-1" x1="61.85" y1="45.02" x2="14.12" y2="61.16"/>
        <line class="cls-1" x1="68.13" y1="53.11" x2="17.22" y2="70.34"/>
        <line class="cls-1" x1="68.89" y1="63.08" x2="24.72" y2="78.02"/>
      </g>
    </g>
  </g>
</svg>