<?xml version="1.0" encoding="UTF-8"?>
<svg id="Layer_2" data-name="Layer 2" xmlns="http://www.w3.org/2000/svg" viewBox="0 0 208.98 71.63">
  <defs>
    <style>
      .cls-1 {
        fill: #f9ff58;
      }

      .cls-2 {
        fill: #f2dd42;
      }
    </style>
  </defs>
  <g id="Play">
    <g>
      <path class="cls-2" d="M0,71.63V0h20.79c7.76,0,13.25.54,16.45,1.62,3.21,1.08,5.93,3.62,8.17,7.63,2.24,4.01,3.36,8.87,3.36,14.6,0,7.1-1.57,12.96-4.72,17.58-3.15,4.62-7.1,6.92-11.85,6.92-3.32,0-6.87-2.08-10.66-6.24v29.53H0ZM21.92,15.49h-.38v15.58h.28l1.17.09c1.81,0,3.23-.71,4.25-2.14,1.02-1.42,1.53-3.43,1.53-6.03,0-2.82-.49-4.77-1.48-5.87-.99-1.1-2.78-1.64-5.37-1.64Z"/>
      <path class="cls-1" d="M95.01,71.63h-40.51V0h21.55v53.65h18.96v17.98Z"/>
      <path class="cls-2" d="M120.26,59.43l-2.77,12.2h-21.83L113.08,0h30.75l16.52,71.63h-21.59l-2.82-12.2h-15.68ZM124.11,42.62h7.98l-3.94-17.51-4.04,17.51Z"/>
      <path class="cls-1" d="M190.44,40.37v31.26h-21.55v-31.26L150.35,0h21.83l7.51,16.24,7.51-16.24h21.78l-18.54,40.37Z"/>
    </g>
  </g>
</svg>