<?xml version="1.0" encoding="UTF-8"?>
<svg id="Layer_2" data-name="Layer 2" xmlns="http://www.w3.org/2000/svg" viewBox="0 0 483 318.74">
  <defs>
    <style>
      .cls-1 {
        fill: #221f1f;
      }

      .cls-2 {
        fill: #fff;
      }
    </style>
  </defs>
  <g id="Layer_12" data-name="Layer 12">
    <g>
      <path class="cls-2" d="M227.41,248.29c-.33-1.34-1.53-2.29-2.91-2.29h-100C57.5,246,3,191.5,3,124.5S57.5,3,124.5,3h234c67,0,121.5,54.5,121.5,121.5s-54.5,121.5-121.5,121.5h-100c-1.38,0-2.59.95-2.91,2.29l-14.09,57.79-14.09-57.79Z"/>
      <path class="cls-1" d="M358.5,6c31.51,0,61.24,12.36,83.69,34.81,22.45,22.45,34.81,52.17,34.81,83.69s-12.36,61.23-34.81,83.69-52.17,34.81-83.69,34.81h-100c-2.77,0-5.17,1.89-5.83,4.58l-11.17,45.83-11.17-45.83c-.66-2.69-3.06-4.58-5.83-4.58h-100c-31.51,0-61.24-12.36-83.69-34.81C18.36,185.73,6,156.01,6,124.5s12.36-61.23,34.81-83.69S92.99,6,124.5,6h234M358.5,0H124.5C56.02,0,0,56.02,0,124.5h0c0,68.48,56.02,124.5,124.5,124.5h100l17,69.74,17-69.74h100c68.48,0,124.5-56.02,124.5-124.5h0C483,56.02,426.98,0,358.5,0h0Z"/>
    </g>
  </g>
</svg>