<?xml version="1.0" encoding="UTF-8"?>
<svg id="Layer_2" data-name="Layer 2" xmlns="http://www.w3.org/2000/svg" xmlns:xlink="http://www.w3.org/1999/xlink" viewBox="0 0 572.42 105.9">
  <defs>
    <style>
      .cls-1 {
        fill: url(#linear-gradient);
      }
    </style>
    <linearGradient id="linear-gradient" x1="286.21" y1="0" x2="286.21" y2="105.9" gradientUnits="userSpaceOnUse">
      <stop offset="0" stop-color="#86c75f"/>
      <stop offset="1" stop-color="#4ab04e"/>
    </linearGradient>
  </defs>
  <g id="Assets">
    <g id="Carpet_Algae" data-name="Carpet Algae">
      <path class="cls-1" d="M116.47,15.99c-3.86,1.57-7.71,3.14-11.57,4.71,6.99,2.03,13.99,4.06,20.98,6.09-34.43,7.83-73.86,4.7-111,7.38-7.2.52-16.44,2.83-14.66,6.56.9,1.89,4.47,3.03,7.83,3.83,40,9.57,86.97-.66,130.42,2.72,5.98.47,12.46,1.39,15.88,4.02,3.42,2.63.94,7.27-5.11,7.36,3.12,4.53,19.16,1.98,23.21,6.3,3.61,3.85-6.55,7.13-14.51,8.04-26.18,3.01-52.79,4.96-79.53,5.83-17.77.58-37.53,1.1-49.97,7.83,5.91,8.77,28.54,9.46,46.07,8.55,75.99-3.91,151.98-7.82,227.96-11.73,4.18-.22,8.97-.62,11.15-2.52,3.63-3.16-3.55-6.93-10.4-7.67-6.85-.74-14.61-.22-20.22-2.43,26.94.31,53.87.61,80.81.92,5.5.06,11.26.16,16.02,1.61,4.76,1.45,8.02,4.72,5.61,7.33-2.39,2.59-8.63,3.24-13.65,4.38-5.02,1.14-9.8,4.4-6.36,6.64,1.54,1,4.15,1.31,6.55,1.55,62.59,6.27,125.91,10.46,189.49,12.56,4.15.14,9.49-.14,10.71-2.24,1.5-2.57-4.79-4.35-9.74-4.96-17.31-2.12-34.81-3.84-52.41-5.14,21.14-.4,31.58-3.34,26.31-8.81-22.38-6.43-46.35-10.95-76.03-8.55-7.75.63-17.65-3.55-15.3-7.53,34.52-9.63,79.72-6.2,110.56-18.83,6.63-2.71,12.46-7.91,6.92-11.23-1.95-1.17-4.85-1.73-7.65-2.23-83.71-14.86-174.74-7.63-262.99-5.91-7.83.15-18.9-1.7-16.91-5.7,2.65-5.34,24.72-2.98,24.01-8.49-15.23-4.3-38.62-2.58-64.86,1.37,19.03-2.53,35-6.45,27-11.98C183.79-.67,122.71-.57,50.9.66c5.61,6.58,10.41,7.26,24.03,6.7s30.19-.65,37.46,5.47l4.08,3.16Z"/>
    </g>
  </g>
</svg>