<?xml version="1.0" encoding="UTF-8"?>
<svg id="Layer_2" data-name="Layer 2" xmlns="http://www.w3.org/2000/svg" xmlns:xlink="http://www.w3.org/1999/xlink" viewBox="0 0 320.81 87.42">
  <defs>
    <style>
      .cls-1 {
        fill: url(#linear-gradient);
      }
    </style>
    <linearGradient id="linear-gradient" x1="160.41" y1="0" x2="160.41" y2="87.42" gradientUnits="userSpaceOnUse">
      <stop offset="0" stop-color="#c76260"/>
      <stop offset="1" stop-color="#a85351"/>
    </linearGradient>
  </defs>
  <g id="Assets">
    <path id="Dinoflagellates" class="cls-1" d="M320.81,7.98C300.21,2.14,277.26-.59,254.57.11c-17.62.54-34.9,3.09-52.4,4.47-25.73,2.02-51.79,1.47-77.7.76-3.87-.11-7.88-.2-11.49.67-3.6.87-6.71,2.99-6.41,5.35.49,3.88,8.55,5.26,14.9,5.64-32.02,3.91-64.85,5.33-97.45,4.24-9.16-.31-21.07.27-23.61,5.65-2.1,4.44,4.31,8.61,10.57,11.21,15.16,6.28,33.23,9.91,51.54,10.35,3.54.08,7.21.07,10.43.97,3.22.9,5.83,3.05,4.97,5.14-10.16.23-20.3.87-30.32,1.93-3.09.33-6.75,1.01-7.51,2.86-.55,1.33.72,2.67,2.02,3.78,9.52,8.18,24.13,14.09,40.19,16.25,5.03.68,10.54.96,15.12-.47,4.58-1.44,7.55-5.13,5-7.86-9.31-.54-18.63-1.08-27.94-1.62-3.24-.19-6.71-.43-9.15-1.74-2.45-1.3-3.01-4.07-.25-5.12,11.5,1.86,23.31,1.05,35.18-.25.67,1.36,1.68,2.62,2.94,3.64,3.53,2.86,8.44,4.26,13.17,5.58,3.85,1.07,7.7,2.14,11.55,3.21.98.27,2.01.57,2.7,1.19,1.34,1.21.89,3.09,1.36,4.67,1.08,3.61,6.53,4.91,11.1,5.43,20.99,2.38,42.51,1.69,63.2-2.01-4.34-1.17-8.69-2.33-13.03-3.5-1.77-.48-3.97-1.75-3.04-3.06.52-.72,1.7-.85,2.73-.91,6.72-.38,13.43-.75,20.15-1.13-20.95-2.83-41.74-6.47-62.26-10.88-.74-.16-1.53-.34-2.05-.79-1.38-1.19.13-2.99,2.05-3.72,8.18,1.21,15.81,3.62,24.09,4.57,8.25.95,16.74.39,25.07-.2,3.36-.24,7.81-2.26,5.28-3.63-2.99-.33-5.68-1.56-7.02-3.23,8.97-.46,17.94-.92,26.9-1.38,3.78-.19,8.89-1.52,7.68-3.71-24.95-3.88-50.06-7.35-75.31-10.43,3.67-2.23,7.89-4.12,12.46-5.6-11.78-4.4-30.25,1.68-39.58-4.53,14.32-3.85,30.17-5.55,45.78-4.91-2.36-1.78-.96-4.62,1.95-6.07.55-.27,1.15-.5,1.76-.71,9.66,2.76,25.01.58,35.71,1.34,12.35.88,30.11,1.08,41.37,5.54-8.49-3.36-24.55-9.14-40.23-11.9,14.7-1.91,29.68-3.62,43.67-3.33,10.99.23,37.97,12.97,44.57,3.54-5.88-.18-11.65-1.38-15.9-3.97,10.32-1.86,20.99-3.02,31.73-3.45Z"/>
  </g>
</svg>